<svg id="SvgjsSvg1073" width="559" height="826" xmlns="http://www.w3.org/2000/svg" version="1.1" xmlns:xlink="http://www.w3.org/1999/xlink" xmlns:svgjs="http://svgjs.com/svgjs"><defs id="SvgjsDefs1074"><pattern patternUnits="userSpaceOnUse" id="pattern_mark_0" width="300" height="300"><text x="150" y="100" fill="rgba(229,229,229,0.8)" font-size="18" transform="rotate(-45, 150, 150)" style="dominant-baseline: middle; text-anchor: middle;"></text></pattern><pattern patternUnits="userSpaceOnUse" id="pattern_mark_1" width="300" height="300"><text x="150" y="200" fill="rgba(229,229,229,0.8)" font-size="18" transform="rotate(-45, 150, 150)" style="dominant-baseline: middle; text-anchor: middle;"></text></pattern></defs><rect id="svgbackgroundid" width="559" height="826" fill="transparent"></rect><rect id="SvgjsRect1076" width="559" height="826" fill="url(#pattern_mark_0)"></rect><rect id="SvgjsRect1077" width="559" height="826" fill="url(#pattern_mark_1)"></rect><g id="SvgjsG1078" transform="translate(25,25)"><path id="SvgjsPath1079" d="M 0 4Q 0 0 4 0L 505 0Q 509 0 509 4L 509 772Q 509 776 505 776L 4 776Q 0 776 0 772Z" stroke="rgba(33,41,48,1)" stroke-width="1.5" fill-opacity="1" fill="#ffffff"></path><g id="SvgjsG1080"><text id="SvgjsText1081" font-family="微软雅黑" text-anchor="middle" font-size="13px" width="489px" fill="#323232" font-weight="400" align="middle" lineHeight="125%" anchor="middle" family="微软雅黑" size="13px" weight="400" font-style="" opacity="1" y="377.375" transform="rotate(0)"></text></g></g><g id="SvgjsG1082" transform="translate(35,31)"><path id="SvgjsPath1083" d="M 0 0L 64 0L 64 28L 0 28Z" stroke="none" fill="none"></path><g id="SvgjsG1084"><text id="SvgjsText1085" font-family="微软雅黑" text-anchor="middle" font-size="18px" width="64px" fill="#323232" font-weight="400" align="middle" lineHeight="125%" anchor="middle" family="微软雅黑" size="18px" weight="400" font-style="" opacity="1" y="-1.75" transform="rotate(0)"><tspan id="SvgjsTspan1086" dy="22" x="32"><tspan id="SvgjsTspan1087" style="text-decoration:;">JSRE</tspan></tspan></text></g></g><g id="SvgjsG1088" transform="translate(93,62)"><path id="SvgjsPath1089" d="M 0 4Q 0 0 4 0L 361 0Q 365 0 365 4L 365 704Q 365 708 361 708L 4 708Q 0 708 0 704Z" stroke="rgba(166,174,243,1)" stroke-width="1.5" fill-opacity="1" fill="#ffffff"></path><g id="SvgjsG1090"><text id="SvgjsText1091" font-family="微软雅黑" text-anchor="middle" font-size="13px" width="345px" fill="#323232" font-weight="400" align="middle" lineHeight="125%" anchor="middle" family="微软雅黑" size="13px" weight="400" font-style="" opacity="1" y="343.375" transform="rotate(0)"></text></g></g><g id="SvgjsG1092" transform="translate(100.5,68)"><path id="SvgjsPath1093" d="M 0 0L 64 0L 64 28L 0 28Z" stroke="none" fill="none"></path><g id="SvgjsG1094"><text id="SvgjsText1095" font-family="微软雅黑" text-anchor="middle" font-size="18px" width="64px" fill="#323232" font-weight="400" align="middle" lineHeight="125%" anchor="middle" family="微软雅黑" size="18px" weight="400" font-style="" opacity="1" y="-1.75" transform="rotate(0)"><tspan id="SvgjsTspan1096" dy="22" x="32"><tspan id="SvgjsTspan1097" style="text-decoration:;">goja</tspan></tspan></text></g></g><g id="SvgjsG1098" transform="translate(145,209)"><path id="SvgjsPath1099" d="M 0 4Q 0 0 4 0L 92 0Q 96 0 96 4L 96 29Q 96 33 92 33L 4 33Q 0 33 0 29Z" stroke="rgba(166,174,243,1)" stroke-width="1.5" fill-opacity="1" fill="#a6aef3"></path><g id="SvgjsG1100"><text id="SvgjsText1101" font-family="微软雅黑" text-anchor="middle" font-size="15px" width="76px" fill="#323232" font-weight="400" align="middle" lineHeight="125%" anchor="middle" family="微软雅黑" size="15px" weight="400" font-style="" opacity="1" y="4.125" transform="rotate(0)"><tspan id="SvgjsTspan1102" dy="18" x="48"><tspan id="SvgjsTspan1103" style="text-decoration:;">loadScript</tspan></tspan></text></g></g><g id="SvgjsG1104" transform="translate(273,208)"><path id="SvgjsPath1105" d="M 0 4Q 0 0 4 0L 82 0Q 86 0 86 4L 86 31Q 86 35 82 35L 4 35Q 0 35 0 31Z" stroke="rgba(166,174,243,1)" stroke-width="1.5" fill-opacity="1" fill="#a6aef3"></path><g id="SvgjsG1106"><text id="SvgjsText1107" font-family="微软雅黑" text-anchor="middle" font-size="15px" width="66px" fill="#323232" font-weight="400" align="middle" lineHeight="125%" anchor="middle" family="微软雅黑" size="15px" weight="400" font-style="" opacity="1" y="5.125" transform="rotate(0)"><tspan id="SvgjsTspan1108" dy="18" x="43"><tspan id="SvgjsTspan1109" style="text-decoration:;">inspect</tspan></tspan></text></g></g><g id="SvgjsG1110" transform="translate(140.5,113)"><path id="SvgjsPath1111" d="M 0 4Q 0 0 4 0L 101 0Q 105 0 105 4L 105 30Q 105 34 101 34L 4 34Q 0 34 0 30Z" stroke="rgba(166,174,243,1)" stroke-width="1.5" fill-opacity="1" fill="#a6aef3"></path><g id="SvgjsG1112"><text id="SvgjsText1113" font-family="微软雅黑" text-anchor="middle" font-size="15px" width="85px" fill="#323232" font-weight="400" align="middle" lineHeight="125%" anchor="middle" family="微软雅黑" size="15px" weight="400" font-style="" opacity="1" y="4.625" transform="rotate(0)"><tspan id="SvgjsTspan1114" dy="18" x="52.5"><tspan id="SvgjsTspan1115" style="text-decoration:;">setTimeout</tspan></tspan></text></g></g><g id="SvgjsG1116" transform="translate(140.5,157)"><path id="SvgjsPath1117" d="M 0 4Q 0 0 4 0L 101 0Q 105 0 105 4L 105 30Q 105 34 101 34L 4 34Q 0 34 0 30Z" stroke="rgba(166,174,243,1)" stroke-width="1.5" fill-opacity="1" fill="#a6aef3"></path><g id="SvgjsG1118"><text id="SvgjsText1119" font-family="微软雅黑" text-anchor="middle" font-size="15px" width="85px" fill="#323232" font-weight="400" align="middle" lineHeight="125%" anchor="middle" family="微软雅黑" size="15px" weight="400" font-style="" opacity="1" y="4.625" transform="rotate(0)"><tspan id="SvgjsTspan1120" dy="18" x="52.5"><tspan id="SvgjsTspan1121" style="text-decoration:;">setInterval</tspan></tspan></text></g></g><g id="SvgjsG1122" transform="translate(273,155.5)"><path id="SvgjsPath1123" d="M 0 4Q 0 0 4 0L 105 0Q 109 0 109 4L 109 33Q 109 37 105 37L 4 37Q 0 37 0 33Z" stroke="rgba(166,174,243,1)" stroke-width="1.5" fill-opacity="1" fill="#a6aef3"></path><g id="SvgjsG1124"><text id="SvgjsText1125" font-family="微软雅黑" text-anchor="middle" font-size="15px" width="89px" fill="#323232" font-weight="400" align="middle" lineHeight="125%" anchor="middle" family="微软雅黑" size="15px" weight="400" font-style="" opacity="1" y="6.125" transform="rotate(0)"><tspan id="SvgjsTspan1126" dy="18" x="54.5"><tspan id="SvgjsTspan1127" style="text-decoration:;">clearInterval</tspan></tspan></text></g></g><g id="SvgjsG1128" transform="translate(266,114.5)"><path id="SvgjsPath1129" d="M 0 4Q 0 0 4 0L 119 0Q 123 0 123 4L 123 27Q 123 31 119 31L 4 31Q 0 31 0 27Z" stroke="rgba(166,174,243,1)" stroke-width="1.5" fill-opacity="1" fill="#a6aef3"></path><g id="SvgjsG1130"><text id="SvgjsText1131" font-family="微软雅黑" text-anchor="middle" font-size="15px" width="103px" fill="#323232" font-weight="400" align="middle" lineHeight="125%" anchor="middle" family="微软雅黑" size="15px" weight="400" font-style="" opacity="1" y="3.125" transform="rotate(0)"><tspan id="SvgjsTspan1132" dy="18" x="61.5"><tspan id="SvgjsTspan1133" style="text-decoration:;fill: rgb(50, 50, 50);">clearTimeout</tspan></tspan></text></g></g><g id="SvgjsG1134"><path id="SvgjsPath1135" d="M128 266L410 266" stroke="#e74f4c" stroke-width="1.5" fill="none"></path></g><g id="SvgjsG1136" transform="translate(133,279)"><path id="SvgjsPath1137" d="M 0 4Q 0 0 4 0L 92 0Q 96 0 96 4L 96 29Q 96 33 92 33L 4 33Q 0 33 0 29Z" stroke="rgba(166,174,243,1)" stroke-width="1.5" fill-opacity="1" fill="#a6aef3"></path><g id="SvgjsG1138"><text id="SvgjsText1139" font-family="微软雅黑" text-anchor="middle" font-size="15px" width="76px" fill="#323232" font-weight="400" align="middle" lineHeight="125%" anchor="middle" family="微软雅黑" size="15px" weight="400" font-style="" opacity="1" y="4.125" transform="rotate(0)"><tspan id="SvgjsTspan1140" dy="18" x="48"><tspan id="SvgjsTspan1141" style="text-decoration:;">console</tspan></tspan></text></g></g><g id="SvgjsG1142" transform="translate(265.25,279)"><path id="SvgjsPath1143" d="M 0 4Q 0 0 4 0L 97.5 0Q 101.5 0 101.5 4L 101.5 29Q 101.5 33 97.5 33L 4 33Q 0 33 0 29Z" stroke="rgba(166,174,243,1)" stroke-width="1.5" fill-opacity="1" fill="#a6aef3"></path><g id="SvgjsG1144"><text id="SvgjsText1145" font-family="微软雅黑" text-anchor="middle" font-size="15px" width="82px" fill="#323232" font-weight="400" align="middle" lineHeight="125%" anchor="middle" family="微软雅黑" size="15px" weight="400" font-style="" opacity="1" y="4.125" transform="rotate(0)"><tspan id="SvgjsTspan1146" dy="18" x="51"><tspan id="SvgjsTspan1147" style="text-decoration:;">BigNumber</tspan></tspan></text></g></g><g id="SvgjsG1148" transform="translate(133,332)"><path id="SvgjsPath1149" d="M 0 4Q 0 0 4 0L 97.5 0Q 101.5 0 101.5 4L 101.5 29Q 101.5 33 97.5 33L 4 33Q 0 33 0 29Z" stroke="rgba(166,174,243,1)" stroke-width="1.5" fill-opacity="1" fill="#a6aef3"></path><g id="SvgjsG1150"><text id="SvgjsText1151" font-family="微软雅黑" text-anchor="middle" font-size="15px" width="82px" fill="#323232" font-weight="400" align="middle" lineHeight="125%" anchor="middle" family="微软雅黑" size="15px" weight="400" font-style="" opacity="1" y="4.125" transform="rotate(0)"><tspan id="SvgjsTspan1152" dy="18" x="51"><tspan id="SvgjsTspan1153" style="text-decoration:;">Web3库</tspan></tspan></text></g></g><g id="SvgjsG1154" transform="translate(142.25,522)"><path id="SvgjsPath1155" d="M 0 4Q 0 0 4 0L 97.5 0Q 101.5 0 101.5 4L 101.5 29Q 101.5 33 97.5 33L 4 33Q 0 33 0 29Z" stroke="rgba(166,174,243,1)" stroke-width="1.5" fill-opacity="1" fill="#a6aef3"></path><g id="SvgjsG1156"><text id="SvgjsText1157" font-family="微软雅黑" text-anchor="middle" font-size="15px" width="82px" fill="#323232" font-weight="400" align="middle" lineHeight="125%" anchor="middle" family="微软雅黑" size="15px" weight="400" font-style="" opacity="1" y="4.125" transform="rotate(0)"><tspan id="SvgjsTspan1158" dy="18" x="51"><tspan id="SvgjsTspan1159" style="text-decoration:;">web3实例</tspan></tspan></text></g></g><g id="SvgjsG1160" transform="translate(254.25,345)"><path id="SvgjsPath1161" d="M 29 0Q 26.1 0 26.1 9L 26.1 184.5Q 26.1 193.5 7 193.5Q 26.1 193.5 26.1 202.5L 26.1 378Q 26.1 387 29 387" stroke="rgba(33,41,48,1)" stroke-width="1.5" fill="none"></path><path id="SvgjsPath1162" d="M 0 0L 29 0L 29 387L 0 387Z" stroke="none" fill="none"></path><g id="SvgjsG1163"><text id="SvgjsText1164" font-family="微软雅黑" text-anchor="end" font-size="13px" width="2px" fill="#323232" font-weight="400" align="middle" lineHeight="125%" anchor="end" family="微软雅黑" size="13px" weight="400" font-style="" opacity="1" y="182.875" transform="rotate(0)"></text></g></g><g id="SvgjsG1165" transform="translate(299.25,328)"><path id="SvgjsPath1166" d="M 0 4Q 0 0 4 0L 97.5 0Q 101.5 0 101.5 4L 101.5 29Q 101.5 33 97.5 33L 4 33Q 0 33 0 29Z" stroke="rgba(166,174,243,1)" stroke-width="1.5" fill-opacity="1" fill="#a6aef3"></path><g id="SvgjsG1167"><text id="SvgjsText1168" font-family="微软雅黑" text-anchor="middle" font-size="15px" width="82px" fill="#323232" font-weight="400" align="middle" lineHeight="125%" anchor="middle" family="微软雅黑" size="15px" weight="400" font-style="" opacity="1" y="4.125" transform="rotate(0)"><tspan id="SvgjsTspan1169" dy="18" x="51"><tspan id="SvgjsTspan1170" style="text-decoration:;">admin</tspan></tspan></text></g></g><g id="SvgjsG1171" transform="translate(299.25,380)"><path id="SvgjsPath1172" d="M 0 4Q 0 0 4 0L 97.5 0Q 101.5 0 101.5 4L 101.5 29Q 101.5 33 97.5 33L 4 33Q 0 33 0 29Z" stroke="rgba(166,174,243,1)" stroke-width="1.5" fill-opacity="1" fill="#a6aef3"></path><g id="SvgjsG1173"><text id="SvgjsText1174" font-family="微软雅黑" text-anchor="middle" font-size="15px" width="82px" fill="#323232" font-weight="400" align="middle" lineHeight="125%" anchor="middle" family="微软雅黑" size="15px" weight="400" font-style="" opacity="1" y="4.125" transform="rotate(0)"><tspan id="SvgjsTspan1175" dy="18" x="51"><tspan id="SvgjsTspan1176" style="text-decoration:;">debug</tspan></tspan></text></g></g><g id="SvgjsG1177" transform="translate(299.25,431)"><path id="SvgjsPath1178" d="M 0 4Q 0 0 4 0L 97.5 0Q 101.5 0 101.5 4L 101.5 29Q 101.5 33 97.5 33L 4 33Q 0 33 0 29Z" stroke="rgba(166,174,243,1)" stroke-width="1.5" fill-opacity="1" fill="#a6aef3"></path><g id="SvgjsG1179"><text id="SvgjsText1180" font-family="微软雅黑" text-anchor="middle" font-size="15px" width="82px" fill="#323232" font-weight="400" align="middle" lineHeight="125%" anchor="middle" family="微软雅黑" size="15px" weight="400" font-style="" opacity="1" y="4.125" transform="rotate(0)"><tspan id="SvgjsTspan1181" dy="18" x="51"><tspan id="SvgjsTspan1182" style="text-decoration:;">eth</tspan></tspan></text></g></g><g id="SvgjsG1183" transform="translate(299.25,482)"><path id="SvgjsPath1184" d="M 0 4Q 0 0 4 0L 97.5 0Q 101.5 0 101.5 4L 101.5 29Q 101.5 33 97.5 33L 4 33Q 0 33 0 29Z" stroke="rgba(166,174,243,1)" stroke-width="1.5" fill-opacity="1" fill="#a6aef3"></path><g id="SvgjsG1185"><text id="SvgjsText1186" font-family="微软雅黑" text-anchor="middle" font-size="15px" width="82px" fill="#323232" font-weight="400" align="middle" lineHeight="125%" anchor="middle" family="微软雅黑" size="15px" weight="400" font-style="" opacity="1" y="4.125" transform="rotate(0)"><tspan id="SvgjsTspan1187" dy="18" x="51"><tspan id="SvgjsTspan1188" style="text-decoration:;">ethash</tspan></tspan></text></g></g><g id="SvgjsG1189" transform="translate(299.25,525)"><path id="SvgjsPath1190" d="M 0 4Q 0 0 4 0L 97.5 0Q 101.5 0 101.5 4L 101.5 29Q 101.5 33 97.5 33L 4 33Q 0 33 0 29Z" stroke="rgba(166,174,243,1)" stroke-width="1.5" fill-opacity="1" fill="#a6aef3"></path><g id="SvgjsG1191"><text id="SvgjsText1192" font-family="微软雅黑" text-anchor="middle" font-size="15px" width="82px" fill="#323232" font-weight="400" align="middle" lineHeight="125%" anchor="middle" family="微软雅黑" size="15px" weight="400" font-style="" opacity="1" y="4.125" transform="rotate(0)"><tspan id="SvgjsTspan1193" dy="18" x="51"><tspan id="SvgjsTspan1194" style="text-decoration:;">miner</tspan></tspan></text></g></g><g id="SvgjsG1195" transform="translate(299.25,568)"><path id="SvgjsPath1196" d="M 0 4Q 0 0 4 0L 97.5 0Q 101.5 0 101.5 4L 101.5 29Q 101.5 33 97.5 33L 4 33Q 0 33 0 29Z" stroke="rgba(166,174,243,1)" stroke-width="1.5" fill-opacity="1" fill="#a6aef3"></path><g id="SvgjsG1197"><text id="SvgjsText1198" font-family="微软雅黑" text-anchor="middle" font-size="15px" width="82px" fill="#323232" font-weight="400" align="middle" lineHeight="125%" anchor="middle" family="微软雅黑" size="15px" weight="400" font-style="" opacity="1" y="4.125" transform="rotate(0)"><tspan id="SvgjsTspan1199" dy="18" x="51"><tspan id="SvgjsTspan1200" style="text-decoration:;">net</tspan></tspan></text></g></g><g id="SvgjsG1201" transform="translate(295.25,615)"><path id="SvgjsPath1202" d="M 0 4Q 0 0 4 0L 97.5 0Q 101.5 0 101.5 4L 101.5 29Q 101.5 33 97.5 33L 4 33Q 0 33 0 29Z" stroke="rgba(166,174,243,1)" stroke-width="1.5" fill-opacity="1" fill="#a6aef3"></path><g id="SvgjsG1203"><text id="SvgjsText1204" font-family="微软雅黑" text-anchor="middle" font-size="15px" width="82px" fill="#323232" font-weight="400" align="middle" lineHeight="125%" anchor="middle" family="微软雅黑" size="15px" weight="400" font-style="" opacity="1" y="4.125" transform="rotate(0)"><tspan id="SvgjsTspan1205" dy="18" x="51"><tspan id="SvgjsTspan1206" style="text-decoration:;">personal</tspan></tspan></text></g></g><g id="SvgjsG1207" transform="translate(295.25,662)"><path id="SvgjsPath1208" d="M 0 4Q 0 0 4 0L 97.5 0Q 101.5 0 101.5 4L 101.5 29Q 101.5 33 97.5 33L 4 33Q 0 33 0 29Z" stroke="rgba(166,174,243,1)" stroke-width="1.5" fill-opacity="1" fill="#a6aef3"></path><g id="SvgjsG1209"><text id="SvgjsText1210" font-family="微软雅黑" text-anchor="middle" font-size="15px" width="82px" fill="#323232" font-weight="400" align="middle" lineHeight="125%" anchor="middle" family="微软雅黑" size="15px" weight="400" font-style="" opacity="1" y="4.125" transform="rotate(0)"><tspan id="SvgjsTspan1211" dy="18" x="51"><tspan id="SvgjsTspan1212" style="text-decoration:;">rpc</tspan></tspan></text></g></g><g id="SvgjsG1213" transform="translate(295.25,705)"><path id="SvgjsPath1214" d="M 0 4Q 0 0 4 0L 97.5 0Q 101.5 0 101.5 4L 101.5 29Q 101.5 33 97.5 33L 4 33Q 0 33 0 29Z" stroke="rgba(166,174,243,1)" stroke-width="1.5" fill-opacity="1" fill="#a6aef3"></path><g id="SvgjsG1215"><text id="SvgjsText1216" font-family="微软雅黑" text-anchor="middle" font-size="15px" width="82px" fill="#323232" font-weight="400" align="middle" lineHeight="125%" anchor="middle" family="微软雅黑" size="15px" weight="400" font-style="" opacity="1" y="4.125" transform="rotate(0)"><tspan id="SvgjsTspan1217" dy="18" x="51"><tspan id="SvgjsTspan1218" style="text-decoration:;">txpool</tspan></tspan></text></g></g></svg>