<svg id="SvgjsSvg1006" width="1841.640625" height="772" xmlns="http://www.w3.org/2000/svg" version="1.1" xmlns:xlink="http://www.w3.org/1999/xlink" xmlns:svgjs="http://svgjs.com/svgjs"><defs id="SvgjsDefs1007"><pattern patternUnits="userSpaceOnUse" id="pattern_mark_0" width="300" height="300"><text x="150" y="100" fill="rgba(229,229,229,0.8)" font-size="18" transform="rotate(-45, 150, 150)" style="dominant-baseline: middle; text-anchor: middle;"></text></pattern><pattern patternUnits="userSpaceOnUse" id="pattern_mark_1" width="300" height="300"><text x="150" y="200" fill="rgba(229,229,229,0.8)" font-size="18" transform="rotate(-45, 150, 150)" style="dominant-baseline: middle; text-anchor: middle;"></text></pattern><marker id="SvgjsMarker1133" markerWidth="16" markerHeight="16" refX="13" refY="8" viewBox="0 0 16 16" orient="auto" markerUnits="userSpaceOnUse" stroke-dasharray="0,0"><circle id="SvgjsCircle1134" r="4" cx="8" cy="8" fill="#323232" stroke="#323232" stroke-width="1.5"></circle></marker><marker id="SvgjsMarker1249" markerWidth="13" markerHeight="9" refX="9.5" refY="4.5" viewBox="0 0 13 9" orient="auto" markerUnits="userSpaceOnUse" stroke-dasharray="0,0"><path id="SvgjsPath1250" d="M0,0 L13,4.5 L0,9 L0,0" fill="#323232" stroke="#323232" stroke-width="1"></path></marker><marker id="SvgjsMarker1321" markerWidth="16" markerHeight="16" refX="13" refY="8" viewBox="0 0 16 16" orient="auto" markerUnits="userSpaceOnUse" stroke-dasharray="0,0"><circle id="SvgjsCircle1322" r="4" cx="8" cy="8" fill="#323232" stroke="#323232" stroke-width="1.5"></circle></marker><marker id="SvgjsMarker1363" markerWidth="13" markerHeight="9" refX="9.5" refY="4.5" viewBox="0 0 13 9" orient="auto" markerUnits="userSpaceOnUse" stroke-dasharray="0,0"><path id="SvgjsPath1364" d="M0,0 L13,4.5 L0,9 L0,0" fill="#323232" stroke="#323232" stroke-width="1"></path></marker></defs><rect id="svgbackgroundid" width="1841.640625" height="772" fill="transparent"></rect><rect id="SvgjsRect1009" width="1841.640625" height="772" fill="url(#pattern_mark_0)"></rect><rect id="SvgjsRect1010" width="1841.640625" height="772" fill="url(#pattern_mark_1)"></rect><g id="SvgjsG1011" transform="translate(925.6479591836735,25.006058673469454)"><path id="SvgjsPath1012" d="M 0 4Q 0 0 4 0L 887 0Q 891 0 891 4L 891 718.0408163265306Q 891 722.0408163265306 887 722.0408163265306L 4 722.0408163265306Q 0 722.0408163265306 0 718.0408163265306Z" stroke-dasharray="10,6" stroke="rgba(231,79,76,1)" stroke-width="1.5" fill-opacity="1" fill="#ffffff"></path><g id="SvgjsG1013"><text id="SvgjsText1014" font-family="微软雅黑" text-anchor="middle" font-size="13px" width="871px" fill="#323232" font-weight="400" align="middle" lineHeight="125%" anchor="middle" family="微软雅黑" size="13px" weight="400" font-style="" opacity="1" y="350.3954081632653" transform="rotate(0)"></text></g></g><g id="SvgjsG1015" transform="translate(25,25.006058673469454)"><path id="SvgjsPath1016" d="M 0 4Q 0 0 4 0L 887 0Q 891 0 891 4L 891 718.0408163265306Q 891 722.0408163265306 887 722.0408163265306L 4 722.0408163265306Q 0 722.0408163265306 0 718.0408163265306Z" stroke-dasharray="10,6" stroke="rgba(241,172,106,1)" stroke-width="1.5" fill-opacity="1" fill="#ffffff"></path><g id="SvgjsG1017"><text id="SvgjsText1018" font-family="微软雅黑" text-anchor="middle" font-size="13px" width="871px" fill="#323232" font-weight="400" align="middle" lineHeight="125%" anchor="middle" family="微软雅黑" size="13px" weight="400" font-style="" opacity="1" y="350.3954081632653" transform="rotate(0)"></text></g></g><g id="SvgjsG1019" transform="translate(84,133.16932397959192)"><path id="SvgjsPath1020" d="M 0 4Q 0 0 4 0L 369 0Q 373 0 373 4L 373 394.8775510204081Q 373 398.8775510204081 369 398.8775510204081L 4 398.8775510204081Q 0 398.8775510204081 0 394.8775510204081Z" stroke="rgba(33,41,48,1)" stroke-width="1.5" fill-opacity="1" fill="#ffffff"></path><g id="SvgjsG1021"><text id="SvgjsText1022" font-family="微软雅黑" text-anchor="middle" font-size="13px" width="353px" fill="#323232" font-weight="400" align="middle" lineHeight="125%" anchor="middle" family="微软雅黑" size="13px" weight="400" font-style="" opacity="1" y="188.81377551020404" transform="rotate(0)"></text></g></g><g id="SvgjsG1023" transform="translate(212.59183673469386,104.046875)"><path id="SvgjsPath1024" d="M 0 4Q 0 0 4 0L 95.0204081632653 0Q 99.0204081632653 0 99.0204081632653 4L 99.0204081632653 26.612244897959158Q 99.0204081632653 30.612244897959158 95.0204081632653 30.612244897959158L 4 30.612244897959158Q 0 30.612244897959158 0 26.612244897959158Z" stroke="rgba(33,41,48,1)" stroke-width="1.5" fill-opacity="1" fill="#ffffff"></path><g id="SvgjsG1025"><text id="SvgjsText1026" font-family="微软雅黑" text-anchor="middle" font-size="15px" width="80px" fill="#323232" font-weight="400" align="middle" lineHeight="125%" anchor="middle" family="微软雅黑" size="15px" weight="400" font-style="" opacity="1" y="2.931122448979579" transform="rotate(0)"><tspan id="SvgjsTspan1027" dy="18" x="50"><tspan id="SvgjsTspan1028" style="text-decoration:;">Client</tspan></tspan></text></g></g><g id="SvgjsG1029" transform="translate(170.34693877551035,133.23054846938783)"><path id="SvgjsPath1030" d="M 0 4Q 0 0 4 0L 178.0612244897959 0Q 182.0612244897959 0 182.0612244897959 4L 182.0612244897959 32.12244897959192Q 182.0612244897959 36.12244897959192 178.0612244897959 36.12244897959192L 4 36.12244897959192Q 0 36.12244897959192 0 32.12244897959192Z" stroke-dasharray="10,6,3,6" stroke="rgba(33,41,48,1)" stroke-width="1.5" fill-opacity="1" fill="#ffffff"></path><g id="SvgjsG1031"><text id="SvgjsText1032" font-family="微软雅黑" text-anchor="middle" font-size="15px" width="163px" fill="#323232" font-weight="400" align="middle" lineHeight="125%" anchor="middle" family="微软雅黑" size="15px" weight="400" font-style="" opacity="1" y="5.686224489795961" transform="rotate(0)"><tspan id="SvgjsTspan1033" dy="18" x="91.5"><tspan id="SvgjsTspan1034" style="text-decoration:;fill: rgb(50, 50, 50);">eth/backend.go</tspan></tspan></text></g></g><g id="SvgjsG1035" transform="translate(112.79591836734699,173.35299744897975)"><path id="SvgjsPath1036" d="M 0 0L 105.20408163265301 0L 105.20408163265301 36.69387755102025L 0 36.69387755102025Z" stroke="none" fill="none"></path><g id="SvgjsG1037"><text id="SvgjsText1038" font-family="微软雅黑" text-anchor="start" font-size="16px" width="106px" fill="#323232" font-weight="400" align="middle" lineHeight="125%" anchor="start" family="微软雅黑" size="16px" weight="400" font-style="" opacity="1" y="4.346938775510125" transform="rotate(0)"><tspan id="SvgjsTspan1039" dy="20" x="0"><tspan id="SvgjsTspan1040" style="text-decoration:;">isHTTP: false</tspan></tspan></text></g></g><g id="SvgjsG1041" transform="translate(112.79591836734699,209.35299744897975)"><path id="SvgjsPath1042" d="M 0 0L 105.20408163265301 0L 105.20408163265301 36.69387755102025L 0 36.69387755102025Z" stroke="none" fill="none"></path><g id="SvgjsG1043"><text id="SvgjsText1044" font-family="微软雅黑" text-anchor="start" font-size="16px" width="106px" fill="#323232" font-weight="400" align="middle" lineHeight="125%" anchor="start" family="微软雅黑" size="16px" weight="400" font-style="" opacity="1" y="4.346938775510125" transform="rotate(0)"><tspan id="SvgjsTspan1045" dy="20" x="0"><tspan id="SvgjsTspan1046" style="text-decoration:;">idgen</tspan></tspan></text></g></g><g id="SvgjsG1047" transform="translate(112.79591836734699,233.35299744897975)"><path id="SvgjsPath1048" d="M 0 0L 163.20408163265301 0L 163.20408163265301 38.69387755102025L 0 38.69387755102025Z" stroke="none" fill="none"></path><g id="SvgjsG1049"><text id="SvgjsText1050" font-family="微软雅黑" text-anchor="start" font-size="16px" width="164px" fill="#323232" font-weight="400" align="middle" lineHeight="125%" anchor="start" family="微软雅黑" size="16px" weight="400" font-style="" opacity="1" y="5.346938775510125" transform="rotate(0)"><tspan id="SvgjsTspan1051" dy="20" x="0"><tspan id="SvgjsTspan1052" style="text-decoration:;">services: new空的</tspan></tspan></text></g></g><g id="SvgjsG1053" transform="translate(112.79591836734699,264.35299744897975)"><path id="SvgjsPath1054" d="M 0 0L 105.20408163265301 0L 105.20408163265301 36.69387755102025L 0 36.69387755102025Z" stroke="none" fill="none"></path><g id="SvgjsG1055"><text id="SvgjsText1056" font-family="微软雅黑" text-anchor="start" font-size="16px" width="106px" fill="#323232" font-weight="400" align="middle" lineHeight="125%" anchor="start" family="微软雅黑" size="16px" weight="400" font-style="" opacity="1" y="4.346938775510125" transform="rotate(0)"><tspan id="SvgjsTspan1057" dy="20" x="0"><tspan id="SvgjsTspan1058" style="text-decoration:;">writeConn</tspan></tspan></text></g></g><g id="SvgjsG1059" transform="translate(112.79591836734699,293.35299744897975)"><path id="SvgjsPath1060" d="M 0 0L 300.204081632653 0L 300.204081632653 193.69387755102025L 0 193.69387755102025Z" stroke="none" fill="none"></path><g id="SvgjsG1061"><text id="SvgjsText1062" font-family="微软雅黑" text-anchor="start" font-size="16px" width="301px" fill="#323232" font-weight="400" align="middle" lineHeight="125%" anchor="start" family="微软雅黑" size="16px" weight="400" font-style="" opacity="1" y="2.846938775510125" transform="rotate(0)"><tspan id="SvgjsTspan1063" dy="20" x="0"><tspan id="SvgjsTspan1064" style="text-decoration:;">close:       make(chan struct{}),</tspan></tspan><tspan id="SvgjsTspan1065" dy="20" x="0"><tspan id="SvgjsTspan1066" style="text-decoration:;">closing:     make(chan struct{}),</tspan></tspan><tspan id="SvgjsTspan1067" dy="20" x="0"><tspan id="SvgjsTspan1068" style="text-decoration:;">didClose:    make(chan struct{}),</tspan></tspan><tspan id="SvgjsTspan1069" dy="20" x="0"><tspan id="SvgjsTspan1070" style="text-decoration:;">reconnected: make(chan ServerCodec),</tspan></tspan><tspan id="SvgjsTspan1071" dy="20" x="0"><tspan id="SvgjsTspan1072" style="text-decoration:;">readOp:      make(chan readOp),</tspan></tspan><tspan id="SvgjsTspan1073" dy="20" x="0"><tspan id="SvgjsTspan1074" style="text-decoration:;">readErr:     make(chan error),</tspan></tspan><tspan id="SvgjsTspan1075" dy="20" x="0"><tspan id="SvgjsTspan1076" style="text-decoration:;">reqInit:     make(chan *requestOp),</tspan></tspan><tspan id="SvgjsTspan1077" dy="20" x="0"><tspan id="SvgjsTspan1078" style="text-decoration:;">reqSent:     make(chan error, 1),</tspan></tspan><tspan id="SvgjsTspan1079" dy="20" x="0"><tspan id="SvgjsTspan1080" style="text-decoration:;">reqTimeout:  make(chan *requestOp),</tspan></tspan></text></g></g><g id="SvgjsG1081" transform="translate(503,144.12850765306138)"><path id="SvgjsPath1082" d="M 0 4Q 0 0 4 0L 343.795918367347 0Q 347.795918367347 0 347.795918367347 4L 347.795918367347 240.26530612244892Q 347.795918367347 244.26530612244892 343.795918367347 244.26530612244892L 4 244.26530612244892Q 0 244.26530612244892 0 240.26530612244892Z" stroke="rgba(33,41,48,1)" stroke-width="1.5" fill-opacity="1" fill="#ffffff"></path><g id="SvgjsG1083"><text id="SvgjsText1084" font-family="微软雅黑" text-anchor="middle" font-size="13px" width="328px" fill="#323232" font-weight="400" align="middle" lineHeight="125%" anchor="middle" family="微软雅黑" size="13px" weight="400" font-style="" opacity="1" y="111.50765306122446" transform="rotate(0)"></text></g></g><g id="SvgjsG1085" transform="translate(631.5918367346939,115.00605867346945)"><path id="SvgjsPath1086" d="M 0 4Q 0 0 4 0L 95.0204081632653 0Q 99.0204081632653 0 99.0204081632653 4L 99.0204081632653 26.612244897959158Q 99.0204081632653 30.612244897959158 95.0204081632653 30.612244897959158L 4 30.612244897959158Q 0 30.612244897959158 0 26.612244897959158Z" stroke="rgba(33,41,48,1)" stroke-width="1.5" fill-opacity="1" fill="#ffffff"></path><g id="SvgjsG1087"><text id="SvgjsText1088" font-family="微软雅黑" text-anchor="middle" font-size="15px" width="80px" fill="#323232" font-weight="400" align="middle" lineHeight="125%" anchor="middle" family="微软雅黑" size="15px" weight="400" font-style="" opacity="1" y="2.931122448979579" transform="rotate(0)"><tspan id="SvgjsTspan1089" dy="18" x="50"><tspan id="SvgjsTspan1090" style="text-decoration:;">jsonCodec</tspan></tspan></text></g></g><g id="SvgjsG1091" transform="translate(589.3469387755104,144.18973214285728)"><path id="SvgjsPath1092" d="M 0 4Q 0 0 4 0L 178.0612244897959 0Q 182.0612244897959 0 182.0612244897959 4L 182.0612244897959 32.12244897959192Q 182.0612244897959 36.12244897959192 178.0612244897959 36.12244897959192L 4 36.12244897959192Q 0 36.12244897959192 0 32.12244897959192Z" stroke-dasharray="10,6,3,6" stroke="rgba(33,41,48,1)" stroke-width="1.5" fill-opacity="1" fill="#ffffff"></path><g id="SvgjsG1093"><text id="SvgjsText1094" font-family="微软雅黑" text-anchor="middle" font-size="15px" width="163px" fill="#323232" font-weight="400" align="middle" lineHeight="125%" anchor="middle" family="微软雅黑" size="15px" weight="400" font-style="" opacity="1" y="5.686224489795961" transform="rotate(0)"><tspan id="SvgjsTspan1095" dy="18" x="91.5"><tspan id="SvgjsTspan1096" style="text-decoration:;fill: rgb(50, 50, 50);">rpc/json.go</tspan></tspan></text></g></g><g id="SvgjsG1097" transform="translate(531.795918367347,184.3121811224492)"><path id="SvgjsPath1098" d="M 0 0L 138.20408163265301 0L 138.20408163265301 32.38775510204084L 0 32.38775510204084Z" stroke="none" fill="none"></path><g id="SvgjsG1099"><text id="SvgjsText1100" font-family="微软雅黑" text-anchor="start" font-size="16px" width="139px" fill="#323232" font-weight="400" align="middle" lineHeight="125%" anchor="start" family="微软雅黑" size="16px" weight="400" font-style="" opacity="1" y="2.193877551020421" transform="rotate(0)"><tspan id="SvgjsTspan1101" dy="20" x="0"><tspan id="SvgjsTspan1102" style="text-decoration:;">closeCh: make(0)</tspan></tspan></text></g></g><g id="SvgjsG1103" transform="translate(531.795918367347,216.61830357142895)"><path id="SvgjsPath1104" d="M 0 0L 290.204081632653 0L 290.204081632653 29.081632653061092L 0 29.081632653061092Z" stroke="none" fill="none"></path><g id="SvgjsG1105"><text id="SvgjsText1106" font-family="微软雅黑" text-anchor="start" font-size="16px" width="291px" fill="#323232" font-weight="400" align="middle" lineHeight="125%" anchor="start" family="微软雅黑" size="16px" weight="400" font-style="" opacity="1" y="-9.459183673469454" transform="rotate(0)"><tspan id="SvgjsTspan1107" dy="20" x="0"><tspan id="SvgjsTspan1108" style="text-decoration:;">encode: 编码 struct -&gt; json blob 写入</tspan></tspan><tspan id="SvgjsTspan1109" dy="20" x="0"><tspan id="SvgjsTspan1110" style="text-decoration:;">conn</tspan></tspan></text></g></g><g id="SvgjsG1111" transform="translate(531.795918367347,260.19993622449005)"><path id="SvgjsPath1112" d="M 0 0L 290.204081632653 0L 290.204081632653 29.612244897959158L 0 29.612244897959158Z" stroke="none" fill="none"></path><g id="SvgjsG1113"><text id="SvgjsText1114" font-family="微软雅黑" text-anchor="start" font-size="16px" width="291px" fill="#323232" font-weight="400" align="middle" lineHeight="125%" anchor="start" family="微软雅黑" size="16px" weight="400" font-style="" opacity="1" y="-9.193877551020421" transform="rotate(0)"><tspan id="SvgjsTspan1115" dy="20" x="0"><tspan id="SvgjsTspan1116" style="text-decoration:;">decode: 解码:json blog -&gt; struct 读取</tspan></tspan><tspan id="SvgjsTspan1117" dy="20" x="0"><tspan id="SvgjsTspan1118" style="text-decoration:;">conn</tspan></tspan></text></g></g><g id="SvgjsG1119" transform="translate(531.795918367347,306.6999362244904)"><path id="SvgjsPath1120" d="M 0 0L 290.204081632653 0L 290.204081632653 29.612244897959158L 0 29.612244897959158Z" stroke="none" fill="none"></path><g id="SvgjsG1121"><text id="SvgjsText1122" font-family="微软雅黑" text-anchor="start" font-size="16px" width="291px" fill="#323232" font-weight="400" align="middle" lineHeight="125%" anchor="start" family="微软雅黑" size="16px" weight="400" font-style="" opacity="1" y="0.8061224489795791" transform="rotate(0)"><tspan id="SvgjsTspan1123" dy="20" x="0"><tspan id="SvgjsTspan1124" style="text-decoration:;">conn: p1, p2 := net.Pipe() 返回的p2</tspan></tspan></text></g></g><g id="SvgjsG1125" transform="translate(531.795918367347,345.6999362244904)"><path id="SvgjsPath1126" d="M 0 0L 232.20408163265301 0L 232.20408163265301 31.69387755101991L 0 31.69387755101991Z" stroke="none" fill="none"></path><g id="SvgjsG1127"><text id="SvgjsText1128" font-family="微软雅黑" text-anchor="start" font-size="16px" width="233px" fill="#323232" font-weight="400" align="middle" lineHeight="125%" anchor="start" family="微软雅黑" size="16px" weight="400" font-style="" opacity="1" y="1.8469387755099547" transform="rotate(0)"><tspan id="SvgjsTspan1129" dy="20" x="0"><tspan id="SvgjsTspan1130" style="text-decoration:;">remote: 对端信息</tspan></tspan></text></g></g><g id="SvgjsG1131"><path id="SvgjsPath1132" d="M218.74990006162824 282.6876929581776L501.5001998767435 278.0713615326246" stroke="#323232" stroke-width="1.5" fill="none" marker-end="url(#SvgjsMarker1133)"></path></g><g id="SvgjsG1135" transform="translate(352.40816326530626,27.006058673469454)"><path id="SvgjsPath1136" d="M 0 0L 203 0L 203 51.040816326530546L 0 51.040816326530546Z" stroke="none" fill="none"></path><g id="SvgjsG1137"><text id="SvgjsText1138" font-family="微软雅黑" text-anchor="middle" font-size="17px" width="203px" fill="#323232" font-weight="400" align="middle" lineHeight="125%" anchor="middle" family="微软雅黑" size="17px" weight="400" font-style="" opacity="1" y="10.895408163265273" transform="rotate(0)"><tspan id="SvgjsTspan1139" dy="21" x="101.5"><tspan id="SvgjsTspan1140" style="text-decoration:;">stack.Attach()</tspan></tspan></text></g></g><g id="SvgjsG1141" transform="translate(1008.3469387755104,148.12850765306138)"><path id="SvgjsPath1142" d="M 0 4Q 0 0 4 0L 343.795918367347 0Q 347.795918367347 0 347.795918367347 4L 347.795918367347 240.26530612244892Q 347.795918367347 244.26530612244892 343.795918367347 244.26530612244892L 4 244.26530612244892Q 0 244.26530612244892 0 240.26530612244892Z" stroke="rgba(33,41,48,1)" stroke-width="1.5" fill-opacity="1" fill="#ffffff"></path><g id="SvgjsG1143"><text id="SvgjsText1144" font-family="微软雅黑" text-anchor="middle" font-size="13px" width="328px" fill="#323232" font-weight="400" align="middle" lineHeight="125%" anchor="middle" family="微软雅黑" size="13px" weight="400" font-style="" opacity="1" y="111.50765306122446" transform="rotate(0)"></text></g></g><g id="SvgjsG1145" transform="translate(1136.9387755102043,119.00605867346945)"><path id="SvgjsPath1146" d="M 0 4Q 0 0 4 0L 95.0204081632653 0Q 99.0204081632653 0 99.0204081632653 4L 99.0204081632653 26.612244897959158Q 99.0204081632653 30.612244897959158 95.0204081632653 30.612244897959158L 4 30.612244897959158Q 0 30.612244897959158 0 26.612244897959158Z" stroke="rgba(33,41,48,1)" stroke-width="1.5" fill-opacity="1" fill="#ffffff"></path><g id="SvgjsG1147"><text id="SvgjsText1148" font-family="微软雅黑" text-anchor="middle" font-size="15px" width="80px" fill="#323232" font-weight="400" align="middle" lineHeight="125%" anchor="middle" family="微软雅黑" size="15px" weight="400" font-style="" opacity="1" y="2.931122448979579" transform="rotate(0)"><tspan id="SvgjsTspan1149" dy="18" x="50"><tspan id="SvgjsTspan1150" style="text-decoration:;">jsonCodec</tspan></tspan></text></g></g><g id="SvgjsG1151" transform="translate(1094.6938775510207,148.18973214285728)"><path id="SvgjsPath1152" d="M 0 4Q 0 0 4 0L 178.0612244897959 0Q 182.0612244897959 0 182.0612244897959 4L 182.0612244897959 32.12244897959192Q 182.0612244897959 36.12244897959192 178.0612244897959 36.12244897959192L 4 36.12244897959192Q 0 36.12244897959192 0 32.12244897959192Z" stroke-dasharray="10,6,3,6" stroke="rgba(33,41,48,1)" stroke-width="1.5" fill-opacity="1" fill="#ffffff"></path><g id="SvgjsG1153"><text id="SvgjsText1154" font-family="微软雅黑" text-anchor="middle" font-size="15px" width="163px" fill="#323232" font-weight="400" align="middle" lineHeight="125%" anchor="middle" family="微软雅黑" size="15px" weight="400" font-style="" opacity="1" y="5.686224489795961" transform="rotate(0)"><tspan id="SvgjsTspan1155" dy="18" x="91.5"><tspan id="SvgjsTspan1156" style="text-decoration:;fill: rgb(50, 50, 50);">rpc/json.go</tspan></tspan></text></g></g><g id="SvgjsG1157" transform="translate(1037.1428571428573,188.3121811224492)"><path id="SvgjsPath1158" d="M 0 0L 138.20408163265301 0L 138.20408163265301 32.38775510204084L 0 32.38775510204084Z" stroke="none" fill="none"></path><g id="SvgjsG1159"><text id="SvgjsText1160" font-family="微软雅黑" text-anchor="start" font-size="16px" width="139px" fill="#323232" font-weight="400" align="middle" lineHeight="125%" anchor="start" family="微软雅黑" size="16px" weight="400" font-style="" opacity="1" y="2.193877551020421" transform="rotate(0)"><tspan id="SvgjsTspan1161" dy="20" x="0"><tspan id="SvgjsTspan1162" style="text-decoration:;">closeCh: make(0)</tspan></tspan></text></g></g><g id="SvgjsG1163" transform="translate(1037.1428571428573,220.61830357142895)"><path id="SvgjsPath1164" d="M 0 0L 290.204081632653 0L 290.204081632653 29.081632653061092L 0 29.081632653061092Z" stroke="none" fill="none"></path><g id="SvgjsG1165"><text id="SvgjsText1166" font-family="微软雅黑" text-anchor="start" font-size="16px" width="291px" fill="#323232" font-weight="400" align="middle" lineHeight="125%" anchor="start" family="微软雅黑" size="16px" weight="400" font-style="" opacity="1" y="-9.459183673469454" transform="rotate(0)"><tspan id="SvgjsTspan1167" dy="20" x="0"><tspan id="SvgjsTspan1168" style="text-decoration:;">encode: 编码 struct -&gt; json blob 写入</tspan></tspan><tspan id="SvgjsTspan1169" dy="20" x="0"><tspan id="SvgjsTspan1170" style="text-decoration:;">conn</tspan></tspan></text></g></g><g id="SvgjsG1171" transform="translate(1037.1428571428573,264.19993622449005)"><path id="SvgjsPath1172" d="M 0 0L 290.204081632653 0L 290.204081632653 29.612244897959158L 0 29.612244897959158Z" stroke="none" fill="none"></path><g id="SvgjsG1173"><text id="SvgjsText1174" font-family="微软雅黑" text-anchor="start" font-size="16px" width="291px" fill="#323232" font-weight="400" align="middle" lineHeight="125%" anchor="start" family="微软雅黑" size="16px" weight="400" font-style="" opacity="1" y="-9.193877551020421" transform="rotate(0)"><tspan id="SvgjsTspan1175" dy="20" x="0"><tspan id="SvgjsTspan1176" style="text-decoration:;">decode: 解码:json blog -&gt; struct 读取</tspan></tspan><tspan id="SvgjsTspan1177" dy="20" x="0"><tspan id="SvgjsTspan1178" style="text-decoration:;">conn</tspan></tspan></text></g></g><g id="SvgjsG1179" transform="translate(1037.1428571428573,310.6999362244904)"><path id="SvgjsPath1180" d="M 0 0L 290.204081632653 0L 290.204081632653 29.612244897959158L 0 29.612244897959158Z" stroke="none" fill="none"></path><g id="SvgjsG1181"><text id="SvgjsText1182" font-family="微软雅黑" text-anchor="start" font-size="16px" width="291px" fill="#323232" font-weight="400" align="middle" lineHeight="125%" anchor="start" family="微软雅黑" size="16px" weight="400" font-style="" opacity="1" y="0.8061224489795791" transform="rotate(0)"><tspan id="SvgjsTspan1183" dy="20" x="0"><tspan id="SvgjsTspan1184" style="text-decoration:;">conn: p1, p2 := net.Pipe() 返回的p1</tspan></tspan></text></g></g><g id="SvgjsG1185" transform="translate(1037.1428571428573,349.6999362244904)"><path id="SvgjsPath1186" d="M 0 0L 232.20408163265301 0L 232.20408163265301 31.69387755101991L 0 31.69387755101991Z" stroke="none" fill="none"></path><g id="SvgjsG1187"><text id="SvgjsText1188" font-family="微软雅黑" text-anchor="start" font-size="16px" width="233px" fill="#323232" font-weight="400" align="middle" lineHeight="125%" anchor="start" family="微软雅黑" size="16px" weight="400" font-style="" opacity="1" y="1.8469387755099547" transform="rotate(0)"><tspan id="SvgjsTspan1189" dy="20" x="0"><tspan id="SvgjsTspan1190" style="text-decoration:;">remote: 对端信息</tspan></tspan></text></g></g><g id="SvgjsG1191" transform="translate(112.79591836734699,486.35299744897975)"><path id="SvgjsPath1192" d="M 0 0L 119.20408163265301 0L 119.20408163265301 37.69387755102025L 0 37.69387755102025Z" stroke="none" fill="none"></path><g id="SvgjsG1193"><text id="SvgjsText1194" font-family="微软雅黑" text-anchor="start" font-size="16px" width="120px" fill="#323232" font-weight="400" align="middle" lineHeight="125%" anchor="start" family="微软雅黑" size="16px" weight="400" font-style="" opacity="1" y="4.846938775510125" transform="rotate(0)"><tspan id="SvgjsTspan1195" dy="20" x="0"><tspan id="SvgjsTspan1196" style="text-decoration:;">reconnectFunc</tspan></tspan></text></g></g><g id="SvgjsG1197" transform="translate(473,408.046875)"><path id="SvgjsPath1198" d="M 0 0L 100 0L 100 40L 0 40Z" stroke="none" fill="none"></path><g id="SvgjsG1199"><text id="SvgjsText1200" font-family="微软雅黑" text-anchor="middle" font-size="15px" width="100px" fill="#323232" font-weight="400" align="middle" lineHeight="125%" anchor="middle" family="微软雅黑" size="15px" weight="400" font-style="" opacity="1" y="7.625" transform="rotate(0)"><tspan id="SvgjsTspan1201" dy="18" x="50"><tspan id="SvgjsTspan1202" style="text-decoration:;">c.read(conn)</tspan></tspan></text></g></g><g id="SvgjsG1203" transform="translate(822,434.046875)"><path id="SvgjsPath1204" d="M 0 0L 95 0L 95 39L 0 39Z" stroke="rgba(33,41,48,1)" stroke-width="1.5" fill-opacity="1" fill="#f1ac6a"></path><g id="SvgjsG1205"><text id="SvgjsText1206" font-family="微软雅黑" text-anchor="middle" font-size="15px" width="75px" fill="#323232" font-weight="400" align="middle" lineHeight="125%" anchor="middle" family="微软雅黑" size="15px" weight="400" font-style="" opacity="1" y="7.125" transform="rotate(0)"><tspan id="SvgjsTspan1207" dy="18" x="47.5"><tspan id="SvgjsTspan1208" style="text-decoration:;">p2</tspan></tspan></text></g></g><g id="SvgjsG1209" transform="translate(918,434.046875)"><path id="SvgjsPath1210" d="M 0 0L 95 0L 95 39L 0 39Z" stroke="rgba(33,41,48,1)" stroke-width="1.5" fill-opacity="1" fill="#5b79e8"></path><g id="SvgjsG1211"><text id="SvgjsText1212" font-family="微软雅黑" text-anchor="middle" font-size="15px" width="75px" fill="#323232" font-weight="400" align="middle" lineHeight="125%" anchor="middle" family="微软雅黑" size="15px" weight="400" font-style="" opacity="1" y="7.125" transform="rotate(0)"><tspan id="SvgjsTspan1213" dy="18" x="47.5"><tspan id="SvgjsTspan1214" style="text-decoration:;">p1</tspan></tspan></text></g></g><g id="SvgjsG1215" transform="translate(590.6479591836735,446.546875)"><path id="SvgjsPath1216" d="M 0 0L 157.3520408163265 0L 143.3520408163265 14L 157.3520408163265 28L 0 28L 0 0Z" stroke="rgba(33,41,48,1)" stroke-width="1.5" fill-opacity="1" fill="#ffffff"></path><g id="SvgjsG1217"><text id="SvgjsText1218" font-family="微软雅黑" text-anchor="middle" font-size="13px" width="115px" fill="#323232" font-weight="400" align="middle" lineHeight="125%" anchor="middle" family="微软雅黑" size="13px" weight="400" font-style="" opacity="1" y="4.375" transform="rotate(0)"><tspan id="SvgjsTspan1219" dy="16" x="73.23520408163265"><tspan id="SvgjsTspan1220" style="text-decoration:;">从p2读取json msg</tspan></tspan></text></g></g><g id="SvgjsG1221" transform="matrix(-1.8369701987210297e-16,-1,1,-1.8369701987210297e-16,472.5,479.546875)"><path id="SvgjsPath1222" d="M 12.540000000000001 0L 25.46 0L 25.46 78L 38 78L 19 97L 0 78L 12.540000000000001 78L 12.540000000000001 0Z" stroke="rgba(33,41,48,1)" stroke-width="1.5" fill-opacity="1" fill="#ffffff"></path><g id="SvgjsG1223"><text id="SvgjsText1224" font-family="微软雅黑" text-anchor="middle" font-size="13px" width="54px" fill="#323232" font-weight="400" align="middle" lineHeight="125%" anchor="middle" family="微软雅黑" size="13px" weight="400" font-style="" opacity="1" y="33.025" transform="rotate(0)"></text></g></g><g id="SvgjsG1225" transform="translate(321,542.046875)"><path id="SvgjsPath1226" d="M 12.540000000000001 0L 25.46 0L 25.46 78L 38 78L 19 97L 0 78L 12.540000000000001 78L 12.540000000000001 0Z" stroke="rgba(33,41,48,1)" stroke-width="1.5" fill-opacity="1" fill="#ffffff"></path><g id="SvgjsG1227"><text id="SvgjsText1228" font-family="微软雅黑" text-anchor="middle" font-size="13px" width="54px" fill="#323232" font-weight="400" align="middle" lineHeight="125%" anchor="middle" family="微软雅黑" size="13px" weight="400" font-style="" opacity="1" y="33.025" transform="rotate(0)"></text></g></g><g id="SvgjsG1229" transform="translate(358,550.046875)"><path id="SvgjsPath1230" d="M 0 0L 124 0L 124 35L 0 35Z" stroke="none" fill="none"></path><g id="SvgjsG1231"><text id="SvgjsText1232" font-family="微软雅黑" text-anchor="middle" font-size="15px" width="124px" fill="#323232" font-weight="400" align="middle" lineHeight="125%" anchor="middle" family="微软雅黑" size="15px" weight="400" font-style="" opacity="1" y="5.125" transform="rotate(0)"><tspan id="SvgjsTspan1233" dy="18" x="62"><tspan id="SvgjsTspan1234" style="text-decoration:;">c.dispatch(conn)</tspan></tspan></text></g></g><g id="SvgjsG1235" transform="translate(276,645.7407525510206)"><path id="SvgjsPath1236" d="M 0 0L 134.5 0L 122 12.5L 134.5 25L 0 25L 0 0Z" stroke="rgba(33,41,48,1)" stroke-width="1.5" fill-opacity="1" fill="#ffffff"></path><g id="SvgjsG1237"><text id="SvgjsText1238" font-family="微软雅黑" text-anchor="middle" font-size="13px" width="98px" fill="#323232" font-weight="400" align="middle" lineHeight="125%" anchor="middle" family="微软雅黑" size="13px" weight="400" font-style="" opacity="1" y="2.875" transform="rotate(0)"><tspan id="SvgjsTspan1239" dy="16" x="62.45"><tspan id="SvgjsTspan1240" style="text-decoration:;">从c.readOp读取</tspan></tspan></text></g></g><g id="SvgjsG1241" transform="translate(590.6479591836735,487.046875)"><path id="SvgjsPath1242" d="M 0 0L 121.07142857142867 0L 134.57142857142867 13.5L 121.07142857142867 27L 0 27L 0 0Z" stroke="rgba(33,41,48,1)" stroke-width="1.5" fill-opacity="1" fill="#ffffff"></path><g id="SvgjsG1243"><text id="SvgjsText1244" font-family="微软雅黑" text-anchor="middle" font-size="13px" width="97px" fill="#323232" font-weight="400" align="middle" lineHeight="125%" anchor="middle" family="微软雅黑" size="13px" weight="400" font-style="" opacity="1" y="3.875" transform="rotate(0)"><tspan id="SvgjsTspan1245" dy="16" x="61.95714285714287"><tspan id="SvgjsTspan1246" style="text-decoration:;">放入c.readOp</tspan></tspan></text></g></g><g id="SvgjsG1247"><path id="SvgjsPath1248" d="M725.9693877551022 500.546875L755.2193877551022 500.546875L755.2193877551022 658.2407525510206L413.2 658.2407525510206" stroke="#323232" stroke-width="1.5" fill="none" marker-end="url(#SvgjsMarker1249)"></path></g><g id="SvgjsG1251" transform="translate(952.4081632653063,35.006058673469454)"><path id="SvgjsPath1252" d="M 0 0L 203 0L 203 51.040816326530546L 0 51.040816326530546Z" stroke="none" fill="none"></path><g id="SvgjsG1253"><text id="SvgjsText1254" font-family="微软雅黑" text-anchor="middle" font-size="17px" width="203px" fill="#323232" font-weight="400" align="middle" lineHeight="125%" anchor="middle" family="微软雅黑" size="17px" weight="400" font-style="" opacity="1" y="10.895408163265273" transform="rotate(0)"><tspan id="SvgjsTspan1255" dy="21" x="101.5"><tspan id="SvgjsTspan1256" style="text-decoration:;">handler.ServeCodec</tspan></tspan></text></g></g><g id="SvgjsG1257" transform="translate(1401,74.16932397959192)"><path id="SvgjsPath1258" d="M 0 4Q 0 0 4 0L 369 0Q 373 0 373 4L 373 394.8775510204081Q 373 398.8775510204081 369 398.8775510204081L 4 398.8775510204081Q 0 398.8775510204081 0 394.8775510204081Z" stroke="rgba(33,41,48,1)" stroke-width="1.5" fill-opacity="1" fill="#ffffff"></path><g id="SvgjsG1259"><text id="SvgjsText1260" font-family="微软雅黑" text-anchor="middle" font-size="13px" width="353px" fill="#323232" font-weight="400" align="middle" lineHeight="125%" anchor="middle" family="微软雅黑" size="13px" weight="400" font-style="" opacity="1" y="188.81377551020404" transform="rotate(0)"></text></g></g><g id="SvgjsG1261" transform="translate(1529.591836734694,45.046875)"><path id="SvgjsPath1262" d="M 0 4Q 0 0 4 0L 95.0204081632653 0Q 99.0204081632653 0 99.0204081632653 4L 99.0204081632653 26.612244897959158Q 99.0204081632653 30.612244897959158 95.0204081632653 30.612244897959158L 4 30.612244897959158Q 0 30.612244897959158 0 26.612244897959158Z" stroke="rgba(33,41,48,1)" stroke-width="1.5" fill-opacity="1" fill="#ffffff"></path><g id="SvgjsG1263"><text id="SvgjsText1264" font-family="微软雅黑" text-anchor="middle" font-size="15px" width="80px" fill="#323232" font-weight="400" align="middle" lineHeight="125%" anchor="middle" family="微软雅黑" size="15px" weight="400" font-style="" opacity="1" y="2.931122448979579" transform="rotate(0)"><tspan id="SvgjsTspan1265" dy="18" x="50"><tspan id="SvgjsTspan1266" style="text-decoration:;">Client</tspan></tspan></text></g></g><g id="SvgjsG1267" transform="translate(1487.3469387755104,74.23054846938783)"><path id="SvgjsPath1268" d="M 0 4Q 0 0 4 0L 178.0612244897959 0Q 182.0612244897959 0 182.0612244897959 4L 182.0612244897959 32.12244897959192Q 182.0612244897959 36.12244897959192 178.0612244897959 36.12244897959192L 4 36.12244897959192Q 0 36.12244897959192 0 32.12244897959192Z" stroke-dasharray="10,6,3,6" stroke="rgba(33,41,48,1)" stroke-width="1.5" fill-opacity="1" fill="#ffffff"></path><g id="SvgjsG1269"><text id="SvgjsText1270" font-family="微软雅黑" text-anchor="middle" font-size="15px" width="163px" fill="#323232" font-weight="400" align="middle" lineHeight="125%" anchor="middle" family="微软雅黑" size="15px" weight="400" font-style="" opacity="1" y="5.686224489795961" transform="rotate(0)"><tspan id="SvgjsTspan1271" dy="18" x="91.5"><tspan id="SvgjsTspan1272" style="text-decoration:;fill: rgb(50, 50, 50);">eth/backend.go</tspan></tspan></text></g></g><g id="SvgjsG1273" transform="translate(1429.795918367347,114.35299744897975)"><path id="SvgjsPath1274" d="M 0 0L 105.20408163265301 0L 105.20408163265301 36.69387755102025L 0 36.69387755102025Z" stroke="none" fill="none"></path><g id="SvgjsG1275"><text id="SvgjsText1276" font-family="微软雅黑" text-anchor="start" font-size="16px" width="106px" fill="#323232" font-weight="400" align="middle" lineHeight="125%" anchor="start" family="微软雅黑" size="16px" weight="400" font-style="" opacity="1" y="4.346938775510125" transform="rotate(0)"><tspan id="SvgjsTspan1277" dy="20" x="0"><tspan id="SvgjsTspan1278" style="text-decoration:;">isHTTP: false</tspan></tspan></text></g></g><g id="SvgjsG1279" transform="translate(1429.795918367347,174.35299744897975)"><path id="SvgjsPath1280" d="M 0 0L 236.20408163265301 0L 236.20408163265301 35L 0 35Z" stroke="none" fill="none"></path><g id="SvgjsG1281"><text id="SvgjsText1282" font-family="微软雅黑" text-anchor="start" font-size="16px" width="237px" fill="#323232" font-weight="400" align="middle" lineHeight="125%" anchor="start" family="微软雅黑" size="16px" weight="400" font-style="" opacity="1" y="3.5" transform="rotate(0)"><tspan id="SvgjsTspan1283" dy="20" x="0"><tspan id="SvgjsTspan1284" style="text-decoration:;">services: 指向handler.services</tspan></tspan></text></g></g><g id="SvgjsG1285" transform="translate(1429.795918367347,198.69993622449005)"><path id="SvgjsPath1286" d="M 0 0L 300.204081632653 0L 300.204081632653 193.69387755102025L 0 193.69387755102025Z" stroke="none" fill="none"></path><g id="SvgjsG1287"><text id="SvgjsText1288" font-family="微软雅黑" text-anchor="start" font-size="16px" width="301px" fill="#323232" font-weight="400" align="middle" lineHeight="125%" anchor="start" family="微软雅黑" size="16px" weight="400" font-style="" opacity="1" y="2.846938775510125" transform="rotate(0)"><tspan id="SvgjsTspan1289" dy="20" x="0"><tspan id="SvgjsTspan1290" style="text-decoration:;">close:       make(chan struct{}),</tspan></tspan><tspan id="SvgjsTspan1291" dy="20" x="0"><tspan id="SvgjsTspan1292" style="text-decoration:;">closing:     make(chan struct{}),</tspan></tspan><tspan id="SvgjsTspan1293" dy="20" x="0"><tspan id="SvgjsTspan1294" style="text-decoration:;">didClose:    make(chan struct{}),</tspan></tspan><tspan id="SvgjsTspan1295" dy="20" x="0"><tspan id="SvgjsTspan1296" style="text-decoration:;">reconnected: make(chan ServerCodec),</tspan></tspan><tspan id="SvgjsTspan1297" dy="20" x="0"><tspan id="SvgjsTspan1298" style="text-decoration:;">readOp:      make(chan readOp),</tspan></tspan><tspan id="SvgjsTspan1299" dy="20" x="0"><tspan id="SvgjsTspan1300" style="text-decoration:;">readErr:     make(chan error),</tspan></tspan><tspan id="SvgjsTspan1301" dy="20" x="0"><tspan id="SvgjsTspan1302" style="text-decoration:;">reqInit:     make(chan *requestOp),</tspan></tspan><tspan id="SvgjsTspan1303" dy="20" x="0"><tspan id="SvgjsTspan1304" style="text-decoration:;">reqSent:     make(chan error, 1),</tspan></tspan><tspan id="SvgjsTspan1305" dy="20" x="0"><tspan id="SvgjsTspan1306" style="text-decoration:;">reqTimeout:  make(chan *requestOp),</tspan></tspan></text></g></g><g id="SvgjsG1307" transform="translate(1429.795918367347,408.046875)"><path id="SvgjsPath1308" d="M 0 0L 119.20408163265301 0L 119.20408163265301 37.69387755102025L 0 37.69387755102025Z" stroke="none" fill="none"></path><g id="SvgjsG1309"><text id="SvgjsText1310" font-family="微软雅黑" text-anchor="start" font-size="16px" width="120px" fill="#323232" font-weight="400" align="middle" lineHeight="125%" anchor="start" family="微软雅黑" size="16px" weight="400" font-style="" opacity="1" y="4.846938775510125" transform="rotate(0)"><tspan id="SvgjsTspan1311" dy="20" x="0"><tspan id="SvgjsTspan1312" style="text-decoration:;">reconnectFunc</tspan></tspan></text></g></g><g id="SvgjsG1313" transform="translate(1429.795918367347,148.12850765306138)"><path id="SvgjsPath1314" d="M 0 0L 105.20408163265301 0L 105.20408163265301 36.69387755102025L 0 36.69387755102025Z" stroke="none" fill="none"></path><g id="SvgjsG1315"><text id="SvgjsText1316" font-family="微软雅黑" text-anchor="start" font-size="16px" width="106px" fill="#323232" font-weight="400" align="middle" lineHeight="125%" anchor="start" family="微软雅黑" size="16px" weight="400" font-style="" opacity="1" y="4.346938775510125" transform="rotate(0)"><tspan id="SvgjsTspan1317" dy="20" x="0"><tspan id="SvgjsTspan1318" style="text-decoration:;">writeConn</tspan></tspan></text></g></g><g id="SvgjsG1319"><path id="SvgjsPath1320" d="M1429.045918367347 166.4754464285715L1357.5 166.4754464285715" stroke="#323232" stroke-width="1.5" fill="none" marker-end="url(#SvgjsMarker1321)"></path></g><g id="SvgjsG1323" transform="matrix(6.123233995736766e-17,1,-1,6.123233995736766e-17,1383.5,430.546875)"><path id="SvgjsPath1324" d="M 12.540000000000001 0L 25.46 0L 25.46 78L 38 78L 19 97L 0 78L 12.540000000000001 78L 12.540000000000001 0Z" stroke="rgba(33,41,48,1)" stroke-width="1.5" fill-opacity="1" fill="#ffffff"></path><g id="SvgjsG1325"><text id="SvgjsText1326" font-family="微软雅黑" text-anchor="middle" font-size="13px" width="54px" fill="#323232" font-weight="400" align="middle" lineHeight="125%" anchor="middle" family="微软雅黑" size="13px" weight="400" font-style="" opacity="1" y="33.025" transform="rotate(0)"></text></g></g><g id="SvgjsG1327" transform="translate(1276.7551020408166,399.546875)"><path id="SvgjsPath1328" d="M 0 0L 100 0L 100 40L 0 40Z" stroke="none" fill="none"></path><g id="SvgjsG1329"><text id="SvgjsText1330" font-family="微软雅黑" text-anchor="middle" font-size="15px" width="100px" fill="#323232" font-weight="400" align="middle" lineHeight="125%" anchor="middle" family="微软雅黑" size="15px" weight="400" font-style="" opacity="1" y="7.625" transform="rotate(0)"><tspan id="SvgjsTspan1331" dy="18" x="50"><tspan id="SvgjsTspan1332" style="text-decoration:;">c.read(conn)</tspan></tspan></text></g></g><g id="SvgjsG1333" transform="translate(1066.6479591836735,439.546875)"><path id="SvgjsPath1334" d="M 0 0L 157.3520408163265 0L 143.3520408163265 14L 157.3520408163265 28L 0 28L 0 0Z" stroke="rgba(33,41,48,1)" stroke-width="1.5" fill-opacity="1" fill="#ffffff"></path><g id="SvgjsG1335"><text id="SvgjsText1336" font-family="微软雅黑" text-anchor="middle" font-size="13px" width="115px" fill="#323232" font-weight="400" align="middle" lineHeight="125%" anchor="middle" family="微软雅黑" size="13px" weight="400" font-style="" opacity="1" y="4.375" transform="rotate(0)"><tspan id="SvgjsTspan1337" dy="16" x="73.23520408163265"><tspan id="SvgjsTspan1338" style="text-decoration:;">从p1读取json msg</tspan></tspan></text></g></g><g id="SvgjsG1339" transform="translate(1066.6479591836735,474.546875)"><path id="SvgjsPath1340" d="M 0 0L 121.07142857142867 0L 134.57142857142867 13.5L 121.07142857142867 27L 0 27L 0 0Z" stroke="rgba(33,41,48,1)" stroke-width="1.5" fill-opacity="1" fill="#ffffff"></path><g id="SvgjsG1341"><text id="SvgjsText1342" font-family="微软雅黑" text-anchor="middle" font-size="13px" width="97px" fill="#323232" font-weight="400" align="middle" lineHeight="125%" anchor="middle" family="微软雅黑" size="13px" weight="400" font-style="" opacity="1" y="3.875" transform="rotate(0)"><tspan id="SvgjsTspan1343" dy="16" x="61.95714285714287"><tspan id="SvgjsTspan1344" style="text-decoration:;">放入c.readOp</tspan></tspan></text></g></g><g id="SvgjsG1345" transform="translate(1528.8979591836735,487.046875)"><path id="SvgjsPath1346" d="M 12.540000000000001 0L 25.46 0L 25.46 78L 38 78L 19 97L 0 78L 12.540000000000001 78L 12.540000000000001 0Z" stroke="rgba(33,41,48,1)" stroke-width="1.5" fill-opacity="1" fill="#ffffff"></path><g id="SvgjsG1347"><text id="SvgjsText1348" font-family="微软雅黑" text-anchor="middle" font-size="13px" width="54px" fill="#323232" font-weight="400" align="middle" lineHeight="125%" anchor="middle" family="微软雅黑" size="13px" weight="400" font-style="" opacity="1" y="33.025" transform="rotate(0)"></text></g></g><g id="SvgjsG1349" transform="translate(1411,493.046875)"><path id="SvgjsPath1350" d="M 0 0L 124 0L 124 35L 0 35Z" stroke="none" fill="none"></path><g id="SvgjsG1351"><text id="SvgjsText1352" font-family="微软雅黑" text-anchor="middle" font-size="15px" width="124px" fill="#323232" font-weight="400" align="middle" lineHeight="125%" anchor="middle" family="微软雅黑" size="15px" weight="400" font-style="" opacity="1" y="5.125" transform="rotate(0)"><tspan id="SvgjsTspan1353" dy="18" x="62"><tspan id="SvgjsTspan1354" style="text-decoration:;">c.dispatch(conn)</tspan></tspan></text></g></g><g id="SvgjsG1355" transform="translate(1480.6479591836735,598.046875)"><path id="SvgjsPath1356" d="M 0 0L 134.5 0L 122 12.5L 134.5 25L 0 25L 0 0Z" stroke="rgba(33,41,48,1)" stroke-width="1.5" fill-opacity="1" fill="#ffffff"></path><g id="SvgjsG1357"><text id="SvgjsText1358" font-family="微软雅黑" text-anchor="middle" font-size="13px" width="98px" fill="#323232" font-weight="400" align="middle" lineHeight="125%" anchor="middle" family="微软雅黑" size="13px" weight="400" font-style="" opacity="1" y="2.875" transform="rotate(0)"><tspan id="SvgjsTspan1359" dy="16" x="62.45"><tspan id="SvgjsTspan1360" style="text-decoration:;">从c.readOp读取</tspan></tspan></text></g></g><g id="SvgjsG1361"><path id="SvgjsPath1362" d="M1201.9693877551022 488.046875L1221.2193877551022 488.046875L1221.2193877551022 610.546875L1477.9479591836734 610.546875" stroke="#323232" stroke-width="1.5" fill="none" marker-end="url(#SvgjsMarker1363)"></path></g></svg>