<svg id="SvgjsSvg1365" width="1857" height="1710" xmlns="http://www.w3.org/2000/svg" version="1.1" xmlns:xlink="http://www.w3.org/1999/xlink" xmlns:svgjs="http://svgjs.com/svgjs"><defs id="SvgjsDefs1366"><pattern patternUnits="userSpaceOnUse" id="pattern_mark_0" width="300" height="300"><text x="150" y="100" fill="rgba(229,229,229,0.8)" font-size="18" transform="rotate(-45, 150, 150)" style="dominant-baseline: middle; text-anchor: middle;"></text></pattern><pattern patternUnits="userSpaceOnUse" id="pattern_mark_1" width="300" height="300"><text x="150" y="200" fill="rgba(229,229,229,0.8)" font-size="18" transform="rotate(-45, 150, 150)" style="dominant-baseline: middle; text-anchor: middle;"></text></pattern><marker id="SvgjsMarker1440" markerWidth="20" markerHeight="12" refX="20" refY="6" viewBox="0 0 20 12" orient="auto" markerUnits="userSpaceOnUse" stroke-dasharray="0,0"><path id="SvgjsPath1441" d="M2,6 L10,2 L18,6 L10,10L2,6" fill="#323232" stroke="#323232" stroke-width="1.5"></path></marker><marker id="SvgjsMarker1448" markerWidth="13" markerHeight="9" refX="9.5" refY="4.5" viewBox="0 0 13 9" orient="auto" markerUnits="userSpaceOnUse" stroke-dasharray="0,0"><path id="SvgjsPath1449" d="M0,0 L13,4.5 L0,9 L0,0" fill="#323232" stroke="#323232" stroke-width="1"></path></marker><marker id="SvgjsMarker1490" markerWidth="13" markerHeight="9" refX="9.5" refY="4.5" viewBox="0 0 13 9" orient="auto" markerUnits="userSpaceOnUse" stroke-dasharray="0,0"><path id="SvgjsPath1491" d="M0,0 L13,4.5 L0,9 L0,0" fill="#323232" stroke="#323232" stroke-width="1"></path></marker><marker id="SvgjsMarker1509" markerWidth="13" markerHeight="9" refX="9.5" refY="4.5" viewBox="0 0 13 9" orient="auto" markerUnits="userSpaceOnUse" stroke-dasharray="0,0"><path id="SvgjsPath1510" d="M0,0 L13,4.5 L0,9 L0,0" fill="#323232" stroke="#323232" stroke-width="1"></path></marker><marker id="SvgjsMarker1536" markerWidth="13" markerHeight="9" refX="9.5" refY="4.5" viewBox="0 0 13 9" orient="auto" markerUnits="userSpaceOnUse" stroke-dasharray="0,0"><path id="SvgjsPath1537" d="M0,0 L13,4.5 L0,9 L0,0" fill="#323232" stroke="#323232" stroke-width="1"></path></marker><marker id="SvgjsMarker1554" markerWidth="13" markerHeight="9" refX="9.5" refY="4.5" viewBox="0 0 13 9" orient="auto" markerUnits="userSpaceOnUse" stroke-dasharray="0,0"><path id="SvgjsPath1555" d="M0,0 L13,4.5 L0,9 L0,0" fill="#323232" stroke="#323232" stroke-width="1"></path></marker><marker id="SvgjsMarker1608" markerWidth="13" markerHeight="9" refX="9.5" refY="4.5" viewBox="0 0 13 9" orient="auto" markerUnits="userSpaceOnUse" stroke-dasharray="0,0"><path id="SvgjsPath1609" d="M0,0 L13,4.5 L0,9 L0,0" fill="#323232" stroke="#323232" stroke-width="1"></path></marker><marker id="SvgjsMarker1641" markerWidth="13" markerHeight="9" refX="9.5" refY="4.5" viewBox="0 0 13 9" orient="auto" markerUnits="userSpaceOnUse" stroke-dasharray="0,0"><path id="SvgjsPath1642" d="M0,0 L13,4.5 L0,9 L0,0" fill="#323232" stroke="#323232" stroke-width="1"></path></marker><marker id="SvgjsMarker1653" markerWidth="13" markerHeight="9" refX="9.5" refY="4.5" viewBox="0 0 13 9" orient="auto" markerUnits="userSpaceOnUse" stroke-dasharray="0,0"><path id="SvgjsPath1654" d="M0,0 L13,4.5 L0,9 L0,0" fill="#323232" stroke="#323232" stroke-width="1"></path></marker><marker id="SvgjsMarker1685" markerWidth="13" markerHeight="9" refX="9.5" refY="4.5" viewBox="0 0 13 9" orient="auto" markerUnits="userSpaceOnUse" stroke-dasharray="0,0"><path id="SvgjsPath1686" d="M0,0 L13,4.5 L0,9 L0,0" fill="#323232" stroke="#323232" stroke-width="1"></path></marker><marker id="SvgjsMarker1695" markerWidth="13" markerHeight="9" refX="3.5" refY="4.5" viewBox="0 0 13 9" orient="auto" markerUnits="userSpaceOnUse" stroke-dasharray="0,0"><path id="SvgjsPath1696" d="M13,0 L0,4.5 L13,9 L13,0" fill="#323232" stroke="#323232" stroke-width="1"></path></marker><marker id="SvgjsMarker1713" markerWidth="13" markerHeight="9" refX="3.5" refY="4.5" viewBox="0 0 13 9" orient="auto" markerUnits="userSpaceOnUse" stroke-dasharray="0,0"><path id="SvgjsPath1714" d="M13,0 L0,4.5 L13,9 L13,0" fill="#323232" stroke="#323232" stroke-width="1"></path></marker></defs><rect id="svgbackgroundid" width="1857" height="1710" fill="transparent"></rect><rect id="SvgjsRect1368" width="1857" height="1710" fill="url(#pattern_mark_0)"></rect><rect id="SvgjsRect1369" width="1857" height="1710" fill="url(#pattern_mark_1)"></rect><g id="SvgjsG1370" transform="translate(25,25)"><path id="SvgjsPath1371" d="M 0 4Q 0 0 4 0L 1108 0Q 1112 0 1112 4L 1112 1656Q 1112 1660 1108 1660L 4 1660Q 0 1660 0 1656Z" stroke="rgba(86,146,48,1)" stroke-width="1.5" fill-opacity="1" fill="#ffffff"></path><g id="SvgjsG1372"><text id="SvgjsText1373" font-family="微软雅黑" text-anchor="middle" font-size="13px" width="1092px" fill="#323232" font-weight="400" align="middle" lineHeight="125%" anchor="middle" family="微软雅黑" size="13px" weight="400" font-style="" opacity="1" y="819.375" transform="rotate(0)"></text></g></g><g id="SvgjsG1374" transform="translate(1168,274)"><path id="SvgjsPath1375" d="M 0 4Q 0 0 4 0L 660 0Q 664 0 664 4L 664 1387Q 664 1391 660 1391L 4 1391Q 0 1391 0 1387Z" stroke="rgba(231,79,76,1)" stroke-width="1" fill-opacity="1" fill="#ffffff"></path><g id="SvgjsG1376"><text id="SvgjsText1377" font-family="微软雅黑" text-anchor="middle" font-size="13px" width="644px" fill="#323232" font-weight="400" align="middle" lineHeight="125%" anchor="middle" family="微软雅黑" size="13px" weight="400" font-style="" opacity="1" y="684.875" transform="rotate(0)"></text></g></g><g id="SvgjsG1378" transform="translate(43,281)"><path id="SvgjsPath1379" d="M 0 4Q 0 0 4 0L 226 0Q 230 0 230 4L 230 86Q 230 90 226 90L 4 90Q 0 90 0 86Z" stroke="rgba(33,41,48,1)" stroke-width="1.5" fill-opacity="1" fill="#ffffff"></path><path id="SvgjsPath1380" d="M 0 30L 230 30M 0 60L 230 60" stroke="rgba(33,41,48,1)" stroke-width="1.5" fill="none"></path><path id="SvgjsPath1381" d="M 0 0L 230 0L 230 90L 0 90Z" stroke="none" fill="none"></path><g id="SvgjsG1382"><text id="SvgjsText1383" font-family="微软雅黑" text-anchor="middle" font-size="15px" width="210px" fill="#323232" font-weight="700" align="middle" lineHeight="125%" anchor="middle" family="微软雅黑" size="15px" weight="700" font-style="" opacity="1" y="2.625" transform="rotate(0)"><tspan id="SvgjsTspan1384" dy="18" x="115"><tspan id="SvgjsTspan1385" style="text-decoration:;">Personal</tspan></tspan></text></g><g id="SvgjsG1386"><text id="SvgjsText1387" font-family="微软雅黑" text-anchor="start" font-size="15px" width="210px" fill="#323232" font-weight="400" align="middle" lineHeight="125%" anchor="start" family="微软雅黑" size="15px" weight="400" font-style="" opacity="1" y="32.625" transform="rotate(0)"><tspan id="SvgjsTspan1388" dy="18" x="10"><tspan id="SvgjsTspan1389" style="text-decoration:;">this._requestManager</tspan></tspan></text></g><g id="SvgjsG1390"><text id="SvgjsText1391" font-family="微软雅黑" text-anchor="start" font-size="15px" width="210px" fill="#323232" font-weight="400" align="middle" lineHeight="125%" anchor="start" family="微软雅黑" size="15px" weight="400" font-style="" opacity="1" y="62.625" transform="rotate(0)"><tspan id="SvgjsTspan1392" dy="18" x="10"><tspan id="SvgjsTspan1393" style="text-decoration:;">newAccount = 方法对象</tspan></tspan></text></g></g><g id="SvgjsG1394" transform="translate(350,301)"><path id="SvgjsPath1395" d="M 0 4Q 0 0 4 0L 226 0Q 230 0 230 4L 230 108Q 230 112 226 112L 4 112Q 0 112 0 108Z" stroke="rgba(33,41,48,1)" stroke-width="1.5" fill-opacity="1" fill="#ffffff"></path><path id="SvgjsPath1396" d="M 0 30L 230 30M 0 82L 230 82" stroke="rgba(33,41,48,1)" stroke-width="1.5" fill="none"></path><path id="SvgjsPath1397" d="M 0 0L 230 0L 230 112L 0 112Z" stroke="none" fill="none"></path><g id="SvgjsG1398"><text id="SvgjsText1399" font-family="微软雅黑" text-anchor="middle" font-size="15px" width="210px" fill="#323232" font-weight="700" align="middle" lineHeight="125%" anchor="middle" family="微软雅黑" size="15px" weight="700" font-style="" opacity="1" y="2.625" transform="rotate(0)"><tspan id="SvgjsTspan1400" dy="18" x="115"><tspan id="SvgjsTspan1401" style="text-decoration:;">send function</tspan></tspan></text></g><g id="SvgjsG1402"><text id="SvgjsText1403" font-family="微软雅黑" text-anchor="start" font-size="15px" width="210px" fill="#323232" font-weight="400" align="middle" lineHeight="125%" anchor="start" family="微软雅黑" size="15px" weight="400" font-style="" opacity="1" y="34.125" transform="rotate(0)"><tspan id="SvgjsTspan1404" dy="18" x="10"><tspan id="SvgjsTspan1405" style="text-decoration:;">.request: this.request方法</tspan></tspan><tspan id="SvgjsTspan1406" dy="18" x="10"><tspan id="SvgjsTspan1407" style="text-decoration:;">.call = this.call; // 'perso...'</tspan></tspan></text></g><g id="SvgjsG1408"><text id="SvgjsText1409" font-family="微软雅黑" text-anchor="start" font-size="15px" width="210px" fill="#323232" font-weight="400" align="middle" lineHeight="125%" anchor="start" family="微软雅黑" size="15px" weight="400" font-style="" opacity="1" y="84.625" transform="rotate(0)"></text></g></g><g id="SvgjsG1410" transform="translate(329,52)"><path id="SvgjsPath1411" d="M 0 4Q 0 0 4 0L 290 0Q 294 0 294 4L 294 205Q 294 209 290 209L 4 209Q 0 209 0 205Z" stroke="rgba(33,41,48,1)" stroke-width="1.5" fill-opacity="1" fill="#ffffff"></path><path id="SvgjsPath1412" d="M 0 30L 294 30M 0 157L 294 157" stroke="rgba(33,41,48,1)" stroke-width="1.5" fill="none"></path><path id="SvgjsPath1413" d="M 0 0L 294 0L 294 209L 0 209Z" stroke="none" fill="none"></path><g id="SvgjsG1414"><text id="SvgjsText1415" font-family="微软雅黑" text-anchor="middle" font-size="15px" width="274px" fill="#323232" font-weight="700" align="middle" lineHeight="125%" anchor="middle" family="微软雅黑" size="15px" weight="700" font-style="" opacity="1" y="2.625" transform="rotate(0)"><tspan id="SvgjsTspan1416" dy="18" x="147"><tspan id="SvgjsTspan1417" style="text-decoration:;">Method</tspan></tspan></text></g><g id="SvgjsG1418"><text id="SvgjsText1419" font-family="微软雅黑" text-anchor="start" font-size="15px" width="274px" fill="#323232" font-weight="400" align="middle" lineHeight="125%" anchor="start" family="微软雅黑" size="15px" weight="400" font-style="" opacity="1" y="34.125" transform="rotate(0)"><tspan id="SvgjsTspan1420" dy="18" x="10"><tspan id="SvgjsTspan1421" style="text-decoration:;">this.name = 'newAccount';</tspan></tspan><tspan id="SvgjsTspan1422" dy="18" x="10"><tspan id="SvgjsTspan1423" style="text-decoration:;">this.call = 'personal_newAccount';</tspan></tspan><tspan id="SvgjsTspan1424" dy="18" x="10"><tspan id="SvgjsTspan1425" style="text-decoration:;">this.params = 1;    </tspan></tspan><tspan id="SvgjsTspan1426" dy="18" x="10"><tspan id="SvgjsTspan1427" style="text-decoration:;">this.inputFormatter = [null];</tspan></tspan><tspan id="SvgjsTspan1428" dy="18" x="10"><tspan id="SvgjsTspan1429" style="text-decoration:;">this.outputFormatter = undef;    </tspan></tspan><tspan id="SvgjsTspan1430" dy="18" x="10"><tspan id="SvgjsTspan1431" style="text-decoration:;">this.requestManager</tspan></tspan></text></g><g id="SvgjsG1432"><text id="SvgjsText1433" font-family="微软雅黑" text-anchor="start" font-size="15px" width="274px" fill="#323232" font-weight="400" align="middle" lineHeight="125%" anchor="start" family="微软雅黑" size="15px" weight="400" font-style="" opacity="1" y="161.125" transform="rotate(0)"><tspan id="SvgjsTspan1434" dy="18" x="10"><tspan id="SvgjsTspan1435" style="text-decoration:;">request()</tspan></tspan><tspan id="SvgjsTspan1436" dy="18" x="10"><tspan id="SvgjsTspan1437" style="text-decoration:;">toPayload()</tspan></tspan></text></g></g><g id="SvgjsG1438"><path id="SvgjsPath1439" d="M580.7425627241325 356.8946406115772C 661.8281125286414 357 704.8281125286414 157.00000000000003 625.224744768335 157.33617066464268" stroke="#323232" stroke-width="1.5" fill="none" marker-end="url(#SvgjsMarker1440)"></path><rect id="SvgjsRect1442" width="75" height="19" x="669.45714107062" y="241.53881637932957" fill="#ffffff"></rect><text id="SvgjsText1443" font-family="微软雅黑" text-anchor="middle" font-size="15px" width="75px" fill="#323232" font-weight="400" align="top" lineHeight="19px" anchor="middle" family="微软雅黑" size="15px" weight="400" font-style="" opacity="1" y="238.66381637932957" transform="rotate(0)"><tspan id="SvgjsTspan1444" dy="18" x="706.95714107062"><tspan id="SvgjsTspan1445" style="text-decoration:;">bind执行域</tspan></tspan></text></g><g id="SvgjsG1446"><path id="SvgjsPath1447" d="M271.7499399206952 357.99050708961147L347.3002162854972 357.0341744773988" stroke="#323232" stroke-width="1.5" fill="none" marker-end="url(#SvgjsMarker1448)"></path></g><g id="SvgjsG1450" transform="translate(782,104)"><path id="SvgjsPath1451" d="M 0 4Q 0 0 4 0L 226 0Q 230 0 230 4L 230 126Q 230 130 226 130L 4 130Q 0 130 0 126Z" stroke="rgba(33,41,48,1)" stroke-width="1.5" fill-opacity="1" fill="#ffffff"></path><path id="SvgjsPath1452" d="M 0 30L 230 30M 0 100L 230 100" stroke="rgba(33,41,48,1)" stroke-width="1.5" fill="none"></path><path id="SvgjsPath1453" d="M 0 0L 230 0L 230 130L 0 130Z" stroke="none" fill="none"></path><g id="SvgjsG1454"><text id="SvgjsText1455" font-family="微软雅黑" text-anchor="middle" font-size="15px" width="210px" fill="#323232" font-weight="700" align="middle" lineHeight="125%" anchor="middle" family="微软雅黑" size="15px" weight="700" font-style="" opacity="1" y="2.625" transform="rotate(0)"><tspan id="SvgjsTspan1456" dy="18" x="115"><tspan id="SvgjsTspan1457" style="text-decoration:;">Web3</tspan></tspan></text></g><g id="SvgjsG1458"><text id="SvgjsText1459" font-family="微软雅黑" text-anchor="start" font-size="15px" width="210px" fill="#323232" font-weight="400" align="middle" lineHeight="125%" anchor="start" family="微软雅黑" size="15px" weight="400" font-style="" opacity="1" y="34.125" transform="rotate(0)"><tspan id="SvgjsTspan1460" dy="18" x="10"><tspan id="SvgjsTspan1461" style="text-decoration:;">this._requestManager</tspan></tspan><tspan id="SvgjsTspan1462" dy="18" x="10"><tspan id="SvgjsTspan1463" style="text-decoration:;">...</tspan></tspan><tspan id="SvgjsTspan1464" dy="18" x="10"><tspan id="SvgjsTspan1465" style="text-decoration:;"> </tspan></tspan></text></g><g id="SvgjsG1466"><text id="SvgjsText1467" font-family="微软雅黑" text-anchor="start" font-size="15px" width="210px" fill="#323232" font-weight="400" align="middle" lineHeight="125%" anchor="start" family="微软雅黑" size="15px" weight="400" font-style="" opacity="1" y="102.625" transform="rotate(0)"></text></g></g><g id="SvgjsG1468" transform="translate(782,283)"><path id="SvgjsPath1469" d="M 0 4Q 0 0 4 0L 226 0Q 230 0 230 4L 230 126Q 230 130 226 130L 4 130Q 0 130 0 126Z" stroke="rgba(33,41,48,1)" stroke-width="1.5" fill-opacity="1" fill="#ffffff"></path><path id="SvgjsPath1470" d="M 0 30L 230 30M 0 100L 230 100" stroke="rgba(33,41,48,1)" stroke-width="1.5" fill="none"></path><path id="SvgjsPath1471" d="M 0 0L 230 0L 230 130L 0 130Z" stroke="none" fill="none"></path><g id="SvgjsG1472"><text id="SvgjsText1473" font-family="微软雅黑" text-anchor="middle" font-size="15px" width="210px" fill="#323232" font-weight="700" align="middle" lineHeight="125%" anchor="middle" family="微软雅黑" size="15px" weight="700" font-style="" opacity="1" y="2.625" transform="rotate(0)"><tspan id="SvgjsTspan1474" dy="18" x="115"><tspan id="SvgjsTspan1475" style="text-decoration:;">RequestManager</tspan></tspan></text></g><g id="SvgjsG1476"><text id="SvgjsText1477" font-family="微软雅黑" text-anchor="start" font-size="15px" width="210px" fill="#323232" font-weight="400" align="middle" lineHeight="125%" anchor="start" family="微软雅黑" size="15px" weight="400" font-style="" opacity="1" y="34.125" transform="rotate(0)"><tspan id="SvgjsTspan1478" dy="18" x="10"><tspan id="SvgjsTspan1479" style="text-decoration:;">this.provider = provider;</tspan></tspan><tspan id="SvgjsTspan1480" dy="18" x="10"><tspan id="SvgjsTspan1481" style="text-decoration:;">this.polls = {};</tspan></tspan><tspan id="SvgjsTspan1482" dy="18" x="10"><tspan id="SvgjsTspan1483" style="text-decoration:;">this.timeout = null;</tspan></tspan></text></g><g id="SvgjsG1484"><text id="SvgjsText1485" font-family="微软雅黑" text-anchor="start" font-size="15px" width="210px" fill="#323232" font-weight="400" align="middle" lineHeight="125%" anchor="start" family="微软雅黑" size="15px" weight="400" font-style="" opacity="1" y="102.625" transform="rotate(0)"><tspan id="SvgjsTspan1486" dy="18" x="10"><tspan id="SvgjsTspan1487" style="text-decoration:;">send(data)</tspan></tspan></text></g></g><g id="SvgjsG1488"><path id="SvgjsPath1489" d="M1012.7378739388519 143.13432069968172C 1079.6 143.00000000000003 1079.6 312 1014.6563461798673 311.51644548114575" stroke="#323232" stroke-width="1.5" fill="none" marker-end="url(#SvgjsMarker1490)"></path></g><g id="SvgjsG1492" transform="translate(324,448)"><path id="SvgjsPath1493" d="M 124 30L 124 576" stroke-dasharray="3,4" stroke="rgba(33,41,48,1)" stroke-width="2" fill="none"></path><path id="SvgjsPath1494" d="M 0 0L 248 0L 248 30L 0 30Z" stroke="rgba(33,41,48,1)" stroke-width="1.5" fill-opacity="1" fill="#ffffff"></path><g id="SvgjsG1495"><text id="SvgjsText1496" font-family="微软雅黑" text-anchor="middle" font-size="15px" width="228px" fill="#323232" font-weight="400" align="middle" lineHeight="125%" anchor="middle" family="微软雅黑" size="15px" weight="400" font-style="" opacity="1" y="2.625" transform="rotate(0)"><tspan id="SvgjsTspan1497" dy="18" x="124"><tspan id="SvgjsTspan1498" style="text-decoration:;fill: rgb(51, 51, 51);">personal.newAccount("123456")</tspan></tspan></text></g></g><g id="SvgjsG1499" transform="translate(434,504)"><path id="SvgjsPath1500" d="M 0 4Q 0 0 4 0L 26 0Q 30 0 30 4L 30 96Q 30 100 26 100L 4 100Q 0 100 0 96L 0 4Z" stroke="rgba(33,41,48,1)" stroke-width="1.5" fill-opacity="1" fill="#ffffff"></path></g><g id="SvgjsG1501" transform="translate(472,509)"><path id="SvgjsPath1502" d="M 0 0L 190 0L 190 33L 0 33Z" stroke="none" fill="none"></path><g id="SvgjsG1503"><text id="SvgjsText1504" font-family="微软雅黑" text-anchor="middle" font-size="15px" width="190px" fill="#323232" font-weight="400" align="middle" lineHeight="125%" anchor="middle" family="微软雅黑" size="15px" weight="400" font-style="" opacity="1" y="4.125" transform="rotate(0)"><tspan id="SvgjsTspan1505" dy="18" x="95"><tspan id="SvgjsTspan1506" style="text-decoration:;">this.toPayload(argument)</tspan></tspan></text></g></g><g id="SvgjsG1507"><path id="SvgjsPath1508" d="M464.75 554L494 554L494 593.8604870525118L466.7 593.8604870525118" stroke="#323232" stroke-width="1.5" fill="none" marker-end="url(#SvgjsMarker1509)"></path></g><g id="SvgjsG1511" transform="translate(467,608)"><path id="SvgjsPath1512" d="M 0 0L 268 0L 268 115L 0 115Z" stroke="none" fill="none"></path><g id="SvgjsG1513"><text id="SvgjsText1514" font-family="微软雅黑" text-anchor="start" font-size="15px" width="268px" fill="#323232" font-weight="400" align="middle" lineHeight="125%" anchor="start" family="微软雅黑" size="15px" weight="400" font-style="" opacity="1" y="-1.875" transform="rotate(0)"><tspan id="SvgjsTspan1515" dy="18" x="0"><tspan id="SvgjsTspan1516" style="text-decoration:;">payload = {</tspan></tspan><tspan id="SvgjsTspan1517" dy="18" x="0"><tspan id="SvgjsTspan1518" style="text-decoration:;">  method: '</tspan><tspan id="SvgjsTspan1519" style="text-decoration:;fill: rgb(50, 50, 50);">personal_newAccount',</tspan></tspan><tspan id="SvgjsTspan1520" dy="18" x="0"><tspan id="SvgjsTspan1521" style="text-decoration:;fill: rgb(50, 50, 50);">  </tspan><tspan id="SvgjsTspan1522" style="text-decoration:;">params: [ '123456' ],</tspan></tspan><tspan id="SvgjsTspan1523" dy="18" x="0"><tspan id="SvgjsTspan1524" style="text-decoration:;">  callback: undef</tspan></tspan><tspan id="SvgjsTspan1525" dy="18" x="0"><tspan id="SvgjsTspan1526" style="text-decoration:;">}</tspan></tspan></text></g></g><g id="SvgjsG1527" transform="translate(799.5,448)"><path id="SvgjsPath1528" d="M 88 30L 88 1147" stroke-dasharray="3,4" stroke="rgba(33,41,48,1)" stroke-width="2" fill="none"></path><path id="SvgjsPath1529" d="M 0 0L 176 0L 176 30L 0 30Z" stroke="rgba(33,41,48,1)" stroke-width="1.5" fill-opacity="1" fill="#ffffff"></path><g id="SvgjsG1530"><text id="SvgjsText1531" font-family="微软雅黑" text-anchor="middle" font-size="15px" width="156px" fill="#323232" font-weight="400" align="middle" lineHeight="125%" anchor="middle" family="微软雅黑" size="15px" weight="400" font-style="" opacity="1" y="2.625" transform="rotate(0)"><tspan id="SvgjsTspan1532" dy="18" x="88"><tspan id="SvgjsTspan1533" style="text-decoration:;fill: rgb(50, 50, 50);">RequestManager</tspan></tspan></text></g></g><g id="SvgjsG1534"><path id="SvgjsPath1535" d="M453 808L663 808L663 808L873 808" stroke="#323232" stroke-width="1.5" fill="none" marker-end="url(#SvgjsMarker1536)"></path></g><g id="SvgjsG1538" transform="translate(456.5,756)"><path id="SvgjsPath1539" d="M 0 0L 221 0L 221 41L 0 41Z" stroke="none" fill="none"></path><g id="SvgjsG1540"><text id="SvgjsText1541" font-family="微软雅黑" text-anchor="middle" font-size="15px" width="221px" fill="#323232" font-weight="400" align="middle" lineHeight="125%" anchor="middle" family="微软雅黑" size="15px" weight="400" font-style="" opacity="1" y="8.125" transform="rotate(0)"><tspan id="SvgjsTspan1542" dy="18" x="110.5"><tspan id="SvgjsTspan1543" style="text-decoration:;">requestManager.send(payload)</tspan></tspan></text></g></g><g id="SvgjsG1544" transform="translate(874,775.75)"><path id="SvgjsPath1545" d="M 0 4Q 0 0 4 0L 26 0Q 30 0 30 4L 30 96Q 30 100 26 100L 4 100Q 0 100 0 96L 0 4Z" stroke="rgba(33,41,48,1)" stroke-width="1.5" fill-opacity="1" fill="#ffffff"></path></g><g id="SvgjsG1546" transform="translate(915,785)"><path id="SvgjsPath1547" d="M 0 0L 204 0L 204 39.5L 0 39.5Z" stroke="none" fill="none"></path><g id="SvgjsG1548"><text id="SvgjsText1549" font-family="微软雅黑" text-anchor="start" font-size="15px" width="204px" fill="#323232" font-weight="400" align="middle" lineHeight="125%" anchor="start" family="微软雅黑" size="15px" weight="400" font-style="" opacity="1" y="7.375" transform="rotate(0)"><tspan id="SvgjsTspan1550" dy="18" x="0"><tspan id="SvgjsTspan1551" style="text-decoration:;">Jsonrpc.toPayload(payload)</tspan></tspan></text></g></g><g id="SvgjsG1552"><path id="SvgjsPath1553" d="M904.75 825.75L934 825.75L934 867.4409830056251L906.7 867.4409830056251" stroke="#323232" stroke-width="1.5" fill="none" marker-end="url(#SvgjsMarker1554)"></path></g><g id="SvgjsG1556" transform="translate(903,879)"><path id="SvgjsPath1557" d="M 0 0L 255 0L 255 134L 0 134Z" stroke="none" fill="none"></path><g id="SvgjsG1558"><text id="SvgjsText1559" font-family="微软雅黑" text-anchor="start" font-size="15px" width="255px" fill="#323232" font-weight="400" align="middle" lineHeight="125%" anchor="start" family="微软雅黑" size="15px" weight="400" font-style="" opacity="1" y="-1.375" transform="rotate(0)"><tspan id="SvgjsTspan1560" dy="18" x="0"><tspan id="SvgjsTspan1561" style="text-decoration:;">payload = </tspan></tspan><tspan id="SvgjsTspan1562" dy="18" x="0"><tspan id="SvgjsTspan1563" style="text-decoration:;">{</tspan></tspan><tspan id="SvgjsTspan1564" dy="18" x="0"><tspan id="SvgjsTspan1565" style="text-decoration:;">    jsonrpc: '2.0',</tspan></tspan><tspan id="SvgjsTspan1566" dy="18" x="0"><tspan id="SvgjsTspan1567" style="text-decoration:;">    id: 0++,</tspan></tspan><tspan id="SvgjsTspan1568" dy="18" x="0"><tspan id="SvgjsTspan1569" style="text-decoration:;">    method: 'personal_newAccount'</tspan><tspan id="SvgjsTspan1570" style="text-decoration:;font-size: inherit;">,</tspan></tspan><tspan id="SvgjsTspan1571" dy="18" x="0"><tspan id="SvgjsTspan1572" style="text-decoration:;">    params: [ '123456' ],</tspan></tspan><tspan id="SvgjsTspan1573" dy="18" x="0"><tspan id="SvgjsTspan1574" style="text-decoration:;"> }</tspan></tspan></text></g></g><g id="SvgjsG1575" transform="translate(1192.5,301)"><path id="SvgjsPath1576" d="M 0 4Q 0 0 4 0L 226 0Q 230 0 230 4L 230 108Q 230 112 226 112L 4 112Q 0 112 0 108Z" stroke="rgba(33,41,48,1)" stroke-width="1.5" fill-opacity="1" fill="#ffffff"></path><path id="SvgjsPath1577" d="M 0 30L 230 30M 0 60L 230 60" stroke="rgba(33,41,48,1)" stroke-width="1.5" fill="none"></path><path id="SvgjsPath1578" d="M 0 0L 230 0L 230 112L 0 112Z" stroke="none" fill="none"></path><g id="SvgjsG1579"><text id="SvgjsText1580" font-family="微软雅黑" text-anchor="middle" font-size="15px" width="210px" fill="#323232" font-weight="700" align="middle" lineHeight="125%" anchor="middle" family="微软雅黑" size="15px" weight="700" font-style="" opacity="1" y="2.625" transform="rotate(0)"><tspan id="SvgjsTspan1581" dy="18" x="115"><tspan id="SvgjsTspan1582" style="text-decoration:;">_consoleWeb3Transport</tspan></tspan></text></g><g id="SvgjsG1583"><text id="SvgjsText1584" font-family="微软雅黑" text-anchor="start" font-size="15px" width="210px" fill="#323232" font-weight="400" align="middle" lineHeight="125%" anchor="start" family="微软雅黑" size="15px" weight="400" font-style="" opacity="1" y="32.625" transform="rotate(0)"><tspan id="SvgjsTspan1585" dy="18" x="10"><tspan id="SvgjsTspan1586" style="text-decoration:;"> </tspan></tspan></text></g><g id="SvgjsG1587"><text id="SvgjsText1588" font-family="微软雅黑" text-anchor="start" font-size="15px" width="210px" fill="#323232" font-weight="400" align="middle" lineHeight="125%" anchor="start" family="微软雅黑" size="15px" weight="400" font-style="" opacity="1" y="64.125" transform="rotate(0)"><tspan id="SvgjsTspan1589" dy="18" x="10"><tspan id="SvgjsTspan1590" style="text-decoration:;">send()</tspan></tspan><tspan id="SvgjsTspan1591" dy="18" x="10"><tspan id="SvgjsTspan1592" style="text-decoration:;">sendAsync()</tspan></tspan></text></g></g><g id="SvgjsG1593" transform="translate(1206.25,448)"><path id="SvgjsPath1594" d="M 101.25 30L 101.25 762" stroke-dasharray="3,4" stroke="rgba(33,41,48,1)" stroke-width="2" fill="none"></path><path id="SvgjsPath1595" d="M 0 0L 202.5 0L 202.5 30L 0 30Z" stroke="rgba(33,41,48,1)" stroke-width="1.5" fill-opacity="1" fill="#ffffff"></path><g id="SvgjsG1596"><text id="SvgjsText1597" font-family="微软雅黑" text-anchor="middle" font-size="15px" width="183px" fill="#323232" font-weight="400" align="middle" lineHeight="125%" anchor="middle" family="微软雅黑" size="15px" weight="400" font-style="" opacity="1" y="2.625" transform="rotate(0)"><tspan id="SvgjsTspan1598" dy="18" x="101.5"><tspan id="SvgjsTspan1599" style="text-decoration:;fill: rgb(50, 50, 50);">_consoleWeb3Transport</tspan></tspan></text></g></g><g id="SvgjsG1600" transform="translate(898,1024)"><path id="SvgjsPath1601" d="M 0 0L 203 0L 203 35L 0 35Z" stroke="none" fill="none"></path><g id="SvgjsG1602"><text id="SvgjsText1603" font-family="微软雅黑" text-anchor="middle" font-size="15px" width="203px" fill="#323232" font-weight="400" align="middle" lineHeight="125%" anchor="middle" family="微软雅黑" size="15px" weight="400" font-style="" opacity="1" y="5.125" transform="rotate(0)"><tspan id="SvgjsTspan1604" dy="18" x="101.5"><tspan id="SvgjsTspan1605" style="text-decoration:;">this.provider.send(payload)</tspan></tspan></text></g></g><g id="SvgjsG1606"><path id="SvgjsPath1607" d="M895 1070L1086 1070L1086 1070L1277 1070" stroke="#323232" stroke-width="1.5" fill="none" marker-end="url(#SvgjsMarker1608)"></path></g><g id="SvgjsG1610" transform="translate(1428.5,593)"><path id="SvgjsPath1611" d="M 0 4Q 0 0 4 0L 226 0Q 230 0 230 4L 230 126Q 230 130 226 130L 4 130Q 0 130 0 126Z" stroke="rgba(33,41,48,1)" stroke-width="1.5" fill-opacity="1" fill="#ffffff"></path><path id="SvgjsPath1612" d="M 0 30L 230 30M 0 100L 230 100" stroke="rgba(33,41,48,1)" stroke-width="1.5" fill="none"></path><path id="SvgjsPath1613" d="M 0 0L 230 0L 230 130L 0 130Z" stroke="none" fill="none"></path><g id="SvgjsG1614"><text id="SvgjsText1615" font-family="微软雅黑" text-anchor="middle" font-size="15px" width="210px" fill="#323232" font-weight="700" align="middle" lineHeight="125%" anchor="middle" family="微软雅黑" size="15px" weight="700" font-style="" opacity="1" y="2.625" transform="rotate(0)"><tspan id="SvgjsTspan1616" dy="18" x="115"><tspan id="SvgjsTspan1617" style="text-decoration:;">bridge</tspan></tspan></text></g><g id="SvgjsG1618"><text id="SvgjsText1619" font-family="微软雅黑" text-anchor="start" font-size="15px" width="210px" fill="#323232" font-weight="400" align="middle" lineHeight="125%" anchor="start" family="微软雅黑" size="15px" weight="400" font-style="" opacity="1" y="34.125" transform="rotate(0)"><tspan id="SvgjsTspan1620" dy="18" x="10"><tspan id="SvgjsTspan1621" style="text-decoration:;">client</tspan></tspan><tspan id="SvgjsTspan1622" dy="18" x="10"><tspan id="SvgjsTspan1623" style="text-decoration:;">prompter</tspan></tspan><tspan id="SvgjsTspan1624" dy="18" x="10"><tspan id="SvgjsTspan1625" style="text-decoration:;">printer</tspan></tspan></text></g><g id="SvgjsG1626"><text id="SvgjsText1627" font-family="微软雅黑" text-anchor="start" font-size="15px" width="210px" fill="#323232" font-weight="400" align="middle" lineHeight="125%" anchor="start" family="微软雅黑" size="15px" weight="400" font-style="" opacity="1" y="102.625" transform="rotate(0)"><tspan id="SvgjsTspan1628" dy="18" x="10"><tspan id="SvgjsTspan1629" style="text-decoration:;">Send(call jsre.Call)</tspan></tspan></text></g></g><g id="SvgjsG1630" transform="translate(1454,735)"><path id="SvgjsPath1631" d="M 72.5 30L 72.5 871" stroke-dasharray="3,4" stroke="rgba(33,41,48,1)" stroke-width="2" fill="none"></path><path id="SvgjsPath1632" d="M 0 0L 145 0L 145 30L 0 30Z" stroke="rgba(33,41,48,1)" stroke-width="1.5" fill-opacity="1" fill="#ffffff"></path><g id="SvgjsG1633"><text id="SvgjsText1634" font-family="微软雅黑" text-anchor="middle" font-size="15px" width="125px" fill="#323232" font-weight="400" align="middle" lineHeight="125%" anchor="middle" family="微软雅黑" size="15px" weight="400" font-style="" opacity="1" y="2.625" transform="rotate(0)"><tspan id="SvgjsTspan1635" dy="18" x="72.5"><tspan id="SvgjsTspan1636" style="text-decoration:;fill: rgb(50, 50, 50);">bridge</tspan></tspan></text></g></g><g id="SvgjsG1637" transform="translate(1288.5,1050)"><path id="SvgjsPath1638" d="M 0 4Q 0 0 4 0L 26 0Q 30 0 30 4L 30 96Q 30 100 26 100L 4 100Q 0 100 0 96L 0 4Z" stroke="rgba(33,41,48,1)" stroke-width="1.5" fill-opacity="1" fill="#ffffff"></path></g><g id="SvgjsG1639"><path id="SvgjsPath1640" d="M1318.75 1118L1409 1118L1409 1118L1500 1118" stroke="#323232" stroke-width="1.5" fill="none" marker-end="url(#SvgjsMarker1641)"></path></g><g id="SvgjsG1643" transform="translate(1373.5,1068)"><path id="SvgjsPath1644" d="M 0 0L 100 0L 100 40L 0 40Z" stroke="none" fill="none"></path><g id="SvgjsG1645"><text id="SvgjsText1646" font-family="微软雅黑" text-anchor="middle" font-size="15px" width="100px" fill="#323232" font-weight="400" align="middle" lineHeight="125%" anchor="middle" family="微软雅黑" size="15px" weight="400" font-style="" opacity="1" y="7.625" transform="rotate(0)"><tspan id="SvgjsTspan1647" dy="18" x="50"><tspan id="SvgjsTspan1648" style="text-decoration:;">bridge.Send</tspan></tspan></text></g></g><g id="SvgjsG1649" transform="translate(1511,1089)"><path id="SvgjsPath1650" d="M 0 4Q 0 0 4 0L 26 0Q 30 0 30 4L 30 456Q 30 460 26 460L 4 460Q 0 460 0 456L 0 4Z" stroke="rgba(33,41,48,1)" stroke-width="1.5" fill-opacity="1" fill="#ffffff"></path></g><g id="SvgjsG1651"><path id="SvgjsPath1652" d="M1541.75 1112L1571 1112L1571 1171L1543.7 1171" stroke="#323232" stroke-width="1.5" fill="none" marker-end="url(#SvgjsMarker1653)"></path></g><g id="SvgjsG1655" transform="translate(1551.5,1181)"><path id="SvgjsPath1656" d="M 0 0L 181.5 0L 181.5 147L 0 147Z" stroke="none" fill="none"></path><g id="SvgjsG1657"><text id="SvgjsText1658" font-family="微软雅黑" text-anchor="start" font-size="15px" width="182px" fill="#323232" font-weight="400" align="middle" lineHeight="125%" anchor="start" family="微软雅黑" size="15px" weight="400" font-style="" opacity="1" y="-4.375" transform="rotate(0)"><tspan id="SvgjsTspan1659" dy="18" x="0"><tspan id="SvgjsTspan1660" style="text-decoration:;">reqs []jsonrpcCall = [</tspan></tspan><tspan id="SvgjsTspan1661" dy="18" x="0"><tspan id="SvgjsTspan1662" style="text-decoration:;">  {</tspan></tspan><tspan id="SvgjsTspan1663" dy="18" x="0"><tspan id="SvgjsTspan1664" style="text-decoration:;">    ID int64</tspan></tspan><tspan id="SvgjsTspan1665" dy="18" x="0"><tspan id="SvgjsTspan1666" style="text-decoration:;">    Method string</tspan></tspan><tspan id="SvgjsTspan1667" dy="18" x="0"><tspan id="SvgjsTspan1668" style="text-decoration:;">    Params []interface{}</tspan></tspan><tspan id="SvgjsTspan1669" dy="18" x="0"><tspan id="SvgjsTspan1670" style="text-decoration:;">   },</tspan></tspan><tspan id="SvgjsTspan1671" dy="18" x="0"><tspan id="SvgjsTspan1672" style="text-decoration:;"> </tspan></tspan><tspan id="SvgjsTspan1673" dy="18" x="0"><tspan id="SvgjsTspan1674" style="text-decoration:;">}</tspan></tspan></text></g></g><g id="SvgjsG1675" transform="translate(1551.5,1062.5)"><path id="SvgjsPath1676" d="M 0 0L 82 0L 82 51L 0 51Z" stroke="none" fill="none"></path><g id="SvgjsG1677"><text id="SvgjsText1678" font-family="微软雅黑" text-anchor="middle" font-size="15px" width="82px" fill="#323232" font-weight="400" align="middle" lineHeight="125%" anchor="middle" family="微软雅黑" size="15px" weight="400" font-style="" opacity="1" y="3.625" transform="rotate(0)"><tspan id="SvgjsTspan1679" dy="18" x="41"><tspan id="SvgjsTspan1680" style="text-decoration:;">js对象转成</tspan></tspan><tspan id="SvgjsTspan1681" dy="18" x="41"><tspan id="SvgjsTspan1682" style="text-decoration:;">go对象</tspan></tspan></text></g></g><g id="SvgjsG1683"><path id="SvgjsPath1684" d="M1539 1395L1645 1395L1645 1395L1751 1395" stroke="#323232" stroke-width="1.5" fill="none" marker-end="url(#SvgjsMarker1685)"></path></g><g id="SvgjsG1687" transform="translate(1542.5,1330)"><path id="SvgjsPath1688" d="M 0 0L 191.5 0L 191.5 46L 0 46Z" stroke="none" fill="none"></path><g id="SvgjsG1689"><text id="SvgjsText1690" font-family="微软雅黑" text-anchor="middle" font-size="15px" width="192px" fill="#323232" font-weight="400" align="middle" lineHeight="125%" anchor="middle" family="微软雅黑" size="15px" weight="400" font-style="" opacity="1" y="10.625" transform="rotate(0)"><tspan id="SvgjsTspan1691" dy="18" x="96"><tspan id="SvgjsTspan1692" style="text-decoration:;">b.client.Call() 开始写管道</tspan></tspan></text></g></g><g id="SvgjsG1693"><path id="SvgjsPath1694" d="M1554 1427L1663 1427L1663 1427L1772 1427" stroke-dasharray="8,5" stroke="#323232" stroke-width="1.5" fill="none" marker-start="url(#SvgjsMarker1695)"></path></g><g id="SvgjsG1697" transform="translate(1551.5,1439)"><path id="SvgjsPath1698" d="M 0 0L 216 0L 216 100L 0 100Z" stroke="none" fill="none"></path><g id="SvgjsG1699"><text id="SvgjsText1700" font-family="微软雅黑" text-anchor="start" font-size="15px" width="216px" fill="#323232" font-weight="400" align="middle" lineHeight="125%" anchor="start" family="微软雅黑" size="15px" weight="400" font-style="" opacity="1" y="0.125" transform="rotate(0)"><tspan id="SvgjsTspan1701" dy="18" x="0"><tspan id="SvgjsTspan1702" style="text-decoration:;">[{</tspan></tspan><tspan id="SvgjsTspan1703" dy="18" x="0"><tspan id="SvgjsTspan1704" style="text-decoration:;">    jsonrpc: '2.0',</tspan></tspan><tspan id="SvgjsTspan1705" dy="18" x="0"><tspan id="SvgjsTspan1706" style="text-decoration:;">    id: req.ID,</tspan></tspan><tspan id="SvgjsTspan1707" dy="18" x="0"><tspan id="SvgjsTspan1708" style="text-decoration:;">    result: JSON.parse()结果</tspan></tspan><tspan id="SvgjsTspan1709" dy="18" x="0"><tspan id="SvgjsTspan1710" style="text-decoration:;">}]</tspan></tspan></text></g></g><g id="SvgjsG1711"><path id="SvgjsPath1712" d="M903 1548L1211.5 1548L1211.5 1548L1520 1548" stroke-dasharray="8,5" stroke="#323232" stroke-width="1.5" fill="none" marker-start="url(#SvgjsMarker1713)"></path></g><g id="SvgjsG1715" transform="translate(886.5,1499)"><path id="SvgjsPath1716" d="M 0 0L 100 0L 100 40L 0 40Z" stroke="none" fill="none"></path><g id="SvgjsG1717"><text id="SvgjsText1718" font-family="微软雅黑" text-anchor="middle" font-size="15px" width="100px" fill="#323232" font-weight="400" align="middle" lineHeight="125%" anchor="middle" family="微软雅黑" size="15px" weight="400" font-style="" opacity="1" y="7.625" transform="rotate(0)"><tspan id="SvgjsTspan1719" dy="18" x="50"><tspan id="SvgjsTspan1720" style="text-decoration:;">只取result</tspan></tspan></text></g></g><g id="SvgjsG1721" transform="translate(1520,288)"><path id="SvgjsPath1722" d="M 0 0L 100 0L 100 40L 0 40Z" stroke="none" fill="none"></path><g id="SvgjsG1723"><text id="SvgjsText1724" font-family="微软雅黑" text-anchor="middle" font-size="18px" width="100px" fill="#e74f4c" font-weight="400" align="middle" lineHeight="125%" anchor="middle" family="微软雅黑" size="18px" weight="400" font-style="" opacity="1" y="4.25" transform="rotate(0)"><tspan id="SvgjsTspan1725" dy="22" x="50"><tspan id="SvgjsTspan1726" style="text-decoration:;">Go区域</tspan></tspan></text></g></g><g id="SvgjsG1727" transform="translate(53,47)"><path id="SvgjsPath1728" d="M 0 0L 100 0L 100 40L 0 40Z" stroke="none" fill="none"></path><g id="SvgjsG1729"><text id="SvgjsText1730" font-family="微软雅黑" text-anchor="middle" font-size="18px" width="100px" fill="#569230" font-weight="400" align="middle" lineHeight="125%" anchor="middle" family="微软雅黑" size="18px" weight="400" font-style="" opacity="1" y="4.25" transform="rotate(0)"><tspan id="SvgjsTspan1731" dy="22" x="50"><tspan id="SvgjsTspan1732" style="text-decoration:;">goja区域</tspan></tspan></text></g></g></svg>