<svg id="SvgjsSvg1114" width="329" height="247" xmlns="http://www.w3.org/2000/svg" version="1.1" xmlns:xlink="http://www.w3.org/1999/xlink" xmlns:svgjs="http://svgjs.com/svgjs"><defs id="SvgjsDefs1115"><pattern patternUnits="userSpaceOnUse" id="pattern_mark_0" width="300" height="300"><text x="150" y="100" fill="rgba(229,229,229,0.8)" font-size="18" transform="rotate(-45, 150, 150)" style="dominant-baseline: middle; text-anchor: middle;"></text></pattern><pattern patternUnits="userSpaceOnUse" id="pattern_mark_1" width="300" height="300"><text x="150" y="200" fill="rgba(229,229,229,0.8)" font-size="18" transform="rotate(-45, 150, 150)" style="dominant-baseline: middle; text-anchor: middle;"></text></pattern></defs><rect id="svgbackgroundid" width="329" height="247" fill="transparent"></rect><rect id="SvgjsRect1117" width="329" height="247" fill="url(#pattern_mark_0)"></rect><rect id="SvgjsRect1118" width="329" height="247" fill="url(#pattern_mark_1)"></rect><g id="SvgjsG1119" transform="translate(25,53)"><path id="SvgjsPath1120" d="M 0 4Q 0 0 4 0L 275 0Q 279 0 279 4L 279 165Q 279 169 275 169L 4 169Q 0 169 0 165Z" stroke="rgba(33,41,48,1)" stroke-width="1.5" fill-opacity="1" fill="#ffffff"></path><g id="SvgjsG1121"><text id="SvgjsText1122" font-family="微软雅黑" text-anchor="middle" font-size="13px" width="259px" fill="#323232" font-weight="400" align="middle" lineHeight="125%" anchor="middle" family="微软雅黑" size="13px" weight="400" font-style="" opacity="1" y="73.875" transform="rotate(0)"></text></g></g><g id="SvgjsG1123" transform="translate(101,25)"><path id="SvgjsPath1124" d="M 0 0L 99 0L 99 29L 0 29Z" stroke="none" fill="none"></path><g id="SvgjsG1125"><text id="SvgjsText1126" font-family="微软雅黑" text-anchor="middle" font-size="18px" width="99px" fill="#323232" font-weight="400" align="middle" lineHeight="125%" anchor="middle" family="微软雅黑" size="18px" weight="400" font-style="" opacity="1" y="-1.25" transform="rotate(0)"><tspan id="SvgjsTspan1127" dy="22" x="49.5"><tspan id="SvgjsTspan1128" style="text-decoration:;">Database</tspan></tspan></text></g></g><g id="SvgjsG1129" transform="translate(65,53)"><path id="SvgjsPath1130" d="M 0 0L 192 0L 192 26L 0 26Z" stroke-dasharray="10,6,3,6" stroke="rgba(33,41,48,1)" stroke-width="1.5" fill-opacity="1" fill="#ffffff"></path><g id="SvgjsG1131"><text id="SvgjsText1132" font-family="微软雅黑" text-anchor="middle" font-size="14px" width="172px" fill="#323232" font-weight="400" align="middle" lineHeight="125%" anchor="middle" family="微软雅黑" size="14px" weight="400" font-style="" opacity="1" y="1.25" transform="rotate(0)"><tspan id="SvgjsTspan1133" dy="17" x="96"><tspan id="SvgjsTspan1134" style="text-decoration:;">ethdb/leveldb/leveldb.go</tspan></tspan></text></g></g><g id="SvgjsG1135" transform="translate(91,91)"><path id="SvgjsPath1136" d="M 0 0L 175 0L 175 26L 0 26Z" stroke="none" fill="none"></path><g id="SvgjsG1137"><text id="SvgjsText1138" font-family="微软雅黑" text-anchor="start" font-size="16px" width="175px" fill="#323232" font-weight="400" align="middle" lineHeight="125%" anchor="start" family="微软雅黑" size="16px" weight="400" font-style="" opacity="1" y="-1" transform="rotate(0)"><tspan id="SvgjsTspan1139" dy="20" x="0"><tspan id="SvgjsTspan1140" style="text-decoration:;">fn: xx/geth/chaindata/</tspan></tspan></text></g></g><g id="SvgjsG1141" transform="translate(86,124.5)"><path id="SvgjsPath1142" d="M 0 0L 198.5 0L 198.5 20L 0 20Z" stroke="none" fill="none"></path><g id="SvgjsG1143"><text id="SvgjsText1144" font-family="微软雅黑" text-anchor="start" font-size="16px" width="199px" fill="#e74f4c" font-weight="400" align="middle" lineHeight="125%" anchor="start" family="微软雅黑" size="16px" weight="400" font-style="" opacity="1" y="-4" transform="rotate(0)"><tspan id="SvgjsTspan1145" dy="20" x="0"><tspan id="SvgjsTspan1146" style="text-decoration:;">db: leveldb.OpenFile()返回</tspan></tspan></text></g></g><g id="SvgjsG1147" transform="translate(86,152)"><path id="SvgjsPath1148" d="M 0 0L 83 0L 83 20L 0 20Z" stroke="none" fill="none"></path><g id="SvgjsG1149"><text id="SvgjsText1150" font-family="微软雅黑" text-anchor="start" font-size="16px" width="83px" fill="#323232" font-weight="400" align="middle" lineHeight="125%" anchor="start" family="微软雅黑" size="16px" weight="400" font-style="" opacity="1" y="-4" transform="rotate(0)"><tspan id="SvgjsTspan1151" dy="20" x="0"><tspan id="SvgjsTspan1152" style="text-decoration:;">log: logger</tspan></tspan></text></g></g><g id="SvgjsG1153" transform="translate(43,174)"><path id="SvgjsPath1154" d="M 0 0L 250 0L 250 27L 0 27Z" stroke="none" fill="none"></path><g id="SvgjsG1155"><text id="SvgjsText1156" font-family="微软雅黑" text-anchor="start" font-size="16px" width="250px" fill="#323232" font-weight="400" align="middle" lineHeight="125%" anchor="start" family="微软雅黑" size="16px" weight="400" font-style="" opacity="1" y="-0.5" transform="rotate(0)"><tspan id="SvgjsTspan1157" dy="20" x="0"><tspan id="SvgjsTspan1158" style="text-decoration:;">quitChan: make(chan chan error)</tspan></tspan></text></g></g></svg>