<svg id="SvgjsSvg1006" width="714.5" height="572" xmlns="http://www.w3.org/2000/svg" version="1.1" xmlns:xlink="http://www.w3.org/1999/xlink" xmlns:svgjs="http://svgjs.com/svgjs"><defs id="SvgjsDefs1007"><pattern patternUnits="userSpaceOnUse" id="pattern_mark_0" width="300" height="300"><text x="150" y="100" fill="rgba(229,229,229,0.8)" font-size="18" transform="rotate(-45, 150, 150)" style="dominant-baseline: middle; text-anchor: middle;"></text></pattern><pattern patternUnits="userSpaceOnUse" id="pattern_mark_1" width="300" height="300"><text x="150" y="200" fill="rgba(229,229,229,0.8)" font-size="18" transform="rotate(-45, 150, 150)" style="dominant-baseline: middle; text-anchor: middle;"></text></pattern><marker id="SvgjsMarker1129" markerWidth="16" markerHeight="16" refX="13" refY="8" viewBox="0 0 16 16" orient="auto" markerUnits="userSpaceOnUse" stroke-dasharray="0,0"><circle id="SvgjsCircle1130" r="4" cx="8" cy="8" fill="#323232" stroke="#323232" stroke-width="1.5"></circle></marker></defs><rect id="svgbackgroundid" width="714.5" height="572" fill="transparent"></rect><rect id="SvgjsRect1009" width="714.5" height="572" fill="url(#pattern_mark_0)"></rect><rect id="SvgjsRect1010" width="714.5" height="572" fill="url(#pattern_mark_1)"></rect><g id="SvgjsG1011" transform="translate(41,30.625)"><path id="SvgjsPath1012" d="M 0 4Q 0 0 4 0L 250 0Q 254 0 254 4L 254 439Q 254 443 250 443L 4 443Q 0 443 0 439Z" stroke="rgba(33,41,48,1)" stroke-width="1.5" fill-opacity="1" fill="#ffffff"></path><g id="SvgjsG1013"><text id="SvgjsText1014" font-family="微软雅黑" text-anchor="middle" font-size="13px" width="234px" fill="#323232" font-weight="400" align="middle" lineHeight="125%" anchor="middle" family="微软雅黑" size="13px" weight="400" font-style="" opacity="1" y="210.875" transform="rotate(0)"></text></g></g><g id="SvgjsG1015"><path id="SvgjsPath1016" d="M67.5 101L280.5 101" stroke="#323232" stroke-width="1.5" fill="none"></path></g><g id="SvgjsG1017" transform="translate(70.5,116)"><path id="SvgjsPath1018" d="M 0 0L 78.5 0L 78.5 26L 0 26Z" stroke="none" fill="none"></path><g id="SvgjsG1019"><text id="SvgjsText1020" font-family="微软雅黑" text-anchor="middle" font-size="15px" width="79px" fill="#323232" font-weight="400" align="middle" lineHeight="125%" anchor="middle" family="微软雅黑" size="15px" weight="400" font-style="" opacity="1" y="0.625" transform="rotate(0)"><tspan id="SvgjsTspan1021" dy="18" x="39.5"><tspan id="SvgjsTspan1022" style="text-decoration:;">header</tspan></tspan></text></g></g><g id="SvgjsG1023" transform="translate(127.75,29.5)"><path id="SvgjsPath1024" d="M 0 0L 78 0L 78 27.75L 0 27.75Z" stroke="none" fill="none"></path><g id="SvgjsG1025"><text id="SvgjsText1026" font-family="微软雅黑" text-anchor="middle" font-size="18px" width="78px" fill="#323232" font-weight="400" align="middle" lineHeight="125%" anchor="middle" family="微软雅黑" size="18px" weight="400" font-style="" opacity="1" y="-1.875" transform="rotate(0)"><tspan id="SvgjsTspan1027" dy="22" x="39"><tspan id="SvgjsTspan1028" style="text-decoration:;">Block</tspan></tspan></text></g></g><g id="SvgjsG1029" transform="translate(70.5,60.75)"><path id="SvgjsPath1030" d="M 0 4Q 0 0 4 0L 191 0Q 195 0 195 4L 195 22Q 195 26 191 26L 4 26Q 0 26 0 22Z" stroke-dasharray="10,6" stroke="rgba(33,41,48,1)" stroke-width="1.5" fill-opacity="1" fill="#ffffff"></path><g id="SvgjsG1031"><text id="SvgjsText1032" font-family="微软雅黑" text-anchor="middle" font-size="18px" width="175px" fill="#323232" font-weight="400" align="middle" lineHeight="125%" anchor="middle" family="微软雅黑" size="18px" weight="400" font-style="" opacity="1" y="-2.75" transform="rotate(0)"><tspan id="SvgjsTspan1033" dy="22" x="97.5"><tspan id="SvgjsTspan1034" style="text-decoration:;">core/types/block.go</tspan></tspan></text></g></g><g id="SvgjsG1035" transform="translate(395.5,25)"><path id="SvgjsPath1036" d="M 0 4Q 0 0 4 0L 290 0Q 294 0 294 4L 294 518Q 294 522 290 522L 4 522Q 0 522 0 518Z" stroke="rgba(33,41,48,1)" stroke-width="1.5" fill-opacity="1" fill="#ffffff"></path><g id="SvgjsG1037"><text id="SvgjsText1038" font-family="微软雅黑" text-anchor="middle" font-size="13px" width="274px" fill="#323232" font-weight="400" align="middle" lineHeight="125%" anchor="middle" family="微软雅黑" size="13px" weight="400" font-style="" opacity="1" y="250.375" transform="rotate(0)"></text></g></g><g id="SvgjsG1039"><path id="SvgjsPath1040" d="M421.5000000000002 97L634.5 97" stroke="#323232" stroke-width="1.5" fill="none"></path></g><g id="SvgjsG1041" transform="translate(424.5000000000002,109.25)"><path id="SvgjsPath1042" d="M 0 0L 78.5 0L 78.5 26L 0 26Z" stroke="none" fill="none"></path><g id="SvgjsG1043"><text id="SvgjsText1044" font-family="微软雅黑" text-anchor="middle" font-size="15px" width="79px" fill="#323232" font-weight="400" align="middle" lineHeight="125%" anchor="middle" family="微软雅黑" size="15px" weight="400" font-style="" opacity="1" y="0.625" transform="rotate(0)"><tspan id="SvgjsTspan1045" dy="18" x="39.5"><tspan id="SvgjsTspan1046" style="text-decoration:;">Numbe: 0</tspan></tspan></text></g></g><g id="SvgjsG1047" transform="translate(416.7500000000002,142)"><path id="SvgjsPath1048" d="M 0 0L 233.5 0L 233.5 24.5L 0 24.5Z" stroke="none" fill="none"></path><g id="SvgjsG1049"><text id="SvgjsText1050" font-family="微软雅黑" text-anchor="middle" font-size="15px" width="234px" fill="#323232" font-weight="400" align="middle" lineHeight="125%" anchor="middle" family="微软雅黑" size="15px" weight="400" font-style="" opacity="1" y="-0.125" transform="rotate(0)"><tspan id="SvgjsTspan1051" dy="18" x="117"><tspan id="SvgjsTspan1052" style="text-decoration:;">Nonce: 0x0000000000000042</tspan></tspan></text></g></g><g id="SvgjsG1053" transform="translate(419.7500000000002,345)"><path id="SvgjsPath1054" d="M 0 0L 116 0L 116 27L 0 27Z" stroke="none" fill="none"></path><g id="SvgjsG1055"><text id="SvgjsText1056" font-family="微软雅黑" text-anchor="middle" font-size="15px" width="116px" fill="#323232" font-weight="400" align="middle" lineHeight="125%" anchor="middle" family="微软雅黑" size="15px" weight="400" font-style="" opacity="1" y="1.125" transform="rotate(0)"><tspan id="SvgjsTspan1057" dy="18" x="58"><tspan id="SvgjsTspan1058" style="text-decoration:;">MixDigest: 空</tspan></tspan></text></g></g><g id="SvgjsG1059" transform="translate(422.5000000000002,166.5)"><path id="SvgjsPath1060" d="M 0 0L 82.5 0L 82.5 22.5L 0 22.5Z" stroke="none" fill="none"></path><g id="SvgjsG1061"><text id="SvgjsText1062" font-family="微软雅黑" text-anchor="middle" font-size="15px" width="83px" fill="#323232" font-weight="400" align="middle" lineHeight="125%" anchor="middle" family="微软雅黑" size="15px" weight="400" font-style="" opacity="1" y="-1.125" transform="rotate(0)"><tspan id="SvgjsTspan1063" dy="18" x="41.5"><tspan id="SvgjsTspan1064" style="text-decoration:;">Time: 0x00</tspan></tspan></text></g></g><g id="SvgjsG1065" transform="translate(423.0000000000002,191.25)"><path id="SvgjsPath1066" d="M 0 0L 110.5 0L 110.5 24L 0 24Z" stroke="none" fill="none"></path><g id="SvgjsG1067"><text id="SvgjsText1068" font-family="微软雅黑" text-anchor="middle" font-size="15px" width="111px" fill="#323232" font-weight="400" align="middle" lineHeight="125%" anchor="middle" family="微软雅黑" size="15px" weight="400" font-style="" opacity="1" y="-0.375" transform="rotate(0)"><tspan id="SvgjsTspan1069" dy="18" x="55.5"><tspan id="SvgjsTspan1070" style="text-decoration:;">ParentHash: 空</tspan></tspan></text></g></g><g id="SvgjsG1071" transform="translate(422.5000000000002,217.5)"><path id="SvgjsPath1072" d="M 0 0L 61.5 0L 61.5 20L 0 20Z" stroke="none" fill="none"></path><g id="SvgjsG1073"><text id="SvgjsText1074" font-family="微软雅黑" text-anchor="middle" font-size="15px" width="62px" fill="#323232" font-weight="400" align="middle" lineHeight="125%" anchor="middle" family="微软雅黑" size="15px" weight="400" font-style="" opacity="1" y="-2.375" transform="rotate(0)"><tspan id="SvgjsTspan1075" dy="18" x="31"><tspan id="SvgjsTspan1076" style="text-decoration:;">Extra: ""</tspan></tspan></text></g></g><g id="SvgjsG1077" transform="translate(419.7500000000002,241.375)"><path id="SvgjsPath1078" d="M 0 0L 140 0L 140 21.5L 0 21.5Z" stroke="none" fill="none"></path><g id="SvgjsG1079"><text id="SvgjsText1080" font-family="微软雅黑" text-anchor="middle" font-size="15px" width="140px" fill="#323232" font-weight="400" align="middle" lineHeight="125%" anchor="middle" family="微软雅黑" size="15px" weight="400" font-style="" opacity="1" y="-1.625" transform="rotate(0)"><tspan id="SvgjsTspan1081" dy="18" x="70"><tspan id="SvgjsTspan1082" style="text-decoration:;">GasLimit: 0x2fefd8</tspan></tspan></text></g></g><g id="SvgjsG1083" transform="translate(418.7500000000002,262.75)"><path id="SvgjsPath1084" d="M 0 0L 90 0L 90 24.5L 0 24.5Z" stroke="none" fill="none"></path><g id="SvgjsG1085"><text id="SvgjsText1086" font-family="微软雅黑" text-anchor="middle" font-size="15px" width="90px" fill="#323232" font-weight="400" align="middle" lineHeight="125%" anchor="middle" family="微软雅黑" size="15px" weight="400" font-style="" opacity="1" y="-0.125" transform="rotate(0)"><tspan id="SvgjsTspan1087" dy="18" x="45"><tspan id="SvgjsTspan1088" style="text-decoration:;">GasUsed: 0</tspan></tspan></text></g></g><g id="SvgjsG1089" transform="translate(419.7500000000002,289.6875)"><path id="SvgjsPath1090" d="M 0 0L 90 0L 90 24.5L 0 24.5Z" stroke="none" fill="none"></path><g id="SvgjsG1091"><text id="SvgjsText1092" font-family="微软雅黑" text-anchor="middle" font-size="15px" width="90px" fill="#323232" font-weight="400" align="middle" lineHeight="125%" anchor="middle" family="微软雅黑" size="15px" weight="400" font-style="" opacity="1" y="-0.125" transform="rotate(0)"><tspan id="SvgjsTspan1093" dy="18" x="45"><tspan id="SvgjsTspan1094" style="text-decoration:;">BaseFee: 0</tspan></tspan></text></g></g><g id="SvgjsG1095" transform="translate(418.7500000000002,312.5)"><path id="SvgjsPath1096" d="M 0 0L 166.5 0L 166.5 27.5L 0 27.5Z" stroke="none" fill="none"></path><g id="SvgjsG1097"><text id="SvgjsText1098" font-family="微软雅黑" text-anchor="middle" font-size="15px" width="167px" fill="#323232" font-weight="400" align="middle" lineHeight="125%" anchor="middle" family="微软雅黑" size="15px" weight="400" font-style="" opacity="1" y="1.375" transform="rotate(0)"><tspan id="SvgjsTspan1099" dy="18" x="83.5"><tspan id="SvgjsTspan1100" style="text-decoration:;">Difficulty: 0x0200000</tspan></tspan></text></g></g><g id="SvgjsG1101" transform="translate(424.5000000000002,377)"><path id="SvgjsPath1102" d="M 0 0L 236 0L 236 46.75L 0 46.75Z" stroke="none" fill="none"></path><g id="SvgjsG1103"><text id="SvgjsText1104" font-family="微软雅黑" text-anchor="middle" font-size="15px" width="236px" fill="#323232" font-weight="400" align="middle" lineHeight="125%" anchor="middle" family="微软雅黑" size="15px" weight="400" font-style="" opacity="1" y="1.5" transform="rotate(0)"><tspan id="SvgjsTspan1105" dy="18" x="118"><tspan id="SvgjsTspan1106" style="text-decoration:;">Coinbase: 0x0000000000000000</tspan></tspan><tspan id="SvgjsTspan1107" dy="18" x="118"><tspan id="SvgjsTspan1108" style="text-decoration:;">000000000000000000000000</tspan></tspan></text></g></g><g id="SvgjsG1109" transform="translate(419.7500000000002,429.75)"><path id="SvgjsPath1110" d="M 0 0L 135.25 0L 135.25 24.75L 0 24.75Z" stroke="none" fill="none"></path><g id="SvgjsG1111"><text id="SvgjsText1112" font-family="微软雅黑" text-anchor="middle" font-size="15px" width="136px" fill="#323232" font-weight="400" align="middle" lineHeight="125%" anchor="middle" family="微软雅黑" size="15px" weight="400" font-style="" opacity="1" y="0" transform="rotate(0)"><tspan id="SvgjsTspan1113" dy="18" x="68"><tspan id="SvgjsTspan1114" style="text-decoration:;">Root:  空trie树hash</tspan></tspan></text></g></g><g id="SvgjsG1115" transform="translate(481.7500000000002,25.5)"><path id="SvgjsPath1116" d="M 0 0L 78 0L 78 27.75L 0 27.75Z" stroke="none" fill="none"></path><g id="SvgjsG1117"><text id="SvgjsText1118" font-family="微软雅黑" text-anchor="middle" font-size="18px" width="78px" fill="#323232" font-weight="400" align="middle" lineHeight="125%" anchor="middle" family="微软雅黑" size="18px" weight="400" font-style="" opacity="1" y="-1.875" transform="rotate(0)"><tspan id="SvgjsTspan1119" dy="22" x="39"><tspan id="SvgjsTspan1120" style="text-decoration:;">Header</tspan></tspan></text></g></g><g id="SvgjsG1121" transform="translate(424.5000000000002,56.75)"><path id="SvgjsPath1122" d="M 0 4Q 0 0 4 0L 191 0Q 195 0 195 4L 195 22Q 195 26 191 26L 4 26Q 0 26 0 22Z" stroke-dasharray="10,6" stroke="rgba(33,41,48,1)" stroke-width="1.5" fill-opacity="1" fill="#ffffff"></path><g id="SvgjsG1123"><text id="SvgjsText1124" font-family="微软雅黑" text-anchor="middle" font-size="18px" width="175px" fill="#323232" font-weight="400" align="middle" lineHeight="125%" anchor="middle" family="微软雅黑" size="18px" weight="400" font-style="" opacity="1" y="-2.75" transform="rotate(0)"><tspan id="SvgjsTspan1125" dy="22" x="97.5"><tspan id="SvgjsTspan1126" style="text-decoration:;">core/types/block.go</tspan></tspan></text></g></g><g id="SvgjsG1127"><path id="SvgjsPath1128" d="M149.7482634300134 128.9489917721874L394.0034731399732 112.29840471747625" stroke="#323232" stroke-width="1.5" fill="none" marker-end="url(#SvgjsMarker1129)"></path></g><g id="SvgjsG1131" transform="translate(407.5,454.125)"><path id="SvgjsPath1132" d="M 0 0L 189 0L 189 35L 0 35Z" stroke="none" fill="none"></path><g id="SvgjsG1133"><text id="SvgjsText1134" font-family="微软雅黑" text-anchor="middle" font-size="15px" width="189px" fill="#323232" font-weight="400" align="middle" lineHeight="125%" anchor="middle" family="微软雅黑" size="15px" weight="400" font-style="" opacity="1" y="5.125" transform="rotate(0)"><tspan id="SvgjsTspan1135" dy="18" x="94.5"><tspan id="SvgjsTspan1136" style="text-decoration:;">TxHash: EmptyRootHash</tspan></tspan></text></g></g><g id="SvgjsG1137" transform="translate(412.5000000000002,486.5625)"><path id="SvgjsPath1138" d="M 0 0L 219 0L 219 21.5L 0 21.5Z" stroke="none" fill="none"></path><g id="SvgjsG1139"><text id="SvgjsText1140" font-family="微软雅黑" text-anchor="middle" font-size="15px" width="219px" fill="#323232" font-weight="400" align="middle" lineHeight="125%" anchor="middle" family="微软雅黑" size="15px" weight="400" font-style="" opacity="1" y="-1.625" transform="rotate(0)"><tspan id="SvgjsTspan1141" dy="18" x="109.5"><tspan id="SvgjsTspan1142" style="text-decoration:;">ReceiptHash: EmptyRootHash</tspan></tspan></text></g></g><g id="SvgjsG1143" transform="translate(410.0000000000002,509.5)"><path id="SvgjsPath1144" d="M 0 0L 209.5 0L 209.5 26.5L 0 26.5Z" stroke="none" fill="none"></path><g id="SvgjsG1145"><text id="SvgjsText1146" font-family="微软雅黑" text-anchor="middle" font-size="15px" width="210px" fill="#323232" font-weight="400" align="middle" lineHeight="125%" anchor="middle" family="微软雅黑" size="15px" weight="400" font-style="" opacity="1" y="0.875" transform="rotate(0)"><tspan id="SvgjsTspan1147" dy="18" x="105"><tspan id="SvgjsTspan1148" style="text-decoration:;">UncleHash: EmptyUncleHash</tspan></tspan></text></g></g><g id="SvgjsG1149" transform="translate(70.5,161)"><path id="SvgjsPath1150" d="M 0 0L 213.5 0L 213.5 41.5L 0 41.5Z" stroke="none" fill="none"></path><g id="SvgjsG1151"><text id="SvgjsText1152" font-family="微软雅黑" text-anchor="middle" font-size="15px" width="214px" fill="#323232" font-weight="400" align="middle" lineHeight="125%" anchor="middle" family="微软雅黑" size="15px" weight="400" font-style="" opacity="1" y="8.375" transform="rotate(0)"><tspan id="SvgjsTspan1153" dy="18" x="107"><tspan id="SvgjsTspan1154" style="text-decoration:;">hash: Keccake( RLP(header) )</tspan></tspan></text></g></g><g id="SvgjsG1155" transform="translate(116.25,228.25)"><path id="SvgjsPath1156" d="M 0 0L 103.5 0L 103.5 27.25L 0 27.25Z" stroke="none" fill="none"></path><g id="SvgjsG1157"><text id="SvgjsText1158" font-family="微软雅黑" text-anchor="middle" font-size="15px" width="104px" fill="#323232" font-weight="400" align="middle" lineHeight="125%" anchor="middle" family="微软雅黑" size="15px" weight="400" font-style="" opacity="1" y="1.25" transform="rotate(0)"><tspan id="SvgjsTspan1159" dy="18" x="52"><tspan id="SvgjsTspan1160" style="text-decoration:;">transactions</tspan></tspan></text></g></g><g id="SvgjsG1161" transform="translate(121.75,262.75)"><path id="SvgjsPath1162" d="M 0 0L 58.5 0L 58.5 32.25L 0 32.25Z" stroke="none" fill="none"></path><g id="SvgjsG1163"><text id="SvgjsText1164" font-family="微软雅黑" text-anchor="middle" font-size="15px" width="59px" fill="#323232" font-weight="400" align="middle" lineHeight="125%" anchor="middle" family="微软雅黑" size="15px" weight="400" font-style="" opacity="1" y="3.75" transform="rotate(0)"><tspan id="SvgjsTspan1165" dy="18" x="29.5"><tspan id="SvgjsTspan1166" style="text-decoration:;">uncles</tspan></tspan></text></g></g><g id="SvgjsG1167" transform="translate(25,228.25)"><path id="SvgjsPath1168" d="M 83 0Q 74.7 0 74.7 5.9L 74.7 23.6Q 74.7 29.5 61 29.5Q 74.7 29.5 74.7 35.4L 74.7 53.1Q 74.7 59 83 59" stroke="rgba(33,41,48,1)" stroke-width="1.5" fill="none"></path><path id="SvgjsPath1169" d="M 0 0L 83 0L 83 59L 0 59Z" stroke="none" fill="none"></path><g id="SvgjsG1170"><text id="SvgjsText1171" font-family="微软雅黑" text-anchor="end" font-size="15px" width="56px" fill="#323232" font-weight="400" align="middle" lineHeight="125%" anchor="end" family="微软雅黑" size="15px" weight="400" font-style="" opacity="1" y="17.125" transform="rotate(0)"><tspan id="SvgjsTspan1172" dy="18" x="56"><tspan id="SvgjsTspan1173" style="text-decoration:;">body</tspan></tspan></text></g></g></svg>