<svg id="SvgjsSvg1006" width="476" height="281.25" xmlns="http://www.w3.org/2000/svg" version="1.1" xmlns:xlink="http://www.w3.org/1999/xlink" xmlns:svgjs="http://svgjs.com/svgjs"><defs id="SvgjsDefs1007"><pattern patternUnits="userSpaceOnUse" id="pattern_mark_0" width="300" height="300"><text x="150" y="100" fill="rgba(229,229,229,0.8)" font-size="18" transform="rotate(-45, 150, 150)" style="dominant-baseline: middle; text-anchor: middle;"></text></pattern><pattern patternUnits="userSpaceOnUse" id="pattern_mark_1" width="300" height="300"><text x="150" y="200" fill="rgba(229,229,229,0.8)" font-size="18" transform="rotate(-45, 150, 150)" style="dominant-baseline: middle; text-anchor: middle;"></text></pattern></defs><rect id="svgbackgroundid" width="476" height="281.25" fill="transparent"></rect><rect id="SvgjsRect1009" width="476" height="281.25" fill="url(#pattern_mark_0)"></rect><rect id="SvgjsRect1010" width="476" height="281.25" fill="url(#pattern_mark_1)"></rect><g id="SvgjsG1011" transform="translate(25,56.25)"><path id="SvgjsPath1012" d="M 0 4Q 0 0 4 0L 422.15816326530603 0Q 426.15816326530603 0 426.15816326530603 4L 426.15816326530603 195.75000000000114Q 426.15816326530603 199.75000000000114 422.15816326530603 199.75000000000114L 4 199.75000000000114Q 0 199.75000000000114 0 195.75000000000114Z" stroke="rgba(33,41,48,1)" stroke-width="1.5" fill-opacity="1" fill="#ffffff"></path><g id="SvgjsG1013"><text id="SvgjsText1014" font-family="微软雅黑" text-anchor="middle" font-size="15px" width="407px" fill="#323232" font-weight="400" align="middle" lineHeight="125%" anchor="middle" family="微软雅黑" size="15px" weight="400" font-style="" opacity="1" y="87.50000000000057" transform="rotate(0)"></text></g></g><g id="SvgjsG1015" transform="translate(160.20408163265313,25)"><path id="SvgjsPath1016" d="M 0 4Q 0 0 4 0L 116 0Q 120 0 120 4L 120 28.25Q 120 32.25 116 32.25L 4 32.25Q 0 32.25 0 28.25Z" stroke="rgba(33,41,48,1)" stroke-width="1.5" fill-opacity="1" fill="#ffffff"></path><g id="SvgjsG1017"><text id="SvgjsText1018" font-family="微软雅黑" text-anchor="middle" font-size="15px" width="100px" fill="#323232" font-weight="400" align="middle" lineHeight="125%" anchor="middle" family="微软雅黑" size="15px" weight="400" font-style="" opacity="1" y="3.75" transform="rotate(0)"><tspan id="SvgjsTspan1019" dy="18" x="60"><tspan id="SvgjsTspan1020" style="text-decoration:;">nofreezedb</tspan></tspan></text></g></g><g id="SvgjsG1021" transform="translate(108.54591836734687,57.5)"><path id="SvgjsPath1022" d="M 0 4Q 0 0 4 0L 215.75 0Q 219.75 0 219.75 4L 219.75 23.5Q 219.75 27.5 215.75 27.5L 4 27.5Q 0 27.5 0 23.5Z" stroke-dasharray="10,6" stroke="rgba(33,41,48,1)" stroke-width="1.5" fill-opacity="1" fill="#ffffff"></path><g id="SvgjsG1023"><text id="SvgjsText1024" font-family="微软雅黑" text-anchor="middle" font-size="15px" width="200px" fill="#323232" font-weight="400" align="middle" lineHeight="125%" anchor="middle" family="微软雅黑" size="15px" weight="400" font-style="" opacity="1" y="1.375" transform="rotate(0)"><tspan id="SvgjsTspan1025" dy="18" x="110"><tspan id="SvgjsTspan1026" style="text-decoration:;">core/rawdb/database.go</tspan></tspan></text></g></g><g id="SvgjsG1027" transform="translate(33.01275510204073,117.62500000000023)"><path id="SvgjsPath1028" d="M 0 4Q 0 0 4 0L 160.53316326530614 0Q 164.53316326530614 0 164.53316326530614 4L 164.53316326530614 30.250000000000455Q 164.53316326530614 34.250000000000455 160.53316326530614 34.250000000000455L 4 34.250000000000455Q 0 34.250000000000455 0 30.250000000000455Z" stroke="rgba(255,255,255,1)" stroke-width="1.5" fill-opacity="1" fill="#a6aef3"></path><g id="SvgjsG1029"><text id="SvgjsText1030" font-family="微软雅黑" text-anchor="end" font-size="15px" width="145px" fill="#323232" font-weight="400" align="middle" lineHeight="125%" anchor="end" family="微软雅黑" size="15px" weight="400" font-style="" opacity="1" y="4.750000000000227" transform="rotate(0)"><tspan id="SvgjsTspan1031" dy="18" x="155"><tspan id="SvgjsTspan1032" style="text-decoration:;">KeyValueStore(内嵌)</tspan></tspan></text></g></g><g id="SvgjsG1033" transform="translate(226.07908163265301,126.5)"><path id="SvgjsPath1034" d="M 0 4Q 0 0 4 0L 209.375 0Q 213.375 0 213.375 4L 213.375 104.21428571428544Q 213.375 108.21428571428544 209.375 108.21428571428544L 4 108.21428571428544Q 0 108.21428571428544 0 104.21428571428544Z" stroke="rgba(33,41,48,1)" stroke-width="1.5" fill-opacity="1" fill="#ffffff"></path><g id="SvgjsG1035"><text id="SvgjsText1036" font-family="微软雅黑" text-anchor="middle" font-size="15px" width="194px" fill="#323232" font-weight="400" align="middle" lineHeight="125%" anchor="middle" family="微软雅黑" size="15px" weight="400" font-style="" opacity="1" y="41.73214285714272" transform="rotate(0)"></text></g></g><g id="SvgjsG1037" transform="translate(267.079081632653,93)"><path id="SvgjsPath1038" d="M 0 4Q 0 0 4 0L 116 0Q 120 0 120 4L 120 28.25Q 120 32.25 116 32.25L 4 32.25Q 0 32.25 0 28.25Z" stroke="rgba(33,41,48,1)" stroke-width="1.5" fill-opacity="1" fill="#ffffff"></path><g id="SvgjsG1039"><text id="SvgjsText1040" font-family="微软雅黑" text-anchor="middle" font-size="15px" width="100px" fill="#323232" font-weight="400" align="middle" lineHeight="125%" anchor="middle" family="微软雅黑" size="15px" weight="400" font-style="" opacity="1" y="3.75" transform="rotate(0)"><tspan id="SvgjsTspan1041" dy="18" x="60"><tspan id="SvgjsTspan1042" style="text-decoration:;">Database</tspan></tspan></text></g></g><g id="SvgjsG1043" transform="translate(257.079081632653,125.25)"><path id="SvgjsPath1044" d="M 0 4Q 0 0 4 0L 137.375 0Q 141.375 0 141.375 4L 141.375 34.46428571428498Q 141.375 38.46428571428498 137.375 38.46428571428498L 4 38.46428571428498Q 0 38.46428571428498 0 34.46428571428498Z" stroke-dasharray="10,6" stroke="rgba(33,41,48,1)" stroke-width="1.5" fill-opacity="1" fill="#ffffff"></path><g id="SvgjsG1045"><text id="SvgjsText1046" font-family="微软雅黑" text-anchor="start" font-size="15px" width="122px" fill="#323232" font-weight="400" align="middle" lineHeight="125%" anchor="start" family="微软雅黑" size="15px" weight="400" font-style="" opacity="1" y="-2.6428571428575083" transform="rotate(0)"><tspan id="SvgjsTspan1047" dy="18" x="10"><tspan id="SvgjsTspan1048" style="text-decoration:;">ethdb/memorydb</tspan></tspan><tspan id="SvgjsTspan1049" dy="18" x="10"><tspan id="SvgjsTspan1050" style="text-decoration:;">/memorydb.go</tspan></tspan></text></g></g><g id="SvgjsG1051" transform="translate(239.18112244897952,178.25000000000034)"><path id="SvgjsPath1052" d="M 0 4Q 0 0 4 0L 34 0Q 38 0 38 4L 38 20.250000000000455Q 38 24.250000000000455 34 24.250000000000455L 4 24.250000000000455Q 0 24.250000000000455 0 20.250000000000455Z" stroke="rgba(255,255,255,1)" stroke-width="1.5" fill-opacity="1" fill="#a6aef3"></path><g id="SvgjsG1053"><text id="SvgjsText1054" font-family="微软雅黑" text-anchor="end" font-size="15px" width="18px" fill="#323232" font-weight="400" align="middle" lineHeight="125%" anchor="end" family="微软雅黑" size="15px" weight="400" font-style="" opacity="1" y="-0.24999999999977263" transform="rotate(0)"><tspan id="SvgjsTspan1055" dy="18" x="28"><tspan id="SvgjsTspan1056" style="text-decoration:;">db</tspan></tspan></text></g></g><g id="SvgjsG1057" transform="translate(297.204081632653,174.25000000000034)"><path id="SvgjsPath1058" d="M 0 0L 130.25 0L 130.25 40.96428571428453L 0 40.96428571428453Z" stroke="none" fill="none"></path><g id="SvgjsG1059"><text id="SvgjsText1060" font-family="微软雅黑" text-anchor="middle" font-size="15px" width="131px" fill="#323232" font-weight="400" align="middle" lineHeight="125%" anchor="middle" family="微软雅黑" size="15px" weight="400" font-style="" opacity="1" y="-1.3928571428577357" transform="rotate(0)"><tspan id="SvgjsTspan1061" dy="18" x="65.5"><tspan id="SvgjsTspan1062" style="text-decoration:;fill: rgb(50, 50, 50);">make(map[string]</tspan></tspan><tspan id="SvgjsTspan1063" dy="18" x="65.5"><tspan id="SvgjsTspan1064" style="text-decoration:;fill: rgb(50, 50, 50);">[]byte)</tspan></tspan></text></g></g></svg>