<svg id="SvgjsSvg1377" width="1278.234375" height="670.3125" xmlns="http://www.w3.org/2000/svg" version="1.1" xmlns:xlink="http://www.w3.org/1999/xlink" xmlns:svgjs="http://svgjs.com/svgjs"><defs id="SvgjsDefs1378"><pattern patternUnits="userSpaceOnUse" id="pattern_mark_0" width="300" height="300"><text x="150" y="100" fill="rgba(229,229,229,0.8)" font-size="18" transform="rotate(-45, 150, 150)" style="dominant-baseline: middle; text-anchor: middle;"></text></pattern><pattern patternUnits="userSpaceOnUse" id="pattern_mark_1" width="300" height="300"><text x="150" y="200" fill="rgba(229,229,229,0.8)" font-size="18" transform="rotate(-45, 150, 150)" style="dominant-baseline: middle; text-anchor: middle;"></text></pattern><marker id="SvgjsMarker1470" markerWidth="13" markerHeight="9" refX="9.5" refY="4.5" viewBox="0 0 13 9" orient="auto" markerUnits="userSpaceOnUse" stroke-dasharray="0,0"><path id="SvgjsPath1471" d="M0,0 L13,4.5 L0,9 L0,0" fill="#7f7f7f" stroke="#7f7f7f" stroke-width="1"></path></marker><marker id="SvgjsMarker1474" markerWidth="13" markerHeight="9" refX="9.5" refY="4.5" viewBox="0 0 13 9" orient="auto" markerUnits="userSpaceOnUse" stroke-dasharray="0,0"><path id="SvgjsPath1475" d="M0,0 L13,4.5 L0,9 L0,0" fill="#7f7f7f" stroke="#7f7f7f" stroke-width="1"></path></marker><marker id="SvgjsMarker1512" markerWidth="13" markerHeight="9" refX="9.5" refY="4.5" viewBox="0 0 13 9" orient="auto" markerUnits="userSpaceOnUse" stroke-dasharray="0,0"><path id="SvgjsPath1513" d="M0,0 L13,4.5 L0,9 L0,0" fill="#323232" stroke="#323232" stroke-width="1"></path></marker><marker id="SvgjsMarker1516" markerWidth="16" markerHeight="16" refX="13" refY="8" viewBox="0 0 16 16" orient="auto" markerUnits="userSpaceOnUse" stroke-dasharray="0,0"><circle id="SvgjsCircle1517" r="4" cx="8" cy="8" fill="#323232" stroke="#323232" stroke-width="1.5"></circle></marker><marker id="SvgjsMarker1520" markerWidth="16" markerHeight="16" refX="13" refY="8" viewBox="0 0 16 16" orient="auto" markerUnits="userSpaceOnUse" stroke-dasharray="0,0"><circle id="SvgjsCircle1521" r="4" cx="8" cy="8" fill="#323232" stroke="#323232" stroke-width="1.5"></circle></marker><marker id="SvgjsMarker1658" markerWidth="16" markerHeight="16" refX="13" refY="8" viewBox="0 0 16 16" orient="auto" markerUnits="userSpaceOnUse" stroke-dasharray="0,0"><circle id="SvgjsCircle1659" r="4" cx="8" cy="8" fill="#323232" stroke="#323232" stroke-width="1.5"></circle></marker><marker id="SvgjsMarker1718" markerWidth="16" markerHeight="16" refX="13" refY="8" viewBox="0 0 16 16" orient="auto" markerUnits="userSpaceOnUse" stroke-dasharray="0,0"><circle id="SvgjsCircle1719" r="4" cx="8" cy="8" fill="#323232" stroke="#323232" stroke-width="1.5"></circle></marker><marker id="SvgjsMarker1722" markerWidth="16" markerHeight="16" refX="13" refY="8" viewBox="0 0 16 16" orient="auto" markerUnits="userSpaceOnUse" stroke-dasharray="0,0"><circle id="SvgjsCircle1723" r="4" cx="8" cy="8" fill="#323232" stroke="#323232" stroke-width="1.5"></circle></marker></defs><rect id="svgbackgroundid" width="1278.234375" height="670.3125" fill="transparent"></rect><rect id="SvgjsRect1380" width="1278.234375" height="670.3125" fill="url(#pattern_mark_0)"></rect><rect id="SvgjsRect1381" width="1278.234375" height="670.3125" fill="url(#pattern_mark_1)"></rect><g id="SvgjsG1382" transform="translate(240.34375,55.25859375000073)"><path id="SvgjsPath1383" d="M 0 4Q 0 0 4 0L 338 0Q 342 0 342 4L 342 166.75Q 342 170.75 338 170.75L 4 170.75Q 0 170.75 0 166.75Z" stroke="rgba(33,41,48,1)" stroke-width="1.5" fill-opacity="1" fill="#ffffff"></path><g id="SvgjsG1384"><text id="SvgjsText1385" font-family="微软雅黑" text-anchor="middle" font-size="13px" width="322px" fill="#323232" font-weight="400" align="middle" lineHeight="125%" anchor="middle" family="微软雅黑" size="13px" weight="400" font-style="" opacity="1" y="74.75" transform="rotate(0)"></text></g></g><g id="SvgjsG1386" transform="translate(329.34375,25.008593750000728)"><path id="SvgjsPath1387" d="M 0 4Q 0 0 4 0L 110.75 0Q 114.75 0 114.75 4L 114.75 25.25Q 114.75 29.25 110.75 29.25L 4 29.25Q 0 29.25 0 25.25Z" stroke="rgba(33,41,48,1)" stroke-width="1.5" fill-opacity="1" fill="#ffffff"></path><g id="SvgjsG1388"><text id="SvgjsText1389" font-family="微软雅黑" text-anchor="middle" font-size="18px" width="95px" fill="#323232" font-weight="400" align="middle" lineHeight="125%" anchor="middle" family="微软雅黑" size="18px" weight="400" font-style="" opacity="1" y="-1.125" transform="rotate(0)"><tspan id="SvgjsTspan1390" dy="22" x="57.5"><tspan id="SvgjsTspan1391" style="text-decoration:;">cachingDB</tspan></tspan></text></g></g><g id="SvgjsG1392" transform="translate(272.34375,55.50859375000073)"><path id="SvgjsPath1393" d="M 0 4Q 0 0 4 0L 216 0Q 220 0 220 4L 220 26.25Q 220 30.25 216 30.25L 4 30.25Q 0 30.25 0 26.25Z" stroke-dasharray="10,6" stroke="rgba(33,41,48,1)" stroke-width="1.5" fill-opacity="1" fill="#ffffff"></path><g id="SvgjsG1394"><text id="SvgjsText1395" font-family="微软雅黑" text-anchor="middle" font-size="18px" width="200px" fill="#323232" font-weight="400" align="middle" lineHeight="125%" anchor="middle" family="微软雅黑" size="18px" weight="400" font-style="" opacity="1" y="-0.625" transform="rotate(0)"><tspan id="SvgjsTspan1396" dy="22" x="110"><tspan id="SvgjsTspan1397" style="text-decoration:;">core/state/database.go</tspan></tspan></text></g></g><g id="SvgjsG1398" transform="translate(246.84375,96.50859375000073)"><path id="SvgjsPath1399" d="M 0 4Q 0 0 4 0L 132 0Q 136 0 136 4L 136 32.5Q 136 36.5 132 36.5L 4 36.5Q 0 36.5 0 32.5Z" stroke="rgba(255,255,255,1)" stroke-width="1.5" fill-opacity="1" fill="#a6aef3"></path><g id="SvgjsG1400"><text id="SvgjsText1401" font-family="微软雅黑" text-anchor="end" font-size="16px" width="116px" fill="#323232" font-weight="400" align="middle" lineHeight="125%" anchor="end" family="微软雅黑" size="16px" weight="400" font-style="" opacity="1" y="4.25" transform="rotate(0)"><tspan id="SvgjsTspan1402" dy="20" x="126"><tspan id="SvgjsTspan1403" style="text-decoration:;">codeSizeCache</tspan></tspan></text></g></g><g id="SvgjsG1404" transform="translate(278.84375,139.75859375000073)"><path id="SvgjsPath1405" d="M 0 4Q 0 0 4 0L 100 0Q 104 0 104 4L 104 26.25Q 104 30.25 100 30.25L 4 30.25Q 0 30.25 0 26.25Z" stroke="rgba(255,255,255,1)" stroke-width="1.5" fill-opacity="1" fill="#a6aef3"></path><g id="SvgjsG1406"><text id="SvgjsText1407" font-family="微软雅黑" text-anchor="end" font-size="16px" width="84px" fill="#323232" font-weight="400" align="middle" lineHeight="125%" anchor="end" family="微软雅黑" size="16px" weight="400" font-style="" opacity="1" y="1.125" transform="rotate(0)"><tspan id="SvgjsTspan1408" dy="20" x="94"><tspan id="SvgjsTspan1409" style="text-decoration:;">codeCache</tspan></tspan></text></g></g><g id="SvgjsG1410" transform="translate(392.59375,99.50859375000073)"><path id="SvgjsPath1411" d="M 0 4Q 0 0 4 0L 129.25 0Q 133.25 0 133.25 4L 133.25 26.5Q 133.25 30.5 129.25 30.5L 4 30.5Q 0 30.5 0 26.5Z" stroke="rgba(255,255,255,1)" stroke-width="1.5" fill-opacity="1" fill="#ffffff"></path><g id="SvgjsG1412"><text id="SvgjsText1413" font-family="微软雅黑" text-anchor="start" font-size="15px" width="114px" fill="#323232" font-weight="400" align="middle" lineHeight="125%" anchor="start" family="微软雅黑" size="15px" weight="400" font-style="" opacity="1" y="2.875" transform="rotate(0)"><tspan id="SvgjsTspan1414" dy="18" x="10"><tspan id="SvgjsTspan1415" style="text-decoration:;">lru.New(100000)</tspan></tspan></text></g></g><g id="SvgjsG1416" transform="translate(392.59375,142.88359375000073)"><path id="SvgjsPath1417" d="M 0 4Q 0 0 4 0L 181.5 0Q 185.5 0 185.5 4L 185.5 28.375Q 185.5 32.375 181.5 32.375L 4 32.375Q 0 32.375 0 28.375Z" stroke="rgba(255,255,255,1)" stroke-width="1.5" fill-opacity="1" fill="#ffffff"></path><g id="SvgjsG1418"><text id="SvgjsText1419" font-family="微软雅黑" text-anchor="start" font-size="15px" width="166px" fill="#323232" font-weight="400" align="middle" lineHeight="125%" anchor="start" family="微软雅黑" size="15px" weight="400" font-style="" opacity="1" y="3.8125" transform="rotate(0)"><tspan id="SvgjsTspan1420" dy="18" x="10"><tspan id="SvgjsTspan1421" style="text-decoration:;">fastcache.New(100000)</tspan></tspan></text></g></g><g id="SvgjsG1422" transform="translate(284.859375,184.88359375000073)"><path id="SvgjsPath1423" d="M 0 4Q 0 0 4 0L 93.984375 0Q 97.984375 0 97.984375 4L 97.984375 21.125Q 97.984375 25.125 93.984375 25.125L 4 25.125Q 0 25.125 0 21.125Z" stroke="rgba(255,255,255,1)" stroke-width="1.5" fill-opacity="1" fill="#a6aef3"></path><g id="SvgjsG1424"><text id="SvgjsText1425" font-family="微软雅黑" text-anchor="end" font-size="16px" width="78px" fill="#323232" font-weight="400" align="middle" lineHeight="125%" anchor="end" family="微软雅黑" size="16px" weight="400" font-style="" opacity="1" y="-1.4375" transform="rotate(0)"><tspan id="SvgjsTspan1426" dy="20" x="88"><tspan id="SvgjsTspan1427" style="text-decoration:;">db</tspan></tspan></text></g></g><g id="SvgjsG1428" transform="translate(630.078125,146.28281250000055)"><path id="SvgjsPath1429" d="M 0 4Q 0 0 4 0L 182 0Q 186 0 186 4L 186 222.9375000000001Q 186 226.9375000000001 182 226.9375000000001L 4 226.9375000000001Q 0 226.9375000000001 0 222.9375000000001Z" stroke="rgba(33,41,48,1)" stroke-width="1.5" fill-opacity="1" fill="#ffffff"></path><g id="SvgjsG1430"><text id="SvgjsText1431" font-family="微软雅黑" text-anchor="middle" font-size="14px" width="166px" fill="#323232" font-weight="400" align="middle" lineHeight="125%" anchor="middle" family="微软雅黑" size="14px" weight="400" font-style="" opacity="1" y="101.71875000000006" transform="rotate(0)"></text></g></g><g id="SvgjsG1432" transform="translate(672.078125,118.03281250000055)"><path id="SvgjsPath1433" d="M 0 4Q 0 0 4 0L 98 0Q 102 0 102 4L 102 24.25Q 102 28.25 98 28.25L 4 28.25Q 0 28.25 0 24.25Z" stroke="rgba(33,41,48,1)" stroke-width="1.5" fill-opacity="1" fill="#ffffff"></path><g id="SvgjsG1434"><text id="SvgjsText1435" font-family="微软雅黑" text-anchor="middle" font-size="14px" width="82px" fill="#323232" font-weight="400" align="middle" lineHeight="125%" anchor="middle" family="微软雅黑" size="14px" weight="400" font-style="" opacity="1" y="2.375" transform="rotate(0)"><tspan id="SvgjsTspan1436" dy="17" x="51"><tspan id="SvgjsTspan1437" style="text-decoration:;">Database</tspan></tspan></text></g></g><g id="SvgjsG1438" transform="translate(653.078125,146.53281250000055)"><path id="SvgjsPath1439" d="M 0 4Q 0 0 4 0L 127 0Q 131 0 131 4L 131 17.5Q 131 21.5 127 21.5L 4 21.5Q 0 21.5 0 17.5Z" stroke-dasharray="10,6" stroke="rgba(33,41,48,1)" stroke-width="1.5" fill-opacity="1" fill="#ffffff"></path><g id="SvgjsG1440"><text id="SvgjsText1441" font-family="微软雅黑" text-anchor="middle" font-size="14px" width="111px" fill="#323232" font-weight="400" align="middle" lineHeight="125%" anchor="middle" family="微软雅黑" size="14px" weight="400" font-style="" opacity="1" y="-1" transform="rotate(0)"><tspan id="SvgjsTspan1442" dy="17" x="65.5"><tspan id="SvgjsTspan1443" style="text-decoration:;">trie/database.go</tspan></tspan></text></g></g><g id="SvgjsG1444" transform="translate(653.703125,183.03281250000055)"><path id="SvgjsPath1445" d="M 0 4Q 0 0 4 0L 58.75 0Q 62.75 0 62.75 4L 62.75 16.875Q 62.75 20.875 58.75 20.875L 4 20.875Q 0 20.875 0 16.875Z" stroke="rgba(255,255,255,1)" stroke-width="1.5" fill-opacity="1" fill="#a6aef3"></path><g id="SvgjsG1446"><text id="SvgjsText1447" font-family="微软雅黑" text-anchor="end" font-size="14px" width="43px" fill="#323232" font-weight="400" align="middle" lineHeight="125%" anchor="end" family="微软雅黑" size="14px" weight="400" font-style="" opacity="1" y="-1.3125" transform="rotate(0)"><tspan id="SvgjsTspan1448" dy="17" x="53"><tspan id="SvgjsTspan1449" style="text-decoration:;">diskdb</tspan></tspan></text></g></g><g id="SvgjsG1450" transform="translate(653.5,212.53281250000055)"><path id="SvgjsPath1451" d="M 0 4Q 0 0 4 0L 59.15625 0Q 63.15625 0 63.15625 4L 63.15625 14.875000000000028Q 63.15625 18.87500000000003 59.15625 18.87500000000003L 4 18.87500000000003Q 0 18.87500000000003 0 14.875000000000028Z" stroke="rgba(38,38,38,1)" stroke-width="1.5" fill-opacity="1" fill="#ffffff"></path><g id="SvgjsG1452"><text id="SvgjsText1453" font-family="微软雅黑" text-anchor="end" font-size="14px" width="44px" fill="#262626" font-weight="400" align="middle" lineHeight="125%" anchor="end" family="微软雅黑" size="14px" weight="400" font-style="" opacity="1" y="-2.312499999999986" transform="rotate(0)"><tspan id="SvgjsTspan1454" dy="17" x="54"><tspan id="SvgjsTspan1455" style="text-decoration:;">cleans</tspan></tspan></text></g></g><g id="SvgjsG1456" transform="translate(653.703125,288.53281250000055)"><path id="SvgjsPath1457" d="M 0 4Q 0 0 4 0L 58.75 0Q 62.75 0 62.75 4L 62.75 17.5Q 62.75 21.5 58.75 21.5L 4 21.5Q 0 21.5 0 17.5Z" stroke="rgba(255,255,255,1)" stroke-width="1.5" fill-opacity="1" fill="#a6aef3"></path><g id="SvgjsG1458"><text id="SvgjsText1459" font-family="微软雅黑" text-anchor="end" font-size="14px" width="43px" fill="#323232" font-weight="400" align="middle" lineHeight="125%" anchor="end" family="微软雅黑" size="14px" weight="400" font-style="" opacity="1" y="-1" transform="rotate(0)"><tspan id="SvgjsTspan1460" dy="17" x="53"><tspan id="SvgjsTspan1461" style="text-decoration:;">dirties</tspan></tspan></text></g></g><g id="SvgjsG1462" transform="translate(639.828125,330.1023437500007)"><path id="SvgjsPath1463" d="M 0 4Q 0 0 4 0L 86.5 0Q 90.5 0 90.5 4L 90.5 19.125000000000114Q 90.5 23.125000000000114 86.5 23.125000000000114L 4 23.125000000000114Q 0 23.125000000000114 0 19.125000000000114Z" stroke="rgba(38,38,38,1)" stroke-width="1.5" fill-opacity="1" fill="#ffffff"></path><g id="SvgjsG1464"><text id="SvgjsText1465" font-family="微软雅黑" text-anchor="end" font-size="14px" width="71px" fill="#323232" font-weight="400" align="middle" lineHeight="125%" anchor="end" family="微软雅黑" size="14px" weight="400" font-style="" opacity="1" y="-0.18749999999994316" transform="rotate(0)"><tspan id="SvgjsTspan1466" dy="17" x="81"><tspan id="SvgjsTspan1467" style="text-decoration:;">preimages</tspan></tspan></text></g></g><g id="SvgjsG1468"><path id="SvgjsPath1469" d="M730.328125 288.53281250000055L910.078125 257.18906250000055" stroke-dasharray="8,5" stroke="#7f7f7f" stroke-width="1.5" fill="none" marker-end="url(#SvgjsMarker1470)"></path></g><g id="SvgjsG1472"><path id="SvgjsPath1473" d="M724.078125 310.03281250000055L910.078125 380.18906250000055" stroke-dasharray="8,5" stroke="#7f7f7f" stroke-width="1.5" fill="none" marker-end="url(#SvgjsMarker1474)"></path></g><g id="SvgjsG1476" transform="translate(823.203125,278.18906250000055)"><path id="SvgjsPath1477" d="M 0 0L 102.6875 0L 102.6875 30L 0 30Z" stroke="none" fill="none"></path><g id="SvgjsG1478"><text id="SvgjsText1479" font-family="微软雅黑" text-anchor="start" font-size="14px" width="103px" fill="#323232" font-weight="400" align="middle" lineHeight="125%" anchor="start" family="微软雅黑" size="14px" weight="400" font-style="" opacity="1" y="3.25" transform="rotate(0)"><tspan id="SvgjsTspan1480" dy="17" x="0"><tspan id="SvgjsTspan1481" style="text-decoration:;">common.Hash{}</tspan></tspan></text></g></g><g id="SvgjsG1482" transform="translate(961.234375,268.43906250000055)"><path id="SvgjsPath1483" d="M 0 4Q 0 0 4 0L 288 0Q 292 0 292 4L 292 72.75Q 292 76.75 288 76.75L 4 76.75Q 0 76.75 0 72.75Z" stroke="rgba(33,41,48,1)" stroke-width="1.5" fill-opacity="1" fill="#ffffff"></path><g id="SvgjsG1484"><text id="SvgjsText1485" font-family="微软雅黑" text-anchor="middle" font-size="13px" width="272px" fill="#323232" font-weight="400" align="middle" lineHeight="125%" anchor="middle" family="微软雅黑" size="13px" weight="400" font-style="" opacity="1" y="27.75" transform="rotate(0)"></text></g></g><g id="SvgjsG1486" transform="translate(1037.234375,241.18906250000055)"><path id="SvgjsPath1487" d="M 0 4Q 0 0 4 0L 105 0Q 109 0 109 4L 109 23.125000000000114Q 109 27.125000000000114 105 27.125000000000114L 4 27.125000000000114Q 0 27.125000000000114 0 23.125000000000114Z" stroke="rgba(33,41,48,1)" stroke-width="1.5" fill-opacity="1" fill="#ffffff"></path><g id="SvgjsG1488"><text id="SvgjsText1489" font-family="微软雅黑" text-anchor="middle" font-size="13px" width="89px" fill="#323232" font-weight="400" align="middle" lineHeight="125%" anchor="middle" family="微软雅黑" size="13px" weight="400" font-style="" opacity="1" y="2.937500000000057" transform="rotate(0)"><tspan id="SvgjsTspan1490" dy="16" x="54.5"><tspan id="SvgjsTspan1491" style="text-decoration:;">cachedNode</tspan></tspan></text></g></g><g id="SvgjsG1492" transform="translate(1030.234375,268.68906250000055)"><path id="SvgjsPath1493" d="M 0 4Q 0 0 4 0L 119 0Q 123 0 123 4L 123 20.5Q 123 24.5 119 24.5L 4 24.5Q 0 24.5 0 20.5Z" stroke-dasharray="10,6" stroke="rgba(33,41,48,1)" stroke-width="1.5" fill-opacity="1" fill="#ffffff"></path><g id="SvgjsG1494"><text id="SvgjsText1495" font-family="微软雅黑" text-anchor="start" font-size="13px" width="103px" fill="#323232" font-weight="400" align="middle" lineHeight="125%" anchor="start" family="微软雅黑" size="13px" weight="400" font-style="" opacity="1" y="1.625" transform="rotate(0)"><tspan id="SvgjsTspan1496" dy="16" x="10"><tspan id="SvgjsTspan1497" style="text-decoration:;">trie/database.go</tspan></tspan></text></g></g><g id="SvgjsG1498" transform="translate(965.234375,303.18906250000055)"><path id="SvgjsPath1499" d="M 0 4Q 0 0 4 0L 72 0Q 76 0 76 4L 76 25.5Q 76 29.5 72 29.5L 4 29.5Q 0 29.5 0 25.5Z" stroke="rgba(255,255,255,1)" stroke-width="1.5" fill-opacity="1" fill="#a6aef3"></path><g id="SvgjsG1500"><text id="SvgjsText1501" font-family="微软雅黑" text-anchor="end" font-size="13px" width="56px" fill="#323232" font-weight="400" align="middle" lineHeight="125%" anchor="end" family="微软雅黑" size="13px" weight="400" font-style="" opacity="1" y="4.125" transform="rotate(0)"><tspan id="SvgjsTspan1502" dy="16" x="66"><tspan id="SvgjsTspan1503" style="text-decoration:;">children</tspan></tspan></text></g></g><g id="SvgjsG1504" transform="translate(1048.234375,305.03281250000055)"><path id="SvgjsPath1505" d="M 0 0L 201 0L 201 25.8125L 0 25.8125Z" stroke="none" fill="none"></path><g id="SvgjsG1506"><text id="SvgjsText1507" font-family="微软雅黑" text-anchor="middle" font-size="13px" width="201px" fill="#323232" font-weight="400" align="middle" lineHeight="125%" anchor="middle" family="微软雅黑" size="13px" weight="400" font-style="" opacity="1" y="2.28125" transform="rotate(0)"><tspan id="SvgjsTspan1508" dy="16" x="100.5"><tspan id="SvgjsTspan1509" style="text-decoration:;fill: rgb(50, 50, 50);">make(map[common.Hash]uint16)</tspan></tspan></text></g></g><g id="SvgjsG1510"><path id="SvgjsPath1511" d="M926.6380697472214 293.1272050036788L959.4498239100031 290.41174948675894" stroke="#323232" stroke-width="1.5" fill="none" marker-end="url(#SvgjsMarker1512)"></path></g><g id="SvgjsG1514"><path id="SvgjsPath1515" d="M717.1186459361118 193.1245063641427L839.2082928403202 129.68645846312296" stroke="#323232" stroke-width="1.5" fill="none" marker-end="url(#SvgjsMarker1516)"></path></g><g id="SvgjsG1518"><path id="SvgjsPath1519" d="M383.5935997798085 197.43108349613613L628.781550440383 192.5229892577289" stroke="#323232" stroke-width="1.5" fill="none" marker-end="url(#SvgjsMarker1520)"></path></g><g id="SvgjsG1522" transform="translate(840.34375,77.93203125000127)"><path id="SvgjsPath1523" d="M 0 4Q 0 0 4 0L 220.53125 0Q 224.53125 0 224.53125 4L 224.53125 110.42031249999991Q 224.53125 114.42031249999991 220.53125 114.42031249999991L 4 114.42031249999991Q 0 114.42031249999991 0 110.42031249999991Z" stroke="rgba(33,41,48,1)" stroke-width="1.5" fill-opacity="1" fill="#ffffff"></path><g id="SvgjsG1524"><text id="SvgjsText1525" font-family="微软雅黑" text-anchor="middle" font-size="13px" width="205px" fill="#323232" font-weight="400" align="middle" lineHeight="125%" anchor="middle" family="微软雅黑" size="13px" weight="400" font-style="" opacity="1" y="46.585156249999955" transform="rotate(0)"></text></g></g><g id="SvgjsG1526" transform="translate(880.875,48.72734375000073)"><path id="SvgjsPath1527" d="M 0 0L 155 0L 155 32.20468750000009L 0 32.20468750000009Z" stroke="none" fill="none"></path><g id="SvgjsG1528"><text id="SvgjsText1529" font-family="微软雅黑" text-anchor="middle" font-size="18px" width="155px" fill="#323232" font-weight="400" align="middle" lineHeight="125%" anchor="middle" family="微软雅黑" size="18px" weight="400" font-style="" opacity="1" y="0.3523437500000455" transform="rotate(0)"><tspan id="SvgjsTspan1530" dy="22" x="77.5"><tspan id="SvgjsTspan1531" style="text-decoration:;">closeTrackingDB</tspan></tspan></text></g></g><g id="SvgjsG1532" transform="translate(860.875,77.93203125000127)"><path id="SvgjsPath1533" d="M 0 0L 192 0L 192 26L 0 26Z" stroke-dasharray="10,6,3,6" stroke="rgba(33,41,48,1)" stroke-width="1.5" fill-opacity="1" fill="#ffffff"></path><g id="SvgjsG1534"><text id="SvgjsText1535" font-family="微软雅黑" text-anchor="middle" font-size="14px" width="172px" fill="#323232" font-weight="400" align="middle" lineHeight="125%" anchor="middle" family="微软雅黑" size="14px" weight="400" font-style="" opacity="1" y="1.25" transform="rotate(0)"><tspan id="SvgjsTspan1536" dy="17" x="96"><tspan id="SvgjsTspan1537" style="text-decoration:;">node/node.go</tspan></tspan></text></g></g><g id="SvgjsG1538" transform="translate(886.875,115.93203125000127)"><path id="SvgjsPath1539" d="M 0 0L 175 0L 175 26L 0 26Z" stroke="none" fill="none"></path><g id="SvgjsG1540"><text id="SvgjsText1541" font-family="微软雅黑" text-anchor="start" font-size="16px" width="175px" fill="#323232" font-weight="400" align="middle" lineHeight="125%" anchor="start" family="微软雅黑" size="16px" weight="400" font-style="" opacity="1" y="-1" transform="rotate(0)"><tspan id="SvgjsTspan1542" dy="20" x="0"><tspan id="SvgjsTspan1543" style="text-decoration:;">ethdb.Database(内嵌)</tspan></tspan></text></g></g><g id="SvgjsG1544" transform="translate(888.375,153.93203125000127)"><path id="SvgjsPath1545" d="M 0 0L 107.25 0L 107.25 26L 0 26Z" stroke="none" fill="none"></path><g id="SvgjsG1546"><text id="SvgjsText1547" font-family="微软雅黑" text-anchor="start" font-size="16px" width="108px" fill="#262626" font-weight="400" align="middle" lineHeight="125%" anchor="start" family="微软雅黑" size="16px" weight="400" font-style="" opacity="1" y="-1" transform="rotate(0)"><tspan id="SvgjsTspan1548" dy="20" x="0"><tspan id="SvgjsTspan1549" style="text-decoration:;">n: 指回*Node</tspan></tspan></text></g></g><g id="SvgjsG1550" transform="translate(25,273.31406250000055)"><path id="SvgjsPath1551" d="M 0 4Q 0 0 4 0L 363.59375 0Q 367.59375 0 367.59375 4L 367.59375 368Q 367.59375 372 363.59375 372L 4 372Q 0 372 0 368Z" stroke="rgba(33,41,48,1)" stroke-width="1.5" fill-opacity="1" fill="#ffffff"></path><g id="SvgjsG1552"><text id="SvgjsText1553" font-family="微软雅黑" text-anchor="middle" font-size="13px" width="348px" fill="#323232" font-weight="400" align="middle" lineHeight="125%" anchor="middle" family="微软雅黑" size="13px" weight="400" font-style="" opacity="1" y="175.375" transform="rotate(0)"></text></g></g><g id="SvgjsG1554" transform="translate(114,241.18906250000055)"><path id="SvgjsPath1555" d="M 0 4Q 0 0 4 0L 110.75 0Q 114.75 0 114.75 4L 114.75 29Q 114.75 33 110.75 33L 4 33Q 0 33 0 29Z" stroke="rgba(33,41,48,1)" stroke-width="1.5" fill-opacity="1" fill="#ffffff"></path><g id="SvgjsG1556"><text id="SvgjsText1557" font-family="微软雅黑" text-anchor="middle" font-size="18px" width="95px" fill="#323232" font-weight="400" align="middle" lineHeight="125%" anchor="middle" family="微软雅黑" size="18px" weight="400" font-style="" opacity="1" y="0.75" transform="rotate(0)"><tspan id="SvgjsTspan1558" dy="22" x="57.5"><tspan id="SvgjsTspan1559" style="text-decoration:;">StateDB</tspan></tspan></text></g></g><g id="SvgjsG1560" transform="translate(57,273.56406250000055)"><path id="SvgjsPath1561" d="M 0 4Q 0 0 4 0L 216 0Q 220 0 220 4L 220 26.25Q 220 30.25 216 30.25L 4 30.25Q 0 30.25 0 26.25Z" stroke-dasharray="10,6" stroke="rgba(33,41,48,1)" stroke-width="1.5" fill-opacity="1" fill="#ffffff"></path><g id="SvgjsG1562"><text id="SvgjsText1563" font-family="微软雅黑" text-anchor="middle" font-size="18px" width="200px" fill="#323232" font-weight="400" align="middle" lineHeight="125%" anchor="middle" family="微软雅黑" size="18px" weight="400" font-style="" opacity="1" y="-0.625" transform="rotate(0)"><tspan id="SvgjsTspan1564" dy="22" x="110"><tspan id="SvgjsTspan1565" style="text-decoration:;">core/state/statedb.go</tspan></tspan></text></g></g><g id="SvgjsG1566" transform="translate(45.09375,422.93906250000055)"><path id="SvgjsPath1567" d="M 0 4Q 0 0 4 0L 164.65625 0Q 168.65625 0 168.65625 4L 168.65625 24.125Q 168.65625 28.125 164.65625 28.125L 4 28.125Q 0 28.125 0 24.125Z" stroke="rgba(255,255,255,1)" stroke-width="1.5" fill-opacity="1" fill="#a6aef3"></path><g id="SvgjsG1568"><text id="SvgjsText1569" font-family="微软雅黑" text-anchor="end" font-size="15px" width="149px" fill="#323232" font-weight="400" align="middle" lineHeight="125%" anchor="end" family="微软雅黑" size="15px" weight="400" font-style="" opacity="1" y="1.6875" transform="rotate(0)"><tspan id="SvgjsTspan1570" dy="18" x="159"><tspan id="SvgjsTspan1571" style="text-decoration:;">stateObjectsPending</tspan></tspan></text></g></g><g id="SvgjsG1572" transform="translate(151.625,340.43906250000055)"><path id="SvgjsPath1573" d="M 0 4Q 0 0 4 0L 58.40625 0Q 62.40625 0 62.40625 4L 62.40625 19.875Q 62.40625 23.875 58.40625 23.875L 4 23.875Q 0 23.875 0 19.875Z" stroke="rgba(255,255,255,1)" stroke-width="1.5" fill-opacity="1" fill="#a6aef3"></path><g id="SvgjsG1574"><text id="SvgjsText1575" font-family="微软雅黑" text-anchor="end" font-size="16px" width="43px" fill="#323232" font-weight="400" align="middle" lineHeight="125%" anchor="end" family="微软雅黑" size="16px" weight="400" font-style="" opacity="1" y="-2.0625" transform="rotate(0)"><tspan id="SvgjsTspan1576" dy="20" x="53"><tspan id="SvgjsTspan1577" style="text-decoration:;">trie</tspan></tspan></text></g></g><g id="SvgjsG1578" transform="translate(169.65625,312.12656250000055)"><path id="SvgjsPath1579" d="M 0 4Q 0 0 4 0L 40.375 0Q 44.375 0 44.375 4L 44.375 16Q 44.375 20 40.375 20L 4 20Q 0 20 0 16Z" stroke="rgba(255,255,255,1)" stroke-width="1.5" fill-opacity="1" fill="#a6aef3"></path><g id="SvgjsG1580"><text id="SvgjsText1581" font-family="微软雅黑" text-anchor="end" font-size="16px" width="25px" fill="#323232" font-weight="400" align="middle" lineHeight="125%" anchor="end" family="微软雅黑" size="16px" weight="400" font-style="" opacity="1" y="-4" transform="rotate(0)"><tspan id="SvgjsTspan1582" dy="20" x="35"><tspan id="SvgjsTspan1583" style="text-decoration:;">db</tspan></tspan></text></g></g><g id="SvgjsG1584" transform="translate(95.171875,396.06406250000055)"><path id="SvgjsPath1585" d="M 0 4Q 0 0 4 0L 114.578125 0Q 118.578125 0 118.578125 4L 118.578125 19.75Q 118.578125 23.75 114.578125 23.75L 4 23.75Q 0 23.75 0 19.75Z" stroke="rgba(255,255,255,1)" stroke-width="1.5" fill-opacity="1" fill="#a6aef3"></path><g id="SvgjsG1586"><text id="SvgjsText1587" font-family="微软雅黑" text-anchor="end" font-size="16px" width="99px" fill="#323232" font-weight="400" align="middle" lineHeight="125%" anchor="end" family="微软雅黑" size="16px" weight="400" font-style="" opacity="1" y="-2.125" transform="rotate(0)"><tspan id="SvgjsTspan1588" dy="20" x="109"><tspan id="SvgjsTspan1589" style="text-decoration:;">stateObjects</tspan></tspan></text></g></g><g id="SvgjsG1590" transform="translate(94.890625,369.56406250000055)"><path id="SvgjsPath1591" d="M 0 4Q 0 0 4 0L 115.140625 0Q 119.140625 0 119.140625 4L 119.140625 17.5Q 119.140625 21.5 115.140625 21.5L 4 21.5Q 0 21.5 0 17.5Z" stroke="rgba(255,255,255,1)" stroke-width="1.5" fill-opacity="1" fill="#a6aef3"></path><g id="SvgjsG1592"><text id="SvgjsText1593" font-family="微软雅黑" text-anchor="end" font-size="16px" width="100px" fill="#323232" font-weight="400" align="middle" lineHeight="125%" anchor="end" family="微软雅黑" size="16px" weight="400" font-style="" opacity="1" y="-3.25" transform="rotate(0)"><tspan id="SvgjsTspan1594" dy="20" x="110"><tspan id="SvgjsTspan1595" style="text-decoration:;">originalRoot</tspan></tspan></text></g></g><g id="SvgjsG1596" transform="translate(218.03125,397.93906250000055)"><path id="SvgjsPath1597" d="M 0 0L 62.34375 0L 62.34375 20L 0 20Z" stroke="none" fill="none"></path><g id="SvgjsG1598"><text id="SvgjsText1599" font-family="微软雅黑" text-anchor="middle" font-size="15px" width="63px" fill="#323232" font-weight="400" align="middle" lineHeight="125%" anchor="middle" family="微软雅黑" size="15px" weight="400" font-style="" opacity="1" y="-2.375" transform="rotate(0)"><tspan id="SvgjsTspan1600" dy="18" x="31.5"><tspan id="SvgjsTspan1601" style="text-decoration:;">make()</tspan></tspan></text></g></g><g id="SvgjsG1602" transform="translate(67.09375,456.18906250000055)"><path id="SvgjsPath1603" d="M 0 4Q 0 0 4 0L 142.65625 0Q 146.65625 0 146.65625 4L 146.65625 24.125Q 146.65625 28.125 142.65625 28.125L 4 28.125Q 0 28.125 0 24.125Z" stroke="rgba(255,255,255,1)" stroke-width="1.5" fill-opacity="1" fill="#a6aef3"></path><g id="SvgjsG1604"><text id="SvgjsText1605" font-family="微软雅黑" text-anchor="end" font-size="15px" width="127px" fill="#323232" font-weight="400" align="middle" lineHeight="125%" anchor="end" family="微软雅黑" size="15px" weight="400" font-style="" opacity="1" y="1.6875" transform="rotate(0)"><tspan id="SvgjsTspan1606" dy="18" x="137"><tspan id="SvgjsTspan1607" style="text-decoration:;">stateObjectsDirty</tspan></tspan></text></g></g><g id="SvgjsG1608" transform="translate(147.09375,493.68906250000055)"><path id="SvgjsPath1609" d="M 0 4Q 0 0 4 0L 62.65625 0Q 66.65625 0 66.65625 4L 66.65625 20Q 66.65625 24 62.65625 24L 4 24Q 0 24 0 20Z" stroke="rgba(255,255,255,1)" stroke-width="1.5" fill-opacity="1" fill="#a6aef3"></path><g id="SvgjsG1610"><text id="SvgjsText1611" font-family="微软雅黑" text-anchor="end" font-size="14px" width="47px" fill="#323232" font-weight="400" align="middle" lineHeight="125%" anchor="end" family="微软雅黑" size="14px" weight="400" font-style="" opacity="1" y="0.25" transform="rotate(0)"><tspan id="SvgjsTspan1612" dy="17" x="57"><tspan id="SvgjsTspan1613" style="text-decoration:;">logs</tspan></tspan></text></g></g><g id="SvgjsG1614" transform="translate(120.25,519.8140625000004)"><path id="SvgjsPath1615" d="M 0 4Q 0 0 4 0L 89.5 0Q 93.5 0 93.5 4L 93.5 20.875Q 93.5 24.875 89.5 24.875L 4 24.875Q 0 24.875 0 20.875Z" stroke="rgba(255,255,255,1)" stroke-width="1.5" fill-opacity="1" fill="#a6aef3"></path><g id="SvgjsG1616"><text id="SvgjsText1617" font-family="微软雅黑" text-anchor="end" font-size="14px" width="74px" fill="#323232" font-weight="400" align="middle" lineHeight="125%" anchor="end" family="微软雅黑" size="14px" weight="400" font-style="" opacity="1" y="0.6875" transform="rotate(0)"><tspan id="SvgjsTspan1618" dy="17" x="84"><tspan id="SvgjsTspan1619" style="text-decoration:;">preimages</tspan></tspan></text></g></g><g id="SvgjsG1620" transform="translate(128.71875,549.4390625000004)"><path id="SvgjsPath1621" d="M 0 4Q 0 0 4 0L 81.3125 0Q 85.3125 0 85.3125 4L 85.3125 22.25Q 85.3125 26.25 81.3125 26.25L 4 26.25Q 0 26.25 0 22.25Z" stroke="rgba(255,255,255,1)" stroke-width="1.5" fill-opacity="1" fill="#a6aef3"></path><g id="SvgjsG1622"><text id="SvgjsText1623" font-family="微软雅黑" text-anchor="end" font-size="14px" width="66px" fill="#323232" font-weight="400" align="middle" lineHeight="125%" anchor="end" family="微软雅黑" size="14px" weight="400" font-style="" opacity="1" y="1.375" transform="rotate(0)"><tspan id="SvgjsTspan1624" dy="17" x="76"><tspan id="SvgjsTspan1625" style="text-decoration:;">journal</tspan></tspan></text></g></g><g id="SvgjsG1626" transform="translate(124.09375,581.876562500001)"><path id="SvgjsPath1627" d="M 0 4Q 0 0 4 0L 85.9375 0Q 89.9375 0 89.9375 4L 89.9375 20.812499999999773Q 89.9375 24.812499999999773 85.9375 24.812499999999773L 4 24.812499999999773Q 0 24.812499999999773 0 20.812499999999773Z" stroke="rgba(255,255,255,1)" stroke-width="1.5" fill-opacity="1" fill="#a6aef3"></path><g id="SvgjsG1628"><text id="SvgjsText1629" font-family="微软雅黑" text-anchor="end" font-size="14px" width="70px" fill="#323232" font-weight="400" align="middle" lineHeight="125%" anchor="end" family="微软雅黑" size="14px" weight="400" font-style="" opacity="1" y="0.6562499999998863" transform="rotate(0)"><tspan id="SvgjsTspan1630" dy="17" x="80"><tspan id="SvgjsTspan1631" style="text-decoration:;">accessList</tspan></tspan></text></g></g><g id="SvgjsG1632" transform="translate(120.25,614.2857421875015)"><path id="SvgjsPath1633" d="M 0 4Q 0 0 4 0L 83.140625 0Q 87.140625 0 87.140625 4L 87.140625 20.471484374999136Q 87.140625 24.471484374999136 83.140625 24.471484374999136L 4 24.471484374999136Q 0 24.471484374999136 0 20.471484374999136Z" stroke="rgba(255,255,255,1)" stroke-width="1.5" fill-opacity="1" fill="#a6aef3"></path><g id="SvgjsG1634"><text id="SvgjsText1635" font-family="微软雅黑" text-anchor="end" font-size="14px" width="68px" fill="#323232" font-weight="400" align="middle" lineHeight="125%" anchor="end" family="微软雅黑" size="14px" weight="400" font-style="" opacity="1" y="0.485742187499568" transform="rotate(0)"><tspan id="SvgjsTspan1636" dy="17" x="78"><tspan id="SvgjsTspan1637" style="text-decoration:;">hasher</tspan></tspan></text></g></g><g id="SvgjsG1638" transform="translate(218.03125,427.00156250000055)"><path id="SvgjsPath1639" d="M 0 0L 62.34375 0L 62.34375 20L 0 20Z" stroke="none" fill="none"></path><g id="SvgjsG1640"><text id="SvgjsText1641" font-family="微软雅黑" text-anchor="middle" font-size="15px" width="63px" fill="#323232" font-weight="400" align="middle" lineHeight="125%" anchor="middle" family="微软雅黑" size="15px" weight="400" font-style="" opacity="1" y="-2.375" transform="rotate(0)"><tspan id="SvgjsTspan1642" dy="18" x="31.5"><tspan id="SvgjsTspan1643" style="text-decoration:;">make()</tspan></tspan></text></g></g><g id="SvgjsG1644" transform="translate(218.03125,460.25156250000055)"><path id="SvgjsPath1645" d="M 0 0L 62.34375 0L 62.34375 20L 0 20Z" stroke="none" fill="none"></path><g id="SvgjsG1646"><text id="SvgjsText1647" font-family="微软雅黑" text-anchor="middle" font-size="15px" width="63px" fill="#323232" font-weight="400" align="middle" lineHeight="125%" anchor="middle" family="微软雅黑" size="15px" weight="400" font-style="" opacity="1" y="-2.375" transform="rotate(0)"><tspan id="SvgjsTspan1648" dy="18" x="31.5"><tspan id="SvgjsTspan1649" style="text-decoration:;">make()</tspan></tspan></text></g></g><g id="SvgjsG1650" transform="translate(218.03125,495.68906250000055)"><path id="SvgjsPath1651" d="M 0 0L 62.34375 0L 62.34375 20L 0 20Z" stroke="none" fill="none"></path><g id="SvgjsG1652"><text id="SvgjsText1653" font-family="微软雅黑" text-anchor="middle" font-size="15px" width="63px" fill="#323232" font-weight="400" align="middle" lineHeight="125%" anchor="middle" family="微软雅黑" size="15px" weight="400" font-style="" opacity="1" y="-2.375" transform="rotate(0)"><tspan id="SvgjsTspan1654" dy="18" x="31.5"><tspan id="SvgjsTspan1655" style="text-decoration:;">make()</tspan></tspan></text></g></g><g id="SvgjsG1656"><path id="SvgjsPath1657" d="M214.70550401757072 321.79810927686253L409.99524196485856 226.66550019627675" stroke="#323232" stroke-width="1.5" fill="none" marker-end="url(#SvgjsMarker1658)"></path></g><g id="SvgjsG1660" transform="translate(417.5625,427.14375000000064)"><path id="SvgjsPath1661" d="M 0 4Q 0 0 4 0L 274.28125 0Q 278.28125 0 278.28125 4L 278.28125 206.2156249999996Q 278.28125 210.2156249999996 274.28125 210.2156249999996L 4 210.2156249999996Q 0 210.2156249999996 0 206.2156249999996Z" stroke="rgba(33,41,48,1)" stroke-width="1.5" fill-opacity="1" fill="#ffffff"></path><g id="SvgjsG1662"><text id="SvgjsText1663" font-family="微软雅黑" text-anchor="middle" font-size="13px" width="259px" fill="#323232" font-weight="400" align="middle" lineHeight="125%" anchor="middle" family="微软雅黑" size="13px" weight="400" font-style="" opacity="1" y="94.4828124999998" transform="rotate(0)"></text></g></g><g id="SvgjsG1664" transform="translate(454.109375,397.93906250000055)"><path id="SvgjsPath1665" d="M 0 0L 155 0L 155 32.20468750000009L 0 32.20468750000009Z" stroke="none" fill="none"></path><g id="SvgjsG1666"><text id="SvgjsText1667" font-family="微软雅黑" text-anchor="middle" font-size="18px" width="155px" fill="#323232" font-weight="400" align="middle" lineHeight="125%" anchor="middle" family="微软雅黑" size="18px" weight="400" font-style="" opacity="1" y="0.3523437500000455" transform="rotate(0)"><tspan id="SvgjsTspan1668" dy="22" x="77.5"><tspan id="SvgjsTspan1669" style="text-decoration:;">StateTrie</tspan></tspan></text></g></g><g id="SvgjsG1670" transform="translate(434.109375,427.14375000000064)"><path id="SvgjsPath1671" d="M 0 0L 192 0L 192 26L 0 26Z" stroke-dasharray="10,6,3,6" stroke="rgba(33,41,48,1)" stroke-width="1.5" fill-opacity="1" fill="#ffffff"></path><g id="SvgjsG1672"><text id="SvgjsText1673" font-family="微软雅黑" text-anchor="middle" font-size="14px" width="172px" fill="#323232" font-weight="400" align="middle" lineHeight="125%" anchor="middle" family="微软雅黑" size="14px" weight="400" font-style="" opacity="1" y="1.25" transform="rotate(0)"><tspan id="SvgjsTspan1674" dy="17" x="96"><tspan id="SvgjsTspan1675" style="text-decoration:;">trie/secure_trie.go</tspan></tspan></text></g></g><g id="SvgjsG1676" transform="translate(448.0703125,520.5898437500009)"><path id="SvgjsPath1677" d="M 0 4Q 0 0 4 0L 58.75 0Q 62.75 0 62.75 4L 62.75 16.875Q 62.75 20.875 58.75 20.875L 4 20.875Q 0 20.875 0 16.875Z" stroke="rgba(255,255,255,1)" stroke-width="1.5" fill-opacity="1" fill="#a6aef3"></path><g id="SvgjsG1678"><text id="SvgjsText1679" font-family="微软雅黑" text-anchor="end" font-size="14px" width="43px" fill="#323232" font-weight="400" align="middle" lineHeight="125%" anchor="end" family="微软雅黑" size="14px" weight="400" font-style="" opacity="1" y="-1.3125" transform="rotate(0)"><tspan id="SvgjsTspan1680" dy="17" x="53"><tspan id="SvgjsTspan1681" style="text-decoration:;">trie</tspan></tspan></text></g></g><g id="SvgjsG1682" transform="translate(448.0703125,462.0812500000011)"><path id="SvgjsPath1683" d="M 0 4Q 0 0 4 0L 83.984375 0Q 87.984375 0 87.984375 4L 87.984375 16Q 87.984375 20 83.984375 20L 4 20Q 0 20 0 16Z" stroke="rgba(38,38,38,1)" stroke-width="1.5" fill-opacity="1" fill="#ffffff"></path><g id="SvgjsG1684"><text id="SvgjsText1685" font-family="微软雅黑" text-anchor="end" font-size="14px" width="68px" fill="#323232" font-weight="400" align="middle" lineHeight="125%" anchor="end" family="微软雅黑" size="14px" weight="400" font-style="" opacity="1" y="-1.75" transform="rotate(0)"><tspan id="SvgjsTspan1686" dy="17" x="78"><tspan id="SvgjsTspan1687" style="text-decoration:;">preimages</tspan></tspan></text></g></g><g id="SvgjsG1688" transform="translate(542.671875,509.20625000000155)"><path id="SvgjsPath1689" d="M 0 4Q 0 0 4 0L 132.171875 0Q 136.171875 0 136.171875 4L 136.171875 102.71562499999754Q 136.171875 106.71562499999754 132.171875 106.71562499999754L 4 106.71562499999754Q 0 106.71562499999754 0 102.71562499999754Z" stroke="rgba(33,41,48,1)" stroke-width="1.5" fill-opacity="1" fill="#ffffff"></path><g id="SvgjsG1690"><text id="SvgjsText1691" font-family="微软雅黑" text-anchor="middle" font-size="13px" width="117px" fill="#323232" font-weight="400" align="middle" lineHeight="125%" anchor="middle" family="微软雅黑" size="13px" weight="400" font-style="" opacity="1" y="42.73281249999877" transform="rotate(0)"></text></g></g><g id="SvgjsG1692" transform="translate(572.9375,490.0554687500007)"><path id="SvgjsPath1693" d="M 0 0L 70.484375 0L 70.484375 19.15078125000059L 0 19.15078125000059Z" stroke="none" fill="none"></path><g id="SvgjsG1694"><text id="SvgjsText1695" font-family="微软雅黑" text-anchor="middle" font-size="18px" width="71px" fill="#323232" font-weight="400" align="middle" lineHeight="125%" anchor="middle" family="微软雅黑" size="18px" weight="400" font-style="" opacity="1" y="-6.174609374999704" transform="rotate(0)"><tspan id="SvgjsTspan1696" dy="22" x="35.5"><tspan id="SvgjsTspan1697" style="text-decoration:;">Trie</tspan></tspan></text></g></g><g id="SvgjsG1698" transform="translate(552.46875,509.20625000000155)"><path id="SvgjsPath1699" d="M 0 0L 102.75 0L 102.75 21.52812499999891L 0 21.52812499999891Z" stroke-dasharray="10,6,3,6" stroke="rgba(33,41,48,1)" stroke-width="1.5" fill-opacity="1" fill="#ffffff"></path><g id="SvgjsG1700"><text id="SvgjsText1701" font-family="微软雅黑" text-anchor="middle" font-size="14px" width="83px" fill="#323232" font-weight="400" align="middle" lineHeight="125%" anchor="middle" family="微软雅黑" size="14px" weight="400" font-style="" opacity="1" y="-0.9859375000005457" transform="rotate(0)"><tspan id="SvgjsTspan1702" dy="17" x="51.5"><tspan id="SvgjsTspan1703" style="text-decoration:;">trie/trie.go</tspan></tspan></text></g></g><g id="SvgjsG1704" transform="translate(572.9375,535.3453125000015)"><path id="SvgjsPath1705" d="M 0 4Q 0 0 4 0L 58.75 0Q 62.75 0 62.75 4L 62.75 16.875Q 62.75 20.875 58.75 20.875L 4 20.875Q 0 20.875 0 16.875Z" stroke="rgba(255,255,255,1)" stroke-width="1.5" fill-opacity="1" fill="#a6aef3"></path><g id="SvgjsG1706"><text id="SvgjsText1707" font-family="微软雅黑" text-anchor="end" font-size="14px" width="43px" fill="#323232" font-weight="400" align="middle" lineHeight="125%" anchor="end" family="微软雅黑" size="14px" weight="400" font-style="" opacity="1" y="-1.3125" transform="rotate(0)"><tspan id="SvgjsTspan1708" dy="17" x="53"><tspan id="SvgjsTspan1709" style="text-decoration:;">owner</tspan></tspan></text></g></g><g id="SvgjsG1710" transform="translate(598.171875,560.8312500000025)"><path id="SvgjsPath1711" d="M 0 4Q 0 0 4 0L 33.515625 0Q 37.515625 0 37.515625 4L 37.515625 16Q 37.515625 20 33.515625 20L 4 20Q 0 20 0 16Z" stroke="rgba(255,255,255,1)" stroke-width="1.5" fill-opacity="1" fill="#a6aef3"></path><g id="SvgjsG1712"><text id="SvgjsText1713" font-family="微软雅黑" text-anchor="end" font-size="14px" width="18px" fill="#323232" font-weight="400" align="middle" lineHeight="125%" anchor="end" family="微软雅黑" size="14px" weight="400" font-style="" opacity="1" y="-1.75" transform="rotate(0)"><tspan id="SvgjsTspan1714" dy="17" x="28"><tspan id="SvgjsTspan1715" style="text-decoration:;">db</tspan></tspan></text></g></g><g id="SvgjsG1716"><path id="SvgjsPath1717" d="M214.7576704164276 352.5631459360209L452.6565341671448 413.6682393779597" stroke="#323232" stroke-width="1.5" fill="none" marker-end="url(#SvgjsMarker1718)"></path></g><g id="SvgjsG1720"><path id="SvgjsPath1721" d="M635.9908382494026 570.1453302478088L722.4714485011949 374.5921520043879" stroke="#323232" stroke-width="1.5" fill="none" marker-end="url(#SvgjsMarker1722)"></path></g><g id="SvgjsG1724" transform="translate(214.03125,550.0285156250001)"><path id="SvgjsPath1725" d="M 0 0L 102.796875 0L 102.796875 25.0710937500005L 0 25.0710937500005Z" stroke="none" fill="none"></path><g id="SvgjsG1726"><text id="SvgjsText1727" font-family="微软雅黑" text-anchor="middle" font-size="15px" width="103px" fill="#323232" font-weight="400" align="middle" lineHeight="125%" anchor="middle" family="微软雅黑" size="15px" weight="400" font-style="" opacity="1" y="0.1605468750002501" transform="rotate(0)"><tspan id="SvgjsTspan1728" dy="18" x="51.5"><tspan id="SvgjsTspan1729" style="text-decoration:;">newJournal()</tspan></tspan></text></g></g><g id="SvgjsG1730" transform="translate(222.03125,522.2515625000004)"><path id="SvgjsPath1731" d="M 0 0L 62.34375 0L 62.34375 20L 0 20Z" stroke="none" fill="none"></path><g id="SvgjsG1732"><text id="SvgjsText1733" font-family="微软雅黑" text-anchor="middle" font-size="15px" width="63px" fill="#323232" font-weight="400" align="middle" lineHeight="125%" anchor="middle" family="微软雅黑" size="15px" weight="400" font-style="" opacity="1" y="-2.375" transform="rotate(0)"><tspan id="SvgjsTspan1734" dy="18" x="31.5"><tspan id="SvgjsTspan1735" style="text-decoration:;">make()</tspan></tspan></text></g></g><g id="SvgjsG1736" transform="translate(222.03125,581.7472656250011)"><path id="SvgjsPath1737" d="M 0 0L 114.796875 0L 114.796875 25.071093750000273L 0 25.071093750000273Z" stroke="none" fill="none"></path><g id="SvgjsG1738"><text id="SvgjsText1739" font-family="微软雅黑" text-anchor="middle" font-size="15px" width="115px" fill="#323232" font-weight="400" align="middle" lineHeight="125%" anchor="middle" family="微软雅黑" size="15px" weight="400" font-style="" opacity="1" y="0.16054687500013642" transform="rotate(0)"><tspan id="SvgjsTspan1740" dy="18" x="57.5"><tspan id="SvgjsTspan1741" style="text-decoration:;">newAccessList()</tspan></tspan></text></g></g><g id="SvgjsG1742" transform="translate(209.03125,612.050000000002)"><path id="SvgjsPath1743" d="M 0 0L 180.796875 0L 180.796875 28.942968749998045L 0 28.942968749998045Z" stroke="none" fill="none"></path><g id="SvgjsG1744"><text id="SvgjsText1745" font-family="微软雅黑" text-anchor="middle" font-size="15px" width="181px" fill="#323232" font-weight="400" align="middle" lineHeight="125%" anchor="middle" family="微软雅黑" size="15px" weight="400" font-style="" opacity="1" y="2.0964843749990223" transform="rotate(0)"><tspan id="SvgjsTspan1746" dy="18" x="90.5"><tspan id="SvgjsTspan1747" style="text-decoration:;">crypto.NewKeccakState()</tspan></tspan></text></g></g><g id="SvgjsG1748" transform="translate(588.40625,592.050000000002)"><path id="SvgjsPath1749" d="M 0 4Q 0 0 4 0L 51.015625 0Q 55.015625 0 55.015625 4L 55.015625 16Q 55.015625 20 51.015625 20L 4 20Q 0 20 0 16Z" stroke="rgba(255,255,255,1)" stroke-width="1.5" fill-opacity="1" fill="#a6aef3"></path><g id="SvgjsG1750"><text id="SvgjsText1751" font-family="微软雅黑" text-anchor="end" font-size="14px" width="36px" fill="#323232" font-weight="400" align="middle" lineHeight="125%" anchor="end" family="微软雅黑" size="14px" weight="400" font-style="" opacity="1" y="-1.75" transform="rotate(0)"><tspan id="SvgjsTspan1752" dy="17" x="46"><tspan id="SvgjsTspan1753" style="text-decoration:;">root</tspan></tspan></text></g></g></svg>