<svg id="SvgjsSvg2252" width="791.8489583333334" height="735.8159722222222" xmlns="http://www.w3.org/2000/svg" version="1.1" xmlns:xlink="http://www.w3.org/1999/xlink" xmlns:svgjs="http://svgjs.com/svgjs"><defs id="SvgjsDefs2253"><pattern patternUnits="userSpaceOnUse" id="pattern_mark_0" width="300" height="300"><text x="150" y="100" fill="rgba(229,229,229,0.8)" font-size="18" transform="rotate(-45, 150, 150)" style="dominant-baseline: middle; text-anchor: middle;"></text></pattern><pattern patternUnits="userSpaceOnUse" id="pattern_mark_1" width="300" height="300"><text x="150" y="200" fill="rgba(229,229,229,0.8)" font-size="18" transform="rotate(-45, 150, 150)" style="dominant-baseline: middle; text-anchor: middle;"></text></pattern><marker id="SvgjsMarker2335" markerWidth="16" markerHeight="16" refX="13" refY="8" viewBox="0 0 16 16" orient="auto" markerUnits="userSpaceOnUse" stroke-dasharray="0,0"><circle id="SvgjsCircle2336" r="4" cx="8" cy="8" fill="#323232" stroke="#323232" stroke-width="1.5"></circle></marker><marker id="SvgjsMarker2339" markerWidth="16" markerHeight="16" refX="13" refY="8" viewBox="0 0 16 16" orient="auto" markerUnits="userSpaceOnUse" stroke-dasharray="0,0"><circle id="SvgjsCircle2340" r="4" cx="8" cy="8" fill="#323232" stroke="#323232" stroke-width="1.5"></circle></marker><marker id="SvgjsMarker2527" markerWidth="16" markerHeight="16" refX="13" refY="8" viewBox="0 0 16 16" orient="auto" markerUnits="userSpaceOnUse" stroke-dasharray="0,0"><circle id="SvgjsCircle2528" r="4" cx="8" cy="8" fill="#323232" stroke="#323232" stroke-width="1.5"></circle></marker><marker id="SvgjsMarker2531" markerWidth="16" markerHeight="16" refX="13" refY="8" viewBox="0 0 16 16" orient="auto" markerUnits="userSpaceOnUse" stroke-dasharray="0,0"><circle id="SvgjsCircle2532" r="4" cx="8" cy="8" fill="#323232" stroke="#323232" stroke-width="1.5"></circle></marker></defs><rect id="svgbackgroundid" width="791.8489583333334" height="735.8159722222222" fill="transparent"></rect><rect id="SvgjsRect2255" width="791.8489583333334" height="735.8159722222222" fill="url(#pattern_mark_0)"></rect><rect id="SvgjsRect2256" width="791.8489583333334" height="735.8159722222222" fill="url(#pattern_mark_1)"></rect><g id="SvgjsG2257" transform="translate(25.006306689342637,54.136314247921575)"><path id="SvgjsPath2258" d="M 0 4Q 0 0 4 0L 423.69387755102025 0Q 427.69387755102025 0 427.69387755102025 4L 427.69387755102025 285.4897959183684Q 427.69387755102025 289.4897959183684 423.69387755102025 289.4897959183684L 4 289.4897959183684Q 0 289.4897959183684 0 285.4897959183684Z" stroke="rgba(33,41,48,1)" stroke-width="1.5" fill-opacity="1" fill="#ffffff"></path><g id="SvgjsG2259"><text id="SvgjsText2260" font-family="微软雅黑" text-anchor="middle" font-size="13px" width="408px" fill="#323232" font-weight="400" align="middle" lineHeight="125%" anchor="middle" family="微软雅黑" size="13px" weight="400" font-style="" opacity="1" y="134.1198979591842" transform="rotate(0)"></text></g></g><g id="SvgjsG2261" transform="translate(153.59814342403638,25.013865268329596)"><path id="SvgjsPath2262" d="M 0 4Q 0 0 4 0L 95.0204081632653 0Q 99.0204081632653 0 99.0204081632653 4L 99.0204081632653 26.612244897959158Q 99.0204081632653 30.612244897959158 95.0204081632653 30.612244897959158L 4 30.612244897959158Q 0 30.612244897959158 0 26.612244897959158Z" stroke="rgba(33,41,48,1)" stroke-width="1.5" fill-opacity="1" fill="#ffffff"></path><g id="SvgjsG2263"><text id="SvgjsText2264" font-family="微软雅黑" text-anchor="middle" font-size="15px" width="80px" fill="#323232" font-weight="400" align="middle" lineHeight="125%" anchor="middle" family="微软雅黑" size="15px" weight="400" font-style="" opacity="1" y="2.931122448979579" transform="rotate(0)"><tspan id="SvgjsTspan2265" dy="18" x="50"><tspan id="SvgjsTspan2266" style="text-decoration:;">Server</tspan></tspan></text></g></g><g id="SvgjsG2267" transform="translate(111.35324546485299,54.19753873771748)"><path id="SvgjsPath2268" d="M 0 4Q 0 0 4 0L 178.0612244897959 0Q 182.0612244897959 0 182.0612244897959 4L 182.0612244897959 32.12244897959192Q 182.0612244897959 36.12244897959192 178.0612244897959 36.12244897959192L 4 36.12244897959192Q 0 36.12244897959192 0 32.12244897959192Z" stroke-dasharray="10,6,3,6" stroke="rgba(33,41,48,1)" stroke-width="1.5" fill-opacity="1" fill="#ffffff"></path><g id="SvgjsG2269"><text id="SvgjsText2270" font-family="微软雅黑" text-anchor="middle" font-size="15px" width="163px" fill="#323232" font-weight="400" align="middle" lineHeight="125%" anchor="middle" family="微软雅黑" size="15px" weight="400" font-style="" opacity="1" y="5.686224489795961" transform="rotate(0)"><tspan id="SvgjsTspan2271" dy="18" x="91.5"><tspan id="SvgjsTspan2272" style="text-decoration:;">rpc/server.go</tspan></tspan></text></g></g><g id="SvgjsG2273" transform="translate(62.802225056689394,100.9322326152689)"><path id="SvgjsPath2274" d="M 0 0L 56.122448979591866 0L 56.122448979591866 32.24489795918373L 0 32.24489795918373Z" stroke="none" fill="none"></path><g id="SvgjsG2275"><text id="SvgjsText2276" font-family="微软雅黑" text-anchor="middle" font-size="16px" width="57px" fill="#323232" font-weight="400" align="middle" lineHeight="125%" anchor="middle" family="微软雅黑" size="16px" weight="400" font-style="" opacity="1" y="2.1224489795918657" transform="rotate(0)"><tspan id="SvgjsTspan2277" dy="20" x="28.5"><tspan id="SvgjsTspan2278" style="text-decoration:;">idgen</tspan></tspan></text></g></g><g id="SvgjsG2279" transform="translate(62.802225056689394,133.4628448601672)"><path id="SvgjsPath2280" d="M 0 0L 76.83673469387782 0L 76.83673469387782 25.142857142856542L 0 25.142857142856542Z" stroke="none" fill="none"></path><g id="SvgjsG2281"><text id="SvgjsText2282" font-family="微软雅黑" text-anchor="middle" font-size="16px" width="77px" fill="#323232" font-weight="400" align="middle" lineHeight="125%" anchor="middle" family="微软雅黑" size="16px" weight="400" font-style="" opacity="1" y="-1.428571428571729" transform="rotate(0)"><tspan id="SvgjsTspan2283" dy="20" x="38.5"><tspan id="SvgjsTspan2284" style="text-decoration:;">run: 1</tspan></tspan></text></g></g><g id="SvgjsG2285" transform="translate(46.322633219954696,168.48325302343216)"><path id="SvgjsPath2286" d="M 0 0L 76.83673469387782 0L 76.83673469387782 25.142857142856542L 0 25.142857142856542Z" stroke="none" fill="none"></path><g id="SvgjsG2287"><text id="SvgjsText2288" font-family="微软雅黑" text-anchor="middle" font-size="16px" width="77px" fill="#323232" font-weight="400" align="middle" lineHeight="125%" anchor="middle" family="微软雅黑" size="16px" weight="400" font-style="" opacity="1" y="-1.428571428571729" transform="rotate(0)"><tspan id="SvgjsTspan2289" dy="20" x="38.5"><tspan id="SvgjsTspan2290" style="text-decoration:;">codecs</tspan></tspan></text></g></g><g id="SvgjsG2291" transform="translate(177.18998015873035,125.25876322751373)"><path id="SvgjsPath2292" d="M 0 4Q 0 0 4 0L 259.2653061224489 0Q 263.2653061224489 0 263.2653061224489 4L 263.2653061224489 135.69387755102025Q 263.2653061224489 139.69387755102025 259.2653061224489 139.69387755102025L 4 139.69387755102025Q 0 139.69387755102025 0 135.69387755102025Z" stroke="rgba(33,41,48,1)" stroke-width="1.5" fill-opacity="1" fill="#ffffff"></path><g id="SvgjsG2293"><text id="SvgjsText2294" font-family="微软雅黑" text-anchor="middle" font-size="13px" width="244px" fill="#323232" font-weight="400" align="middle" lineHeight="125%" anchor="middle" family="微软雅黑" size="13px" weight="400" font-style="" opacity="1" y="59.221938775510125" transform="rotate(0)"></text></g></g><g id="SvgjsG2295" transform="translate(234.99610260770987,97.15672241118693)"><path id="SvgjsPath2296" d="M 0 4Q 0 0 4 0L 128.16326530612264 0Q 132.16326530612264 0 132.16326530612264 4L 132.16326530612264 25.183673469387827Q 132.16326530612264 29.183673469387827 128.16326530612264 29.183673469387827L 4 29.183673469387827Q 0 29.183673469387827 0 25.183673469387827Z" stroke="rgba(33,41,48,1)" stroke-width="1.5" fill-opacity="1" fill="#ffffff"></path><g id="SvgjsG2297"><text id="SvgjsText2298" font-family="微软雅黑" text-anchor="middle" font-size="15px" width="113px" fill="#323232" font-weight="400" align="middle" lineHeight="125%" anchor="middle" family="微软雅黑" size="15px" weight="400" font-style="" opacity="1" y="2.2168367346939135" transform="rotate(0)"><tspan id="SvgjsTspan2299" dy="18" x="66.5"><tspan id="SvgjsTspan2300" style="text-decoration:;">threadSafeSet</tspan></tspan></text></g></g><g id="SvgjsG2301" transform="translate(217.49610260770964,126.34039588057493)"><path id="SvgjsPath2302" d="M 0 4Q 0 0 4 0L 163.16326530612287 0Q 167.16326530612287 0 167.16326530612287 4L 167.16326530612287 27.061224489795563Q 167.16326530612287 31.061224489795563 163.16326530612287 31.061224489795563L 4 31.061224489795563Q 0 31.061224489795563 0 27.061224489795563Z" stroke-dasharray="10,6,3,6" stroke="rgba(33,41,48,1)" stroke-width="1.5" fill-opacity="1" fill="#ffffff"></path><g id="SvgjsG2303"><text id="SvgjsText2304" font-family="微软雅黑" text-anchor="middle" font-size="14px" width="148px" fill="#323232" font-weight="400" align="middle" lineHeight="125%" anchor="middle" family="微软雅黑" size="14px" weight="400" font-style="" opacity="1" y="-4.719387755102218" transform="rotate(0)"><tspan id="SvgjsTspan2305" dy="17" x="84"><tspan id="SvgjsTspan2306" style="text-decoration:;">G/deckarep/golang-</tspan></tspan><tspan id="SvgjsTspan2307" dy="17" x="84"><tspan id="SvgjsTspan2308" style="text-decoration:;">set/threadsafe.go</tspan></tspan></text></g></g><g id="SvgjsG2309" transform="translate(181.57773526077153,175.17713057445104)"><path id="SvgjsPath2310" d="M 0 0L 43.21428571428555 0L 43.21428571428555 32.08163265306257L 0 32.08163265306257Z" stroke="none" fill="none"></path><g id="SvgjsG2311"><text id="SvgjsText2312" font-family="微软雅黑" text-anchor="middle" font-size="16px" width="44px" fill="#323232" font-weight="400" align="middle" lineHeight="125%" anchor="middle" family="微软雅黑" size="16px" weight="400" font-style="" opacity="1" y="2.040816326531285" transform="rotate(0)"><tspan id="SvgjsTspan2313" dy="20" x="22"><tspan id="SvgjsTspan2314" style="text-decoration:;">s</tspan></tspan></text></g></g><g id="SvgjsG2315" transform="translate(186.8838577097506,234.87100812547402)"><path id="SvgjsPath2316" d="M 0 0L 106.63265306122457 0L 106.63265306122457 22.938775510202845L 0 22.938775510202845Z" stroke="none" fill="none"></path><g id="SvgjsG2317"><text id="SvgjsText2318" font-family="微软雅黑" text-anchor="middle" font-size="14px" width="107px" fill="#323232" font-weight="400" align="middle" lineHeight="125%" anchor="middle" family="微软雅黑" size="14px" weight="400" font-style="" opacity="1" y="-0.2806122448985775" transform="rotate(0)"><tspan id="SvgjsTspan2319" dy="17" x="53.5"><tspan id="SvgjsTspan2320" style="text-decoration:;">sync.RWMutex</tspan></tspan></text></g></g><g id="SvgjsG2321" transform="translate(276.67467403628257,170.50366118669666)"><path id="SvgjsPath2322" d="M 0 4Q 0 0 4 0L 140.1173469387752 0Q 144.1173469387752 0 144.1173469387752 4L 144.1173469387752 37.26530612245028Q 144.1173469387752 41.26530612245028 140.1173469387752 41.26530612245028L 4 41.26530612245028Q 0 41.26530612245028 0 37.26530612245028Z" stroke="rgba(157,140,136,1)" stroke-width="1.5" fill-opacity="1" fill="#9d8c88"></path><g id="SvgjsG2323"><text id="SvgjsText2324" font-family="微软雅黑" text-anchor="middle" font-size="13px" width="125px" fill="#323232" font-weight="400" align="middle" lineHeight="125%" anchor="middle" family="微软雅黑" size="13px" weight="400" font-style="" opacity="1" y="10.007653061225142" transform="rotate(0)"><tspan id="SvgjsTspan2325" dy="16" x="72.5"><tspan id="SvgjsTspan2326" style="text-decoration:;fill: rgb(50, 50, 50);">threadUnsafeSet</tspan></tspan></text></g></g><g id="SvgjsG2327" transform="translate(274.61855158730236,207.2587632275136)"><path id="SvgjsPath2328" d="M 0 0L 152.29591836734699 0L 152.29591836734699 33.204081632653015L 0 33.204081632653015Z" stroke="none" fill="none"></path><g id="SvgjsG2329"><text id="SvgjsText2330" font-family="微软雅黑" text-anchor="middle" font-size="13px" width="153px" fill="#323232" font-weight="400" align="middle" lineHeight="125%" anchor="middle" family="微软雅黑" size="13px" weight="400" font-style="" opacity="1" y="5.977040816326507" transform="rotate(0)"><tspan id="SvgjsTspan2331" dy="16" x="76.5"><tspan id="SvgjsTspan2332" style="text-decoration:;">map[interface{}]struct{}</tspan></tspan></text></g></g><g id="SvgjsG2333"><path id="SvgjsPath2334" d="M225.54202097505708 191.21794690098233L275.17467403628257 191.21794690098233" stroke="#323232" stroke-width="1.5" fill="none" marker-end="url(#SvgjsMarker2335)"></path></g><g id="SvgjsG2337"><path id="SvgjsPath2338" d="M123.90754353133957 181.0024011456673L175.69362892371578 177.3837322891648" stroke="#323232" stroke-width="1.5" fill="none" marker-end="url(#SvgjsMarker2339)"></path></g><g id="SvgjsG2341" transform="translate(476.78484032501933,245.0546815948606)"><path id="SvgjsPath2342" d="M 0 4Q 0 0 4 0L 196.4489795918371 0Q 200.4489795918371 0 200.4489795918371 4L 200.4489795918371 124.93877551020421Q 200.4489795918371 128.9387755102042 196.4489795918371 128.9387755102042L 4 128.9387755102042Q 0 128.9387755102042 0 124.93877551020421Z" stroke="rgba(33,41,48,1)" stroke-width="1.5" fill-opacity="1" fill="#ffffff"></path><g id="SvgjsG2343"><text id="SvgjsText2344" font-family="微软雅黑" text-anchor="middle" font-size="13px" width="181px" fill="#323232" font-weight="400" align="middle" lineHeight="125%" anchor="middle" family="微软雅黑" size="13px" weight="400" font-style="" opacity="1" y="53.844387755102105" transform="rotate(0)"></text></g></g><g id="SvgjsG2345" transform="translate(526.6317791005292,223.31998771730963)"><path id="SvgjsPath2346" d="M 0 4Q 0 0 4 0L 102.5510204081636 0Q 106.5510204081636 0 106.5510204081636 4L 106.5510204081636 20.428571428570876Q 106.5510204081636 24.428571428570876 102.5510204081636 24.428571428570876L 4 24.428571428570876Q 0 24.428571428570876 0 20.428571428570876Z" stroke="rgba(33,41,48,1)" stroke-width="1.5" fill-opacity="1" fill="#ffffff"></path><g id="SvgjsG2347"><text id="SvgjsText2348" font-family="微软雅黑" text-anchor="middle" font-size="15px" width="87px" fill="#323232" font-weight="400" align="middle" lineHeight="125%" anchor="middle" family="微软雅黑" size="15px" weight="400" font-style="" opacity="1" y="-0.1607142857145618" transform="rotate(0)"><tspan id="SvgjsTspan2349" dy="18" x="53.5"><tspan id="SvgjsTspan2350" style="text-decoration:;">RPCService</tspan></tspan></text></g></g><g id="SvgjsG2351" transform="translate(512.1113709372646,247.7485591458805)"><path id="SvgjsPath2352" d="M 0 4Q 0 0 4 0L 123.36734693877543 0Q 127.36734693877543 0 127.36734693877543 4L 127.36734693877543 21.18367346938885Q 127.36734693877543 25.18367346938885 123.36734693877543 25.18367346938885L 4 25.18367346938885Q 0 25.18367346938885 0 21.18367346938885Z" stroke-dasharray="10,6,3,6" stroke="rgba(33,41,48,1)" stroke-width="1.5" fill-opacity="1" fill="#ffffff"></path><g id="SvgjsG2353"><text id="SvgjsText2354" font-family="微软雅黑" text-anchor="middle" font-size="15px" width="108px" fill="#323232" font-weight="400" align="middle" lineHeight="125%" anchor="middle" family="微软雅黑" size="15px" weight="400" font-style="" opacity="1" y="0.2168367346944251" transform="rotate(0)"><tspan id="SvgjsTspan2355" dy="18" x="64"><tspan id="SvgjsTspan2356" style="text-decoration:;">rpc/server.go</tspan></tspan></text></g></g><g id="SvgjsG2357" transform="translate(499.2950444066521,276.228150982616)"><path id="SvgjsPath2358" d="M 0 0L 139.16326530612264 0L 139.16326530612264 27.10204081632662L 0 27.10204081632662Z" stroke="none" fill="none"></path><g id="SvgjsG2359"><text id="SvgjsText2360" font-family="微软雅黑" text-anchor="middle" font-size="16px" width="140px" fill="#323232" font-weight="400" align="middle" lineHeight="125%" anchor="middle" family="微软雅黑" size="16px" weight="400" font-style="" opacity="1" y="-0.44897959183668945" transform="rotate(0)"><tspan id="SvgjsTspan2361" dy="20" x="70"><tspan id="SvgjsTspan2362" style="text-decoration:;">server: 指回server</tspan></tspan></text></g></g><g id="SvgjsG2363" transform="translate(46.32263321995492,275.91182445200417)"><path id="SvgjsPath2364" d="M 0 0L 76.83673469387782 0L 76.83673469387782 25.142857142856542L 0 25.142857142856542Z" stroke="none" fill="none"></path><g id="SvgjsG2365"><text id="SvgjsText2366" font-family="微软雅黑" text-anchor="middle" font-size="16px" width="77px" fill="#323232" font-weight="400" align="middle" lineHeight="125%" anchor="middle" family="微软雅黑" size="16px" weight="400" font-style="" opacity="1" y="-1.428571428571729" transform="rotate(0)"><tspan id="SvgjsTspan2367" dy="20" x="38.5"><tspan id="SvgjsTspan2368" style="text-decoration:;">services</tspan></tspan></text></g></g><g id="SvgjsG2369" transform="translate(499.29504440665255,54.136314247921575)"><path id="SvgjsPath2370" d="M 0 4Q 0 0 4 0L 90.80102040816178 0Q 94.80102040816178 0 94.80102040816178 4L 94.80102040816178 30.642643393162366Q 94.80102040816178 34.642643393162366 90.80102040816178 34.642643393162366L 4 34.642643393162366Q 0 34.642643393162366 0 30.642643393162366Z" stroke="rgba(157,140,136,1)" stroke-width="1.5" fill-opacity="1" fill="#9d8c88"></path><g id="SvgjsG2371"><text id="SvgjsText2372" font-family="微软雅黑" text-anchor="middle" font-size="13px" width="75px" fill="#323232" font-weight="400" align="middle" lineHeight="125%" anchor="middle" family="微软雅黑" size="13px" weight="400" font-style="" opacity="1" y="6.696321696581183" transform="rotate(0)"><tspan id="SvgjsTspan2373" dy="16" x="47.5"><tspan id="SvgjsTspan2374" style="text-decoration:;">类型别名</tspan></tspan></text></g></g><g id="SvgjsG2375" transform="translate(517.0188447668845,90.5093765247172)"><path id="SvgjsPath2376" d="M 0 0L 58.086475049181885 0L 58.086475049181885 16.790203029326435L 0 16.790203029326435Z" stroke="none" fill="none"></path><g id="SvgjsG2377"><text id="SvgjsText2378" font-family="微软雅黑" text-anchor="middle" font-size="14px" width="59px" fill="#323232" font-weight="400" align="middle" lineHeight="125%" anchor="middle" family="微软雅黑" size="14px" weight="400" font-style="" opacity="1" y="-3.3548984853367827" transform="rotate(0)"><tspan id="SvgjsTspan2379" dy="17" x="29.5"><tspan id="SvgjsTspan2380" style="text-decoration:;">实际类型</tspan></tspan></text></g></g><g id="SvgjsG2381" transform="translate(139.63895975056698,398.42202853363557)"><path id="SvgjsPath2382" d="M 0 4Q 0 0 4 0L 622.8367346938774 0Q 626.8367346938774 0 626.8367346938774 4L 626.8367346938774 308.4981103552533Q 626.8367346938774 312.4981103552533 622.8367346938774 312.4981103552533L 4 312.4981103552533Q 0 312.4981103552533 0 308.4981103552533Z" stroke="rgba(33,41,48,1)" stroke-width="1.5" fill-opacity="1" fill="#ffffff"></path><g id="SvgjsG2383"><text id="SvgjsText2384" font-family="微软雅黑" text-anchor="middle" font-size="13px" width="607px" fill="#323232" font-weight="400" align="middle" lineHeight="125%" anchor="middle" family="微软雅黑" size="13px" weight="400" font-style="" opacity="1" y="145.62405517762664" transform="rotate(0)"></text></g></g><g id="SvgjsG2385" transform="translate(233.55732709750532,373.9934571050647)"><path id="SvgjsPath2386" d="M 0 4Q 0 0 4 0L 147.8163265306125 0Q 151.8163265306125 0 151.8163265306125 4L 151.8163265306125 20.428571428570876Q 151.8163265306125 24.428571428570876 147.8163265306125 24.428571428570876L 4 24.428571428570876Q 0 24.428571428570876 0 20.428571428570876Z" stroke="rgba(33,41,48,1)" stroke-width="1.5" fill-opacity="1" fill="#ffffff"></path><g id="SvgjsG2387"><text id="SvgjsText2388" font-family="微软雅黑" text-anchor="middle" font-size="15px" width="132px" fill="#323232" font-weight="400" align="middle" lineHeight="125%" anchor="middle" family="微软雅黑" size="15px" weight="400" font-style="" opacity="1" y="-0.1607142857145618" transform="rotate(0)"><tspan id="SvgjsTspan2389" dy="18" x="76"><tspan id="SvgjsTspan2390" style="text-decoration:;">serviceRegistry</tspan></tspan></text></g></g><g id="SvgjsG2391" transform="translate(246.39406179138336,398.42202853363557)"><path id="SvgjsPath2392" d="M 0 4Q 0 0 4 0L 123.36734693877543 0Q 127.36734693877543 0 127.36734693877543 4L 127.36734693877543 21.18367346938885Q 127.36734693877543 25.18367346938885 123.36734693877543 25.18367346938885L 4 25.18367346938885Q 0 25.18367346938885 0 21.18367346938885Z" stroke-dasharray="10,6,3,6" stroke="rgba(33,41,48,1)" stroke-width="1.5" fill-opacity="1" fill="#ffffff"></path><g id="SvgjsG2393"><text id="SvgjsText2394" font-family="微软雅黑" text-anchor="middle" font-size="15px" width="108px" fill="#323232" font-weight="400" align="middle" lineHeight="125%" anchor="middle" family="微软雅黑" size="15px" weight="400" font-style="" opacity="1" y="0.2168367346944251" transform="rotate(0)"><tspan id="SvgjsTspan2395" dy="18" x="64"><tspan id="SvgjsTspan2396" style="text-decoration:;">rcp/service.go</tspan></tspan></text></g></g><g id="SvgjsG2397" transform="translate(168.3940617913836,423.78937547241316)"><path id="SvgjsPath2398" d="M 0 0L 101.79591836734744 0L 101.79591836734744 26.83673469387736L 0 26.83673469387736Z" stroke="none" fill="none"></path><g id="SvgjsG2399"><text id="SvgjsText2400" font-family="微软雅黑" text-anchor="middle" font-size="16px" width="102px" fill="#323232" font-weight="400" align="middle" lineHeight="125%" anchor="middle" family="微软雅黑" size="16px" weight="400" font-style="" opacity="1" y="-0.5816326530613196" transform="rotate(0)"><tspan id="SvgjsTspan2401" dy="20" x="51"><tspan id="SvgjsTspan2402" style="text-decoration:;">sync.Mutex</tspan></tspan></text></g></g><g id="SvgjsG2403" transform="translate(168.39406179138336,469.2995795540458)"><path id="SvgjsPath2404" d="M 0 0L 75.42857142857133 0L 75.42857142857133 26.16326530612048L 0 26.16326530612048Z" stroke="none" fill="none"></path><g id="SvgjsG2405"><text id="SvgjsText2406" font-family="微软雅黑" text-anchor="middle" font-size="16px" width="76px" fill="#323232" font-weight="400" align="middle" lineHeight="125%" anchor="middle" family="微软雅黑" size="16px" weight="400" font-style="" opacity="1" y="-0.9183673469397604" transform="rotate(0)"><tspan id="SvgjsTspan2407" dy="20" x="38"><tspan id="SvgjsTspan2408" style="text-decoration:;">services</tspan></tspan></text></g></g><g id="SvgjsG2409" transform="translate(233.55732709750532,453.87100812547527)"><path id="SvgjsPath2410" d="M 32.19945413202686 0Q 28.97950871882417 0 28.97950871882417 5.995918367346656L 28.97950871882417 23.983673469386623Q 28.97950871882417 29.979591836733277 10.199454132026858 29.979591836733277Q 28.97950871882417 29.979591836733277 28.97950871882417 35.97551020407993L 28.97950871882417 53.9632653061199Q 28.97950871882417 59.959183673466555 32.19945413202686 59.959183673466555" stroke="rgba(33,41,48,1)" stroke-width="1.5" fill="none"></path><path id="SvgjsPath2411" d="M 0 0L 32.19945413202686 0L 32.19945413202686 59.959183673466555L 0 59.959183673466555Z" stroke="none" fill="none"></path><g id="SvgjsG2412"><text id="SvgjsText2413" font-family="微软雅黑" text-anchor="end" font-size="13px" width="6px" fill="#323232" font-weight="400" align="middle" lineHeight="125%" anchor="end" family="微软雅黑" size="13px" weight="400" font-style="" opacity="1" y="19.354591836733277" transform="rotate(0)"></text></g></g><g id="SvgjsG2414" transform="translate(268.28181689342387,445.8914162887417)"><path id="SvgjsPath2415" d="M 0 0L 44.622448979592264 0L 44.622448979592264 23.408163265304097L 0 23.408163265304097Z" stroke="none" fill="none"></path><g id="SvgjsG2416"><text id="SvgjsText2417" font-family="微软雅黑" text-anchor="middle" font-size="16px" width="45px" fill="#323232" font-weight="400" align="middle" lineHeight="125%" anchor="middle" family="微软雅黑" size="16px" weight="400" font-style="" opacity="1" y="-2.2959183673479515" transform="rotate(0)"><tspan id="SvgjsTspan2418" dy="20" x="22.5"><tspan id="SvgjsTspan2419" style="text-decoration:;">"rpc"</tspan></tspan></text></g></g><g id="SvgjsG2420" transform="translate(348.11817365835327,437.33132558579103)"><path id="SvgjsPath2421" d="M 0 4Q 0 0 4 0L 404.7452758881327 0Q 408.7452758881327 0 408.7452758881327 4L 408.7452758881327 178.84807256235695Q 408.7452758881327 182.84807256235695 404.7452758881327 182.84807256235695L 4 182.84807256235695Q 0 182.84807256235695 0 178.84807256235695Z" stroke="rgba(33,41,48,1)" stroke-width="1.5" fill-opacity="1" fill="#ffffff"></path><g id="SvgjsG2422"><text id="SvgjsText2423" font-family="微软雅黑" text-anchor="middle" font-size="13px" width="389px" fill="#323232" font-weight="400" align="middle" lineHeight="125%" anchor="middle" family="微软雅黑" size="13px" weight="400" font-style="" opacity="1" y="80.79903628117847" transform="rotate(0)"></text></g></g><g id="SvgjsG2424" transform="translate(481.99572467876146,412.96397864701606)"><path id="SvgjsPath2425" d="M 0 4Q 0 0 4 0L 67.0408163265306 0Q 71.0408163265306 0 71.0408163265306 4L 71.0408163265306 20.428571428570876Q 71.0408163265306 24.428571428570876 67.0408163265306 24.428571428570876L 4 24.428571428570876Q 0 24.428571428570876 0 20.428571428570876Z" stroke="rgba(33,41,48,1)" stroke-width="1.5" fill-opacity="1" fill="#ffffff"></path><g id="SvgjsG2426"><text id="SvgjsText2427" font-family="微软雅黑" text-anchor="middle" font-size="15px" width="52px" fill="#323232" font-weight="400" align="middle" lineHeight="125%" anchor="middle" family="微软雅黑" size="15px" weight="400" font-style="" opacity="1" y="-0.1607142857145618" transform="rotate(0)"><tspan id="SvgjsTspan2428" dy="18" x="36"><tspan id="SvgjsTspan2429" style="text-decoration:;">service</tspan></tspan></text></g></g><g id="SvgjsG2430" transform="translate(454.87327569916965,437.39255007558694)"><path id="SvgjsPath2431" d="M 0 4Q 0 0 4 0L 121.28571428571422 0Q 125.28571428571422 0 125.28571428571422 4L 125.28571428571422 21.367346938777587Q 125.28571428571422 25.367346938777587 121.28571428571422 25.367346938777587L 4 25.367346938777587Q 0 25.367346938777587 0 21.367346938777587Z" stroke-dasharray="10,6,3,6" stroke="rgba(33,41,48,1)" stroke-width="1.5" fill-opacity="1" fill="#ffffff"></path><g id="SvgjsG2432"><text id="SvgjsText2433" font-family="微软雅黑" text-anchor="middle" font-size="15px" width="106px" fill="#323232" font-weight="400" align="middle" lineHeight="125%" anchor="middle" family="微软雅黑" size="15px" weight="400" font-style="" opacity="1" y="0.30867346938879336" transform="rotate(0)"><tspan id="SvgjsTspan2434" dy="18" x="63"><tspan id="SvgjsTspan2435" style="text-decoration:;">rcp/service.go</tspan></tspan></text></g></g><g id="SvgjsG2436" transform="translate(358.3547571806512,462.75989701436464)"><path id="SvgjsPath2437" d="M 0 0L 101.79591836734744 0L 101.79591836734744 26.83673469387736L 0 26.83673469387736Z" stroke="none" fill="none"></path><g id="SvgjsG2438"><text id="SvgjsText2439" font-family="微软雅黑" text-anchor="middle" font-size="16px" width="102px" fill="#323232" font-weight="400" align="middle" lineHeight="125%" anchor="middle" family="微软雅黑" size="16px" weight="400" font-style="" opacity="1" y="-0.5816326530613196" transform="rotate(0)"><tspan id="SvgjsTspan2440" dy="20" x="51"><tspan id="SvgjsTspan2441" style="text-decoration:;">name: "rpc"</tspan></tspan></text></g></g><g id="SvgjsG2442" transform="translate(358.35475718065095,508.2701010959977)"><path id="SvgjsPath2443" d="M 0 0L 75.42857142857133 0L 75.42857142857133 26.16326530612048L 0 26.16326530612048Z" stroke="none" fill="none"></path><g id="SvgjsG2444"><text id="SvgjsText2445" font-family="微软雅黑" text-anchor="middle" font-size="16px" width="76px" fill="#323232" font-weight="400" align="middle" lineHeight="125%" anchor="middle" family="微软雅黑" size="16px" weight="400" font-style="" opacity="1" y="-0.9183673469397604" transform="rotate(0)"><tspan id="SvgjsTspan2446" dy="20" x="38"><tspan id="SvgjsTspan2447" style="text-decoration:;">callbacks</tspan></tspan></text></g></g><g id="SvgjsG2448" transform="translate(352.4057775888148,579.9435704837499)"><path id="SvgjsPath2449" d="M 0 0L 113.69387755102025 0L 113.69387755102025 31.38775510203652L 0 31.38775510203652Z" stroke="none" fill="none"></path><g id="SvgjsG2450"><text id="SvgjsText2451" font-family="微软雅黑" text-anchor="middle" font-size="16px" width="114px" fill="#323232" font-weight="400" align="middle" lineHeight="125%" anchor="middle" family="微软雅黑" size="16px" weight="400" font-style="" opacity="1" y="1.6938775510182609" transform="rotate(0)"><tspan id="SvgjsTspan2452" dy="20" x="57"><tspan id="SvgjsTspan2453" style="text-decoration:;">subscriptions</tspan></tspan></text></g></g><g id="SvgjsG2454"><path id="SvgjsPath2455" d="M477.8460648148157 307.2995795540443L672.1317791005265 307.2995795540443" stroke="#323232" stroke-width="1.5" fill="none"></path></g><g id="SvgjsG2456" transform="translate(478.4991260393049,314.6618244520045)"><path id="SvgjsPath2457" d="M 0 0L 202.8163265306125 0L 202.8163265306125 31.903061224489306L 0 31.903061224489306Z" stroke="none" fill="none"></path><g id="SvgjsG2458"><text id="SvgjsText2459" font-family="微软雅黑" text-anchor="middle" font-size="15px" width="203px" fill="#323232" font-weight="400" align="middle" lineHeight="125%" anchor="middle" family="微软雅黑" size="15px" weight="400" font-style="" opacity="1" y="3.576530612244653" transform="rotate(0)"><tspan id="SvgjsTspan2460" dy="18" x="101.5"><tspan id="SvgjsTspan2461" style="text-decoration:;">Modules() map[string]string</tspan></tspan></text></g></g><g id="SvgjsG2462" transform="translate(563.6911139455794,477.5924929216728)"><path id="SvgjsPath2463" d="M 0 4Q 0 0 4 0L 178.98715041572132 0Q 182.98715041572132 0 182.98715041572132 4L 182.98715041572132 120.5241690208843Q 182.98715041572132 124.5241690208843 178.98715041572132 124.5241690208843L 4 124.5241690208843Q 0 124.5241690208843 0 120.5241690208843Z" stroke="rgba(33,41,48,1)" stroke-width="1.5" fill-opacity="1" fill="#ffffff"></path><g id="SvgjsG2464"><text id="SvgjsText2465" font-family="微软雅黑" text-anchor="middle" font-size="13px" width="163px" fill="#323232" font-weight="400" align="middle" lineHeight="125%" anchor="middle" family="微软雅黑" size="13px" weight="400" font-style="" opacity="1" y="51.63708451044215" transform="rotate(0)"></text></g></g><g id="SvgjsG2466" transform="translate(612.7936810716644,462.75989701436464)"><path id="SvgjsPath2467" d="M 0 4Q 0 0 4 0L 100.95987838906527 0Q 104.95987838906527 0 104.95987838906527 4L 104.95987838906527 12.671002160607816Q 104.95987838906527 16.671002160607816 100.95987838906527 16.671002160607816L 4 16.671002160607816Q 0 16.671002160607816 0 12.671002160607816Z" stroke="rgba(33,41,48,1)" stroke-width="1.5" fill-opacity="1" fill="#ffffff"></path><g id="SvgjsG2468"><text id="SvgjsText2469" font-family="微软雅黑" text-anchor="middle" font-size="15px" width="85px" fill="#323232" font-weight="400" align="middle" lineHeight="125%" anchor="middle" family="微软雅黑" size="15px" weight="400" font-style="" opacity="1" y="-4.039498919696092" transform="rotate(0)"><tspan id="SvgjsTspan2470" dy="18" x="52.5"><tspan id="SvgjsTspan2471" style="text-decoration:;">callback</tspan></tspan></text></g></g><g id="SvgjsG2472" transform="translate(598.490108293687,479.4308991749726)"><path id="SvgjsPath2473" d="M 0 4Q 0 0 4 0L 121.46535166178009 0Q 125.46535166178009 0 125.46535166178009 4L 125.46535166178009 13.186313004337013Q 125.46535166178009 17.186313004337013 121.46535166178009 17.186313004337013L 4 17.186313004337013Q 0 17.186313004337013 0 13.186313004337013Z" stroke-dasharray="10,6,3,6" stroke="rgba(33,41,48,1)" stroke-width="1.5" fill-opacity="1" fill="#ffffff"></path><g id="SvgjsG2474"><text id="SvgjsText2475" font-family="微软雅黑" text-anchor="middle" font-size="15px" width="106px" fill="#323232" font-weight="400" align="middle" lineHeight="125%" anchor="middle" family="微软雅黑" size="15px" weight="400" font-style="" opacity="1" y="-3.7818434978314937" transform="rotate(0)"><tspan id="SvgjsTspan2476" dy="18" x="63"><tspan id="SvgjsTspan2477" style="text-decoration:;">rpc/service.go</tspan></tspan></text></g></g><g id="SvgjsG2478" transform="translate(569.400481013668,498.1143990901405)"><path id="SvgjsPath2479" d="M 0 0L 171.43290443729154 0L 171.43290443729154 23.85401750257564L 0 23.85401750257564Z" stroke="none" fill="none"></path><g id="SvgjsG2480"><text id="SvgjsText2481" font-family="微软雅黑" text-anchor="middle" font-size="16px" width="172px" fill="#323232" font-weight="400" align="middle" lineHeight="125%" anchor="middle" family="微软雅黑" size="16px" weight="400" font-style="" opacity="1" y="-2.0729912487121798" transform="rotate(0)"><tspan id="SvgjsTspan2482" dy="20" x="86"><tspan id="SvgjsTspan2483" style="text-decoration:;">fn: Modules()方法Func</tspan></tspan></text></g></g><g id="SvgjsG2484" transform="translate(567.2039978562789,517.5116741604729)"><path id="SvgjsPath2485" d="M 0 0L 179.4742665050221 0L 179.4742665050221 15.518516422270336L 0 15.518516422270336Z" stroke="none" fill="none"></path><g id="SvgjsG2486"><text id="SvgjsText2487" font-family="微软雅黑" text-anchor="middle" font-size="15px" width="180px" fill="#323232" font-weight="400" align="middle" lineHeight="125%" anchor="middle" family="微软雅黑" size="15px" weight="400" font-style="" opacity="1" y="-4.615741788864832" transform="rotate(0)"><tspan id="SvgjsTspan2488" dy="18" x="90"><tspan id="SvgjsTspan2489" style="text-decoration:;">rcvr: 指回RPCService实例</tspan></tspan></text></g></g><g id="SvgjsG2490" transform="translate(567.2039978562789,533.030190582743)"><path id="SvgjsPath2491" d="M 0 0L 84.98453935636994 0L 84.98453935636994 13.648773698743552L 0 13.648773698743552Z" stroke="none" fill="none"></path><g id="SvgjsG2492"><text id="SvgjsText2493" font-family="微软雅黑" text-anchor="middle" font-size="15px" width="85px" fill="#323232" font-weight="400" align="middle" lineHeight="125%" anchor="middle" family="微软雅黑" size="15px" weight="400" font-style="" opacity="1" y="-5.550613150628224" transform="rotate(0)"><tspan id="SvgjsTspan2494" dy="18" x="42.5"><tspan id="SvgjsTspan2495" style="text-decoration:;">errPos: -1</tspan></tspan></text></g></g><g id="SvgjsG2496" transform="translate(567.2039978562784,549.2659639902029)"><path id="SvgjsPath2497" d="M 0 0L 92.6461704375697 0L 92.6461704375697 13.19265396544307L 0 13.19265396544307Z" stroke="none" fill="none"></path><g id="SvgjsG2498"><text id="SvgjsText2499" font-family="微软雅黑" text-anchor="middle" font-size="15px" width="93px" fill="#323232" font-weight="400" align="middle" lineHeight="125%" anchor="middle" family="微软雅黑" size="15px" weight="400" font-style="" opacity="1" y="-5.778673017278465" transform="rotate(0)"><tspan id="SvgjsTspan2500" dy="18" x="46.5"><tspan id="SvgjsTspan2501" style="text-decoration:;">isSubscribe</tspan></tspan></text></g></g><g id="SvgjsG2502" transform="translate(567.2039978562789,562.4586179556461)"><path id="SvgjsPath2503" d="M 0 0L 140.0715923731397 0L 140.0715923731397 17.914531306270558L 0 17.914531306270558Z" stroke="none" fill="none"></path><g id="SvgjsG2504"><text id="SvgjsText2505" font-family="微软雅黑" text-anchor="middle" font-size="15px" width="141px" fill="#323232" font-weight="400" align="middle" lineHeight="125%" anchor="middle" family="微软雅黑" size="15px" weight="400" font-style="" opacity="1" y="-3.417734346864721" transform="rotate(0)"><tspan id="SvgjsTspan2506" dy="18" x="70.5"><tspan id="SvgjsTspan2507" style="text-decoration:;">hasCtx: 参数有ctx?</tspan></tspan></text></g></g><g id="SvgjsG2508" transform="translate(567.203997856278,578.694391363106)"><path id="SvgjsPath2509" d="M 0 0L 140.07159237314195 0L 140.07159237314195 14.772631056873616L 0 14.772631056873616Z" stroke="none" fill="none"></path><g id="SvgjsG2510"><text id="SvgjsText2511" font-family="微软雅黑" text-anchor="middle" font-size="15px" width="141px" fill="#323232" font-weight="400" align="middle" lineHeight="125%" anchor="middle" family="微软雅黑" size="15px" weight="400" font-style="" opacity="1" y="-4.988684471563192" transform="rotate(0)"><tspan id="SvgjsTspan2512" dy="18" x="70.5"><tspan id="SvgjsTspan2513" style="text-decoration:;">argTypes: 参数类型</tspan></tspan></text></g></g><g id="SvgjsG2514" transform="translate(422.6738215671428,486.7500708616789)"><path id="SvgjsPath2515" d="M 32.19945413202686 0Q 28.97950871882417 0 28.97950871882417 5.995918367346656L 28.97950871882417 23.983673469386623Q 28.97950871882417 29.979591836733277 10.199454132026858 29.979591836733277Q 28.97950871882417 29.979591836733277 28.97950871882417 35.97551020407993L 28.97950871882417 53.9632653061199Q 28.97950871882417 59.959183673466555 32.19945413202686 59.959183673466555" stroke="rgba(33,41,48,1)" stroke-width="1.5" fill="none"></path><path id="SvgjsPath2516" d="M 0 0L 32.19945413202686 0L 32.19945413202686 59.959183673466555L 0 59.959183673466555Z" stroke="none" fill="none"></path><g id="SvgjsG2517"><text id="SvgjsText2518" font-family="微软雅黑" text-anchor="end" font-size="13px" width="6px" fill="#323232" font-weight="400" align="middle" lineHeight="125%" anchor="end" family="微软雅黑" size="13px" weight="400" font-style="" opacity="1" y="19.354591836733277" transform="rotate(0)"></text></g></g><g id="SvgjsG2519" transform="translate(454.87327569916965,481.1582341269895)"><path id="SvgjsPath2520" d="M 0 0L 79.00491307634229 0L 79.00491307634229 23.408163265304324L 0 23.408163265304324Z" stroke="none" fill="none"></path><g id="SvgjsG2521"><text id="SvgjsText2522" font-family="微软雅黑" text-anchor="middle" font-size="16px" width="80px" fill="#323232" font-weight="400" align="middle" lineHeight="125%" anchor="middle" family="微软雅黑" size="16px" weight="400" font-style="" opacity="1" y="-2.295918367347838" transform="rotate(0)"><tspan id="SvgjsTspan2523" dy="20" x="40"><tspan id="SvgjsTspan2524" style="text-decoration:;">"modules"</tspan></tspan></text></g></g><g id="SvgjsG2525"><path id="SvgjsPath2526" d="M534.6279804526923 492.8446397637427L562.7626162121392 492.18137859209224" stroke="#323232" stroke-width="1.5" fill="none" marker-end="url(#SvgjsMarker2527)"></path></g><g id="SvgjsG2529"><path id="SvgjsPath2530" d="M123.84100028245848 288.79610652595653L308.10222562555987 373.3677501000166" stroke="#323232" stroke-width="1.5" fill="none" marker-end="url(#SvgjsMarker2531)"></path></g></svg>