<svg id="SvgjsSvg1006" width="526" height="418" xmlns="http://www.w3.org/2000/svg" version="1.1" xmlns:xlink="http://www.w3.org/1999/xlink" xmlns:svgjs="http://svgjs.com/svgjs"><defs id="SvgjsDefs1007"><pattern patternUnits="userSpaceOnUse" id="pattern_mark_0" width="300" height="300"><text x="150" y="100" fill="rgba(229,229,229,0.8)" font-size="18" transform="rotate(-45, 150, 150)" style="dominant-baseline: middle; text-anchor: middle;"></text></pattern><pattern patternUnits="userSpaceOnUse" id="pattern_mark_1" width="300" height="300"><text x="150" y="200" fill="rgba(229,229,229,0.8)" font-size="18" transform="rotate(-45, 150, 150)" style="dominant-baseline: middle; text-anchor: middle;"></text></pattern></defs><rect id="svgbackgroundid" width="526" height="418" fill="transparent"></rect><rect id="SvgjsRect1009" width="526" height="418" fill="url(#pattern_mark_0)"></rect><rect id="SvgjsRect1010" width="526" height="418" fill="url(#pattern_mark_1)"></rect><g id="SvgjsG1011" transform="translate(25,25)"><path id="SvgjsPath1012" d="M 0 4Q 0 0 4 0L 472 0Q 476 0 476 4L 476 364Q 476 368 472 368L 4 368Q 0 368 0 364Z" stroke="rgba(33,41,48,1)" stroke-width="1.5" fill-opacity="1" fill="#ffffff"></path><g id="SvgjsG1013"><text id="SvgjsText1014" font-family="微软雅黑" text-anchor="middle" font-size="13px" width="456px" fill="#323232" font-weight="400" align="middle" lineHeight="125%" anchor="middle" family="微软雅黑" size="13px" weight="400" font-style="" opacity="1" y="173.375" transform="rotate(0)"></text></g></g><g id="SvgjsG1015" transform="translate(35,31)"><path id="SvgjsPath1016" d="M 0 0L 64 0L 64 28L 0 28Z" stroke="none" fill="none"></path><g id="SvgjsG1017"><text id="SvgjsText1018" font-family="微软雅黑" text-anchor="middle" font-size="18px" width="64px" fill="#323232" font-weight="400" align="middle" lineHeight="125%" anchor="middle" family="微软雅黑" size="18px" weight="400" font-style="" opacity="1" y="-1.75" transform="rotate(0)"><tspan id="SvgjsTspan1019" dy="22" x="32"><tspan id="SvgjsTspan1020" style="text-decoration:;">JSRE</tspan></tspan></text></g></g><g id="SvgjsG1021" transform="translate(84,82)"><path id="SvgjsPath1022" d="M 0 4Q 0 0 4 0L 338 0Q 342 0 342 4L 342 241Q 342 245 338 245L 4 245Q 0 245 0 241Z" stroke="rgba(166,174,243,1)" stroke-width="1.5" fill-opacity="1" fill="#ffffff"></path><g id="SvgjsG1023"><text id="SvgjsText1024" font-family="微软雅黑" text-anchor="middle" font-size="13px" width="322px" fill="#323232" font-weight="400" align="middle" lineHeight="125%" anchor="middle" family="微软雅黑" size="13px" weight="400" font-style="" opacity="1" y="111.875" transform="rotate(0)"></text></g></g><g id="SvgjsG1025" transform="translate(91.5,88)"><path id="SvgjsPath1026" d="M 0 0L 64 0L 64 28L 0 28Z" stroke="none" fill="none"></path><g id="SvgjsG1027"><text id="SvgjsText1028" font-family="微软雅黑" text-anchor="middle" font-size="18px" width="64px" fill="#323232" font-weight="400" align="middle" lineHeight="125%" anchor="middle" family="微软雅黑" size="18px" weight="400" font-style="" opacity="1" y="-1.75" transform="rotate(0)"><tspan id="SvgjsTspan1029" dy="22" x="32"><tspan id="SvgjsTspan1030" style="text-decoration:;">goja</tspan></tspan></text></g></g><g id="SvgjsG1031" transform="translate(136,229)"><path id="SvgjsPath1032" d="M 0 4Q 0 0 4 0L 92 0Q 96 0 96 4L 96 29Q 96 33 92 33L 4 33Q 0 33 0 29Z" stroke="rgba(166,174,243,1)" stroke-width="1.5" fill-opacity="1" fill="#a6aef3"></path><g id="SvgjsG1033"><text id="SvgjsText1034" font-family="微软雅黑" text-anchor="middle" font-size="15px" width="76px" fill="#323232" font-weight="400" align="middle" lineHeight="125%" anchor="middle" family="微软雅黑" size="15px" weight="400" font-style="" opacity="1" y="4.125" transform="rotate(0)"><tspan id="SvgjsTspan1035" dy="18" x="48"><tspan id="SvgjsTspan1036" style="text-decoration:;">loadScript</tspan></tspan></text></g></g><g id="SvgjsG1037" transform="translate(264,228)"><path id="SvgjsPath1038" d="M 0 4Q 0 0 4 0L 82 0Q 86 0 86 4L 86 31Q 86 35 82 35L 4 35Q 0 35 0 31Z" stroke="rgba(166,174,243,1)" stroke-width="1.5" fill-opacity="1" fill="#a6aef3"></path><g id="SvgjsG1039"><text id="SvgjsText1040" font-family="微软雅黑" text-anchor="middle" font-size="15px" width="66px" fill="#323232" font-weight="400" align="middle" lineHeight="125%" anchor="middle" family="微软雅黑" size="15px" weight="400" font-style="" opacity="1" y="5.125" transform="rotate(0)"><tspan id="SvgjsTspan1041" dy="18" x="43"><tspan id="SvgjsTspan1042" style="text-decoration:;">inspect</tspan></tspan></text></g></g><g id="SvgjsG1043" transform="translate(131.5,133)"><path id="SvgjsPath1044" d="M 0 4Q 0 0 4 0L 101 0Q 105 0 105 4L 105 30Q 105 34 101 34L 4 34Q 0 34 0 30Z" stroke="rgba(166,174,243,1)" stroke-width="1.5" fill-opacity="1" fill="#a6aef3"></path><g id="SvgjsG1045"><text id="SvgjsText1046" font-family="微软雅黑" text-anchor="middle" font-size="15px" width="85px" fill="#323232" font-weight="400" align="middle" lineHeight="125%" anchor="middle" family="微软雅黑" size="15px" weight="400" font-style="" opacity="1" y="4.625" transform="rotate(0)"><tspan id="SvgjsTspan1047" dy="18" x="52.5"><tspan id="SvgjsTspan1048" style="text-decoration:;">setTimeout</tspan></tspan></text></g></g><g id="SvgjsG1049" transform="translate(131.5,177)"><path id="SvgjsPath1050" d="M 0 4Q 0 0 4 0L 101 0Q 105 0 105 4L 105 30Q 105 34 101 34L 4 34Q 0 34 0 30Z" stroke="rgba(166,174,243,1)" stroke-width="1.5" fill-opacity="1" fill="#a6aef3"></path><g id="SvgjsG1051"><text id="SvgjsText1052" font-family="微软雅黑" text-anchor="middle" font-size="15px" width="85px" fill="#323232" font-weight="400" align="middle" lineHeight="125%" anchor="middle" family="微软雅黑" size="15px" weight="400" font-style="" opacity="1" y="4.625" transform="rotate(0)"><tspan id="SvgjsTspan1053" dy="18" x="52.5"><tspan id="SvgjsTspan1054" style="text-decoration:;">setInterval</tspan></tspan></text></g></g><g id="SvgjsG1055" transform="translate(264,175.5)"><path id="SvgjsPath1056" d="M 0 4Q 0 0 4 0L 105 0Q 109 0 109 4L 109 33Q 109 37 105 37L 4 37Q 0 37 0 33Z" stroke="rgba(166,174,243,1)" stroke-width="1.5" fill-opacity="1" fill="#a6aef3"></path><g id="SvgjsG1057"><text id="SvgjsText1058" font-family="微软雅黑" text-anchor="middle" font-size="15px" width="89px" fill="#323232" font-weight="400" align="middle" lineHeight="125%" anchor="middle" family="微软雅黑" size="15px" weight="400" font-style="" opacity="1" y="6.125" transform="rotate(0)"><tspan id="SvgjsTspan1059" dy="18" x="54.5"><tspan id="SvgjsTspan1060" style="text-decoration:;">clearInterval</tspan></tspan></text></g></g><g id="SvgjsG1061" transform="translate(257,134.5)"><path id="SvgjsPath1062" d="M 0 4Q 0 0 4 0L 119 0Q 123 0 123 4L 123 27Q 123 31 119 31L 4 31Q 0 31 0 27Z" stroke="rgba(166,174,243,1)" stroke-width="1.5" fill-opacity="1" fill="#a6aef3"></path><g id="SvgjsG1063"><text id="SvgjsText1064" font-family="微软雅黑" text-anchor="middle" font-size="15px" width="103px" fill="#323232" font-weight="400" align="middle" lineHeight="125%" anchor="middle" family="微软雅黑" size="15px" weight="400" font-style="" opacity="1" y="3.125" transform="rotate(0)"><tspan id="SvgjsTspan1065" dy="18" x="61.5"><tspan id="SvgjsTspan1066" style="text-decoration:;fill: rgb(50, 50, 50);">clearTimeout</tspan></tspan></text></g></g><g id="SvgjsG1067" transform="translate(201.5,280)"><path id="SvgjsPath1068" d="M 0 0L 144.5 0L 144.5 37L 0 37Z" stroke="none" fill="none"></path><g id="SvgjsG1069"><text id="SvgjsText1070" font-family="微软雅黑" text-anchor="middle" font-size="18px" width="145px" fill="#323232" font-weight="400" align="middle" lineHeight="125%" anchor="middle" family="微软雅黑" size="18px" weight="400" font-style="" opacity="1" y="2.75" transform="rotate(0)"><tspan id="SvgjsTspan1071" dy="22" x="72.5"><tspan id="SvgjsTspan1072" style="text-decoration:;">global context</tspan></tspan></text></g></g></svg>