<svg id="SvgjsSvg1154" width="1155.8281665558513" height="681.9999220827793" xmlns="http://www.w3.org/2000/svg" version="1.1" xmlns:xlink="http://www.w3.org/1999/xlink" xmlns:svgjs="http://svgjs.com/svgjs"><defs id="SvgjsDefs1155"><pattern patternUnits="userSpaceOnUse" id="pattern_mark_0" width="300" height="300"><text x="150" y="100" fill="rgba(229,229,229,0.8)" font-size="18" transform="rotate(-45, 150, 150)" style="dominant-baseline: middle; text-anchor: middle;"></text></pattern><pattern patternUnits="userSpaceOnUse" id="pattern_mark_1" width="300" height="300"><text x="150" y="200" fill="rgba(229,229,229,0.8)" font-size="18" transform="rotate(-45, 150, 150)" style="dominant-baseline: middle; text-anchor: middle;"></text></pattern><marker id="SvgjsMarker1249" markerWidth="16" markerHeight="16" refX="13" refY="8" viewBox="0 0 16 16" orient="auto" markerUnits="userSpaceOnUse" stroke-dasharray="0,0"><circle id="SvgjsCircle1250" r="4" cx="8" cy="8" fill="#323232" stroke="#323232" stroke-width="1.5"></circle></marker><marker id="SvgjsMarker1277" markerWidth="16" markerHeight="16" refX="13" refY="8" viewBox="0 0 16 16" orient="auto" markerUnits="userSpaceOnUse" stroke-dasharray="0,0"><circle id="SvgjsCircle1278" r="4" cx="8" cy="8" fill="#323232" stroke="#323232" stroke-width="1.5"></circle></marker><marker id="SvgjsMarker1321" markerWidth="16" markerHeight="16" refX="13" refY="8" viewBox="0 0 16 16" orient="auto" markerUnits="userSpaceOnUse" stroke-dasharray="0,0"><circle id="SvgjsCircle1322" r="4" cx="8" cy="8" fill="#323232" stroke="#323232" stroke-width="1.5"></circle></marker></defs><rect id="svgbackgroundid" width="1155.8281665558513" height="681.9999220827793" fill="transparent"></rect><rect id="SvgjsRect1157" width="1155.8281665558513" height="681.9999220827793" fill="url(#pattern_mark_0)"></rect><rect id="SvgjsRect1158" width="1155.8281665558513" height="681.9999220827793" fill="url(#pattern_mark_1)"></rect><g id="SvgjsG1159" transform="translate(370.9218646110372,95.01018849818821)"><path id="SvgjsPath1160" d="M 0 4Q 0 0 4 0L 280 0Q 284 0 284 4L 284 558.4897959183677Q 284 562.4897959183677 280 562.4897959183677L 4 562.4897959183677Q 0 562.4897959183677 0 558.4897959183677Z" stroke="rgba(33,41,48,1)" stroke-width="1.5" fill-opacity="1" fill="#ffffff"></path><g id="SvgjsG1161"><text id="SvgjsText1162" font-family="微软雅黑" text-anchor="middle" font-size="13px" width="264px" fill="#323232" font-weight="400" align="middle" lineHeight="125%" anchor="middle" family="微软雅黑" size="13px" weight="400" font-style="" opacity="1" y="270.61989795918385" transform="rotate(0)"></text></g></g><g id="SvgjsG1163" transform="translate(437.758599304914,65.88773951859629)"><path id="SvgjsPath1164" d="M 0 4Q 0 0 4 0L 95.0204081632653 0Q 99.0204081632653 0 99.0204081632653 4L 99.0204081632653 26.612244897959158Q 99.0204081632653 30.612244897959158 95.0204081632653 30.612244897959158L 4 30.612244897959158Q 0 30.612244897959158 0 26.612244897959158Z" stroke="rgba(33,41,48,1)" stroke-width="1.5" fill-opacity="1" fill="#ffffff"></path><g id="SvgjsG1165"><text id="SvgjsText1166" font-family="微软雅黑" text-anchor="middle" font-size="15px" width="80px" fill="#323232" font-weight="400" align="middle" lineHeight="125%" anchor="middle" family="微软雅黑" size="15px" weight="400" font-style="" opacity="1" y="2.931122448979579" transform="rotate(0)"><tspan id="SvgjsTspan1167" dy="18.75" x="50"><tspan id="SvgjsTspan1168" style="">Ethash</tspan></tspan></text></g></g><g id="SvgjsG1169" transform="translate(405.5137013457304,95.07141298798412)"><path id="SvgjsPath1170" d="M 0 4Q 0 0 4 0L 219.65306122448965 0Q 223.65306122448965 0 223.65306122448965 4L 223.65306122448965 29.316326530612173Q 223.65306122448965 33.31632653061217 219.65306122448965 33.31632653061217L 4 33.31632653061217Q 0 33.31632653061217 0 29.316326530612173Z" stroke-dasharray="10,6,3,6" stroke="rgba(33,41,48,1)" stroke-width="1.5" fill-opacity="1" fill="#ffffff"></path><g id="SvgjsG1171"><text id="SvgjsText1172" font-family="微软雅黑" text-anchor="middle" font-size="15px" width="204px" fill="#323232" font-weight="400" align="middle" lineHeight="125%" anchor="middle" family="微软雅黑" size="15px" weight="400" font-style="" opacity="1" y="4.2831632653060865" transform="rotate(0)"><tspan id="SvgjsTspan1173" dy="18.75" x="112"><tspan id="SvgjsTspan1174" style="fill: rgb(50, 50, 50);">consensus/ethash/ethash.go</tspan></tspan></text></g></g><g id="SvgjsG1175" transform="translate(413.79941563144484,151.5510048247187)"><path id="SvgjsPath1176" d="M 0 0L 77.20408163265301 0L 77.20408163265301 43.999999999999545L 0 43.999999999999545Z" stroke="none" fill="none"></path><g id="SvgjsG1177"><text id="SvgjsText1178" font-family="微软雅黑" text-anchor="middle" font-size="16px" width="78px" fill="#323232" font-weight="400" align="middle" lineHeight="125%" anchor="middle" family="微软雅黑" size="16px" weight="400" font-style="" opacity="1" y="7.999999999999773" transform="rotate(0)"><tspan id="SvgjsTspan1179" dy="20" x="39"><tspan id="SvgjsTspan1180" style="">config</tspan></tspan></text></g></g><g id="SvgjsG1181" transform="translate(431.2892115498123,425.98467829410583)"><path id="SvgjsPath1182" d="M 0 0L 73.9897959183678 0L 73.9897959183678 40L 0 40Z" stroke="none" fill="none"></path><g id="SvgjsG1183"><text id="SvgjsText1184" font-family="微软雅黑" text-anchor="start" font-size="16px" width="74px" fill="#323232" font-weight="400" align="middle" lineHeight="125%" anchor="start" family="微软雅黑" size="16px" weight="400" font-style="" opacity="1" y="6" transform="rotate(0)"><tspan id="SvgjsTspan1185" dy="20" x="0"><tspan id="SvgjsTspan1186" style="">datasets</tspan></tspan></text></g></g><g id="SvgjsG1187" transform="translate(436.9320686926694,255.0229436002287)"><path id="SvgjsPath1188" d="M 0 0L 66.22448979591809 0L 66.22448979591809 30.816326530611548L 0 30.816326530611548Z" stroke="none" fill="none"></path><g id="SvgjsG1189"><text id="SvgjsText1190" font-family="微软雅黑" text-anchor="start" font-size="16px" width="67px" fill="#323232" font-weight="400" align="middle" lineHeight="125%" anchor="start" family="微软雅黑" size="16px" weight="400" font-style="" opacity="1" y="1.4081632653057738" transform="rotate(0)"><tspan id="SvgjsTspan1191" dy="20" x="0"><tspan id="SvgjsTspan1192" style="">caches</tspan></tspan></text></g></g><g id="SvgjsG1193" transform="translate(431.2892115498123,587.4183517634942)"><path id="SvgjsPath1194" d="M 0 0L 95.20408163265313 0L 95.20408163265313 33.64285714285677L 0 33.64285714285677Z" stroke="none" fill="none"></path><g id="SvgjsG1195"><text id="SvgjsText1196" font-family="微软雅黑" text-anchor="start" font-size="16px" width="96px" fill="#323232" font-weight="400" align="middle" lineHeight="125%" anchor="start" family="微软雅黑" size="16px" weight="400" font-style="" opacity="1" y="2.8214285714283847" transform="rotate(0)"><tspan id="SvgjsTspan1197" dy="20" x="0"><tspan id="SvgjsTspan1198" style="">hashrate</tspan></tspan></text></g></g><g id="SvgjsG1199" transform="translate(25.01370134572995,54.1224333961476)"><path id="SvgjsPath1200" d="M 0 4Q 0 0 4 0L 313.918367346939 0Q 317.918367346939 0 317.918367346939 4L 317.918367346939 280.8571428571417Q 317.918367346939 284.8571428571417 313.918367346939 284.8571428571417L 4 284.8571428571417Q 0 284.8571428571417 0 280.8571428571417Z" stroke="rgba(33,41,48,1)" stroke-width="1.5" fill-opacity="1" fill="#ffffff"></path><g id="SvgjsG1201"><text id="SvgjsText1202" font-family="微软雅黑" text-anchor="middle" font-size="13px" width="298px" fill="#323232" font-weight="400" align="middle" lineHeight="125%" anchor="middle" family="微软雅黑" size="13px" weight="400" font-style="" opacity="1" y="131.80357142857085" transform="rotate(0)"></text></g></g><g id="SvgjsG1203" transform="translate(133.6055380804239,24.999984416555677)"><path id="SvgjsPath1204" d="M 0 4Q 0 0 4 0L 95.0204081632653 0Q 99.0204081632653 0 99.0204081632653 4L 99.0204081632653 26.612244897959158Q 99.0204081632653 30.612244897959158 95.0204081632653 30.612244897959158L 4 30.612244897959158Q 0 30.612244897959158 0 26.612244897959158Z" stroke="rgba(33,41,48,1)" stroke-width="1.5" fill-opacity="1" fill="#ffffff"></path><g id="SvgjsG1205"><text id="SvgjsText1206" font-family="微软雅黑" text-anchor="middle" font-size="15px" width="80px" fill="#323232" font-weight="400" align="middle" lineHeight="125%" anchor="middle" family="微软雅黑" size="15px" weight="400" font-style="" opacity="1" y="2.931122448979579" transform="rotate(0)"><tspan id="SvgjsTspan1207" dy="18.75" x="50"><tspan id="SvgjsTspan1208" style="">Config</tspan></tspan></text></g></g><g id="SvgjsG1209" transform="translate(71.3606401212403,54.183657885943504)"><path id="SvgjsPath1210" d="M 0 4Q 0 0 4 0L 219.65306122448965 0Q 223.65306122448965 0 223.65306122448965 4L 223.65306122448965 29.316326530612173Q 223.65306122448965 33.31632653061217 219.65306122448965 33.31632653061217L 4 33.31632653061217Q 0 33.31632653061217 0 29.316326530612173Z" stroke-dasharray="10,6,3,6" stroke="rgba(33,41,48,1)" stroke-width="1.5" fill-opacity="1" fill="#ffffff"></path><g id="SvgjsG1211"><text id="SvgjsText1212" font-family="微软雅黑" text-anchor="middle" font-size="15px" width="204px" fill="#323232" font-weight="400" align="middle" lineHeight="125%" anchor="middle" family="微软雅黑" size="15px" weight="400" font-style="" opacity="1" y="4.2831632653060865" transform="rotate(0)"><tspan id="SvgjsTspan1213" dy="18.75" x="112"><tspan id="SvgjsTspan1214" style="fill: rgb(50, 50, 50);">consensus/ethash/ethash.go</tspan></tspan></text></g></g><g id="SvgjsG1215" transform="translate(33.4524768559337,103.22957625328947)"><path id="SvgjsPath1216" d="M 0 0L 301.0408163265316 0L 301.0408163265316 243.75L 0 243.75Z" stroke="none" fill="none"></path><g id="SvgjsG1217"><text id="SvgjsText1218" font-family="微软雅黑" text-anchor="start" font-size="16px" width="302px" fill="#323232" font-weight="400" align="middle" lineHeight="125%" anchor="start" family="微软雅黑" size="16px" weight="400" font-style="" opacity="1" y="-12.125" transform="rotate(0)"><tspan id="SvgjsTspan1219" dy="20" x="0"><tspan id="SvgjsTspan1220" style="">PowMode: 默认0 Normal,</tspan></tspan><tspan id="SvgjsTspan1221" dy="20" x="0"><tspan id="SvgjsTspan1222" style="">CacheDir: '</tspan><tspan id="SvgjsTspan1223" style="fill: rgb(50, 50, 50);">ethash'</tspan><tspan id="SvgjsTspan1224" style="">,</tspan></tspan><tspan id="SvgjsTspan1225" dy="20" x="0"><tspan id="SvgjsTspan1226" style="">CachesInMem: 2,</tspan></tspan><tspan id="SvgjsTspan1227" dy="20" x="0"><tspan id="SvgjsTspan1228" style="">CachesOnDisk: 3,</tspan></tspan><tspan id="SvgjsTspan1229" dy="20" x="0"><tspan id="SvgjsTspan1230" style="">CachesLockMmap: false,</tspan></tspan><tspan id="SvgjsTspan1231" dy="20" x="0"><tspan id="SvgjsTspan1232" style="">DatasetDir: </tspan></tspan><tspan id="SvgjsTspan1233" dy="20" x="0"><tspan id="SvgjsTspan1234" style="">"/Users/luke/Library/Ethash",</tspan></tspan><tspan id="SvgjsTspan1235" dy="20" x="0"><tspan id="SvgjsTspan1236" style="">DatasetsInMem: 1,</tspan></tspan><tspan id="SvgjsTspan1237" dy="20" x="0"><tspan id="SvgjsTspan1238" style="">DatasetsOnDisk: 2,</tspan></tspan><tspan id="SvgjsTspan1239" dy="20" x="0"><tspan id="SvgjsTspan1240" style="">DatasetsLockMmap: false,</tspan></tspan><tspan id="SvgjsTspan1241" dy="20" x="0"><tspan id="SvgjsTspan1242" style="">NotifyFull: false,</tspan></tspan><tspan id="SvgjsTspan1243" dy="20" x="0"><tspan id="SvgjsTspan1244" style="">Log: log.Root(),</tspan></tspan><tspan id="SvgjsTspan1245" dy="20" x="0"><tspan id="SvgjsTspan1246" style=""> </tspan></tspan></text></g></g><g id="SvgjsG1247"><path id="SvgjsPath1248" d="M413.0599821909296 173.42555289349468L344.24767026757786 161.75088827900333" stroke="#323232" stroke-width="1.5" fill="none" marker-end="url(#SvgjsMarker1249)"></path></g><g id="SvgjsG1251" transform="translate(611.8300278763428,141.9387599267596)"><path id="SvgjsPath1252" d="M 0 4Q 0 0 4 0L 236.76530612244972 0Q 240.76530612244972 0 240.76530612244972 4L 240.76530612244972 134.34693877550967Q 240.76530612244972 138.34693877550967 236.76530612244972 138.34693877550967L 4 138.34693877550967Q 0 138.34693877550967 0 134.34693877550967Z" stroke="rgba(33,41,48,1)" stroke-width="1.5" fill-opacity="1" fill="#ffffff"></path><g id="SvgjsG1253"><text id="SvgjsText1254" font-family="微软雅黑" text-anchor="middle" font-size="13px" width="221px" fill="#323232" font-weight="400" align="middle" lineHeight="125%" anchor="middle" family="微软雅黑" size="13px" weight="400" font-style="" opacity="1" y="58.548469387754835" transform="rotate(0)"></text></g></g><g id="SvgjsG1255" transform="translate(690.4218646110368,112.81631094716765)"><path id="SvgjsPath1256" d="M 0 4Q 0 0 4 0L 95.0204081632653 0Q 99.0204081632653 0 99.0204081632653 4L 99.0204081632653 26.612244897959158Q 99.0204081632653 30.612244897959158 95.0204081632653 30.612244897959158L 4 30.612244897959158Q 0 30.612244897959158 0 26.612244897959158Z" stroke="rgba(33,41,48,1)" stroke-width="1.5" fill-opacity="1" fill="#ffffff"></path><g id="SvgjsG1257"><text id="SvgjsText1258" font-family="微软雅黑" text-anchor="middle" font-size="15px" width="80px" fill="#323232" font-weight="400" align="middle" lineHeight="125%" anchor="middle" family="微软雅黑" size="15px" weight="400" font-style="" opacity="1" y="2.931122448979579" transform="rotate(0)"><tspan id="SvgjsTspan1259" dy="18.75" x="50"><tspan id="SvgjsTspan1260" style="">lru</tspan></tspan></text></g></g><g id="SvgjsG1261" transform="translate(618.1769666518531,141.9999844165555)"><path id="SvgjsPath1262" d="M 0 4Q 0 0 4 0L 219.65306122448965 0Q 223.65306122448965 0 223.65306122448965 4L 223.65306122448965 29.316326530612173Q 223.65306122448965 33.31632653061217 219.65306122448965 33.31632653061217L 4 33.31632653061217Q 0 33.31632653061217 0 29.316326530612173Z" stroke-dasharray="10,6,3,6" stroke="rgba(33,41,48,1)" stroke-width="1.5" fill-opacity="1" fill="#ffffff"></path><g id="SvgjsG1263"><text id="SvgjsText1264" font-family="微软雅黑" text-anchor="middle" font-size="15px" width="204px" fill="#323232" font-weight="400" align="middle" lineHeight="125%" anchor="middle" family="微软雅黑" size="15px" weight="400" font-style="" opacity="1" y="4.2831632653060865" transform="rotate(0)"><tspan id="SvgjsTspan1265" dy="18.75" x="112"><tspan id="SvgjsTspan1266" style="fill: rgb(50, 50, 50);">consensus/ethash/ethash.go</tspan></tspan></text></g></g><g id="SvgjsG1267" transform="translate(633.5034972640981,217.4974333961472)"><path id="SvgjsPath1268" d="M 0 0L 151.41836734693936 0L 151.41836734693936 48.75L 0 48.75Z" stroke="none" fill="none"></path><g id="SvgjsG1269"><text id="SvgjsText1270" font-family="微软雅黑" text-anchor="start" font-size="16px" width="152px" fill="#323232" font-weight="400" align="middle" lineHeight="125%" anchor="start" family="微软雅黑" size="16px" weight="400" font-style="" opacity="1" y="0.375" transform="rotate(0)"><tspan id="SvgjsTspan1271" dy="20" x="0"><tspan id="SvgjsTspan1272" style="">what: "cache",</tspan></tspan><tspan id="SvgjsTspan1273" dy="20" x="0"><tspan id="SvgjsTspan1274" style="">new: newCache,</tspan></tspan></text></g></g><g id="SvgjsG1275"><path id="SvgjsPath1276" d="M503.8352105128316 270.11183984564434L611.2380299503046 219.58494702776528" stroke="#323232" stroke-width="1.5" fill="none" marker-end="url(#SvgjsMarker1277)"></path></g><g id="SvgjsG1279" transform="translate(634.5545176722607,188.92855584512682)"><path id="SvgjsPath1280" d="M 0 0L 190.89795918367463 0L 190.89795918367463 39.45918367346928L 0 39.45918367346928Z" stroke="none" fill="none"></path><g id="SvgjsG1281"><text id="SvgjsText1282" font-family="微软雅黑" text-anchor="start" font-size="16px" width="191px" fill="#323232" font-weight="400" align="middle" lineHeight="125%" anchor="start" family="微软雅黑" size="16px" weight="400" font-style="" opacity="1" y="5.729591836734642" transform="rotate(0)"><tspan id="SvgjsTspan1283" dy="20" x="0"><tspan id="SvgjsTspan1284" style="">cache: simplelru.New(2),</tspan></tspan></text></g></g><g id="SvgjsG1285" transform="translate(594.1565584885876,376.1020252328814)"><path id="SvgjsPath1286" d="M 0 4Q 0 0 4 0L 236.76530612244972 0Q 240.76530612244972 0 240.76530612244972 4L 240.76530612244972 174.39795918367463Q 240.76530612244972 178.39795918367463 236.76530612244972 178.39795918367463L 4 178.39795918367463Q 0 178.39795918367463 0 174.39795918367463Z" stroke="rgba(33,41,48,1)" stroke-width="1.5" fill-opacity="1" fill="#ffffff"></path><g id="SvgjsG1287"><text id="SvgjsText1288" font-family="微软雅黑" text-anchor="middle" font-size="13px" width="221px" fill="#323232" font-weight="400" align="middle" lineHeight="125%" anchor="middle" family="微软雅黑" size="13px" weight="400" font-style="" opacity="1" y="78.57397959183731" transform="rotate(0)"></text></g></g><g id="SvgjsG1289" transform="translate(672.7483952232815,346.97957625328945)"><path id="SvgjsPath1290" d="M 0 4Q 0 0 4 0L 95.0204081632653 0Q 99.0204081632653 0 99.0204081632653 4L 99.0204081632653 26.612244897959158Q 99.0204081632653 30.612244897959158 95.0204081632653 30.612244897959158L 4 30.612244897959158Q 0 30.612244897959158 0 26.612244897959158Z" stroke="rgba(33,41,48,1)" stroke-width="1.5" fill-opacity="1" fill="#ffffff"></path><g id="SvgjsG1291"><text id="SvgjsText1292" font-family="微软雅黑" text-anchor="middle" font-size="15px" width="80px" fill="#323232" font-weight="400" align="middle" lineHeight="125%" anchor="middle" family="微软雅黑" size="15px" weight="400" font-style="" opacity="1" y="2.931122448979579" transform="rotate(0)"><tspan id="SvgjsTspan1293" dy="18.75" x="50"><tspan id="SvgjsTspan1294" style="">lru</tspan></tspan></text></g></g><g id="SvgjsG1295" transform="translate(600.5034972640979,376.1632497226773)"><path id="SvgjsPath1296" d="M 0 4Q 0 0 4 0L 219.65306122448965 0Q 223.65306122448965 0 223.65306122448965 4L 223.65306122448965 29.316326530612173Q 223.65306122448965 33.31632653061217 219.65306122448965 33.31632653061217L 4 33.31632653061217Q 0 33.31632653061217 0 29.316326530612173Z" stroke-dasharray="10,6,3,6" stroke="rgba(33,41,48,1)" stroke-width="1.5" fill-opacity="1" fill="#ffffff"></path><g id="SvgjsG1297"><text id="SvgjsText1298" font-family="微软雅黑" text-anchor="middle" font-size="15px" width="204px" fill="#323232" font-weight="400" align="middle" lineHeight="125%" anchor="middle" family="微软雅黑" size="15px" weight="400" font-style="" opacity="1" y="4.2831632653060865" transform="rotate(0)"><tspan id="SvgjsTspan1299" dy="18.75" x="112"><tspan id="SvgjsTspan1300" style="fill: rgb(50, 50, 50);">consensus/ethash/ethash.go</tspan></tspan></text></g></g><g id="SvgjsG1301" transform="translate(618.1769666518531,451.984678294106)"><path id="SvgjsPath1302" d="M 0 0L 151.41836734693936 0L 151.41836734693936 95.75L 0 95.75Z" stroke="none" fill="none"></path><g id="SvgjsG1303"><text id="SvgjsText1304" font-family="微软雅黑" text-anchor="start" font-size="16px" width="152px" fill="#323232" font-weight="400" align="middle" lineHeight="125%" anchor="start" family="微软雅黑" size="16px" weight="400" font-style="" opacity="1" y="3.875" transform="rotate(0)"><tspan id="SvgjsTspan1305" dy="20" x="0"><tspan id="SvgjsTspan1306" style="">what: "cache",</tspan></tspan><tspan id="SvgjsTspan1307" dy="20" x="0"><tspan id="SvgjsTspan1308" style="">new: newCache,</tspan></tspan><tspan id="SvgjsTspan1309" dy="20" x="0"><tspan id="SvgjsTspan1310" style="">future: 0,</tspan></tspan><tspan id="SvgjsTspan1311" dy="20" x="0"><tspan id="SvgjsTspan1312" style="">futureItem: nil,</tspan></tspan></text></g></g><g id="SvgjsG1313" transform="translate(618.3504360396074,415.035698702269)"><path id="SvgjsPath1314" d="M 0 0L 198.5714285714298 0L 198.5714285714298 40L 0 40Z" stroke="none" fill="none"></path><g id="SvgjsG1315"><text id="SvgjsText1316" font-family="微软雅黑" text-anchor="start" font-size="16px" width="199px" fill="#323232" font-weight="400" align="middle" lineHeight="125%" anchor="start" family="微软雅黑" size="16px" weight="400" font-style="" opacity="1" y="6" transform="rotate(0)"><tspan id="SvgjsTspan1317" dy="20" x="0"><tspan id="SvgjsTspan1318" style="">cache: simplelru.New(1),</tspan></tspan></text></g></g><g id="SvgjsG1319"><path id="SvgjsPath1320" d="M505.9736754455964 445.7019480319258L593.5325286562047 410.0654449409161" stroke="#323232" stroke-width="1.5" fill="none" marker-end="url(#SvgjsMarker1321)"></path></g><g id="SvgjsG1323" transform="translate(889.8300278763428,104.04590278390266)"><path id="SvgjsPath1324" d="M 0 4Q 0 0 4 0L 236.76530612244972 0Q 240.76530612244972 0 240.76530612244972 4L 240.76530612244972 167.45408163265319Q 240.76530612244972 171.45408163265319 236.76530612244972 171.45408163265319L 4 171.45408163265319Q 0 171.45408163265319 0 167.45408163265319Z" stroke="rgba(33,41,48,1)" stroke-width="1.5" fill-opacity="1" fill="#ffffff"></path><g id="SvgjsG1325"><text id="SvgjsText1326" font-family="微软雅黑" text-anchor="middle" font-size="13px" width="221px" fill="#323232" font-weight="400" align="middle" lineHeight="125%" anchor="middle" family="微软雅黑" size="13px" weight="400" font-style="" opacity="1" y="75.10204081632659" transform="rotate(0)"></text></g></g><g id="SvgjsG1327" transform="translate(968.4218646110368,74.92345380431074)"><path id="SvgjsPath1328" d="M 0 4Q 0 0 4 0L 95.0204081632653 0Q 99.0204081632653 0 99.0204081632653 4L 99.0204081632653 26.612244897959158Q 99.0204081632653 30.612244897959158 95.0204081632653 30.612244897959158L 4 30.612244897959158Q 0 30.612244897959158 0 26.612244897959158Z" stroke="rgba(33,41,48,1)" stroke-width="1.5" fill-opacity="1" fill="#ffffff"></path><g id="SvgjsG1329"><text id="SvgjsText1330" font-family="微软雅黑" text-anchor="middle" font-size="15px" width="80px" fill="#323232" font-weight="400" align="middle" lineHeight="125%" anchor="middle" family="微软雅黑" size="15px" weight="400" font-style="" opacity="1" y="2.931122448979579" transform="rotate(0)"><tspan id="SvgjsTspan1331" dy="18.75" x="50"><tspan id="SvgjsTspan1332" style="">cache</tspan></tspan></text></g></g><g id="SvgjsG1333" transform="translate(896.1769666518531,104.10712727369857)"><path id="SvgjsPath1334" d="M 0 4Q 0 0 4 0L 219.65306122448965 0Q 223.65306122448965 0 223.65306122448965 4L 223.65306122448965 29.316326530612173Q 223.65306122448965 33.31632653061217 219.65306122448965 33.31632653061217L 4 33.31632653061217Q 0 33.31632653061217 0 29.316326530612173Z" stroke-dasharray="10,6,3,6" stroke="rgba(33,41,48,1)" stroke-width="1.5" fill-opacity="1" fill="#ffffff"></path><g id="SvgjsG1335"><text id="SvgjsText1336" font-family="微软雅黑" text-anchor="middle" font-size="15px" width="204px" fill="#323232" font-weight="400" align="middle" lineHeight="125%" anchor="middle" family="微软雅黑" size="15px" weight="400" font-style="" opacity="1" y="4.2831632653060865" transform="rotate(0)"><tspan id="SvgjsTspan1337" dy="18.75" x="112"><tspan id="SvgjsTspan1338" style="fill: rgb(50, 50, 50);">consensus/ethash/ethash.go</tspan></tspan></text></g></g><g id="SvgjsG1339" transform="translate(910.5034972640982,188.92855584512682)"><path id="SvgjsPath1340" d="M 0 0L 151.41836734693936 0L 151.41836734693936 65L 0 65Z" stroke="none" fill="none"></path><g id="SvgjsG1341"><text id="SvgjsText1342" font-family="微软雅黑" text-anchor="start" font-size="16px" width="152px" fill="#323232" font-weight="400" align="middle" lineHeight="125%" anchor="start" family="微软雅黑" size="16px" weight="400" font-style="" opacity="1" y="-11.5" transform="rotate(0)"><tspan id="SvgjsTspan1343" dy="20" x="0"><tspan id="SvgjsTspan1344" style="">dump: nil,</tspan></tspan><tspan id="SvgjsTspan1345" dy="20" x="0"><tspan id="SvgjsTspan1346" style="">mmap: nil,</tspan></tspan><tspan id="SvgjsTspan1347" dy="20" x="0"><tspan id="SvgjsTspan1348" style="">cache: nil,</tspan></tspan><tspan id="SvgjsTspan1349" dy="20" x="0"><tspan id="SvgjsTspan1350" style="">once,</tspan></tspan></text></g></g><g id="SvgjsG1351" transform="translate(912.5545176722607,150.76529053900458)"><path id="SvgjsPath1352" d="M 0 0L 190.89795918367463 0L 190.89795918367463 40L 0 40Z" stroke="none" fill="none"></path><g id="SvgjsG1353"><text id="SvgjsText1354" font-family="微软雅黑" text-anchor="start" font-size="16px" width="191px" fill="#323232" font-weight="400" align="middle" lineHeight="125%" anchor="start" family="微软雅黑" size="16px" weight="400" font-style="" opacity="1" y="6" transform="rotate(0)"><tspan id="SvgjsTspan1355" dy="20" x="0"><tspan id="SvgjsTspan1356" style="">epoch: 0,</tspan></tspan></text></g></g><g id="SvgjsG1357" transform="translate(889.8300278763428,377.3851884981876)"><path id="SvgjsPath1358" d="M 0 4Q 0 0 4 0L 236.76530612244972 0Q 240.76530612244972 0 240.76530612244972 4L 240.76530612244972 194.39795918367446Q 240.76530612244972 198.39795918367446 236.76530612244972 198.39795918367446L 4 198.39795918367446Q 0 198.39795918367446 0 194.39795918367446Z" stroke="rgba(33,41,48,1)" stroke-width="1.5" fill-opacity="1" fill="#ffffff"></path><g id="SvgjsG1359"><text id="SvgjsText1360" font-family="微软雅黑" text-anchor="middle" font-size="13px" width="221px" fill="#323232" font-weight="400" align="middle" lineHeight="125%" anchor="middle" family="微软雅黑" size="13px" weight="400" font-style="" opacity="1" y="88.57397959183723" transform="rotate(0)"></text></g></g><g id="SvgjsG1361" transform="translate(969.7943135906283,346.97957625328945)"><path id="SvgjsPath1362" d="M 0 4Q 0 0 4 0L 95.0204081632653 0Q 99.0204081632653 0 99.0204081632653 4L 99.0204081632653 26.612244897959158Q 99.0204081632653 30.612244897959158 95.0204081632653 30.612244897959158L 4 30.612244897959158Q 0 30.612244897959158 0 26.612244897959158Z" stroke="rgba(33,41,48,1)" stroke-width="1.5" fill-opacity="1" fill="#ffffff"></path><g id="SvgjsG1363"><text id="SvgjsText1364" font-family="微软雅黑" text-anchor="middle" font-size="15px" width="80px" fill="#323232" font-weight="400" align="middle" lineHeight="125%" anchor="middle" family="微软雅黑" size="15px" weight="400" font-style="" opacity="1" y="2.931122448979579" transform="rotate(0)"><tspan id="SvgjsTspan1365" dy="18.75" x="50"><tspan id="SvgjsTspan1366" style="">dataset</tspan></tspan></text></g></g><g id="SvgjsG1367" transform="translate(897.5494156314447,376.1632497226773)"><path id="SvgjsPath1368" d="M 0 4Q 0 0 4 0L 219.65306122448965 0Q 223.65306122448965 0 223.65306122448965 4L 223.65306122448965 29.316326530612173Q 223.65306122448965 33.31632653061217 219.65306122448965 33.31632653061217L 4 33.31632653061217Q 0 33.31632653061217 0 29.316326530612173Z" stroke-dasharray="10,6,3,6" stroke="rgba(33,41,48,1)" stroke-width="1.5" fill-opacity="1" fill="#ffffff"></path><g id="SvgjsG1369"><text id="SvgjsText1370" font-family="微软雅黑" text-anchor="middle" font-size="15px" width="204px" fill="#323232" font-weight="400" align="middle" lineHeight="125%" anchor="middle" family="微软雅黑" size="15px" weight="400" font-style="" opacity="1" y="4.2831632653060865" transform="rotate(0)"><tspan id="SvgjsTspan1371" dy="18.75" x="112"><tspan id="SvgjsTspan1372" style="fill: rgb(50, 50, 50);">consensus/ethash/ethash.go</tspan></tspan></text></g></g><g id="SvgjsG1373" transform="translate(917.3963544069544,467.7678415594122)"><path id="SvgjsPath1374" d="M 0 0L 151.41836734693936 0L 151.41836734693936 81.25L 0 81.25Z" stroke="none" fill="none"></path><g id="SvgjsG1375"><text id="SvgjsText1376" font-family="微软雅黑" text-anchor="start" font-size="16px" width="152px" fill="#323232" font-weight="400" align="middle" lineHeight="125%" anchor="start" family="微软雅黑" size="16px" weight="400" font-style="" opacity="1" y="-13.375" transform="rotate(0)"><tspan id="SvgjsTspan1377" dy="20" x="0"><tspan id="SvgjsTspan1378" style="">dump: nil,</tspan></tspan><tspan id="SvgjsTspan1379" dy="20" x="0"><tspan id="SvgjsTspan1380" style="">mmap: nil,</tspan></tspan><tspan id="SvgjsTspan1381" dy="20" x="0"><tspan id="SvgjsTspan1382" style="">dataset: nil,</tspan></tspan><tspan id="SvgjsTspan1383" dy="20" x="0"><tspan id="SvgjsTspan1384" style="">once,</tspan></tspan><tspan id="SvgjsTspan1385" dy="20" x="0"><tspan id="SvgjsTspan1386" style="">done: 0,</tspan></tspan></text></g></g><g id="SvgjsG1387" transform="translate(913.9269666518522,422.8214129879833)"><path id="SvgjsPath1388" d="M 0 0L 190.89795918367463 0L 190.89795918367463 40L 0 40Z" stroke="none" fill="none"></path><g id="SvgjsG1389"><text id="SvgjsText1390" font-family="微软雅黑" text-anchor="start" font-size="16px" width="191px" fill="#323232" font-weight="400" align="middle" lineHeight="125%" anchor="start" family="微软雅黑" size="16px" weight="400" font-style="" opacity="1" y="6" transform="rotate(0)"><tspan id="SvgjsTspan1391" dy="20" x="0"><tspan id="SvgjsTspan1392" style="">epoch: 0,</tspan></tspan></text></g></g></svg>