<svg id="SvgjsSvg1006" width="1186.2501148897059" height="967.249942555147" xmlns="http://www.w3.org/2000/svg" version="1.1" xmlns:xlink="http://www.w3.org/1999/xlink" xmlns:svgjs="http://svgjs.com/svgjs"><defs id="SvgjsDefs1007"><pattern patternUnits="userSpaceOnUse" id="pattern_mark_0" width="300" height="300"><text x="150" y="100" fill="rgba(229,229,229,0.8)" font-size="18" transform="rotate(-45, 150, 150)" style="dominant-baseline: middle; text-anchor: middle;"></text></pattern><pattern patternUnits="userSpaceOnUse" id="pattern_mark_1" width="300" height="300"><text x="150" y="200" fill="rgba(229,229,229,0.8)" font-size="18" transform="rotate(-45, 150, 150)" style="dominant-baseline: middle; text-anchor: middle;"></text></pattern><marker id="SvgjsMarker1113" markerWidth="16" markerHeight="16" refX="13" refY="8" viewBox="0 0 16 16" orient="auto" markerUnits="userSpaceOnUse" stroke-dasharray="0,0"><circle id="SvgjsCircle1114" r="4" cx="8" cy="8" fill="#323232" stroke="#323232" stroke-width="1.5"></circle></marker><marker id="SvgjsMarker1143" markerWidth="16" markerHeight="16" refX="13" refY="8" viewBox="0 0 16 16" orient="auto" markerUnits="userSpaceOnUse" stroke-dasharray="0,0"><circle id="SvgjsCircle1144" r="4" cx="8" cy="8" fill="#323232" stroke="#323232" stroke-width="1.5"></circle></marker><marker id="SvgjsMarker1197" markerWidth="16" markerHeight="16" refX="13" refY="8" viewBox="0 0 16 16" orient="auto" markerUnits="userSpaceOnUse" stroke-dasharray="0,0"><circle id="SvgjsCircle1198" r="4" cx="8" cy="8" fill="#323232" stroke="#323232" stroke-width="1.5"></circle></marker><marker id="SvgjsMarker1283" markerWidth="16" markerHeight="16" refX="13" refY="8" viewBox="0 0 16 16" orient="auto" markerUnits="userSpaceOnUse" stroke-dasharray="0,0"><circle id="SvgjsCircle1284" r="4" cx="8" cy="8" fill="#323232" stroke="#323232" stroke-width="1.5"></circle></marker><marker id="SvgjsMarker1287" markerWidth="16" markerHeight="16" refX="13" refY="8" viewBox="0 0 16 16" orient="auto" markerUnits="userSpaceOnUse" stroke-dasharray="0,0"><circle id="SvgjsCircle1288" r="4" cx="8" cy="8" fill="#323232" stroke="#323232" stroke-width="1.5"></circle></marker></defs><rect id="svgbackgroundid" width="1186.2501148897059" height="967.249942555147" fill="transparent"></rect><rect id="SvgjsRect1009" width="1186.2501148897059" height="967.249942555147" fill="url(#pattern_mark_0)"></rect><rect id="SvgjsRect1010" width="1186.2501148897059" height="967.249942555147" fill="url(#pattern_mark_1)"></rect><g id="SvgjsG1011" transform="translate(553.6068191309041,130.18929131251764)"><path id="SvgjsPath1012" d="M 0 4Q 0 0 4 0L 250.62534121015005 0Q 254.62534121015005 0 254.62534121015005 4L 254.62534121015005 530.9295385133228Q 254.62534121015005 534.9295385133228 250.62534121015005 534.9295385133228L 4 534.9295385133228Q 0 534.9295385133228 0 530.9295385133228Z" stroke="rgba(33,41,48,1)" stroke-width="1.5" fill-opacity="1" fill="#ffffff"></path><g id="SvgjsG1013"><text id="SvgjsText1014" font-family="微软雅黑" text-anchor="middle" font-size="13px" width="235px" fill="#323232" font-weight="400" align="middle" lineHeight="125%" anchor="middle" family="微软雅黑" size="13px" weight="400" font-style="" opacity="1" y="256.8397692566614" transform="rotate(0)"></text></g></g><g id="SvgjsG1015" transform="translate(601.1643876951621,100.04643416965894)"><path id="SvgjsPath1016" d="M 0 4Q 0 0 4 0L 153.5510204081636 0Q 157.5510204081636 0 157.5510204081636 4L 157.5510204081636 25.183673469387713Q 157.5510204081636 29.183673469387713 153.5510204081636 29.183673469387713L 4 29.183673469387713Q 0 29.183673469387713 0 25.183673469387713Z" stroke="rgba(33,41,48,1)" stroke-width="1.5" fill-opacity="1" fill="#ffffff"></path><g id="SvgjsG1017"><text id="SvgjsText1018" font-family="微软雅黑" text-anchor="middle" font-size="15px" width="138px" fill="#323232" font-weight="400" align="middle" lineHeight="125%" anchor="middle" family="微软雅黑" size="15px" weight="400" font-style="" opacity="1" y="2.2168367346938567" transform="rotate(0)"><tspan id="SvgjsTspan1019" dy="18.75" x="79"><tspan id="SvgjsTspan1020" style="">environment</tspan></tspan></text></g></g><g id="SvgjsG1021" transform="translate(591.6541836135298,130.18929131251764)"><path id="SvgjsPath1022" d="M 0 4Q 0 0 4 0L 174.53061224489863 0Q 178.53061224489863 0 178.53061224489863 4L 178.53061224489863 20.84693877551058Q 178.53061224489863 24.84693877551058 174.53061224489863 24.84693877551058L 4 24.84693877551058Q 0 24.84693877551058 0 20.84693877551058Z" stroke-dasharray="10,6,3,6" stroke="rgba(33,41,48,1)" stroke-width="1.5" fill-opacity="1" fill="#ffffff"></path><g id="SvgjsG1023"><text id="SvgjsText1024" font-family="微软雅黑" text-anchor="middle" font-size="15px" width="159px" fill="#323232" font-weight="400" align="middle" lineHeight="125%" anchor="middle" family="微软雅黑" size="15px" weight="400" font-style="" opacity="1" y="0.04846938775528997" transform="rotate(0)"><tspan id="SvgjsTspan1025" dy="18.75" x="89.5"><tspan id="SvgjsTspan1026" style="fill: rgb(50, 50, 50);">miner/worker.go</tspan></tspan></text></g></g><g id="SvgjsG1027" transform="translate(577.9373862646576,166.61256692403924)"><path id="SvgjsPath1028" d="M 0 0L 60.746657599742775 0L 60.746657599742775 30.71741328891312L 0 30.71741328891312Z" stroke="none" fill="none"></path><g id="SvgjsG1029"><text id="SvgjsText1030" font-family="微软雅黑" text-anchor="start" font-size="16px" width="61px" fill="#323232" font-weight="400" align="middle" lineHeight="125%" anchor="start" family="微软雅黑" size="16px" weight="400" font-style="" opacity="1" y="1.3587066444565608" transform="rotate(0)"><tspan id="SvgjsTspan1031" dy="20" x="0"><tspan id="SvgjsTspan1032" style="">signer</tspan></tspan></text></g></g><g id="SvgjsG1033" transform="translate(577.7740055344816,204.40498031414438)"><path id="SvgjsPath1034" d="M 0 0L 239.70577688599633 0L 239.70577688599633 178.75L 0 178.75Z" stroke="none" fill="none"></path><g id="SvgjsG1035"><text id="SvgjsText1036" font-family="微软雅黑" text-anchor="start" font-size="16px" width="240px" fill="#323232" font-weight="400" align="middle" lineHeight="125%" anchor="start" family="微软雅黑" size="16px" weight="400" font-style="" opacity="1" y="-4.625" transform="rotate(0)"><tspan id="SvgjsTspan1037" dy="20" x="0"><tspan id="SvgjsTspan1038" style="">state: StateAt(parent.Root()),</tspan></tspan><tspan id="SvgjsTspan1039" dy="20" x="0"><tspan id="SvgjsTspan1040" style="">coinbase: 全0值,</tspan></tspan><tspan id="SvgjsTspan1041" dy="20" x="0"><tspan id="SvgjsTspan1042" style=""> </tspan></tspan><tspan id="SvgjsTspan1043" dy="20" x="0"><tspan id="SvgjsTspan1044" style="">ancestors: mapset.NewSet([</tspan></tspan><tspan id="SvgjsTspan1045" dy="20" x="0"><tspan id="SvgjsTspan1046" style="">  0x3e, 0x6a... 创世区块hash,</tspan></tspan><tspan id="SvgjsTspan1047" dy="20" x="0"><tspan id="SvgjsTspan1048" style="">]),</tspan></tspan><tspan id="SvgjsTspan1049" dy="20" x="0"><tspan id="SvgjsTspan1050" style="">family: mapset.NewSet([</tspan></tspan><tspan id="SvgjsTspan1051" dy="20" x="0"><tspan id="SvgjsTspan1052" style="">  0x3e, 0x6a... 创世区块hash,</tspan></tspan><tspan id="SvgjsTspan1053" dy="20" x="0"><tspan id="SvgjsTspan1054" style="">]),</tspan></tspan></text></g></g><g id="SvgjsG1055" transform="translate(577.9373862646576,393.69069280031556)"><path id="SvgjsPath1056" d="M 0 0L 72.71107852239061 0L 72.71107852239061 27.70730509337227L 0 27.70730509337227Z" stroke="none" fill="none"></path><g id="SvgjsG1057"><text id="SvgjsText1058" font-family="微软雅黑" text-anchor="start" font-size="16px" width="73px" fill="#323232" font-weight="400" align="middle" lineHeight="125%" anchor="start" family="微软雅黑" size="16px" weight="400" font-style="" opacity="1" y="-0.14634745331386512" transform="rotate(0)"><tspan id="SvgjsTspan1059" dy="20" x="0"><tspan id="SvgjsTspan1060" style="">header</tspan></tspan></text></g></g><g id="SvgjsG1061" transform="translate(577.7740055344816,420.7415690905219)"><path id="SvgjsPath1062" d="M 0 0L 206.29096840299485 0L 206.29096840299485 65L 0 65Z" stroke="none" fill="none"></path><g id="SvgjsG1063"><text id="SvgjsText1064" font-family="微软雅黑" text-anchor="start" font-size="16px" width="207px" fill="#323232" font-weight="400" align="middle" lineHeight="125%" anchor="start" family="微软雅黑" size="16px" weight="400" font-style="" opacity="1" y="-1.5" transform="rotate(0)"><tspan id="SvgjsTspan1065" dy="20" x="0"><tspan id="SvgjsTspan1066" style="">uncles: map(0),</tspan></tspan><tspan id="SvgjsTspan1067" dy="20" x="0"><tspan id="SvgjsTspan1068" style="">tcount: 0,</tspan></tspan><tspan id="SvgjsTspan1069" dy="20" x="0"><tspan id="SvgjsTspan1070" style="">gasPool: *3144658,</tspan></tspan></text></g></g><g id="SvgjsG1071" transform="translate(837.2500834875684,297.03844679006954)"><path id="SvgjsPath1072" d="M 0 4Q 0 0 4 0L 320.08488720044716 0Q 324.08488720044716 0 324.08488720044716 4L 324.08488720044716 270.1708459495276Q 324.08488720044716 274.1708459495276 320.08488720044716 274.1708459495276L 4 274.1708459495276Q 0 274.1708459495276 0 270.1708459495276Z" stroke="rgba(33,41,48,1)" stroke-width="1.5" fill-opacity="1" fill="#ffffff"></path><g id="SvgjsG1073"><text id="SvgjsText1074" font-family="微软雅黑" text-anchor="middle" font-size="13px" width="305px" fill="#323232" font-weight="400" align="middle" lineHeight="125%" anchor="middle" family="微软雅黑" size="13px" weight="400" font-style="" opacity="1" y="126.46042297476379" transform="rotate(0)"></text></g></g><g id="SvgjsG1075" transform="translate(910.5609155118866,266.8955896472163)"><path id="SvgjsPath1076" d="M 0 4Q 0 0 4 0L 153.5510204081636 0Q 157.5510204081636 0 157.5510204081636 4L 157.5510204081636 25.183673469387713Q 157.5510204081636 29.183673469387713 153.5510204081636 29.183673469387713L 4 29.183673469387713Q 0 29.183673469387713 0 25.183673469387713Z" stroke="rgba(33,41,48,1)" stroke-width="1.5" fill-opacity="1" fill="#ffffff"></path><g id="SvgjsG1077"><text id="SvgjsText1078" font-family="微软雅黑" text-anchor="middle" font-size="15px" width="138px" fill="#323232" font-weight="400" align="middle" lineHeight="125%" anchor="middle" family="微软雅黑" size="15px" weight="400" font-style="" opacity="1" y="2.2168367346938567" transform="rotate(0)"><tspan id="SvgjsTspan1079" dy="18.75" x="79"><tspan id="SvgjsTspan1080" style="">Header</tspan></tspan></text></g></g><g id="SvgjsG1081" transform="translate(901.0507114302548,297.03844679007136)"><path id="SvgjsPath1082" d="M 0 4Q 0 0 4 0L 174.53061224489863 0Q 178.53061224489863 0 178.53061224489863 4L 178.53061224489863 20.84693877551058Q 178.53061224489863 24.84693877551058 174.53061224489863 24.84693877551058L 4 24.84693877551058Q 0 24.84693877551058 0 20.84693877551058Z" stroke-dasharray="10,6,3,6" stroke="rgba(33,41,48,1)" stroke-width="1.5" fill-opacity="1" fill="#ffffff"></path><g id="SvgjsG1083"><text id="SvgjsText1084" font-family="微软雅黑" text-anchor="middle" font-size="15px" width="159px" fill="#323232" font-weight="400" align="middle" lineHeight="125%" anchor="middle" family="微软雅黑" size="15px" weight="400" font-style="" opacity="1" y="0.04846938775528997" transform="rotate(0)"><tspan id="SvgjsTspan1085" dy="18.75" x="89.5"><tspan id="SvgjsTspan1086" style="fill: rgb(50, 50, 50);">core/types/block.go</tspan></tspan></text></g></g><g id="SvgjsG1087" transform="translate(854.1154135205309,361.34160257884844)"><path id="SvgjsPath1088" d="M 0 0L 299.7236827501382 0L 299.7236827501382 162.5L 0 162.5Z" stroke="none" fill="none"></path><g id="SvgjsG1089"><text id="SvgjsText1090" font-family="微软雅黑" text-anchor="start" font-size="16px" width="300px" fill="#323232" font-weight="400" align="middle" lineHeight="125%" anchor="start" family="微软雅黑" size="16px" weight="400" font-style="" opacity="1" y="-22.75" transform="rotate(0)"><tspan id="SvgjsTspan1091" dy="20" x="0"><tspan id="SvgjsTspan1092" style="">ParentHash: 父块hash(0x3e, 0x6a...),</tspan></tspan><tspan id="SvgjsTspan1093" dy="20" x="0"><tspan id="SvgjsTspan1094" style="">Number: 父块num+1, 这里是1,</tspan></tspan><tspan id="SvgjsTspan1095" dy="20" x="0"><tspan id="SvgjsTspan1096" style=""> </tspan></tspan><tspan id="SvgjsTspan1097" dy="20" x="0"><tspan id="SvgjsTspan1098" style="">GasLimit: 父块计算出一个</tspan></tspan><tspan id="SvgjsTspan1099" dy="20" x="0"><tspan id="SvgjsTspan1100" style="">值:3144658 = 0x2ffbd2</tspan></tspan><tspan id="SvgjsTspan1101" dy="20" x="0"><tspan id="SvgjsTspan1102" style=""> </tspan></tspan><tspan id="SvgjsTspan1103" dy="20" x="0"><tspan id="SvgjsTspan1104" style="">Time: 传过来的time,</tspan></tspan><tspan id="SvgjsTspan1105" dy="20" x="0"><tspan id="SvgjsTspan1106" style="">Coinbase: 全0值,</tspan></tspan><tspan id="SvgjsTspan1107" dy="20" x="0"><tspan id="SvgjsTspan1108" style="">Extra: worker.extra值,</tspan></tspan><tspan id="SvgjsTspan1109" dy="20" x="0"><tspan id="SvgjsTspan1110" style="">Difficulty: worker.engine填充,1995776</tspan></tspan></text></g></g><g id="SvgjsG1111"><path id="SvgjsPath1112" d="M651.3970086033412 407.49763180410537L836.4240747459799 395.9508531077902" stroke="#323232" stroke-width="1.5" fill="none" marker-end="url(#SvgjsMarker1113)"></path></g><g id="SvgjsG1115" transform="translate(291.50481240386387,130.189291312514)"><path id="SvgjsPath1116" d="M 0 4Q 0 0 4 0L 210.36039173781728 0Q 214.36039173781728 0 214.36039173781728 4L 214.36039173781728 108.70442092036319Q 214.36039173781728 112.70442092036319 210.36039173781728 112.70442092036319L 4 112.70442092036319Q 0 112.70442092036319 0 108.70442092036319Z" stroke="rgba(33,41,48,1)" stroke-width="1.5" fill-opacity="1" fill="#ffffff"></path><g id="SvgjsG1117"><text id="SvgjsText1118" font-family="微软雅黑" text-anchor="middle" font-size="13px" width="195px" fill="#323232" font-weight="400" align="middle" lineHeight="125%" anchor="middle" family="微软雅黑" size="13px" weight="400" font-style="" opacity="1" y="45.727210460181595" transform="rotate(0)"></text></g></g><g id="SvgjsG1119" transform="translate(319.9094980686908,100.04643416965894)"><path id="SvgjsPath1120" d="M 0 4Q 0 0 4 0L 153.5510204081636 0Q 157.5510204081636 0 157.5510204081636 4L 157.5510204081636 25.183673469387713Q 157.5510204081636 29.183673469387713 153.5510204081636 29.183673469387713L 4 29.183673469387713Q 0 29.183673469387713 0 25.183673469387713Z" stroke="rgba(33,41,48,1)" stroke-width="1.5" fill-opacity="1" fill="#ffffff"></path><g id="SvgjsG1121"><text id="SvgjsText1122" font-family="微软雅黑" text-anchor="middle" font-size="15px" width="138px" fill="#323232" font-weight="400" align="middle" lineHeight="125%" anchor="middle" family="微软雅黑" size="15px" weight="400" font-style="" opacity="1" y="2.2168367346938567" transform="rotate(0)"><tspan id="SvgjsTspan1123" dy="18.75" x="79"><tspan id="SvgjsTspan1124" style="">EIP155Signer</tspan></tspan></text></g></g><g id="SvgjsG1125" transform="translate(310.3992939870585,130.18929131251582)"><path id="SvgjsPath1126" d="M 0 4Q 0 0 4 0L 174.53061224489863 0Q 178.53061224489863 0 178.53061224489863 4L 178.53061224489863 36.70442092036137Q 178.53061224489863 40.70442092036137 174.53061224489863 40.70442092036137L 4 40.70442092036137Q 0 40.70442092036137 0 36.70442092036137Z" stroke-dasharray="10,6,3,6" stroke="rgba(33,41,48,1)" stroke-width="1.5" fill-opacity="1" fill="#ffffff"></path><g id="SvgjsG1127"><text id="SvgjsText1128" font-family="微软雅黑" text-anchor="middle" font-size="15px" width="159px" fill="#323232" font-weight="400" align="middle" lineHeight="125%" anchor="middle" family="微软雅黑" size="15px" weight="400" font-style="" opacity="1" y="-1.522789539819314" transform="rotate(0)"><tspan id="SvgjsTspan1129" dy="18.75" x="89.5"><tspan id="SvgjsTspan1130" style="fill: rgb(50, 50, 50);">core/types/transactio</tspan></tspan><tspan id="SvgjsTspan1131" dy="18.75" x="89.5"><tspan id="SvgjsTspan1132" style="fill: rgb(50, 50, 50);">n_signing</tspan></tspan></text></g></g><g id="SvgjsG1133" transform="translate(325.8542467119008,183.65840391396353)"><path id="SvgjsPath1134" d="M 0 0L 147.62070679521412 0L 147.62070679521412 40L 0 40Z" stroke="none" fill="none"></path><g id="SvgjsG1135"><text id="SvgjsText1136" font-family="微软雅黑" text-anchor="start" font-size="16px" width="148px" fill="#323232" font-weight="400" align="middle" lineHeight="125%" anchor="start" family="微软雅黑" size="16px" weight="400" font-style="" opacity="1" y="-4" transform="rotate(0)"><tspan id="SvgjsTspan1137" dy="20" x="0"><tspan id="SvgjsTspan1138" style="">chainId: 10,</tspan></tspan><tspan id="SvgjsTspan1139" dy="20" x="0"><tspan id="SvgjsTspan1140" style="">chainIdMul: 10 * 2,</tspan></tspan></text></g></g><g id="SvgjsG1141"><path id="SvgjsPath1142" d="M577.1873862646576 181.97127356849535L506.46872339214406 181.97127356849535" stroke="#323232" stroke-width="1.5" fill="none" marker-end="url(#SvgjsMarker1143)"></path></g><g id="SvgjsG1145" transform="translate(795.1343964858513,628.2631101016888)"><path id="SvgjsPath1146" d="M 0 4Q 0 0 4 0L 362.2005742021639 0Q 366.2005742021639 0 366.2005742021639 4L 366.2005742021639 309.8403007769921Q 366.2005742021639 313.8403007769921 362.2005742021639 313.8403007769921L 4 313.8403007769921Q 0 313.8403007769921 0 309.8403007769921Z" stroke="rgba(33,41,48,1)" stroke-width="1.5" fill-opacity="1" fill="#ffffff"></path><g id="SvgjsG1147"><text id="SvgjsText1148" font-family="微软雅黑" text-anchor="middle" font-size="13px" width="347px" fill="#323232" font-weight="400" align="middle" lineHeight="125%" anchor="middle" family="微软雅黑" size="13px" weight="400" font-style="" opacity="1" y="146.29515038849604" transform="rotate(0)"></text></g></g><g id="SvgjsG1149" transform="translate(883.2765205798908,591.0412329898992)"><path id="SvgjsPath1150" d="M 0 4Q 0 0 4 0L 156.8718866312846 0Q 160.8718866312846 0 160.8718866312846 4L 160.8718866312846 31.420038858146654Q 160.8718866312846 35.420038858146654 156.8718866312846 35.420038858146654L 4 35.420038858146654Q 0 35.420038858146654 0 31.420038858146654Z" stroke="rgba(33,41,48,1)" stroke-width="1.5" fill-opacity="1" fill="#ffffff"></path><g id="SvgjsG1151"><text id="SvgjsText1152" font-family="微软雅黑" text-anchor="middle" font-size="15px" width="141px" fill="#323232" font-weight="400" align="middle" lineHeight="125%" anchor="middle" family="微软雅黑" size="15px" weight="400" font-style="" opacity="1" y="5.335019429073327" transform="rotate(0)"><tspan id="SvgjsTspan1153" dy="18.75" x="80.5"><tspan id="SvgjsTspan1154" style="">Receipt</tspan></tspan></text></g></g><g id="SvgjsG1155" transform="translate(879.7903719992185,628.2631101016888)"><path id="SvgjsPath1156" d="M 0 4Q 0 0 4 0L 176.98453254650178 0Q 180.98453254650178 0 180.98453254650178 4L 180.98453254650178 32.85571972415096Q 180.98453254650178 36.85571972415096 176.98453254650178 36.85571972415096L 4 36.85571972415096Q 0 36.85571972415096 0 32.85571972415096Z" stroke-dasharray="10,6,3,6" stroke="rgba(33,41,48,1)" stroke-width="1.5" fill-opacity="1" fill="#ffffff"></path><g id="SvgjsG1157"><text id="SvgjsText1158" font-family="微软雅黑" text-anchor="middle" font-size="15px" width="161px" fill="#323232" font-weight="400" align="middle" lineHeight="125%" anchor="middle" family="微软雅黑" size="15px" weight="400" font-style="" opacity="1" y="6.052859862075479" transform="rotate(0)"><tspan id="SvgjsTspan1159" dy="18.75" x="90.5"><tspan id="SvgjsTspan1160" style="fill: rgb(50, 50, 50);">core/types/receipt.go</tspan></tspan></text></g></g><g id="SvgjsG1161" transform="translate(810.9075295849989,709.3389074571406)"><path id="SvgjsPath1162" d="M 0 0L 347.1246325874746 0L 347.1246325874746 178.75L 0 178.75Z" stroke="none" fill="none"></path><g id="SvgjsG1163"><text id="SvgjsText1164" font-family="微软雅黑" text-anchor="start" font-size="16px" width="348px" fill="#323232" font-weight="400" align="middle" lineHeight="125%" anchor="start" family="微软雅黑" size="16px" weight="400" font-style="" opacity="1" y="-34.625" transform="rotate(0)"><tspan id="SvgjsTspan1165" dy="20" x="0"><tspan id="SvgjsTspan1166" style="">Type: LegacyTxType,</tspan></tspan><tspan id="SvgjsTspan1167" dy="20" x="0"><tspan id="SvgjsTspan1168" style="">PostState: root,</tspan></tspan><tspan id="SvgjsTspan1169" dy="20" x="0"><tspan id="SvgjsTspan1170" style="">CumulativeGasUsed: 取header里的*usedGas,</tspan></tspan><tspan id="SvgjsTspan1171" dy="20" x="0"><tspan id="SvgjsTspan1172" style="">Status: types.ReceiptStatusSuccessful,</tspan></tspan><tspan id="SvgjsTspan1173" dy="20" x="0"><tspan id="SvgjsTspan1174" style="">TxHash: tx.Hash(), 交易的hash值,</tspan></tspan><tspan id="SvgjsTspan1175" dy="20" x="0"><tspan id="SvgjsTspan1176" style="">GasUsed: 142525 = 0x22cbd,</tspan></tspan><tspan id="SvgjsTspan1177" dy="20" x="0"><tspan id="SvgjsTspan1178" style="">ContractAddress: 0x18, 0x6f ...,</tspan></tspan><tspan id="SvgjsTspan1179" dy="20" x="0"><tspan id="SvgjsTspan1180" style="">Logs: nil,</tspan></tspan><tspan id="SvgjsTspan1181" dy="20" x="0"><tspan id="SvgjsTspan1182" style="">Bloom: [256]byte 全0值,</tspan></tspan><tspan id="SvgjsTspan1183" dy="20" x="0"><tspan id="SvgjsTspan1184" style="">BlockHash: 取header的header.Hash(),</tspan></tspan><tspan id="SvgjsTspan1185" dy="20" x="0"><tspan id="SvgjsTspan1186" style="">BlockNumber: 取header.Number, 1,</tspan></tspan><tspan id="SvgjsTspan1187" dy="20" x="0"><tspan id="SvgjsTspan1188" style="">TransactionIndex: 0,</tspan></tspan></text></g></g><g id="SvgjsG1189" transform="translate(577.7740055344816,538.3900839420058)"><path id="SvgjsPath1190" d="M 0 0L 151.00558900601732 0L 151.00558900601732 40L 0 40Z" stroke="none" fill="none"></path><g id="SvgjsG1191"><text id="SvgjsText1192" font-family="微软雅黑" text-anchor="start" font-size="16px" width="152px" fill="#323232" font-weight="400" align="middle" lineHeight="125%" anchor="start" family="微软雅黑" size="16px" weight="400" font-style="" opacity="1" y="6" transform="rotate(0)"><tspan id="SvgjsTspan1193" dy="20" x="0"><tspan id="SvgjsTspan1194" style="">receipts: append()</tspan></tspan></text></g></g><g id="SvgjsG1195"><path id="SvgjsPath1196" d="M729.5283838653197 558.4326814423387C 793.7787298528849 558.3900839420058 818.2773852675048 608.7512524189716 881.7789419302494 608.666057418306" stroke="#323232" stroke-width="1.5" fill="none" marker-end="url(#SvgjsMarker1197)"></path></g><g id="SvgjsG1199" transform="translate(577.7740055344816,606.9049354271539)"><path id="SvgjsPath1200" d="M 0 0L 151.00558900601732 0L 151.00558900601732 40L 0 40Z" stroke="none" fill="none"></path><g id="SvgjsG1201"><text id="SvgjsText1202" font-family="微软雅黑" text-anchor="start" font-size="16px" width="152px" fill="#323232" font-weight="400" align="middle" lineHeight="125%" anchor="start" family="微软雅黑" size="16px" weight="400" font-style="" opacity="1" y="6" transform="rotate(0)"><tspan id="SvgjsTspan1203" dy="20" x="0"><tspan id="SvgjsTspan1204" style="">txs: append()</tspan></tspan></text></g></g><g id="SvgjsG1205" transform="translate(25.0003829656863,409.4460358852558)"><path id="SvgjsPath1206" d="M 0 4Q 0 0 4 0L 222.9726182479651 0Q 226.9726182479651 0 226.9726182479651 4L 226.9726182479651 241.86859462477196Q 226.9726182479651 245.86859462477196 222.9726182479651 245.86859462477196L 4 245.86859462477196Q 0 245.86859462477196 0 241.86859462477196Z" stroke="rgba(33,41,48,1)" stroke-width="1.5" fill-opacity="1" fill="#ffffff"></path><g id="SvgjsG1207"><text id="SvgjsText1208" font-family="微软雅黑" text-anchor="middle" font-size="13px" width="207px" fill="#323232" font-weight="400" align="middle" lineHeight="125%" anchor="middle" family="微软雅黑" size="13px" weight="400" font-style="" opacity="1" y="112.30929731238598" transform="rotate(0)"></text></g></g><g id="SvgjsG1209" transform="translate(66.66851027148698,383.1549803141444)"><path id="SvgjsPath1210" d="M 0 4Q 0 0 4 0L 133.80211822016327 0Q 137.80211822016327 0 137.80211822016327 4L 137.80211822016327 24.282099175474514Q 137.80211822016327 28.282099175474514 133.80211822016327 28.282099175474514L 4 28.282099175474514Q 0 28.282099175474514 0 24.282099175474514Z" stroke="rgba(33,41,48,1)" stroke-width="1.5" fill-opacity="1" fill="#ffffff"></path><g id="SvgjsG1211"><text id="SvgjsText1212" font-family="微软雅黑" text-anchor="middle" font-size="16px" width="118px" fill="#323232" font-weight="400" align="middle" lineHeight="125%" anchor="middle" family="微软雅黑" size="16px" weight="400" font-style="" opacity="1" y="0.14104958773725684" transform="rotate(0)"><tspan id="SvgjsTspan1213" dy="20" x="69"><tspan id="SvgjsTspan1214" style="">types.LegacyTx</tspan></tspan></text></g></g><g id="SvgjsG1215" transform="translate(42.81731655079386,411.0718862253908)"><path id="SvgjsPath1216" d="M 0 4Q 0 0 4 0L 187.33875107774952 0Q 191.33875107774952 0 191.33875107774952 4L 191.33875107774952 25.647292439702937Q 191.33875107774952 29.647292439702937 187.33875107774952 29.647292439702937L 4 29.647292439702937Q 0 29.647292439702937 0 25.647292439702937Z" stroke-dasharray="10,6,3,6" stroke="rgba(33,41,48,1)" stroke-width="1.5" fill-opacity="1" fill="#ffffff"></path><g id="SvgjsG1217"><text id="SvgjsText1218" font-family="微软雅黑" text-anchor="middle" font-size="15px" width="172px" fill="#323232" font-weight="400" align="middle" lineHeight="125%" anchor="middle" family="微软雅黑" size="15px" weight="400" font-style="" opacity="1" y="2.4486462198514687" transform="rotate(0)"><tspan id="SvgjsTspan1219" dy="18.75" x="96"><tspan id="SvgjsTspan1220" style="fill: rgb(50, 50, 50);">core/types/legacy_tx.go</tspan></tspan></text></g></g><g id="SvgjsG1221" transform="translate(54.84240005204367,476.6692439103482)"><path id="SvgjsPath1222" d="M 0 0L 179.3136675764996 0L 179.3136675764996 130L 0 130Z" stroke="none" fill="none"></path><g id="SvgjsG1223"><text id="SvgjsText1224" font-family="微软雅黑" text-anchor="start" font-size="16px" width="180px" fill="#323232" font-weight="400" align="middle" lineHeight="125%" anchor="start" family="微软雅黑" size="16px" weight="400" font-style="" opacity="1" y="-39" transform="rotate(0)"><tspan id="SvgjsTspan1225" dy="20" x="0"><tspan id="SvgjsTspan1226" style="">Nonce: 0,</tspan></tspan><tspan id="SvgjsTspan1227" dy="20" x="0"><tspan id="SvgjsTspan1228" style="">GasPrice: 1,</tspan></tspan><tspan id="SvgjsTspan1229" dy="20" x="0"><tspan id="SvgjsTspan1230" style="">Gas: 200000 = 0x30d4</tspan></tspan><tspan id="SvgjsTspan1231" dy="20" x="0"><tspan id="SvgjsTspan1232" style="">0,</tspan></tspan><tspan id="SvgjsTspan1233" dy="20" x="0"><tspan id="SvgjsTspan1234" style="">To: nil,</tspan></tspan><tspan id="SvgjsTspan1235" dy="20" x="0"><tspan id="SvgjsTspan1236" style="">Value: 空盒子,</tspan></tspan><tspan id="SvgjsTspan1237" dy="20" x="0"><tspan id="SvgjsTspan1238" style="">Data: bytecode值,</tspan></tspan><tspan id="SvgjsTspan1239" dy="20" x="0"><tspan id="SvgjsTspan1240" style="">V: 55,</tspan></tspan><tspan id="SvgjsTspan1241" dy="20" x="0"><tspan id="SvgjsTspan1242" style="">R: 大数,</tspan></tspan><tspan id="SvgjsTspan1243" dy="20" x="0"><tspan id="SvgjsTspan1244" style="">S: 大数,</tspan></tspan></text></g></g><g id="SvgjsG1245" transform="translate(278.89258589371605,492.1896699254668)"><path id="SvgjsPath1246" d="M 0 4Q 0 0 4 0L 222.9726182479651 0Q 226.9726182479651 0 226.9726182479651 4L 226.9726182479651 183.09308442069027Q 226.9726182479651 187.09308442069027 222.9726182479651 187.09308442069027L 4 187.09308442069027Q 0 187.09308442069027 0 183.09308442069027Z" stroke="rgba(33,41,48,1)" stroke-width="1.5" fill-opacity="1" fill="#ffffff"></path><g id="SvgjsG1247"><text id="SvgjsText1248" font-family="微软雅黑" text-anchor="middle" font-size="13px" width="207px" fill="#323232" font-weight="400" align="middle" lineHeight="125%" anchor="middle" family="微软雅黑" size="13px" weight="400" font-style="" opacity="1" y="82.92154221034514" transform="rotate(0)"></text></g></g><g id="SvgjsG1249" transform="translate(320.5607131995165,465.89861435435535)"><path id="SvgjsPath1250" d="M 0 4Q 0 0 4 0L 133.80211822016327 0Q 137.80211822016327 0 137.80211822016327 4L 137.80211822016327 24.282099175474514Q 137.80211822016327 28.282099175474514 133.80211822016327 28.282099175474514L 4 28.282099175474514Q 0 28.282099175474514 0 24.282099175474514Z" stroke="rgba(33,41,48,1)" stroke-width="1.5" fill-opacity="1" fill="#ffffff"></path><g id="SvgjsG1251"><text id="SvgjsText1252" font-family="微软雅黑" text-anchor="middle" font-size="16px" width="118px" fill="#323232" font-weight="400" align="middle" lineHeight="125%" anchor="middle" family="微软雅黑" size="16px" weight="400" font-style="" opacity="1" y="0.14104958773725684" transform="rotate(0)"><tspan id="SvgjsTspan1253" dy="20" x="69"><tspan id="SvgjsTspan1254" style="">Transaction</tspan></tspan></text></g></g><g id="SvgjsG1255" transform="translate(296.70951947882384,493.8155202656018)"><path id="SvgjsPath1256" d="M 0 4Q 0 0 4 0L 187.33875107774952 0Q 191.33875107774952 0 191.33875107774952 4L 191.33875107774952 25.647292439702937Q 191.33875107774952 29.647292439702937 187.33875107774952 29.647292439702937L 4 29.647292439702937Q 0 29.647292439702937 0 25.647292439702937Z" stroke-dasharray="10,6,3,6" stroke="rgba(33,41,48,1)" stroke-width="1.5" fill-opacity="1" fill="#ffffff"></path><g id="SvgjsG1257"><text id="SvgjsText1258" font-family="微软雅黑" text-anchor="middle" font-size="15px" width="172px" fill="#323232" font-weight="400" align="middle" lineHeight="125%" anchor="middle" family="微软雅黑" size="15px" weight="400" font-style="" opacity="1" y="-7.051353780148531" transform="rotate(0)"><tspan id="SvgjsTspan1259" dy="18.75" x="96"><tspan id="SvgjsTspan1260" style="fill: rgb(50, 50, 50);">core/types/transaction.</tspan></tspan><tspan id="SvgjsTspan1261" dy="18.75" x="96"><tspan id="SvgjsTspan1262" style="fill: rgb(50, 50, 50);">go</tspan></tspan></text></g></g><g id="SvgjsG1263" transform="translate(308.07204784701196,543.1883881546402)"><path id="SvgjsPath1264" d="M 0 0L 66.11182450515741 0L 66.11182450515741 27.931100885393107L 0 27.931100885393107Z" stroke="none" fill="none"></path><g id="SvgjsG1265"><text id="SvgjsText1266" font-family="微软雅黑" text-anchor="start" font-size="16px" width="67px" fill="#323232" font-weight="400" align="middle" lineHeight="125%" anchor="start" family="微软雅黑" size="16px" weight="400" font-style="" opacity="1" y="-0.034449557303446454" transform="rotate(0)"><tspan id="SvgjsTspan1267" dy="20" x="0"><tspan id="SvgjsTspan1268" style="">inner</tspan></tspan></text></g></g><g id="SvgjsG1269" transform="translate(308.07204784701196,579.4784394522959)"><path id="SvgjsPath1270" d="M 0 0L 178.57840676052274 0L 178.57840676052274 65L 0 65Z" stroke="none" fill="none"></path><g id="SvgjsG1271"><text id="SvgjsText1272" font-family="微软雅黑" text-anchor="start" font-size="16px" width="179px" fill="#323232" font-weight="400" align="middle" lineHeight="125%" anchor="start" family="微软雅黑" size="16px" weight="400" font-style="" opacity="1" y="-11.5" transform="rotate(0)"><tspan id="SvgjsTspan1273" dy="20" x="0"><tspan id="SvgjsTspan1274" style="">time: time.Now(),</tspan></tspan><tspan id="SvgjsTspan1275" dy="20" x="0"><tspan id="SvgjsTspan1276" style="">hash: 0x2d, 0x94...</tspan></tspan><tspan id="SvgjsTspan1277" dy="20" x="0"><tspan id="SvgjsTspan1278" style="">size: 449,</tspan></tspan><tspan id="SvgjsTspan1279" dy="20" x="0"><tspan id="SvgjsTspan1280" style="">from: [0x1f, 0xa0...],</tspan></tspan></text></g></g><g id="SvgjsG1281"><path id="SvgjsPath1282" d="M307.322113076983 557.1638300432147L252.6930073401311 557.8843738349052" stroke="#323232" stroke-width="1.5" fill="none" marker-end="url(#SvgjsMarker1283)"></path></g><g id="SvgjsG1285"><path id="SvgjsPath1286" d="M577.0269255975081 626.838817594675C 547.8801779719065 626.9049354271539 534.882352934917 609.9482356539703 506.48268524628884 610.080471318928" stroke="#323232" stroke-width="1.5" fill="none" marker-end="url(#SvgjsMarker1287)"></path></g><g id="SvgjsG1289" transform="translate(234.15606762854338,25.003647748160915)"><path id="SvgjsPath1290" d="M 0 0L 285.8446538619786 0L 285.8446538619786 48.75L 0 48.75Z" stroke="none" fill="none"></path><g id="SvgjsG1291"><text id="SvgjsText1292" font-family="微软雅黑" text-anchor="middle" font-size="17px" width="286px" fill="#323232" font-weight="400" align="middle" lineHeight="125%" anchor="middle" family="微软雅黑" size="17px" weight="400" font-style="" opacity="1" y="9.75" transform="rotate(0)"><tspan id="SvgjsTspan1293" dy="21.25" x="143"><tspan id="SvgjsTspan1294" style="">w.fillTransactions(interrupt, work)后</tspan></tspan></text></g></g></svg>