<svg id="SvgjsSvg2088" width="1488.1092936197917" height="725.8437228732639" xmlns="http://www.w3.org/2000/svg" version="1.1" xmlns:xlink="http://www.w3.org/1999/xlink" xmlns:svgjs="http://svgjs.com/svgjs"><defs id="SvgjsDefs2089"><pattern patternUnits="userSpaceOnUse" id="pattern_mark_0" width="300" height="300"><text x="150" y="100" fill="rgba(229,229,229,0.8)" font-size="18" transform="rotate(-45, 150, 150)" style="dominant-baseline: middle; text-anchor: middle;"></text></pattern><pattern patternUnits="userSpaceOnUse" id="pattern_mark_1" width="300" height="300"><text x="150" y="200" fill="rgba(229,229,229,0.8)" font-size="18" transform="rotate(-45, 150, 150)" style="dominant-baseline: middle; text-anchor: middle;"></text></pattern><marker id="SvgjsMarker2102" markerWidth="13" markerHeight="9" refX="9.5" refY="4.5" viewBox="0 0 13 9" orient="auto" markerUnits="userSpaceOnUse" stroke-dasharray="0,0"><path id="SvgjsPath2103" d="M0,0 L13,4.5 L0,9 L0,0" fill="#323232" stroke="#323232" stroke-width="1"></path></marker><marker id="SvgjsMarker2134" markerWidth="13" markerHeight="9" refX="9.5" refY="4.5" viewBox="0 0 13 9" orient="auto" markerUnits="userSpaceOnUse" stroke-dasharray="0,0"><path id="SvgjsPath2135" d="M0,0 L13,4.5 L0,9 L0,0" fill="#323232" stroke="#323232" stroke-width="1"></path></marker><marker id="SvgjsMarker2163" markerWidth="13" markerHeight="9" refX="9.5" refY="4.5" viewBox="0 0 13 9" orient="auto" markerUnits="userSpaceOnUse" stroke-dasharray="0,0"><path id="SvgjsPath2164" d="M0,0 L13,4.5 L0,9 L0,0" fill="#323232" stroke="#323232" stroke-width="1"></path></marker><marker id="SvgjsMarker2192" markerWidth="13" markerHeight="9" refX="9.5" refY="4.5" viewBox="0 0 13 9" orient="auto" markerUnits="userSpaceOnUse" stroke-dasharray="0,0"><path id="SvgjsPath2193" d="M0,0 L13,4.5 L0,9 L0,0" fill="#323232" stroke="#323232" stroke-width="1"></path></marker><marker id="SvgjsMarker2218" markerWidth="13" markerHeight="9" refX="9.5" refY="4.5" viewBox="0 0 13 9" orient="auto" markerUnits="userSpaceOnUse" stroke-dasharray="0,0"><path id="SvgjsPath2219" d="M0,0 L13,4.5 L0,9 L0,0" fill="#323232" stroke="#323232" stroke-width="1"></path></marker><marker id="SvgjsMarker2226" markerWidth="13" markerHeight="9" refX="9.5" refY="4.5" viewBox="0 0 13 9" orient="auto" markerUnits="userSpaceOnUse" stroke-dasharray="0,0"><path id="SvgjsPath2227" d="M0,0 L13,4.5 L0,9 L0,0" fill="#323232" stroke="#323232" stroke-width="1"></path></marker><marker id="SvgjsMarker2257" markerWidth="13" markerHeight="9" refX="9.5" refY="4.5" viewBox="0 0 13 9" orient="auto" markerUnits="userSpaceOnUse" stroke-dasharray="0,0"><path id="SvgjsPath2258" d="M0,0 L13,4.5 L0,9 L0,0" fill="#323232" stroke="#323232" stroke-width="1"></path></marker><marker id="SvgjsMarker2267" markerWidth="13" markerHeight="9" refX="9.5" refY="4.5" viewBox="0 0 13 9" orient="auto" markerUnits="userSpaceOnUse" stroke-dasharray="0,0"><path id="SvgjsPath2268" d="M0,0 L13,4.5 L0,9 L0,0" fill="#323232" stroke="#323232" stroke-width="1"></path></marker></defs><rect id="svgbackgroundid" width="1488.1092936197917" height="725.8437228732639" fill="transparent"></rect><rect id="SvgjsRect2091" width="1488.1092936197917" height="725.8437228732639" fill="url(#pattern_mark_0)"></rect><rect id="SvgjsRect2092" width="1488.1092936197917" height="725.8437228732639" fill="url(#pattern_mark_1)"></rect><g id="SvgjsG2093" transform="translate(339.15936848338356,93.84779928188044)"><path id="SvgjsPath2094" d="M 52.568181818181756 30L 52.568181818181756 599.0101010101017" stroke-dasharray="3,4" stroke="rgba(33,41,48,1)" stroke-width="2" fill="none"></path><path id="SvgjsPath2095" d="M 0 0L 105.13636363636351 0L 105.13636363636351 30L 0 30Z" stroke="rgba(33,41,48,1)" stroke-width="1.5" fill-opacity="1" fill="#ffffff"></path><g id="SvgjsG2096"><text id="SvgjsText2097" font-family="微软雅黑" text-anchor="middle" font-size="15px" width="86px" fill="#323232" font-weight="400" align="middle" lineHeight="125%" anchor="middle" family="微软雅黑" size="15px" weight="400" font-style="" opacity="1" y="2.625" transform="rotate(0)"><tspan id="SvgjsTspan2098" dy="18.75" x="53"><tspan id="SvgjsTspan2099" style="">worker</tspan></tspan></text></g></g><g id="SvgjsG2100"><path id="SvgjsPath2101" d="M418.310791015625 256.75689019097257L506.36634657118043 256.75689019097257L506.36634657118043 256.75689019097257L594.4219021267361 256.75689019097257" stroke="#323232" stroke-width="1.5" fill="none" marker-end="url(#SvgjsMarker2102)"></path><rect id="SvgjsRect2104" width="130" height="114" x="403.734009656966" y="137.75689019097257" fill="#ffffff"></rect><text id="SvgjsText2105" font-family="微软雅黑" text-anchor="start" font-size="15px" width="130px" fill="#323232" font-weight="400" align="top" lineHeight="19px" anchor="start" family="微软雅黑" size="15px" weight="400" font-style="" opacity="1" y="134.88189019097257" transform="rotate(0)"><tspan id="SvgjsTspan2106" dy="18.75" x="403.734009656966"><tspan id="SvgjsTspan2107" style="">调用w.engine.Seal(</tspan></tspan><tspan id="SvgjsTspan2108" dy="18.75" x="403.734009656966"><tspan id="SvgjsTspan2109" style="">    w.chain, </tspan></tspan><tspan id="SvgjsTspan2110" dy="18.75" x="403.734009656966"><tspan id="SvgjsTspan2111" style="">    task.block, </tspan></tspan><tspan id="SvgjsTspan2112" dy="18.75" x="403.734009656966"><tspan id="SvgjsTspan2113" style="">   w.resultCh, </tspan></tspan><tspan id="SvgjsTspan2114" dy="18.75" x="403.734009656966"><tspan id="SvgjsTspan2115" style="">stopCh</tspan></tspan><tspan id="SvgjsTspan2116" dy="18.75" x="403.734009656966"><tspan id="SvgjsTspan2117" style="">) </tspan></tspan></text></g><g id="SvgjsG2118" transform="translate(567.1390738439084,93.84779928188038)"><path id="SvgjsPath2119" d="M 52.568181818181756 30L 52.568181818181756 599.0101010101017" stroke-dasharray="3,4" stroke="rgba(33,41,48,1)" stroke-width="2" fill="none"></path><path id="SvgjsPath2120" d="M 0 0L 105.13636363636351 0L 105.13636363636351 30L 0 30Z" stroke="rgba(33,41,48,1)" stroke-width="1.5" fill-opacity="1" fill="#ffffff"></path><g id="SvgjsG2121"><text id="SvgjsText2122" font-family="微软雅黑" text-anchor="middle" font-size="15px" width="86px" fill="#323232" font-weight="400" align="middle" lineHeight="125%" anchor="middle" family="微软雅黑" size="15px" weight="400" font-style="" opacity="1" y="2.625" transform="rotate(0)"><tspan id="SvgjsTspan2123" dy="18.75" x="53"><tspan id="SvgjsTspan2124" style="">beacon</tspan></tspan></text></g></g><g id="SvgjsG2125" transform="translate(792.2855384903726,93.84779928188038)"><path id="SvgjsPath2126" d="M 52.568181818181756 30L 52.568181818181756 594.4646464646473" stroke-dasharray="3,4" stroke="rgba(33,41,48,1)" stroke-width="2" fill="none"></path><path id="SvgjsPath2127" d="M 0 0L 105.13636363636351 0L 105.13636363636351 30L 0 30Z" stroke="rgba(33,41,48,1)" stroke-width="1.5" fill-opacity="1" fill="#ffffff"></path><g id="SvgjsG2128"><text id="SvgjsText2129" font-family="微软雅黑" text-anchor="middle" font-size="15px" width="86px" fill="#323232" font-weight="400" align="middle" lineHeight="125%" anchor="middle" family="微软雅黑" size="15px" weight="400" font-style="" opacity="1" y="2.625" transform="rotate(0)"><tspan id="SvgjsTspan2130" dy="18.75" x="53"><tspan id="SvgjsTspan2131" style="">ethash</tspan></tspan></text></g></g><g id="SvgjsG2132"><path id="SvgjsPath2133" d="M644.4219021267361 263.64577907986154L730.9219021267361 263.64577907986154L730.9219021267361 263.64577907986154L817.4219021267361 263.64577907986154" stroke="#323232" stroke-width="1.5" fill="none" marker-end="url(#SvgjsMarker2134)"></path><rect id="SvgjsRect2136" width="171" height="114" x="617.9219021267361" y="144.64577907986154" fill="#ffffff"></rect><text id="SvgjsText2137" font-family="微软雅黑" text-anchor="start" font-size="15px" width="171px" fill="#323232" font-weight="400" align="top" lineHeight="19px" anchor="start" family="微软雅黑" size="15px" weight="400" font-style="" opacity="1" y="141.77077907986154" transform="rotate(0)"><tspan id="SvgjsTspan2138" dy="18.75" x="617.9219021267361"><tspan id="SvgjsTspan2139" style="">调用beacon.ethone.Seal(</tspan></tspan><tspan id="SvgjsTspan2140" dy="18.75" x="617.9219021267361"><tspan id="SvgjsTspan2141" style="">chain, </tspan></tspan><tspan id="SvgjsTspan2142" dy="18.75" x="617.9219021267361"><tspan id="SvgjsTspan2143" style="">block, </tspan></tspan><tspan id="SvgjsTspan2144" dy="18.75" x="617.9219021267361"><tspan id="SvgjsTspan2145" style="">results, </tspan></tspan><tspan id="SvgjsTspan2146" dy="18.75" x="617.9219021267361"><tspan id="SvgjsTspan2147" style="">stop</tspan></tspan><tspan id="SvgjsTspan2148" dy="18.75" x="617.9219021267361"><tspan id="SvgjsTspan2149" style="">)</tspan></tspan></text></g><g id="SvgjsG2150" transform="translate(606.8008289344345,243.8680013020836)"><path id="SvgjsPath2151" d="M 0 4Q 0 0 4 0L 26 0Q 30 0 30 4L 30 96Q 30 100 26 100L 4 100Q 0 100 0 96L 0 4Z" stroke="rgba(33,41,48,1)" stroke-width="1.5" fill-opacity="1" fill="#ffffff"></path></g><g id="SvgjsG2152" transform="translate(829.7348482013201,243.8680013020836)"><path id="SvgjsPath2153" d="M 0 4Q 0 0 4 0L 26 0Q 30 0 30 4L 30 363.77777777777743Q 30 367.77777777777743 26 367.77777777777743L 4 367.77777777777743Q 0 367.77777777777743 0 363.77777777777743L 0 4Z" stroke="rgba(33,41,48,1)" stroke-width="1.5" fill-opacity="1" fill="#ffffff"></path></g><g id="SvgjsG2154" transform="translate(1111.891104502147,93.8477992818807)"><path id="SvgjsPath2155" d="M 61.04317659007245 30L 61.04317659007245 594.4646464646471" stroke-dasharray="3,4" stroke="rgba(33,41,48,1)" stroke-width="2" fill="none"></path><path id="SvgjsPath2156" d="M 0 0L 122.0863531801449 0L 122.0863531801449 30L 0 30Z" stroke="rgba(33,41,48,1)" stroke-width="1.5" fill-opacity="1" fill="#ffffff"></path><g id="SvgjsG2157"><text id="SvgjsText2158" font-family="微软雅黑" text-anchor="middle" font-size="15px" width="103px" fill="#323232" font-weight="400" align="middle" lineHeight="125%" anchor="middle" family="微软雅黑" size="15px" weight="400" font-style="" opacity="1" y="2.625" transform="rotate(0)"><tspan id="SvgjsTspan2159" dy="18.75" x="61.5"><tspan id="SvgjsTspan2160" style="">ethash.mine</tspan></tspan></text></g></g><g id="SvgjsG2161"><path id="SvgjsPath2162" d="M866.1996799045146 572.7568901909722L1131.1996799045144 572.7568901909722L1131.1996799045144 572.7568901909722L1396.199679904514 572.7568901909722" stroke="#323232" stroke-width="1.5" fill="none" marker-end="url(#SvgjsMarker2163)"></path><rect id="SvgjsRect2165" width="261" height="76" x="862.9219021267361" y="491.7568901909722" fill="#ffffff"></rect><text id="SvgjsText2166" font-family="微软雅黑" text-anchor="start" font-size="15px" width="261px" fill="#323232" font-weight="400" align="top" lineHeight="19px" anchor="start" family="微软雅黑" size="15px" weight="400" font-style="" opacity="1" y="488.8818901909722" transform="rotate(0)"><tspan id="SvgjsTspan2167" dy="18.75" x="862.9219021267361"><tspan id="SvgjsTspan2168" style="">ethash.remote.workCh &lt;- &amp;sealTask{</tspan></tspan><tspan id="SvgjsTspan2169" dy="18.75" x="862.9219021267361"><tspan id="SvgjsTspan2170" style="">block: block, </tspan></tspan><tspan id="SvgjsTspan2171" dy="18.75" x="862.9219021267361"><tspan id="SvgjsTspan2172" style="">results: results</tspan></tspan><tspan id="SvgjsTspan2173" dy="18.75" x="862.9219021267361"><tspan id="SvgjsTspan2174" style="">}</tspan></tspan></text></g><g id="SvgjsG2175" transform="translate(1334.1133267243688,45.07002150410307)"><path id="SvgjsPath2176" d="M 0 0L 128.75301984681096 0L 128.75301984681096 48.77777777777763L 0 48.77777777777763Z" stroke="none" fill="none"></path><g id="SvgjsG2177"><text id="SvgjsText2178" font-family="微软雅黑" text-anchor="middle" font-size="16px" width="129px" fill="#323232" font-weight="400" align="middle" lineHeight="125%" anchor="middle" family="微软雅黑" size="16px" weight="400" font-style="" opacity="1" y="0.3888888888888147" transform="rotate(0)"><tspan id="SvgjsTspan2179" dy="20" x="64.5"><tspan id="SvgjsTspan2180" style="">【goroA】</tspan></tspan><tspan id="SvgjsTspan2181" dy="20" x="64.5"><tspan id="SvgjsTspan2182" style="">s.loop()</tspan></tspan></text></g></g><g id="SvgjsG2183" transform="translate(1340.7799933910358,93.8477992818805)"><path id="SvgjsPath2184" d="M 61.04317659007245 30L 61.04317659007245 606.6868686868695" stroke-dasharray="3,4" stroke="rgba(33,41,48,1)" stroke-width="2" fill="none"></path><path id="SvgjsPath2185" d="M 0 0L 122.0863531801449 0L 122.0863531801449 30L 0 30Z" stroke="rgba(33,41,48,1)" stroke-width="1.5" fill-opacity="1" fill="#ffffff"></path><g id="SvgjsG2186"><text id="SvgjsText2187" font-family="微软雅黑" text-anchor="middle" font-size="15px" width="103px" fill="#323232" font-weight="400" align="middle" lineHeight="125%" anchor="middle" family="微软雅黑" size="15px" weight="400" font-style="" opacity="1" y="2.625" transform="rotate(0)"><tspan id="SvgjsTspan2188" dy="18.75" x="61.5"><tspan id="SvgjsTspan2189" style="">remoteSealer</tspan></tspan></text></g></g><g id="SvgjsG2190"><path id="SvgjsPath2191" d="M871.644124348958 323.20133463541714L1008.9219021267361 323.20133463541714L1008.9219021267361 323.20133463541714L1146.199679904514 323.20133463541714" stroke="#323232" stroke-width="1.5" fill="none" marker-end="url(#SvgjsMarker2192)"></path><rect id="SvgjsRect2194" width="298" height="19" x="862.6898367280039" y="299.20133463541714" fill="#ffffff"></rect><text id="SvgjsText2195" font-family="微软雅黑" text-anchor="start" font-size="15px" width="298px" fill="#323232" font-weight="400" align="top" lineHeight="19px" anchor="start" family="微软雅黑" size="15px" weight="400" font-style="" opacity="1" y="296.32633463541714" transform="rotate(0)"><tspan id="SvgjsTspan2196" dy="18.75" x="862.6898367280039"><tspan id="SvgjsTspan2197" style="">ethash.mine(block, id, nonce, abort, locals)</tspan></tspan></text></g><g id="SvgjsG2198" transform="translate(316.9404128350575,25.00771499098795)"><path id="SvgjsPath2199" d="M 0 0L 157.77777777777783 0L 157.77777777777783 56.18181818181847L 0 56.18181818181847Z" stroke="none" fill="none"></path><g id="SvgjsG2200"><text id="SvgjsText2201" font-family="微软雅黑" text-anchor="middle" font-size="16px" width="158px" fill="#323232" font-weight="400" align="middle" lineHeight="125%" anchor="middle" family="微软雅黑" size="16px" weight="400" font-style="" opacity="1" y="4.090909090909236" transform="rotate(0)"><tspan id="SvgjsTspan2202" dy="20" x="79"><tspan id="SvgjsTspan2203" style="">[goroD】</tspan></tspan><tspan id="SvgjsTspan2204" dy="20" x="79"><tspan id="SvgjsTspan2205" style="">worker.taskLoop()</tspan></tspan></text></g></g><g id="SvgjsG2206" transform="translate(1157.8008289344345,315.8680013020836)"><path id="SvgjsPath2207" d="M 0 4Q 0 0 4 0L 26 0Q 30 0 30 4L 30 96Q 30 100 26 100L 4 100Q 0 100 0 96L 0 4Z" stroke="rgba(33,41,48,1)" stroke-width="1.5" fill-opacity="1" fill="#ffffff"></path></g><g id="SvgjsG2208" transform="translate(1192.421902126736,333.64577907986154)"><path id="SvgjsPath2209" d="M 0 0L 122 0L 122 64.44444444444417L 0 64.44444444444417Z" stroke="none" fill="none"></path><g id="SvgjsG2210"><text id="SvgjsText2211" font-family="微软雅黑" text-anchor="start" font-size="16px" width="122px" fill="#323232" font-weight="400" align="middle" lineHeight="125%" anchor="start" family="微软雅黑" size="16px" weight="400" font-style="" opacity="1" y="8.222222222222086" transform="rotate(0)"><tspan id="SvgjsTspan2212" dy="20" x="0"><tspan id="SvgjsTspan2213" style="">真正的POW, 结</tspan></tspan><tspan id="SvgjsTspan2214" dy="20" x="0"><tspan id="SvgjsTspan2215" style="">果回传到locals</tspan></tspan></text></g></g><g id="SvgjsG2216"><path id="SvgjsPath2217" d="M1137.6441243489578 379.20133463541714L1006.533013237847 379.20133463541714L1006.533013237847 379.20133463541714L875.4219021267361 379.20133463541714" stroke="#323232" stroke-width="1.5" fill="none" marker-end="url(#SvgjsMarker2218)"></path><rect id="SvgjsRect2220" width="232" height="19" x="896.4219021267361" y="384.20133463541714" fill="#ffffff"></rect><text id="SvgjsText2221" font-family="微软雅黑" text-anchor="start" font-size="15px" width="232px" fill="#323232" font-weight="400" align="top" lineHeight="19px" anchor="start" family="微软雅黑" size="15px" weight="400" font-style="" opacity="1" y="381.32633463541714" transform="rotate(0)"><tspan id="SvgjsTspan2222" dy="18.75" x="896.4219021267361"><tspan id="SvgjsTspan2223" style="">locals &lt;- block.WithSeal(header):</tspan></tspan></text></g><g id="SvgjsG2224"><path id="SvgjsPath2225" d="M819.6441243489578 385.20133463541714L515.6996799045135 385.20133463541714L515.6996799045135 385.20133463541714L211.75523546006934 385.20133463541714" stroke="#323232" stroke-width="1.5" fill="none" marker-end="url(#SvgjsMarker2226)"></path><rect id="SvgjsRect2228" width="113" height="19" x="689.921902126736" y="361.20133463541714" fill="#ffffff"></rect><text id="SvgjsText2229" font-family="微软雅黑" text-anchor="start" font-size="15px" width="113px" fill="#323232" font-weight="400" align="top" lineHeight="19px" anchor="start" family="微软雅黑" size="15px" weight="400" font-style="" opacity="1" y="358.32633463541714" transform="rotate(0)"><tspan id="SvgjsTspan2230" dy="18.75" x="689.921902126736"><tspan id="SvgjsTspan2231" style="">results &lt;- result</tspan></tspan></text></g><g id="SvgjsG2232" transform="translate(702.2512448593764,384.64577907986137)"><path id="SvgjsPath2233" d="M 0 0L 122.17065726735973 0L 122.17065726735973 37.6666666666664L 0 37.6666666666664Z" stroke="none" fill="none"></path><g id="SvgjsG2234"><text id="SvgjsText2235" font-family="微软雅黑" text-anchor="start" font-size="16px" width="123px" fill="#323232" font-weight="400" align="middle" lineHeight="125%" anchor="start" family="微软雅黑" size="16px" weight="400" font-style="" opacity="1" y="4.833333333333201" transform="rotate(0)"><tspan id="SvgjsTspan2236" dy="20" x="0"><tspan id="SvgjsTspan2237" style="">再回传到worker</tspan></tspan></text></g></g><g id="SvgjsG2238" transform="translate(124.71492403893899,297.415599749617)"><path id="SvgjsPath2239" d="M 52.568181818181756 30L 52.568181818181756 390.89684599691077" stroke-dasharray="3,4" stroke="rgba(33,41,48,1)" stroke-width="2" fill="none"></path><path id="SvgjsPath2240" d="M 0 0L 105.13636363636351 0L 105.13636363636351 30L 0 30Z" stroke="rgba(33,41,48,1)" stroke-width="1.5" fill-opacity="1" fill="#ffffff"></path><g id="SvgjsG2241"><text id="SvgjsText2242" font-family="微软雅黑" text-anchor="middle" font-size="15px" width="86px" fill="#323232" font-weight="400" align="middle" lineHeight="125%" anchor="middle" family="微软雅黑" size="15px" weight="400" font-style="" opacity="1" y="2.625" transform="rotate(0)"><tspan id="SvgjsTspan2243" dy="18.75" x="53"><tspan id="SvgjsTspan2244" style="">worker</tspan></tspan></text></g></g><g id="SvgjsG2245" transform="translate(102.86634657118066,244.20973519300827)"><path id="SvgjsPath2246" d="M 0 0L 157.77777777777783 0L 157.77777777777783 40L 0 40Z" stroke="none" fill="none"></path><g id="SvgjsG2247"><text id="SvgjsText2248" font-family="微软雅黑" text-anchor="middle" font-size="16px" width="158px" fill="#323232" font-weight="400" align="middle" lineHeight="125%" anchor="middle" family="微软雅黑" size="16px" weight="400" font-style="" opacity="1" y="-4" transform="rotate(0)"><tspan id="SvgjsTspan2249" dy="20" x="79"><tspan id="SvgjsTspan2250" style="">【goroC】</tspan></tspan><tspan id="SvgjsTspan2251" dy="20" x="79"><tspan id="SvgjsTspan2252" style="">worker.resultLoop()</tspan></tspan></text></g></g><g id="SvgjsG2253" transform="translate(166.75523546006957,364.97911241319485)"><path id="SvgjsPath2254" d="M 0 4Q 0 0 4 0L 26 0Q 30 0 30 4L 30 96Q 30 100 26 100L 4 100Q 0 100 0 96L 0 4Z" stroke="rgba(33,41,48,1)" stroke-width="1.5" fill-opacity="1" fill="#ffffff"></path></g><g id="SvgjsG2255"><path id="SvgjsPath2256" d="M166.33856879340283 448.31244574652777L143.57341727825133 448.31244574652777L143.57341727825133 386.0902235243055L164.38856879340278 386.0902235243055" stroke="#323232" stroke-width="1.5" fill="none" marker-end="url(#SvgjsMarker2257)"></path><rect id="SvgjsRect2259" width="103" height="19" x="37.07341727825133" y="398.13129744771123" fill="#ffffff"></rect><text id="SvgjsText2260" font-family="微软雅黑" text-anchor="middle" font-size="15px" width="103px" fill="#323232" font-weight="400" align="top" lineHeight="19px" anchor="middle" family="微软雅黑" size="15px" weight="400" font-style="" opacity="1" y="395.25629744771123" transform="rotate(0)"><tspan id="SvgjsTspan2261" dy="18.75" x="88.57341727825133"><tspan id="SvgjsTspan2262" style="">收到w.resultCh</tspan></tspan></text></g><g id="SvgjsG2263" transform="translate(164.1721176381909,495.40335483743667)"><path id="SvgjsPath2264" d="M 0 4Q 0 0 4 0L 26 0Q 30 0 30 4L 30 96Q 30 100 26 100L 4 100Q 0 100 0 96L 0 4Z" stroke="rgba(33,41,48,1)" stroke-width="1.5" fill-opacity="1" fill="#ffffff"></path></g><g id="SvgjsG2265"><path id="SvgjsPath2266" d="M164.50545097152417 577.6255770596586L140.99029945637267 577.6255770596586L140.99029945637267 515.4033548374362L164.50545097152417 515.4033548374362" stroke="#323232" stroke-width="1.5" fill="none" marker-end="url(#SvgjsMarker2267)"></path><rect id="SvgjsRect2269" width="120" height="19" x="15.990299456372668" y="526.1255770596584" fill="#ffffff"></rect><text id="SvgjsText2270" font-family="微软雅黑" text-anchor="middle" font-size="15px" width="120px" fill="#323232" font-weight="400" align="top" lineHeight="19px" anchor="middle" family="微软雅黑" size="15px" weight="400" font-style="" opacity="1" y="523.2505770596584" transform="rotate(0)"><tspan id="SvgjsTspan2271" dy="18.75" x="75.99029945637267"><tspan id="SvgjsTspan2272" style="">写区块、广播区块</tspan></tspan></text></g></svg>