<svg id="SvgjsSvg1006" width="901.8594193892044" height="568.5000443892045" xmlns="http://www.w3.org/2000/svg" version="1.1" xmlns:xlink="http://www.w3.org/1999/xlink" xmlns:svgjs="http://svgjs.com/svgjs"><defs id="SvgjsDefs1007"><pattern patternUnits="userSpaceOnUse" id="pattern_mark_0" width="300" height="300"><text x="150" y="100" fill="rgba(229,229,229,0.8)" font-size="18" transform="rotate(-45, 150, 150)" style="dominant-baseline: middle; text-anchor: middle;"></text></pattern><pattern patternUnits="userSpaceOnUse" id="pattern_mark_1" width="300" height="300"><text x="150" y="200" fill="rgba(229,229,229,0.8)" font-size="18" transform="rotate(-45, 150, 150)" style="dominant-baseline: middle; text-anchor: middle;"></text></pattern><marker id="SvgjsMarker1018" markerWidth="13" markerHeight="9" refX="9.5" refY="4.5" viewBox="0 0 13 9" orient="auto" markerUnits="userSpaceOnUse" stroke-dasharray="0,0"><path id="SvgjsPath1019" d="M0,0 L13,4.5 L0,9 L0,0" fill="#323232" stroke="#323232" stroke-width="1"></path></marker><marker id="SvgjsMarker1043" markerWidth="13" markerHeight="9" refX="9.5" refY="4.5" viewBox="0 0 13 9" orient="auto" markerUnits="userSpaceOnUse" stroke-dasharray="0,0"><path id="SvgjsPath1044" d="M0,0 L13,4.5 L0,9 L0,0" fill="#323232" stroke="#323232" stroke-width="1"></path></marker><marker id="SvgjsMarker1047" markerWidth="13" markerHeight="9" refX="9.5" refY="4.5" viewBox="0 0 13 9" orient="auto" markerUnits="userSpaceOnUse" stroke-dasharray="0,0"><path id="SvgjsPath1048" d="M0,0 L13,4.5 L0,9 L0,0" fill="#323232" stroke="#323232" stroke-width="1"></path></marker><marker id="SvgjsMarker1057" markerWidth="13" markerHeight="9" refX="9.5" refY="4.5" viewBox="0 0 13 9" orient="auto" markerUnits="userSpaceOnUse" stroke-dasharray="0,0"><path id="SvgjsPath1058" d="M0,0 L13,4.5 L0,9 L0,0" fill="#323232" stroke="#323232" stroke-width="1"></path></marker><marker id="SvgjsMarker1067" markerWidth="13" markerHeight="9" refX="9.5" refY="4.5" viewBox="0 0 13 9" orient="auto" markerUnits="userSpaceOnUse" stroke-dasharray="0,0"><path id="SvgjsPath1068" d="M0,0 L13,4.5 L0,9 L0,0" fill="#323232" stroke="#323232" stroke-width="1"></path></marker><marker id="SvgjsMarker1084" markerWidth="13" markerHeight="9" refX="9.5" refY="4.5" viewBox="0 0 13 9" orient="auto" markerUnits="userSpaceOnUse" stroke-dasharray="0,0"><path id="SvgjsPath1085" d="M0,0 L13,4.5 L0,9 L0,0" fill="#323232" stroke="#323232" stroke-width="1"></path></marker><marker id="SvgjsMarker1094" markerWidth="13" markerHeight="9" refX="9.5" refY="4.5" viewBox="0 0 13 9" orient="auto" markerUnits="userSpaceOnUse" stroke-dasharray="0,0"><path id="SvgjsPath1095" d="M0,0 L13,4.5 L0,9 L0,0" fill="#323232" stroke="#323232" stroke-width="1"></path></marker></defs><rect id="svgbackgroundid" width="901.8594193892044" height="568.5000443892045" fill="transparent"></rect><rect id="SvgjsRect1009" width="901.8594193892044" height="568.5000443892045" fill="url(#pattern_mark_0)"></rect><rect id="SvgjsRect1010" width="901.8594193892044" height="568.5000443892045" fill="url(#pattern_mark_1)"></rect><g id="SvgjsG1011" transform="translate(25.009965376420524,80.50572620738639)"><path id="SvgjsPath1012" d="M 35 30L 35 140" stroke-dasharray="3,4" stroke="rgba(33,41,48,1)" stroke-width="2" fill="none"></path><path id="SvgjsPath1013" d="M 0 0L 70 0L 70 30L 0 30Z" stroke="rgba(33,41,48,1)" stroke-width="1.5" fill-opacity="1" fill="#ffffff"></path><g id="SvgjsG1014"><text id="SvgjsText1015" font-family="微软雅黑" text-anchor="middle" font-size="13px" width="50px" fill="#323232" font-weight="400" align="middle" lineHeight="125%" anchor="middle" family="微软雅黑" size="13px" weight="400" font-style="" opacity="1" y="4.375" transform="rotate(0)"></text></g></g><g id="SvgjsG1016"><path id="SvgjsPath1017" d="M66.50996537642052 162.50572620738615L179.00996537642052 162.50572620738615L179.00996537642052 162.50572620738615L291.5099653764205 162.50572620738615" stroke="#323232" stroke-width="1.5" fill="none" marker-end="url(#SvgjsMarker1018)"></path><rect id="SvgjsRect1020" width="185" height="19" x="88.00996537642052" y="138.50572620738615" fill="#ffffff"></rect><text id="SvgjsText1021" font-family="微软雅黑" text-anchor="middle" font-size="15px" width="185px" fill="#323232" font-weight="400" align="top" lineHeight="19px" anchor="middle" family="微软雅黑" size="15px" weight="400" font-style="" opacity="1" y="135.63072620738615" transform="rotate(0)"><tspan id="SvgjsTspan1022" dy="18.75" x="180.50996537642052"><tspan id="SvgjsTspan1023" style="">miner.startCh &lt;- coinbase</tspan></tspan></text></g><g id="SvgjsG1024" transform="translate(267.0099653764205,80.50572620738639)"><path id="SvgjsPath1025" d="M 45.25 30L 45.25 463" stroke-dasharray="3,4" stroke="rgba(33,41,48,1)" stroke-width="2" fill="none"></path><path id="SvgjsPath1026" d="M 0 0L 90.5 0L 90.5 30L 0 30Z" stroke="rgba(33,41,48,1)" stroke-width="1.5" fill-opacity="1" fill="#ffffff"></path><g id="SvgjsG1027"><text id="SvgjsText1028" font-family="微软雅黑" text-anchor="middle" font-size="13px" width="71px" fill="#323232" font-weight="400" align="middle" lineHeight="125%" anchor="middle" family="微软雅黑" size="13px" weight="400" font-style="" opacity="1" y="4.375" transform="rotate(0)"><tspan id="SvgjsTspan1029" dy="16.25" x="45.5"><tspan id="SvgjsTspan1030" style="">miner</tspan></tspan></text></g></g><g id="SvgjsG1031" transform="translate(249.5711898662164,25.005726207386388)"><path id="SvgjsPath1032" d="M 0 0L 141.9387755102041 0L 141.9387755102041 55.5L 0 55.5Z" stroke="none" fill="none"></path><g id="SvgjsG1033"><text id="SvgjsText1034" font-family="微软雅黑" text-anchor="middle" font-size="16px" width="142px" fill="#323232" font-weight="400" align="middle" lineHeight="125%" anchor="middle" family="微软雅黑" size="16px" weight="400" font-style="" opacity="1" y="3.75" transform="rotate(0)"><tspan id="SvgjsTspan1035" dy="20" x="71"><tspan id="SvgjsTspan1036" style="">【goroE】</tspan></tspan><tspan id="SvgjsTspan1037" dy="20" x="71"><tspan id="SvgjsTspan1038" style="">miner.update()</tspan></tspan></text></g></g><g id="SvgjsG1039" transform="translate(296.5099653764205,159.50572620738546)"><path id="SvgjsPath1040" d="M 0 4Q 0 0 4 0L 26 0Q 30 0 30 4L 30 50.545454545455414Q 30 54.545454545455414 26 54.545454545455414L 4 54.545454545455414Q 0 54.545454545455414 0 50.545454545455414L 0 4Z" stroke="rgba(33,41,48,1)" stroke-width="1.5" fill-opacity="1" fill="#ffffff"></path></g><g id="SvgjsG1041"><path id="SvgjsPath1042" d="M286.53037353968557 184.50572620738598L178.02016945805306 184.50572620738598L178.02016945805306 184.50572620738598L69.50996537642052 184.50572620738598" stroke-dasharray="8,5" stroke="#323232" stroke-width="1.5" fill="none" marker-end="url(#SvgjsMarker1043)"></path></g><g id="SvgjsG1045"><path id="SvgjsPath1046" d="M327.2599653764205 201.32390802556773L348.32814719460237 201.32390802556773L348.32814719460237 173.50572620738603L329.20996537642054 173.50572620738603" stroke="#323232" stroke-width="1.5" fill="none" marker-end="url(#SvgjsMarker1047)"></path><rect id="SvgjsRect1049" width="92" height="19" x="352.32814719460237" y="173.42516614245093" fill="#ffffff"></rect><text id="SvgjsText1050" font-family="微软雅黑" text-anchor="middle" font-size="15px" width="92px" fill="#323232" font-weight="400" align="top" lineHeight="19px" anchor="middle" family="微软雅黑" size="15px" weight="400" font-style="" opacity="1" y="170.55016614245093" transform="rotate(0)"><tspan id="SvgjsTspan1051" dy="18.75" x="398.32814719460237"><tspan id="SvgjsTspan1052" style="">收到coinbase</tspan></tspan></text></g><g id="SvgjsG1053" transform="translate(296.5099653764205,234.0511807528407)"><path id="SvgjsPath1054" d="M 0 4Q 0 0 4 0L 26 0Q 30 0 30 4L 30 56.00000000000017Q 30 60.00000000000017 26 60.00000000000017L 4 60.00000000000017Q 0 60.00000000000017 0 56.00000000000017L 0 4Z" stroke="rgba(33,41,48,1)" stroke-width="1.5" fill-opacity="1" fill="#ffffff"></path></g><g id="SvgjsG1055"><path id="SvgjsPath1056" d="M327.2599653764205 280.41481711647725L345.6008744673296 280.41481711647725L345.6008744673296 253.5057262073862L326.5099653764205 253.5057262073862" stroke="#323232" stroke-width="1.5" fill="none" marker-end="url(#SvgjsMarker1057)"></path><rect id="SvgjsRect1059" width="208" height="19" x="347.6008744673296" y="248.46818562297068" fill="#ffffff"></rect><text id="SvgjsText1060" font-family="微软雅黑" text-anchor="middle" font-size="15px" width="208px" fill="#323232" font-weight="400" align="top" lineHeight="19px" anchor="middle" family="微软雅黑" size="15px" weight="400" font-style="" opacity="1" y="245.59318562297068" transform="rotate(0)"><tspan id="SvgjsTspan1061" dy="18.75" x="451.6008744673296"><tspan id="SvgjsTspan1062" style="">miner.SetEtherbase(coinbase)</tspan></tspan></text></g><g id="SvgjsG1063" transform="translate(296.5099653764205,320.7914404931009)"><path id="SvgjsPath1064" d="M 0 4Q 0 0 4 0L 26 0Q 30 0 30 4L 30 41.98701298701275Q 30 45.98701298701275 26 45.98701298701275L 4 45.98701298701275Q 0 45.98701298701275 0 41.98701298701275L 0 4Z" stroke="rgba(33,41,48,1)" stroke-width="1.5" fill-opacity="1" fill="#ffffff"></path></g><g id="SvgjsG1065"><path id="SvgjsPath1066" d="M334.69178355823874 342.7784534801137L466.1463290127841 342.7784534801137L466.1463290127841 342.7784534801137L597.6008744673295 342.7784534801137" stroke="#323232" stroke-width="1.5" fill="none" marker-end="url(#SvgjsMarker1067)"></path><rect id="SvgjsRect1069" width="136" height="19" x="378.251867152805" y="318.7784534801137" fill="#ffffff"></rect><text id="SvgjsText1070" font-family="微软雅黑" text-anchor="middle" font-size="15px" width="136px" fill="#323232" font-weight="400" align="top" lineHeight="19px" anchor="middle" family="微软雅黑" size="15px" weight="400" font-style="" opacity="1" y="315.9034534801137" transform="rotate(0)"><tspan id="SvgjsTspan1071" dy="18.75" x="446.251867152805"><tspan id="SvgjsTspan1072" style="">miner.worker.start()</tspan></tspan></text></g><g id="SvgjsG1073" transform="translate(575.1917835582387,80.50572620738639)"><path id="SvgjsPath1074" d="M 45.25 30L 45.25 463" stroke-dasharray="3,4" stroke="rgba(33,41,48,1)" stroke-width="2" fill="none"></path><path id="SvgjsPath1075" d="M 0 0L 90.5 0L 90.5 30L 0 30Z" stroke="rgba(33,41,48,1)" stroke-width="1.5" fill-opacity="1" fill="#ffffff"></path><g id="SvgjsG1076"><text id="SvgjsText1077" font-family="微软雅黑" text-anchor="middle" font-size="13px" width="71px" fill="#323232" font-weight="400" align="middle" lineHeight="125%" anchor="middle" family="微软雅黑" size="13px" weight="400" font-style="" opacity="1" y="4.375" transform="rotate(0)"><tspan id="SvgjsTspan1078" dy="16.25" x="45.5"><tspan id="SvgjsTspan1079" style="">worker</tspan></tspan></text></g></g><g id="SvgjsG1080" transform="translate(604.6917835582387,333.5187132203736)"><path id="SvgjsPath1081" d="M 0 4Q 0 0 4 0L 26 0Q 30 0 30 4L 30 44.71428571428544Q 30 48.71428571428544 26 48.71428571428544L 4 48.71428571428544Q 0 48.71428571428544 0 44.71428571428544L 0 4Z" stroke="rgba(33,41,48,1)" stroke-width="1.5" fill-opacity="1" fill="#ffffff"></path></g><g id="SvgjsG1082"><path id="SvgjsPath1083" d="M636.5099653764205 370.41481711647725L662.8736017400569 370.41481711647725L662.8736017400569 343.5057262073862L636.5099653764205 343.5057262073862" stroke="#323232" stroke-width="1.5" fill="none" marker-end="url(#SvgjsMarker1084)"></path><rect id="SvgjsRect1086" width="227" height="19" x="663.3736017400569" y="343.45620868580187" fill="#ffffff"></rect><text id="SvgjsText1087" font-family="微软雅黑" text-anchor="middle" font-size="15px" width="227px" fill="#323232" font-weight="400" align="top" lineHeight="19px" anchor="middle" family="微软雅黑" size="15px" weight="400" font-style="" opacity="1" y="340.58120868580187" transform="rotate(0)"><tspan id="SvgjsTspan1088" dy="18.75" x="776.8736017400569"><tspan id="SvgjsTspan1089" style="">atomic.StoreInt32(&amp;w.running, 1)</tspan></tspan></text></g><g id="SvgjsG1090" transform="translate(604.6917835582387,413.5187132203736)"><path id="SvgjsPath1091" d="M 0 4Q 0 0 4 0L 26 0Q 30 0 30 4L 30 41.98701298701275Q 30 45.98701298701275 26 45.98701298701275L 4 45.98701298701275Q 0 45.98701298701275 0 41.98701298701275L 0 4Z" stroke="rgba(33,41,48,1)" stroke-width="1.5" fill-opacity="1" fill="#ffffff"></path></g><g id="SvgjsG1092"><path id="SvgjsPath1093" d="M636.5099653764205 450.41481711647725L662.8736017400569 450.41481711647725L662.8736017400569 423.5057262073862L636.5099653764205 423.5057262073862" stroke="#323232" stroke-width="1.5" fill="none" marker-end="url(#SvgjsMarker1094)"></path><rect id="SvgjsRect1096" width="181" height="19" x="665.8736017400569" y="423.45620868580187" fill="#ffffff"></rect><text id="SvgjsText1097" font-family="微软雅黑" text-anchor="middle" font-size="15px" width="181px" fill="#323232" font-weight="400" align="top" lineHeight="19px" anchor="middle" family="微软雅黑" size="15px" weight="400" font-style="" opacity="1" y="420.58120868580187" transform="rotate(0)"><tspan id="SvgjsTspan1098" dy="18.75" x="756.3736017400569"><tspan id="SvgjsTspan1099" style="">与New阶段一样, 放startCh</tspan></tspan></text></g></svg>