<svg id="SvgjsSvg1006" width="830.640625" height="645.625" xmlns="http://www.w3.org/2000/svg" version="1.1" xmlns:xlink="http://www.w3.org/1999/xlink" xmlns:svgjs="http://svgjs.com/svgjs"><defs id="SvgjsDefs1007"><pattern patternUnits="userSpaceOnUse" id="pattern_mark_0" width="300" height="300"><text x="150" y="100" fill="rgba(229,229,229,0.8)" font-size="18" transform="rotate(-45, 150, 150)" style="dominant-baseline: middle; text-anchor: middle;"></text></pattern><pattern patternUnits="userSpaceOnUse" id="pattern_mark_1" width="300" height="300"><text x="150" y="200" fill="rgba(229,229,229,0.8)" font-size="18" transform="rotate(-45, 150, 150)" style="dominant-baseline: middle; text-anchor: middle;"></text></pattern><marker id="SvgjsMarker1119" markerWidth="13" markerHeight="9" refX="9.5" refY="4.5" viewBox="0 0 13 9" orient="auto" markerUnits="userSpaceOnUse" stroke-dasharray="0,0"><path id="SvgjsPath1120" d="M0,0 L13,4.5 L0,9 L0,0" fill="#7f7f7f" stroke="#7f7f7f" stroke-width="1"></path></marker><marker id="SvgjsMarker1123" markerWidth="13" markerHeight="9" refX="9.5" refY="4.5" viewBox="0 0 13 9" orient="auto" markerUnits="userSpaceOnUse" stroke-dasharray="0,0"><path id="SvgjsPath1124" d="M0,0 L13,4.5 L0,9 L0,0" fill="#7f7f7f" stroke="#7f7f7f" stroke-width="1"></path></marker><marker id="SvgjsMarker1161" markerWidth="13" markerHeight="9" refX="9.5" refY="4.5" viewBox="0 0 13 9" orient="auto" markerUnits="userSpaceOnUse" stroke-dasharray="0,0"><path id="SvgjsPath1162" d="M0,0 L13,4.5 L0,9 L0,0" fill="#323232" stroke="#323232" stroke-width="1"></path></marker><marker id="SvgjsMarker1215" markerWidth="16" markerHeight="16" refX="13" refY="8" viewBox="0 0 16 16" orient="auto" markerUnits="userSpaceOnUse" stroke-dasharray="0,0"><circle id="SvgjsCircle1216" r="4" cx="8" cy="8" fill="#323232" stroke="#323232" stroke-width="1.5"></circle></marker><marker id="SvgjsMarker1219" markerWidth="20" markerHeight="12" refX="20" refY="6" viewBox="0 0 20 12" orient="auto" markerUnits="userSpaceOnUse" stroke-dasharray="0,0"><path id="SvgjsPath1220" d="M2,6 L10,2 L18,6 L10,10L2,6" fill="#323232" stroke="#323232" stroke-width="1.5"></path></marker></defs><rect id="svgbackgroundid" width="830.640625" height="645.625" fill="transparent"></rect><rect id="SvgjsRect1009" width="830.640625" height="645.625" fill="url(#pattern_mark_0)"></rect><rect id="SvgjsRect1010" width="830.640625" height="645.625" fill="url(#pattern_mark_1)"></rect><g id="SvgjsG1011" transform="translate(25,103.75)"><path id="SvgjsPath1012" d="M 0 4Q 0 0 4 0L 391.5 0Q 395.5 0 395.5 4L 395.5 200.5Q 395.5 204.5 391.5 204.5L 4 204.5Q 0 204.5 0 200.5Z" stroke="rgba(33,41,48,1)" stroke-width="1.5" fill-opacity="1" fill="#ffffff"></path><g id="SvgjsG1013"><text id="SvgjsText1014" font-family="微软雅黑" text-anchor="middle" font-size="13px" width="376px" fill="#323232" font-weight="400" align="middle" lineHeight="125%" anchor="middle" family="微软雅黑" size="13px" weight="400" font-style="" opacity="1" y="91.625" transform="rotate(0)"></text></g></g><g id="SvgjsG1015" transform="translate(151.5,73.5)"><path id="SvgjsPath1016" d="M 0 4Q 0 0 4 0L 110.75 0Q 114.75 0 114.75 4L 114.75 25.25Q 114.75 29.25 110.75 29.25L 4 29.25Q 0 29.25 0 25.25Z" stroke="rgba(33,41,48,1)" stroke-width="1.5" fill-opacity="1" fill="#ffffff"></path><g id="SvgjsG1017"><text id="SvgjsText1018" font-family="微软雅黑" text-anchor="middle" font-size="18px" width="95px" fill="#323232" font-weight="400" align="middle" lineHeight="125%" anchor="middle" family="微软雅黑" size="18px" weight="400" font-style="" opacity="1" y="-1.125" transform="rotate(0)"><tspan id="SvgjsTspan1019" dy="22" x="57.5"><tspan id="SvgjsTspan1020" style="text-decoration:;">cachingDB</tspan></tspan></text></g></g><g id="SvgjsG1021" transform="translate(84.5,104)"><path id="SvgjsPath1022" d="M 0 4Q 0 0 4 0L 216 0Q 220 0 220 4L 220 26.25Q 220 30.25 216 30.25L 4 30.25Q 0 30.25 0 26.25Z" stroke-dasharray="10,6" stroke="rgba(33,41,48,1)" stroke-width="1.5" fill-opacity="1" fill="#ffffff"></path><g id="SvgjsG1023"><text id="SvgjsText1024" font-family="微软雅黑" text-anchor="middle" font-size="18px" width="200px" fill="#323232" font-weight="400" align="middle" lineHeight="125%" anchor="middle" family="微软雅黑" size="18px" weight="400" font-style="" opacity="1" y="-0.625" transform="rotate(0)"><tspan id="SvgjsTspan1025" dy="22" x="110"><tspan id="SvgjsTspan1026" style="text-decoration:;">core/state/database.go</tspan></tspan></text></g></g><g id="SvgjsG1027" transform="translate(52.625,145)"><path id="SvgjsPath1028" d="M 0 4Q 0 0 4 0L 148.375 0Q 152.375 0 152.375 4L 152.375 32.5Q 152.375 36.5 148.375 36.5L 4 36.5Q 0 36.5 0 32.5Z" stroke="rgba(255,255,255,1)" stroke-width="1.5" fill-opacity="1" fill="#a6aef3"></path><g id="SvgjsG1029"><text id="SvgjsText1030" font-family="微软雅黑" text-anchor="end" font-size="18px" width="133px" fill="#323232" font-weight="400" align="middle" lineHeight="125%" anchor="end" family="微软雅黑" size="18px" weight="400" font-style="" opacity="1" y="2.5" transform="rotate(0)"><tspan id="SvgjsTspan1031" dy="22" x="143"><tspan id="SvgjsTspan1032" style="text-decoration:;">codeSizeCache</tspan></tspan></text></g></g><g id="SvgjsG1033" transform="translate(89.125,188.24999999999997)"><path id="SvgjsPath1034" d="M 0 4Q 0 0 4 0L 111.875 0Q 115.875 0 115.875 4L 115.875 31.500000000000057Q 115.875 35.50000000000006 111.875 35.50000000000006L 4 35.50000000000006Q 0 35.50000000000006 0 31.500000000000057Z" stroke="rgba(255,255,255,1)" stroke-width="1.5" fill-opacity="1" fill="#a6aef3"></path><g id="SvgjsG1035"><text id="SvgjsText1036" font-family="微软雅黑" text-anchor="end" font-size="18px" width="96px" fill="#323232" font-weight="400" align="middle" lineHeight="125%" anchor="end" family="微软雅黑" size="18px" weight="400" font-style="" opacity="1" y="2.0000000000000284" transform="rotate(0)"><tspan id="SvgjsTspan1037" dy="22" x="106"><tspan id="SvgjsTspan1038" style="text-decoration:;">codeCache</tspan></tspan></text></g></g><g id="SvgjsG1039" transform="translate(214.75,148)"><path id="SvgjsPath1040" d="M 0 4Q 0 0 4 0L 146.75 0Q 150.75 0 150.75 4L 150.75 26.5Q 150.75 30.5 146.75 30.5L 4 30.5Q 0 30.5 0 26.5Z" stroke="rgba(255,255,255,1)" stroke-width="1.5" fill-opacity="1" fill="#ffffff"></path><g id="SvgjsG1041"><text id="SvgjsText1042" font-family="微软雅黑" text-anchor="start" font-size="17px" width="131px" fill="#323232" font-weight="400" align="middle" lineHeight="125%" anchor="start" family="微软雅黑" size="17px" weight="400" font-style="" opacity="1" y="0.625" transform="rotate(0)"><tspan id="SvgjsTspan1043" dy="21" x="10"><tspan id="SvgjsTspan1044" style="text-decoration:;">lru.New(100000)</tspan></tspan></text></g></g><g id="SvgjsG1045" transform="translate(210,185.12500000000003)"><path id="SvgjsPath1046" d="M 0 4Q 0 0 4 0L 202.5 0Q 206.5 0 206.5 4L 206.5 37.74999999999994Q 206.5 41.74999999999994 202.5 41.74999999999994L 4 41.74999999999994Q 0 41.74999999999994 0 37.74999999999994Z" stroke="rgba(255,255,255,1)" stroke-width="1.5" fill-opacity="1" fill="#ffffff"></path><g id="SvgjsG1047"><text id="SvgjsText1048" font-family="微软雅黑" text-anchor="start" font-size="17px" width="187px" fill="#323232" font-weight="400" align="middle" lineHeight="125%" anchor="start" family="微软雅黑" size="17px" weight="400" font-style="" opacity="1" y="6.249999999999972" transform="rotate(0)"><tspan id="SvgjsTspan1049" dy="21" x="10"><tspan id="SvgjsTspan1050" style="text-decoration:;">fastcache.New(100000)</tspan></tspan></text></g></g><g id="SvgjsG1051" transform="translate(89.125,233.37500000000003)"><path id="SvgjsPath1052" d="M 0 4Q 0 0 4 0L 111.875 0Q 115.875 0 115.875 4L 115.875 31.500000000000057Q 115.875 35.50000000000006 111.875 35.50000000000006L 4 35.50000000000006Q 0 35.50000000000006 0 31.500000000000057Z" stroke="rgba(255,255,255,1)" stroke-width="1.5" fill-opacity="1" fill="#a6aef3"></path><g id="SvgjsG1053"><text id="SvgjsText1054" font-family="微软雅黑" text-anchor="end" font-size="18px" width="96px" fill="#323232" font-weight="400" align="middle" lineHeight="125%" anchor="end" family="微软雅黑" size="18px" weight="400" font-style="" opacity="1" y="2.0000000000000284" transform="rotate(0)"><tspan id="SvgjsTspan1055" dy="22" x="106"><tspan id="SvgjsTspan1056" style="text-decoration:;">db</tspan></tspan></text></g></g><g id="SvgjsG1057" transform="translate(178.5,386.87500000000034)"><path id="SvgjsPath1058" d="M 0 4Q 0 0 4 0L 182 0Q 186 0 186 4L 186 222.9375000000001Q 186 226.9375000000001 182 226.9375000000001L 4 226.9375000000001Q 0 226.9375000000001 0 222.9375000000001Z" stroke="rgba(33,41,48,1)" stroke-width="1.5" fill-opacity="1" fill="#ffffff"></path><g id="SvgjsG1059"><text id="SvgjsText1060" font-family="微软雅黑" text-anchor="middle" font-size="14px" width="166px" fill="#323232" font-weight="400" align="middle" lineHeight="125%" anchor="middle" family="微软雅黑" size="14px" weight="400" font-style="" opacity="1" y="101.71875000000006" transform="rotate(0)"></text></g></g><g id="SvgjsG1061" transform="translate(220.5,358.62500000000034)"><path id="SvgjsPath1062" d="M 0 4Q 0 0 4 0L 98 0Q 102 0 102 4L 102 24.25Q 102 28.25 98 28.25L 4 28.25Q 0 28.25 0 24.25Z" stroke="rgba(33,41,48,1)" stroke-width="1.5" fill-opacity="1" fill="#ffffff"></path><g id="SvgjsG1063"><text id="SvgjsText1064" font-family="微软雅黑" text-anchor="middle" font-size="14px" width="82px" fill="#323232" font-weight="400" align="middle" lineHeight="125%" anchor="middle" family="微软雅黑" size="14px" weight="400" font-style="" opacity="1" y="2.375" transform="rotate(0)"><tspan id="SvgjsTspan1065" dy="17" x="51"><tspan id="SvgjsTspan1066" style="text-decoration:;">Database</tspan></tspan></text></g></g><g id="SvgjsG1067" transform="translate(201.5,387.12500000000034)"><path id="SvgjsPath1068" d="M 0 4Q 0 0 4 0L 127 0Q 131 0 131 4L 131 17.5Q 131 21.5 127 21.5L 4 21.5Q 0 21.5 0 17.5Z" stroke-dasharray="10,6" stroke="rgba(33,41,48,1)" stroke-width="1.5" fill-opacity="1" fill="#ffffff"></path><g id="SvgjsG1069"><text id="SvgjsText1070" font-family="微软雅黑" text-anchor="middle" font-size="14px" width="111px" fill="#323232" font-weight="400" align="middle" lineHeight="125%" anchor="middle" family="微软雅黑" size="14px" weight="400" font-style="" opacity="1" y="-1" transform="rotate(0)"><tspan id="SvgjsTspan1071" dy="17" x="65.5"><tspan id="SvgjsTspan1072" style="text-decoration:;">trie/database.go</tspan></tspan></text></g></g><g id="SvgjsG1073" transform="translate(202.125,423.62500000000034)"><path id="SvgjsPath1074" d="M 0 4Q 0 0 4 0L 58.75 0Q 62.75 0 62.75 4L 62.75 16.875Q 62.75 20.875 58.75 20.875L 4 20.875Q 0 20.875 0 16.875Z" stroke="rgba(255,255,255,1)" stroke-width="1.5" fill-opacity="1" fill="#a6aef3"></path><g id="SvgjsG1075"><text id="SvgjsText1076" font-family="微软雅黑" text-anchor="end" font-size="14px" width="43px" fill="#323232" font-weight="400" align="middle" lineHeight="125%" anchor="end" family="微软雅黑" size="14px" weight="400" font-style="" opacity="1" y="-1.3125" transform="rotate(0)"><tspan id="SvgjsTspan1077" dy="17" x="53"><tspan id="SvgjsTspan1078" style="text-decoration:;">diskdb</tspan></tspan></text></g></g><g id="SvgjsG1079" transform="translate(201.921875,453.12500000000034)"><path id="SvgjsPath1080" d="M 0 4Q 0 0 4 0L 59.15625 0Q 63.15625 0 63.15625 4L 63.15625 14.875000000000028Q 63.15625 18.87500000000003 59.15625 18.87500000000003L 4 18.87500000000003Q 0 18.87500000000003 0 14.875000000000028Z" stroke="rgba(38,38,38,1)" stroke-width="1.5" fill-opacity="1" fill="#ffffff"></path><g id="SvgjsG1081"><text id="SvgjsText1082" font-family="微软雅黑" text-anchor="end" font-size="14px" width="44px" fill="#262626" font-weight="400" align="middle" lineHeight="125%" anchor="end" family="微软雅黑" size="14px" weight="400" font-style="" opacity="1" y="-2.312499999999986" transform="rotate(0)"><tspan id="SvgjsTspan1083" dy="17" x="54"><tspan id="SvgjsTspan1084" style="text-decoration:;">cleans</tspan></tspan></text></g></g><g id="SvgjsG1085" transform="translate(202.125,529.1250000000003)"><path id="SvgjsPath1086" d="M 0 4Q 0 0 4 0L 58.75 0Q 62.75 0 62.75 4L 62.75 17.5Q 62.75 21.5 58.75 21.5L 4 21.5Q 0 21.5 0 17.5Z" stroke="rgba(255,255,255,1)" stroke-width="1.5" fill-opacity="1" fill="#a6aef3"></path><g id="SvgjsG1087"><text id="SvgjsText1088" font-family="微软雅黑" text-anchor="end" font-size="14px" width="43px" fill="#323232" font-weight="400" align="middle" lineHeight="125%" anchor="end" family="微软雅黑" size="14px" weight="400" font-style="" opacity="1" y="-1" transform="rotate(0)"><tspan id="SvgjsTspan1089" dy="17" x="53"><tspan id="SvgjsTspan1090" style="text-decoration:;">dirties</tspan></tspan></text></g></g><g id="SvgjsG1091" transform="translate(188.25,488.78125000000034)"><path id="SvgjsPath1092" d="M 0 4Q 0 0 4 0L 86.5 0Q 90.5 0 90.5 4L 90.5 19.125000000000114Q 90.5 23.125000000000114 86.5 23.125000000000114L 4 23.125000000000114Q 0 23.125000000000114 0 19.125000000000114Z" stroke="rgba(38,38,38,1)" stroke-width="1.5" fill-opacity="1" fill="#ffffff"></path><g id="SvgjsG1093"><text id="SvgjsText1094" font-family="微软雅黑" text-anchor="end" font-size="14px" width="71px" fill="#323232" font-weight="400" align="middle" lineHeight="125%" anchor="end" family="微软雅黑" size="14px" weight="400" font-style="" opacity="1" y="-0.18749999999994316" transform="rotate(0)"><tspan id="SvgjsTspan1095" dy="17" x="81"><tspan id="SvgjsTspan1096" style="text-decoration:;">preimages</tspan></tspan></text></g></g><g id="SvgjsG1097" transform="translate(454.21875,98.5)"><path id="SvgjsPath1098" d="M 0 4Q 0 0 4 0L 54.875 0Q 58.875 0 58.875 4L 58.875 24Q 58.875 28 54.875 28L 4 28Q 0 28 0 24Z" stroke="rgba(255,255,255,1)" stroke-width="1.5" fill-opacity="1" fill="#a6aef3"></path><g id="SvgjsG1099"><text id="SvgjsText1100" font-family="微软雅黑" text-anchor="end" font-size="18px" width="39px" fill="#323232" font-weight="400" align="middle" lineHeight="125%" anchor="end" family="微软雅黑" size="18px" weight="400" font-style="" opacity="1" y="-1.75" transform="rotate(0)"></text></g></g><g id="SvgjsG1101" transform="translate(517.75,96.5)"><path id="SvgjsPath1102" d="M 0 0L 70 0L 70 32L 0 32Z" stroke="none" fill="none"></path><g id="SvgjsG1103"><text id="SvgjsText1104" font-family="微软雅黑" text-anchor="middle" font-size="13px" width="70px" fill="#323232" font-weight="400" align="middle" lineHeight="125%" anchor="middle" family="微软雅黑" size="13px" weight="400" font-style="" opacity="1" y="5.375" transform="rotate(0)"><tspan id="SvgjsTspan1105" dy="16" x="35"><tspan id="SvgjsTspan1106" style="text-decoration:;">非空字段</tspan></tspan></text></g></g><g id="SvgjsG1107" transform="translate(457.53125,139)"><path id="SvgjsPath1108" d="M 0 4Q 0 0 4 0L 51.5625 0Q 55.5625 0 55.5625 4L 55.5625 21Q 55.5625 25 51.5625 25L 4 25Q 0 25 0 21Z" stroke="rgba(38,38,38,1)" stroke-width="1.5" fill-opacity="1" fill="#ffffff"></path><g id="SvgjsG1109"><text id="SvgjsText1110" font-family="微软雅黑" text-anchor="end" font-size="14px" width="36px" fill="#262626" font-weight="400" align="middle" lineHeight="125%" anchor="end" family="微软雅黑" size="14px" weight="400" font-style="" opacity="1" y="0.75" transform="rotate(0)"></text></g></g><g id="SvgjsG1111" transform="translate(521.75,132)"><path id="SvgjsPath1112" d="M 0 0L 70 0L 70 32L 0 32Z" stroke="none" fill="none"></path><g id="SvgjsG1113"><text id="SvgjsText1114" font-family="微软雅黑" text-anchor="middle" font-size="13px" width="70px" fill="#323232" font-weight="400" align="middle" lineHeight="125%" anchor="middle" family="微软雅黑" size="13px" weight="400" font-style="" opacity="1" y="5.375" transform="rotate(0)"><tspan id="SvgjsTspan1115" dy="16" x="35"><tspan id="SvgjsTspan1116" style="text-decoration:;">nil字段</tspan></tspan></text></g></g><g id="SvgjsG1117"><path id="SvgjsPath1118" d="M278.75 529.1250000000003L458.5 497.7812500000002" stroke-dasharray="8,5" stroke="#7f7f7f" stroke-width="1.5" fill="none" marker-end="url(#SvgjsMarker1119)"></path></g><g id="SvgjsG1121"><path id="SvgjsPath1122" d="M272.5 550.6250000000003L458.5 620.7812500000002" stroke-dasharray="8,5" stroke="#7f7f7f" stroke-width="1.5" fill="none" marker-end="url(#SvgjsMarker1123)"></path></g><g id="SvgjsG1125" transform="translate(371.625,518.7812500000003)"><path id="SvgjsPath1126" d="M 0 0L 102.6875 0L 102.6875 30L 0 30Z" stroke="none" fill="none"></path><g id="SvgjsG1127"><text id="SvgjsText1128" font-family="微软雅黑" text-anchor="start" font-size="14px" width="103px" fill="#323232" font-weight="400" align="middle" lineHeight="125%" anchor="start" family="微软雅黑" size="14px" weight="400" font-style="" opacity="1" y="3.25" transform="rotate(0)"><tspan id="SvgjsTspan1129" dy="17" x="0"><tspan id="SvgjsTspan1130" style="text-decoration:;">common.Hash{}</tspan></tspan></text></g></g><g id="SvgjsG1131" transform="translate(513.65625,509.03125000000034)"><path id="SvgjsPath1132" d="M 0 4Q 0 0 4 0L 288 0Q 292 0 292 4L 292 72.75Q 292 76.75 288 76.75L 4 76.75Q 0 76.75 0 72.75Z" stroke="rgba(33,41,48,1)" stroke-width="1.5" fill-opacity="1" fill="#ffffff"></path><g id="SvgjsG1133"><text id="SvgjsText1134" font-family="微软雅黑" text-anchor="middle" font-size="13px" width="272px" fill="#323232" font-weight="400" align="middle" lineHeight="125%" anchor="middle" family="微软雅黑" size="13px" weight="400" font-style="" opacity="1" y="27.75" transform="rotate(0)"></text></g></g><g id="SvgjsG1135" transform="translate(589.65625,481.78125000000034)"><path id="SvgjsPath1136" d="M 0 4Q 0 0 4 0L 105 0Q 109 0 109 4L 109 23.125000000000114Q 109 27.125000000000114 105 27.125000000000114L 4 27.125000000000114Q 0 27.125000000000114 0 23.125000000000114Z" stroke="rgba(33,41,48,1)" stroke-width="1.5" fill-opacity="1" fill="#ffffff"></path><g id="SvgjsG1137"><text id="SvgjsText1138" font-family="微软雅黑" text-anchor="middle" font-size="13px" width="89px" fill="#323232" font-weight="400" align="middle" lineHeight="125%" anchor="middle" family="微软雅黑" size="13px" weight="400" font-style="" opacity="1" y="2.937500000000057" transform="rotate(0)"><tspan id="SvgjsTspan1139" dy="16" x="54.5"><tspan id="SvgjsTspan1140" style="text-decoration:;">cachedNode</tspan></tspan></text></g></g><g id="SvgjsG1141" transform="translate(582.65625,509.28125000000034)"><path id="SvgjsPath1142" d="M 0 4Q 0 0 4 0L 119 0Q 123 0 123 4L 123 20.5Q 123 24.5 119 24.5L 4 24.5Q 0 24.5 0 20.5Z" stroke-dasharray="10,6" stroke="rgba(33,41,48,1)" stroke-width="1.5" fill-opacity="1" fill="#ffffff"></path><g id="SvgjsG1143"><text id="SvgjsText1144" font-family="微软雅黑" text-anchor="start" font-size="13px" width="103px" fill="#323232" font-weight="400" align="middle" lineHeight="125%" anchor="start" family="微软雅黑" size="13px" weight="400" font-style="" opacity="1" y="1.625" transform="rotate(0)"><tspan id="SvgjsTspan1145" dy="16" x="10"><tspan id="SvgjsTspan1146" style="text-decoration:;">trie/database.go</tspan></tspan></text></g></g><g id="SvgjsG1147" transform="translate(517.65625,543.7812500000003)"><path id="SvgjsPath1148" d="M 0 4Q 0 0 4 0L 72 0Q 76 0 76 4L 76 25.5Q 76 29.5 72 29.5L 4 29.5Q 0 29.5 0 25.5Z" stroke="rgba(255,255,255,1)" stroke-width="1.5" fill-opacity="1" fill="#a6aef3"></path><g id="SvgjsG1149"><text id="SvgjsText1150" font-family="微软雅黑" text-anchor="end" font-size="13px" width="56px" fill="#323232" font-weight="400" align="middle" lineHeight="125%" anchor="end" family="微软雅黑" size="13px" weight="400" font-style="" opacity="1" y="4.125" transform="rotate(0)"><tspan id="SvgjsTspan1151" dy="16" x="66"><tspan id="SvgjsTspan1152" style="text-decoration:;">children</tspan></tspan></text></g></g><g id="SvgjsG1153" transform="translate(600.65625,545.6250000000003)"><path id="SvgjsPath1154" d="M 0 0L 201 0L 201 25.8125L 0 25.8125Z" stroke="none" fill="none"></path><g id="SvgjsG1155"><text id="SvgjsText1156" font-family="微软雅黑" text-anchor="middle" font-size="13px" width="201px" fill="#323232" font-weight="400" align="middle" lineHeight="125%" anchor="middle" family="微软雅黑" size="13px" weight="400" font-style="" opacity="1" y="2.28125" transform="rotate(0)"><tspan id="SvgjsTspan1157" dy="16" x="100.5"><tspan id="SvgjsTspan1158" style="text-decoration:;fill: rgb(50, 50, 50);">make(map[common.Hash]uint16)</tspan></tspan></text></g></g><g id="SvgjsG1159"><path id="SvgjsPath1160" d="M475.0604253869361 533.7255040084275L511.86996860702993 530.9819355696626" stroke="#323232" stroke-width="1.5" fill="none" marker-end="url(#SvgjsMarker1161)"></path></g><g id="SvgjsG1163" transform="translate(383.5,326.0000000000001)"><path id="SvgjsPath1164" d="M 0 4Q 0 0 4 0L 381.375 0Q 385.375 0 385.375 4L 385.375 142.00000000000023Q 385.375 146.00000000000023 381.375 146.00000000000023L 4 146.00000000000023Q 0 146.00000000000023 0 142.00000000000023Z" stroke="rgba(33,41,48,1)" stroke-width="1.5" fill-opacity="1" fill="#ffffff"></path><g id="SvgjsG1165"><text id="SvgjsText1166" font-family="微软雅黑" text-anchor="middle" font-size="14px" width="366px" fill="#323232" font-weight="400" align="middle" lineHeight="125%" anchor="middle" family="微软雅黑" size="14px" weight="400" font-style="" opacity="1" y="61.250000000000114" transform="rotate(0)"></text></g></g><g id="SvgjsG1167" transform="translate(503.75,285.7500000000001)"><path id="SvgjsPath1168" d="M 0 4Q 0 0 4 0L 116 0Q 120 0 120 4L 120 28.25Q 120 32.25 116 32.25L 4 32.25Q 0 32.25 0 28.25Z" stroke="rgba(33,41,48,1)" stroke-width="1.5" fill-opacity="1" fill="#ffffff"></path><g id="SvgjsG1169"><text id="SvgjsText1170" font-family="微软雅黑" text-anchor="middle" font-size="14px" width="100px" fill="#323232" font-weight="400" align="middle" lineHeight="125%" anchor="middle" family="微软雅黑" size="14px" weight="400" font-style="" opacity="1" y="4.375" transform="rotate(0)"><tspan id="SvgjsTspan1171" dy="17" x="60"><tspan id="SvgjsTspan1172" style="text-decoration:;">nofreezedb</tspan></tspan></text></g></g><g id="SvgjsG1173" transform="translate(444.75,319.2500000000001)"><path id="SvgjsPath1174" d="M 0 4Q 0 0 4 0L 215.75 0Q 219.75 0 219.75 4L 219.75 23.5Q 219.75 27.5 215.75 27.5L 4 27.5Q 0 27.5 0 23.5Z" stroke-dasharray="10,6" stroke="rgba(33,41,48,1)" stroke-width="1.5" fill-opacity="1" fill="#ffffff"></path><g id="SvgjsG1175"><text id="SvgjsText1176" font-family="微软雅黑" text-anchor="middle" font-size="14px" width="200px" fill="#323232" font-weight="400" align="middle" lineHeight="125%" anchor="middle" family="微软雅黑" size="14px" weight="400" font-style="" opacity="1" y="2" transform="rotate(0)"><tspan id="SvgjsTspan1177" dy="17" x="110"><tspan id="SvgjsTspan1178" style="text-decoration:;">core/rawdb/database.go</tspan></tspan></text></g></g><g id="SvgjsG1179" transform="translate(392.25,403.7499999999999)"><path id="SvgjsPath1180" d="M 0 4Q 0 0 4 0L 148.625 0Q 152.625 0 152.625 4L 152.625 30.250000000000455Q 152.625 34.250000000000455 148.625 34.250000000000455L 4 34.250000000000455Q 0 34.250000000000455 0 30.250000000000455Z" stroke="rgba(255,255,255,1)" stroke-width="1.5" fill-opacity="1" fill="#a6aef3"></path><g id="SvgjsG1181"><text id="SvgjsText1182" font-family="微软雅黑" text-anchor="end" font-size="14px" width="133px" fill="#323232" font-weight="400" align="middle" lineHeight="125%" anchor="end" family="微软雅黑" size="14px" weight="400" font-style="" opacity="1" y="5.375000000000227" transform="rotate(0)"><tspan id="SvgjsTspan1183" dy="17" x="143"><tspan id="SvgjsTspan1184" style="text-decoration:;">KeyValueStore(内嵌)</tspan></tspan></text></g></g><g id="SvgjsG1185" transform="translate(555.625,389.750000000001)"><path id="SvgjsPath1186" d="M 0 4Q 0 0 4 0L 204.0625 0Q 208.0625 0 208.0625 4L 208.0625 68.24999999999932Q 208.0625 72.24999999999932 204.0625 72.24999999999932L 4 72.24999999999932Q 0 72.24999999999932 0 68.24999999999932Z" stroke="rgba(33,41,48,1)" stroke-width="1.5" fill-opacity="1" fill="#ffffff"></path><g id="SvgjsG1187"><text id="SvgjsText1188" font-family="微软雅黑" text-anchor="middle" font-size="14px" width="189px" fill="#323232" font-weight="400" align="middle" lineHeight="125%" anchor="middle" family="微软雅黑" size="14px" weight="400" font-style="" opacity="1" y="24.37499999999966" transform="rotate(0)"></text></g></g><g id="SvgjsG1189" transform="translate(597.625,358.5000000000001)"><path id="SvgjsPath1190" d="M 0 4Q 0 0 4 0L 116 0Q 120 0 120 4L 120 28.25Q 120 32.25 116 32.25L 4 32.25Q 0 32.25 0 28.25Z" stroke="rgba(33,41,48,1)" stroke-width="1.5" fill-opacity="1" fill="#ffffff"></path><g id="SvgjsG1191"><text id="SvgjsText1192" font-family="微软雅黑" text-anchor="middle" font-size="14px" width="100px" fill="#323232" font-weight="400" align="middle" lineHeight="125%" anchor="middle" family="微软雅黑" size="14px" weight="400" font-style="" opacity="1" y="4.375" transform="rotate(0)"><tspan id="SvgjsTspan1193" dy="17" x="60"><tspan id="SvgjsTspan1194" style="text-decoration:;">Database</tspan></tspan></text></g></g><g id="SvgjsG1195" transform="translate(559.625,390.00000000000034)"><path id="SvgjsPath1196" d="M 0 4Q 0 0 4 0L 196.0625 0Q 200.0625 0 200.0625 4L 200.0625 25Q 200.0625 29 196.0625 29L 4 29Q 0 29 0 25Z" stroke-dasharray="10,6" stroke="rgba(33,41,48,1)" stroke-width="1.5" fill-opacity="1" fill="#ffffff"></path><g id="SvgjsG1197"><text id="SvgjsText1198" font-family="微软雅黑" text-anchor="start" font-size="12px" width="181px" fill="#323232" font-weight="400" align="middle" lineHeight="125%" anchor="start" family="微软雅黑" size="12px" weight="400" font-style="" opacity="1" y="4.5" transform="rotate(0)"><tspan id="SvgjsTspan1199" dy="15" x="10"><tspan id="SvgjsTspan1200" style="text-decoration:;">ethdb/memorydb/memorydb.go</tspan></tspan></text></g></g><g id="SvgjsG1201" transform="translate(559.625,429.3750000000008)"><path id="SvgjsPath1202" d="M 0 4Q 0 0 4 0L 34 0Q 38 0 38 4L 38 20.250000000000455Q 38 24.250000000000455 34 24.250000000000455L 4 24.250000000000455Q 0 24.250000000000455 0 20.250000000000455Z" stroke="rgba(255,255,255,1)" stroke-width="1.5" fill-opacity="1" fill="#a6aef3"></path><g id="SvgjsG1203"><text id="SvgjsText1204" font-family="微软雅黑" text-anchor="end" font-size="14px" width="18px" fill="#323232" font-weight="400" align="middle" lineHeight="125%" anchor="end" family="微软雅黑" size="14px" weight="400" font-style="" opacity="1" y="0.3750000000002274" transform="rotate(0)"><tspan id="SvgjsTspan1205" dy="17" x="28"><tspan id="SvgjsTspan1206" style="text-decoration:;">db</tspan></tspan></text></g></g><g id="SvgjsG1207" transform="translate(606.75,431.500000000001)"><path id="SvgjsPath1208" d="M 0 0L 152.9375 0L 152.9375 20L 0 20Z" stroke="none" fill="none"></path><g id="SvgjsG1209"><text id="SvgjsText1210" font-family="微软雅黑" text-anchor="middle" font-size="13px" width="153px" fill="#323232" font-weight="400" align="middle" lineHeight="125%" anchor="middle" family="微软雅黑" size="13px" weight="400" font-style="" opacity="1" y="-0.625" transform="rotate(0)"><tspan id="SvgjsTspan1211" dy="16" x="76.5"><tspan id="SvgjsTspan1212" style="text-decoration:;fill: rgb(50, 50, 50);">make(map[string][]byte)</tspan></tspan></text></g></g><g id="SvgjsG1213"><path id="SvgjsPath1214" d="M265.5942398738299 433.84991118587044L382.06152025234024 399.42517762826003" stroke="#323232" stroke-width="1.5" fill="none" marker-end="url(#SvgjsMarker1215)"></path></g><g id="SvgjsG1217"><path id="SvgjsPath1218" d="M205.3945616809973 251.76282527379266L270.31631495700816 356.71152417862254" stroke="#323232" stroke-width="1.5" fill="none" marker-end="url(#SvgjsMarker1219)"></path></g><g id="SvgjsG1221" transform="translate(449.40625,25)"><path id="SvgjsPath1222" d="M 0 0L 174.34375 0L 174.34375 48.5L 0 48.5Z" stroke="none" fill="none"></path><g id="SvgjsG1223"><text id="SvgjsText1224" font-family="微软雅黑" text-anchor="middle" font-size="18px" width="175px" fill="#323232" font-weight="400" align="middle" lineHeight="125%" anchor="middle" family="微软雅黑" size="18px" weight="400" font-style="" opacity="1" y="8.5" transform="rotate(0)"><tspan id="SvgjsTspan1225" dy="22" x="87.5"><tspan id="SvgjsTspan1226" style="text-decoration:;">g.Alloc.deriveHash()</tspan></tspan></text></g></g></svg>