<svg id="SvgjsSvg1803" width="714.5" height="572" xmlns="http://www.w3.org/2000/svg" version="1.1" xmlns:xlink="http://www.w3.org/1999/xlink" xmlns:svgjs="http://svgjs.com/svgjs"><defs id="SvgjsDefs1804"><pattern patternUnits="userSpaceOnUse" id="pattern_mark_0" width="300" height="300"><text x="150" y="100" fill="rgba(229,229,229,0.8)" font-size="18" transform="rotate(-45, 150, 150)" style="dominant-baseline: middle; text-anchor: middle;"></text></pattern><pattern patternUnits="userSpaceOnUse" id="pattern_mark_1" width="300" height="300"><text x="150" y="200" fill="rgba(229,229,229,0.8)" font-size="18" transform="rotate(-45, 150, 150)" style="dominant-baseline: middle; text-anchor: middle;"></text></pattern><marker id="SvgjsMarker1926" markerWidth="16" markerHeight="16" refX="13" refY="8" viewBox="0 0 16 16" orient="auto" markerUnits="userSpaceOnUse" stroke-dasharray="0,0"><circle id="SvgjsCircle1927" r="4" cx="8" cy="8" fill="#323232" stroke="#323232" stroke-width="1.5"></circle></marker></defs><rect id="svgbackgroundid" width="714.5" height="572" fill="transparent"></rect><rect id="SvgjsRect1806" width="714.5" height="572" fill="url(#pattern_mark_0)"></rect><rect id="SvgjsRect1807" width="714.5" height="572" fill="url(#pattern_mark_1)"></rect><g id="SvgjsG1808" transform="translate(41,30.625)"><path id="SvgjsPath1809" d="M 0 4Q 0 0 4 0L 250 0Q 254 0 254 4L 254 439Q 254 443 250 443L 4 443Q 0 443 0 439Z" stroke="rgba(33,41,48,1)" stroke-width="1.5" fill-opacity="1" fill="#ffffff"></path><g id="SvgjsG1810"><text id="SvgjsText1811" font-family="微软雅黑" text-anchor="middle" font-size="13px" width="234px" fill="#323232" font-weight="400" align="middle" lineHeight="125%" anchor="middle" family="微软雅黑" size="13px" weight="400" font-style="" opacity="1" y="210.875" transform="rotate(0)"></text></g></g><g id="SvgjsG1812"><path id="SvgjsPath1813" d="M67.5 101L280.5 101" stroke="#323232" stroke-width="1.5" fill="none"></path></g><g id="SvgjsG1814" transform="translate(70.5,116)"><path id="SvgjsPath1815" d="M 0 0L 78.5 0L 78.5 26L 0 26Z" stroke="none" fill="none"></path><g id="SvgjsG1816"><text id="SvgjsText1817" font-family="微软雅黑" text-anchor="middle" font-size="15px" width="79px" fill="#323232" font-weight="400" align="middle" lineHeight="125%" anchor="middle" family="微软雅黑" size="15px" weight="400" font-style="" opacity="1" y="0.625" transform="rotate(0)"><tspan id="SvgjsTspan1818" dy="18" x="39.5"><tspan id="SvgjsTspan1819" style="text-decoration:;">header</tspan></tspan></text></g></g><g id="SvgjsG1820" transform="translate(127.75,29.5)"><path id="SvgjsPath1821" d="M 0 0L 78 0L 78 27.75L 0 27.75Z" stroke="none" fill="none"></path><g id="SvgjsG1822"><text id="SvgjsText1823" font-family="微软雅黑" text-anchor="middle" font-size="18px" width="78px" fill="#323232" font-weight="400" align="middle" lineHeight="125%" anchor="middle" family="微软雅黑" size="18px" weight="400" font-style="" opacity="1" y="-1.875" transform="rotate(0)"><tspan id="SvgjsTspan1824" dy="22" x="39"><tspan id="SvgjsTspan1825" style="text-decoration:;">Block</tspan></tspan></text></g></g><g id="SvgjsG1826" transform="translate(70.5,60.75)"><path id="SvgjsPath1827" d="M 0 4Q 0 0 4 0L 191 0Q 195 0 195 4L 195 22Q 195 26 191 26L 4 26Q 0 26 0 22Z" stroke-dasharray="10,6" stroke="rgba(33,41,48,1)" stroke-width="1.5" fill-opacity="1" fill="#ffffff"></path><g id="SvgjsG1828"><text id="SvgjsText1829" font-family="微软雅黑" text-anchor="middle" font-size="18px" width="175px" fill="#323232" font-weight="400" align="middle" lineHeight="125%" anchor="middle" family="微软雅黑" size="18px" weight="400" font-style="" opacity="1" y="-2.75" transform="rotate(0)"><tspan id="SvgjsTspan1830" dy="22" x="97.5"><tspan id="SvgjsTspan1831" style="text-decoration:;">core/types/block.go</tspan></tspan></text></g></g><g id="SvgjsG1832" transform="translate(395.5,25)"><path id="SvgjsPath1833" d="M 0 4Q 0 0 4 0L 290 0Q 294 0 294 4L 294 518Q 294 522 290 522L 4 522Q 0 522 0 518Z" stroke="rgba(33,41,48,1)" stroke-width="1.5" fill-opacity="1" fill="#ffffff"></path><g id="SvgjsG1834"><text id="SvgjsText1835" font-family="微软雅黑" text-anchor="middle" font-size="13px" width="274px" fill="#323232" font-weight="400" align="middle" lineHeight="125%" anchor="middle" family="微软雅黑" size="13px" weight="400" font-style="" opacity="1" y="250.375" transform="rotate(0)"></text></g></g><g id="SvgjsG1836"><path id="SvgjsPath1837" d="M421.5 97L634.5 97" stroke="#323232" stroke-width="1.5" fill="none"></path></g><g id="SvgjsG1838" transform="translate(424.5,109.25)"><path id="SvgjsPath1839" d="M 0 0L 78.5 0L 78.5 26L 0 26Z" stroke="none" fill="none"></path><g id="SvgjsG1840"><text id="SvgjsText1841" font-family="微软雅黑" text-anchor="middle" font-size="15px" width="79px" fill="#323232" font-weight="400" align="middle" lineHeight="125%" anchor="middle" family="微软雅黑" size="15px" weight="400" font-style="" opacity="1" y="0.625" transform="rotate(0)"><tspan id="SvgjsTspan1842" dy="18" x="39.5"><tspan id="SvgjsTspan1843" style="text-decoration:;">Numbe: 0</tspan></tspan></text></g></g><g id="SvgjsG1844" transform="translate(416.75,142)"><path id="SvgjsPath1845" d="M 0 0L 233.5 0L 233.5 24.5L 0 24.5Z" stroke="none" fill="none"></path><g id="SvgjsG1846"><text id="SvgjsText1847" font-family="微软雅黑" text-anchor="middle" font-size="15px" width="234px" fill="#323232" font-weight="400" align="middle" lineHeight="125%" anchor="middle" family="微软雅黑" size="15px" weight="400" font-style="" opacity="1" y="-0.125" transform="rotate(0)"><tspan id="SvgjsTspan1848" dy="18" x="117"><tspan id="SvgjsTspan1849" style="text-decoration:;">Nonce: 0x0000000000000042</tspan></tspan></text></g></g><g id="SvgjsG1850" transform="translate(419.75,345)"><path id="SvgjsPath1851" d="M 0 0L 116 0L 116 27L 0 27Z" stroke="none" fill="none"></path><g id="SvgjsG1852"><text id="SvgjsText1853" font-family="微软雅黑" text-anchor="middle" font-size="15px" width="116px" fill="#323232" font-weight="400" align="middle" lineHeight="125%" anchor="middle" family="微软雅黑" size="15px" weight="400" font-style="" opacity="1" y="1.125" transform="rotate(0)"><tspan id="SvgjsTspan1854" dy="18" x="58"><tspan id="SvgjsTspan1855" style="text-decoration:;">MixDigest: 空</tspan></tspan></text></g></g><g id="SvgjsG1856" transform="translate(422.5,166.5)"><path id="SvgjsPath1857" d="M 0 0L 82.5 0L 82.5 22.5L 0 22.5Z" stroke="none" fill="none"></path><g id="SvgjsG1858"><text id="SvgjsText1859" font-family="微软雅黑" text-anchor="middle" font-size="15px" width="83px" fill="#323232" font-weight="400" align="middle" lineHeight="125%" anchor="middle" family="微软雅黑" size="15px" weight="400" font-style="" opacity="1" y="-1.125" transform="rotate(0)"><tspan id="SvgjsTspan1860" dy="18" x="41.5"><tspan id="SvgjsTspan1861" style="text-decoration:;">Time: 0x00</tspan></tspan></text></g></g><g id="SvgjsG1862" transform="translate(423,191.25)"><path id="SvgjsPath1863" d="M 0 0L 110.5 0L 110.5 24L 0 24Z" stroke="none" fill="none"></path><g id="SvgjsG1864"><text id="SvgjsText1865" font-family="微软雅黑" text-anchor="middle" font-size="15px" width="111px" fill="#323232" font-weight="400" align="middle" lineHeight="125%" anchor="middle" family="微软雅黑" size="15px" weight="400" font-style="" opacity="1" y="-0.375" transform="rotate(0)"><tspan id="SvgjsTspan1866" dy="18" x="55.5"><tspan id="SvgjsTspan1867" style="text-decoration:;">ParentHash: 空</tspan></tspan></text></g></g><g id="SvgjsG1868" transform="translate(422.5,217.5)"><path id="SvgjsPath1869" d="M 0 0L 61.5 0L 61.5 20L 0 20Z" stroke="none" fill="none"></path><g id="SvgjsG1870"><text id="SvgjsText1871" font-family="微软雅黑" text-anchor="middle" font-size="15px" width="62px" fill="#323232" font-weight="400" align="middle" lineHeight="125%" anchor="middle" family="微软雅黑" size="15px" weight="400" font-style="" opacity="1" y="-2.375" transform="rotate(0)"><tspan id="SvgjsTspan1872" dy="18" x="31"><tspan id="SvgjsTspan1873" style="text-decoration:;">Extra: ""</tspan></tspan></text></g></g><g id="SvgjsG1874" transform="translate(419.75,241.375)"><path id="SvgjsPath1875" d="M 0 0L 140 0L 140 21.5L 0 21.5Z" stroke="none" fill="none"></path><g id="SvgjsG1876"><text id="SvgjsText1877" font-family="微软雅黑" text-anchor="middle" font-size="15px" width="140px" fill="#323232" font-weight="400" align="middle" lineHeight="125%" anchor="middle" family="微软雅黑" size="15px" weight="400" font-style="" opacity="1" y="-1.625" transform="rotate(0)"><tspan id="SvgjsTspan1878" dy="18" x="70"><tspan id="SvgjsTspan1879" style="text-decoration:;">GasLimit: 0x2fefd8</tspan></tspan></text></g></g><g id="SvgjsG1880" transform="translate(418.75,262.75)"><path id="SvgjsPath1881" d="M 0 0L 90 0L 90 24.5L 0 24.5Z" stroke="none" fill="none"></path><g id="SvgjsG1882"><text id="SvgjsText1883" font-family="微软雅黑" text-anchor="middle" font-size="15px" width="90px" fill="#323232" font-weight="400" align="middle" lineHeight="125%" anchor="middle" family="微软雅黑" size="15px" weight="400" font-style="" opacity="1" y="-0.125" transform="rotate(0)"><tspan id="SvgjsTspan1884" dy="18" x="45"><tspan id="SvgjsTspan1885" style="text-decoration:;">GasUsed: 0</tspan></tspan></text></g></g><g id="SvgjsG1886" transform="translate(419.75,289.6875)"><path id="SvgjsPath1887" d="M 0 0L 90 0L 90 24.5L 0 24.5Z" stroke="none" fill="none"></path><g id="SvgjsG1888"><text id="SvgjsText1889" font-family="微软雅黑" text-anchor="middle" font-size="15px" width="90px" fill="#323232" font-weight="400" align="middle" lineHeight="125%" anchor="middle" family="微软雅黑" size="15px" weight="400" font-style="" opacity="1" y="-0.125" transform="rotate(0)"><tspan id="SvgjsTspan1890" dy="18" x="45"><tspan id="SvgjsTspan1891" style="text-decoration:;">BaseFee: 0</tspan></tspan></text></g></g><g id="SvgjsG1892" transform="translate(418.75,312.5)"><path id="SvgjsPath1893" d="M 0 0L 166.5 0L 166.5 27.5L 0 27.5Z" stroke="none" fill="none"></path><g id="SvgjsG1894"><text id="SvgjsText1895" font-family="微软雅黑" text-anchor="middle" font-size="15px" width="167px" fill="#323232" font-weight="400" align="middle" lineHeight="125%" anchor="middle" family="微软雅黑" size="15px" weight="400" font-style="" opacity="1" y="1.375" transform="rotate(0)"><tspan id="SvgjsTspan1896" dy="18" x="83.5"><tspan id="SvgjsTspan1897" style="text-decoration:;">Difficulty: 0x0200000</tspan></tspan></text></g></g><g id="SvgjsG1898" transform="translate(424.5,377)"><path id="SvgjsPath1899" d="M 0 0L 236 0L 236 46.75L 0 46.75Z" stroke="none" fill="none"></path><g id="SvgjsG1900"><text id="SvgjsText1901" font-family="微软雅黑" text-anchor="middle" font-size="15px" width="236px" fill="#323232" font-weight="400" align="middle" lineHeight="125%" anchor="middle" family="微软雅黑" size="15px" weight="400" font-style="" opacity="1" y="1.5" transform="rotate(0)"><tspan id="SvgjsTspan1902" dy="18" x="118"><tspan id="SvgjsTspan1903" style="text-decoration:;">Coinbase: 0x0000000000000000</tspan></tspan><tspan id="SvgjsTspan1904" dy="18" x="118"><tspan id="SvgjsTspan1905" style="text-decoration:;">000000000000000000000000</tspan></tspan></text></g></g><g id="SvgjsG1906" transform="translate(419.75,429.75)"><path id="SvgjsPath1907" d="M 0 0L 135.25 0L 135.25 24.75L 0 24.75Z" stroke="none" fill="none"></path><g id="SvgjsG1908"><text id="SvgjsText1909" font-family="微软雅黑" text-anchor="middle" font-size="15px" width="136px" fill="#323232" font-weight="400" align="middle" lineHeight="125%" anchor="middle" family="微软雅黑" size="15px" weight="400" font-style="" opacity="1" y="0" transform="rotate(0)"><tspan id="SvgjsTspan1910" dy="18" x="68"><tspan id="SvgjsTspan1911" style="text-decoration:;">Root:  空trie树hash</tspan></tspan></text></g></g><g id="SvgjsG1912" transform="translate(481.75,25.5)"><path id="SvgjsPath1913" d="M 0 0L 78 0L 78 27.75L 0 27.75Z" stroke="none" fill="none"></path><g id="SvgjsG1914"><text id="SvgjsText1915" font-family="微软雅黑" text-anchor="middle" font-size="18px" width="78px" fill="#323232" font-weight="400" align="middle" lineHeight="125%" anchor="middle" family="微软雅黑" size="18px" weight="400" font-style="" opacity="1" y="-1.875" transform="rotate(0)"><tspan id="SvgjsTspan1916" dy="22" x="39"><tspan id="SvgjsTspan1917" style="text-decoration:;">Header</tspan></tspan></text></g></g><g id="SvgjsG1918" transform="translate(424.5,56.75)"><path id="SvgjsPath1919" d="M 0 4Q 0 0 4 0L 191 0Q 195 0 195 4L 195 22Q 195 26 191 26L 4 26Q 0 26 0 22Z" stroke-dasharray="10,6" stroke="rgba(33,41,48,1)" stroke-width="1.5" fill-opacity="1" fill="#ffffff"></path><g id="SvgjsG1920"><text id="SvgjsText1921" font-family="微软雅黑" text-anchor="middle" font-size="18px" width="175px" fill="#323232" font-weight="400" align="middle" lineHeight="125%" anchor="middle" family="微软雅黑" size="18px" weight="400" font-style="" opacity="1" y="-2.75" transform="rotate(0)"><tspan id="SvgjsTspan1922" dy="22" x="97.5"><tspan id="SvgjsTspan1923" style="text-decoration:;">core/types/block.go</tspan></tspan></text></g></g><g id="SvgjsG1924"><path id="SvgjsPath1925" d="M149.74826343001337 128.94899177218747L394.00347313997315 112.29840471747627" stroke="#323232" stroke-width="1.5" fill="none" marker-end="url(#SvgjsMarker1926)"></path></g><g id="SvgjsG1928" transform="translate(407.5,454.125)"><path id="SvgjsPath1929" d="M 0 0L 189 0L 189 35L 0 35Z" stroke="none" fill="none"></path><g id="SvgjsG1930"><text id="SvgjsText1931" font-family="微软雅黑" text-anchor="middle" font-size="15px" width="189px" fill="#323232" font-weight="400" align="middle" lineHeight="125%" anchor="middle" family="微软雅黑" size="15px" weight="400" font-style="" opacity="1" y="5.125" transform="rotate(0)"><tspan id="SvgjsTspan1932" dy="18" x="94.5"><tspan id="SvgjsTspan1933" style="text-decoration:;">TxHash: EmptyRootHash</tspan></tspan></text></g></g><g id="SvgjsG1934" transform="translate(412.5,486.5625)"><path id="SvgjsPath1935" d="M 0 0L 219 0L 219 21.5L 0 21.5Z" stroke="none" fill="none"></path><g id="SvgjsG1936"><text id="SvgjsText1937" font-family="微软雅黑" text-anchor="middle" font-size="15px" width="219px" fill="#323232" font-weight="400" align="middle" lineHeight="125%" anchor="middle" family="微软雅黑" size="15px" weight="400" font-style="" opacity="1" y="-1.625" transform="rotate(0)"><tspan id="SvgjsTspan1938" dy="18" x="109.5"><tspan id="SvgjsTspan1939" style="text-decoration:;">ReceiptHash: EmptyRootHash</tspan></tspan></text></g></g><g id="SvgjsG1940" transform="translate(410,509.5)"><path id="SvgjsPath1941" d="M 0 0L 209.5 0L 209.5 26.5L 0 26.5Z" stroke="none" fill="none"></path><g id="SvgjsG1942"><text id="SvgjsText1943" font-family="微软雅黑" text-anchor="middle" font-size="15px" width="210px" fill="#323232" font-weight="400" align="middle" lineHeight="125%" anchor="middle" family="微软雅黑" size="15px" weight="400" font-style="" opacity="1" y="0.875" transform="rotate(0)"><tspan id="SvgjsTspan1944" dy="18" x="105"><tspan id="SvgjsTspan1945" style="text-decoration:;">UncleHash: EmptyUncleHash</tspan></tspan></text></g></g><g id="SvgjsG1946" transform="translate(70.5,161)"><path id="SvgjsPath1947" d="M 0 0L 213.5 0L 213.5 41.5L 0 41.5Z" stroke="none" fill="none"></path><g id="SvgjsG1948"><text id="SvgjsText1949" font-family="微软雅黑" text-anchor="middle" font-size="15px" width="214px" fill="#323232" font-weight="400" align="middle" lineHeight="125%" anchor="middle" family="微软雅黑" size="15px" weight="400" font-style="" opacity="1" y="8.375" transform="rotate(0)"><tspan id="SvgjsTspan1950" dy="18" x="107"><tspan id="SvgjsTspan1951" style="text-decoration:;">hash: Keccake( RLP(header) )</tspan></tspan></text></g></g><g id="SvgjsG1952" transform="translate(116.25,228.25)"><path id="SvgjsPath1953" d="M 0 0L 103.5 0L 103.5 27.25L 0 27.25Z" stroke="none" fill="none"></path><g id="SvgjsG1954"><text id="SvgjsText1955" font-family="微软雅黑" text-anchor="middle" font-size="15px" width="104px" fill="#323232" font-weight="400" align="middle" lineHeight="125%" anchor="middle" family="微软雅黑" size="15px" weight="400" font-style="" opacity="1" y="1.25" transform="rotate(0)"><tspan id="SvgjsTspan1956" dy="18" x="52"><tspan id="SvgjsTspan1957" style="text-decoration:;">transactions</tspan></tspan></text></g></g><g id="SvgjsG1958" transform="translate(121.75,262.75)"><path id="SvgjsPath1959" d="M 0 0L 58.5 0L 58.5 32.25L 0 32.25Z" stroke="none" fill="none"></path><g id="SvgjsG1960"><text id="SvgjsText1961" font-family="微软雅黑" text-anchor="middle" font-size="15px" width="59px" fill="#323232" font-weight="400" align="middle" lineHeight="125%" anchor="middle" family="微软雅黑" size="15px" weight="400" font-style="" opacity="1" y="3.75" transform="rotate(0)"><tspan id="SvgjsTspan1962" dy="18" x="29.5"><tspan id="SvgjsTspan1963" style="text-decoration:;">uncles</tspan></tspan></text></g></g><g id="SvgjsG1964" transform="translate(25,228.25)"><path id="SvgjsPath1965" d="M 83 0Q 74.7 0 74.7 5.9L 74.7 23.6Q 74.7 29.5 61 29.5Q 74.7 29.5 74.7 35.4L 74.7 53.1Q 74.7 59 83 59" stroke="rgba(33,41,48,1)" stroke-width="1.5" fill="none"></path><path id="SvgjsPath1966" d="M 0 0L 83 0L 83 59L 0 59Z" stroke="none" fill="none"></path><g id="SvgjsG1967"><text id="SvgjsText1968" font-family="微软雅黑" text-anchor="end" font-size="15px" width="56px" fill="#323232" font-weight="400" align="middle" lineHeight="125%" anchor="end" family="微软雅黑" size="15px" weight="400" font-style="" opacity="1" y="17.125" transform="rotate(0)"><tspan id="SvgjsTspan1969" dy="18" x="56"><tspan id="SvgjsTspan1970" style="text-decoration:;">body</tspan></tspan></text></g></g></svg>