<svg id="SvgjsSvg1006" width="1123" height="1821.4368622448978" xmlns="http://www.w3.org/2000/svg" version="1.1" xmlns:xlink="http://www.w3.org/1999/xlink" xmlns:svgjs="http://svgjs.com/svgjs"><defs id="SvgjsDefs1007"><pattern patternUnits="userSpaceOnUse" id="pattern_mark_0" width="300" height="300"><text x="150" y="100" fill="rgba(229,229,229,0.8)" font-size="18" transform="rotate(-45, 150, 150)" style="dominant-baseline: middle; text-anchor: middle;"></text></pattern><pattern patternUnits="userSpaceOnUse" id="pattern_mark_1" width="300" height="300"><text x="150" y="200" fill="rgba(229,229,229,0.8)" font-size="18" transform="rotate(-45, 150, 150)" style="dominant-baseline: middle; text-anchor: middle;"></text></pattern><marker id="SvgjsMarker1160" markerWidth="16" markerHeight="16" refX="13" refY="8" viewBox="0 0 16 16" orient="auto" markerUnits="userSpaceOnUse" stroke-dasharray="0,0"><circle id="SvgjsCircle1161" r="4" cx="8" cy="8" fill="#323232" stroke="#323232" stroke-width="1.5"></circle></marker><marker id="SvgjsMarker1242" markerWidth="16" markerHeight="16" refX="13" refY="8" viewBox="0 0 16 16" orient="auto" markerUnits="userSpaceOnUse" stroke-dasharray="0,0"><circle id="SvgjsCircle1243" r="4" cx="8" cy="8" fill="#323232" stroke="#323232" stroke-width="1.5"></circle></marker><marker id="SvgjsMarker1380" markerWidth="16" markerHeight="16" refX="13" refY="8" viewBox="0 0 16 16" orient="auto" markerUnits="userSpaceOnUse" stroke-dasharray="0,0"><circle id="SvgjsCircle1381" r="4" cx="8" cy="8" fill="#323232" stroke="#323232" stroke-width="1.5"></circle></marker></defs><rect id="svgbackgroundid" width="1123" height="1821.4368622448978" fill="transparent"></rect><rect id="SvgjsRect1009" width="1123" height="1821.4368622448978" fill="url(#pattern_mark_0)"></rect><rect id="SvgjsRect1010" width="1123" height="1821.4368622448978" fill="url(#pattern_mark_1)"></rect><g id="SvgjsG1011" transform="translate(191.48469387755057,121.82589285714175)"><path id="SvgjsPath1012" d="M 0 4Q 0 0 4 0L 260.6173469387762 0Q 264.6173469387762 0 264.6173469387762 4L 264.6173469387762 488.4948979591841Q 264.6173469387762 492.4948979591841 260.6173469387762 492.4948979591841L 4 492.4948979591841Q 0 492.4948979591841 0 488.4948979591841Z" stroke="rgba(33,41,48,1)" stroke-width="1.5" fill-opacity="1" fill="#ffffff"></path><g id="SvgjsG1013"><text id="SvgjsText1014" font-family="微软雅黑" text-anchor="middle" font-size="13px" width="245px" fill="#323232" font-weight="400" align="middle" lineHeight="125%" anchor="middle" family="微软雅黑" size="13px" weight="400" font-style="" opacity="1" y="235.62244897959204" transform="rotate(0)"></text></g></g><g id="SvgjsG1015" transform="translate(250.07653061224454,93.91390306122412)"><path id="SvgjsPath1016" d="M 0 4Q 0 0 4 0L 151.92346938775546 0Q 155.92346938775546 0 155.92346938775546 4L 155.92346938775546 25.183673469387827Q 155.92346938775546 29.183673469387827 151.92346938775546 29.183673469387827L 4 29.183673469387827Q 0 29.183673469387827 0 25.183673469387827Z" stroke="rgba(33,41,48,1)" stroke-width="1.5" fill-opacity="1" fill="#ffffff"></path><g id="SvgjsG1017"><text id="SvgjsText1018" font-family="微软雅黑" text-anchor="middle" font-size="15px" width="136px" fill="#323232" font-weight="400" align="middle" lineHeight="125%" anchor="middle" family="微软雅黑" size="15px" weight="400" font-style="" opacity="1" y="2.2168367346939135" transform="rotate(0)"><tspan id="SvgjsTspan1019" dy="18.75" x="78"><tspan id="SvgjsTspan1020" style="">TransactionArgs</tspan></tspan></text></g></g><g id="SvgjsG1021" transform="translate(227.83163265306092,123.09757653061206)"><path id="SvgjsPath1022" d="M 0 4Q 0 0 4 0L 188.96428571428612 0Q 192.96428571428612 0 192.96428571428612 4L 192.96428571428612 39.43367346938794Q 192.96428571428612 43.43367346938794 188.96428571428612 43.43367346938794L 4 43.43367346938794Q 0 43.43367346938794 0 39.43367346938794Z" stroke-dasharray="10,6,3,6" stroke="rgba(33,41,48,1)" stroke-width="1.5" fill-opacity="1" fill="#ffffff"></path><g id="SvgjsG1023"><text id="SvgjsText1024" font-family="微软雅黑" text-anchor="middle" font-size="15px" width="173px" fill="#323232" font-weight="400" align="middle" lineHeight="125%" anchor="middle" family="微软雅黑" size="15px" weight="400" font-style="" opacity="1" y="-0.15816326530602964" transform="rotate(0)"><tspan id="SvgjsTspan1025" dy="18.75" x="96.5"><tspan id="SvgjsTspan1026" style="">internal/ethapi/transacti</tspan></tspan><tspan id="SvgjsTspan1027" dy="18.75" x="96.5"><tspan id="SvgjsTspan1028" style="">on_args.go</tspan></tspan></text></g></g><g id="SvgjsG1029" transform="translate(208.35204081632625,223.0542091836739)"><path id="SvgjsPath1030" d="M 0 0L 231.92346938775546 0L 231.92346938775546 308.75L 0 308.75Z" stroke="none" fill="none"></path><g id="SvgjsG1031"><text id="SvgjsText1032" font-family="微软雅黑" text-anchor="start" font-size="16px" width="232px" fill="#323232" font-weight="400" align="middle" lineHeight="125%" anchor="start" family="微软雅黑" size="16px" weight="400" font-style="" opacity="1" y="-29.625" transform="rotate(0)"><tspan id="SvgjsTspan1033" dy="20" x="0"><tspan id="SvgjsTspan1034" style="">From: 0x1f, 0xa0,</tspan></tspan><tspan id="SvgjsTspan1035" dy="20" x="0"><tspan id="SvgjsTspan1036" style="">To: 0x18, 0x6f,</tspan></tspan><tspan id="SvgjsTspan1037" dy="20" x="0"><tspan id="SvgjsTspan1038" style="">Gas: *50000,</tspan></tspan><tspan id="SvgjsTspan1039" dy="20" x="0"><tspan id="SvgjsTspan1040" style="">GasPrice: 1</tspan><tspan id="SvgjsTspan1041" style="fill: rgb(231, 79, 76); ">,</tspan></tspan><tspan id="SvgjsTspan1042" dy="20" x="0"><tspan id="SvgjsTspan1043" style=""> </tspan></tspan><tspan id="SvgjsTspan1044" dy="20" x="0"><tspan id="SvgjsTspan1045" style="">maxFeePerGas: nil,</tspan></tspan><tspan id="SvgjsTspan1046" dy="20" x="0"><tspan id="SvgjsTspan1047" style="">maxPriorityFeePerGas: nil,</tspan></tspan><tspan id="SvgjsTspan1048" dy="20" x="0"><tspan id="SvgjsTspan1049" style="">value: nil,</tspan></tspan><tspan id="SvgjsTspan1050" dy="20" x="0"><tspan id="SvgjsTspan1051" style="fill: rgb(231, 79, 76);">空盒子,</tspan></tspan><tspan id="SvgjsTspan1052" dy="20" x="0"><tspan id="SvgjsTspan1053" style=""> </tspan></tspan><tspan id="SvgjsTspan1054" dy="20" x="0"><tspan id="SvgjsTspan1055" style="">Nonce: nil,</tspan></tspan><tspan id="SvgjsTspan1056" dy="20" x="0"><tspan id="SvgjsTspan1057" style="fill: rgb(231, 79, 76);">取from的nonce, 不+1的,</tspan></tspan><tspan id="SvgjsTspan1058" dy="20" x="0"><tspan id="SvgjsTspan1059" style=""> </tspan></tspan><tspan id="SvgjsTspan1060" dy="20" x="0"><tspan id="SvgjsTspan1061" style="">Data: 0x6057361d00000...03,</tspan></tspan><tspan id="SvgjsTspan1062" dy="20" x="0"><tspan id="SvgjsTspan1063" style="">Input: nil,</tspan></tspan><tspan id="SvgjsTspan1064" dy="20" x="0"><tspan id="SvgjsTspan1065" style="">AccessList: nil,</tspan></tspan><tspan id="SvgjsTspan1066" dy="20" x="0"><tspan id="SvgjsTspan1067" style="">ChainId: nil,</tspan></tspan><tspan id="SvgjsTspan1068" dy="20" x="0"><tspan id="SvgjsTspan1069" style="fill: rgb(231, 79, 76);">10,</tspan></tspan></text></g></g><g id="SvgjsG1070" transform="translate(529.4846938775506,129.03635204081593)"><path id="SvgjsPath1071" d="M 0 4Q 0 0 4 0L 260.6173469387762 0Q 264.6173469387762 0 264.6173469387762 4L 264.6173469387762 344.4948979591841Q 264.6173469387762 348.4948979591841 260.6173469387762 348.4948979591841L 4 348.4948979591841Q 0 348.4948979591841 0 344.4948979591841Z" stroke="rgba(33,41,48,1)" stroke-width="1.5" fill-opacity="1" fill="#ffffff"></path><g id="SvgjsG1072"><text id="SvgjsText1073" font-family="微软雅黑" text-anchor="middle" font-size="13px" width="245px" fill="#323232" font-weight="400" align="middle" lineHeight="125%" anchor="middle" family="微软雅黑" size="13px" weight="400" font-style="" opacity="1" y="163.62244897959204" transform="rotate(0)"></text></g></g><g id="SvgjsG1074" transform="translate(588.0765306122446,99.91390306122412)"><path id="SvgjsPath1075" d="M 0 4Q 0 0 4 0L 151.92346938775546 0Q 155.92346938775546 0 155.92346938775546 4L 155.92346938775546 25.183673469387827Q 155.92346938775546 29.183673469387827 151.92346938775546 29.183673469387827L 4 29.183673469387827Q 0 29.183673469387827 0 25.183673469387827Z" stroke="rgba(33,41,48,1)" stroke-width="1.5" fill-opacity="1" fill="#ffffff"></path><g id="SvgjsG1076"><text id="SvgjsText1077" font-family="微软雅黑" text-anchor="middle" font-size="15px" width="136px" fill="#323232" font-weight="400" align="middle" lineHeight="125%" anchor="middle" family="微软雅黑" size="15px" weight="400" font-style="" opacity="1" y="2.2168367346939135" transform="rotate(0)"><tspan id="SvgjsTspan1078" dy="18.75" x="78"><tspan id="SvgjsTspan1079" style="">keystoreWallet</tspan></tspan></text></g></g><g id="SvgjsG1080" transform="translate(555.831632653061,129.09757653061206)"><path id="SvgjsPath1081" d="M 0 4Q 0 0 4 0L 213.16836734693902 0Q 217.16836734693902 0 217.16836734693902 4L 217.16836734693902 33.43367346938794Q 217.16836734693902 37.43367346938794 213.16836734693902 37.43367346938794L 4 37.43367346938794Q 0 37.43367346938794 0 33.43367346938794Z" stroke-dasharray="10,6,3,6" stroke="rgba(33,41,48,1)" stroke-width="1.5" fill-opacity="1" fill="#ffffff"></path><g id="SvgjsG1082"><text id="SvgjsText1083" font-family="微软雅黑" text-anchor="middle" font-size="15px" width="198px" fill="#323232" font-weight="400" align="middle" lineHeight="125%" anchor="middle" family="微软雅黑" size="15px" weight="400" font-style="" opacity="1" y="-3.1581632653060296" transform="rotate(0)"><tspan id="SvgjsTspan1084" dy="18.75" x="109"><tspan id="SvgjsTspan1085" style="">accounts/keystore/wallet.g</tspan></tspan><tspan id="SvgjsTspan1086" dy="18.75" x="109"><tspan id="SvgjsTspan1087" style="">o</tspan></tspan></text></g></g><g id="SvgjsG1088" transform="translate(555.831632653061,211.90625)"><path id="SvgjsPath1089" d="M 0 0L 85.16836734693902 0L 85.16836734693902 40L 0 40Z" stroke="none" fill="none"></path><g id="SvgjsG1090"><text id="SvgjsText1091" font-family="微软雅黑" text-anchor="start" font-size="16px" width="86px" fill="#323232" font-weight="400" align="middle" lineHeight="125%" anchor="start" family="微软雅黑" size="16px" weight="400" font-style="" opacity="1" y="6" transform="rotate(0)"><tspan id="SvgjsTspan1092" dy="20" x="0"><tspan id="SvgjsTspan1093" style="">account</tspan></tspan></text></g></g><g id="SvgjsG1094" transform="translate(702.4846938775506,207.1536989795918)"><path id="SvgjsPath1095" d="M 0 4Q 0 0 4 0L 307.5153061224494 0Q 311.5153061224494 0 311.5153061224494 4L 311.5153061224494 424.93367346938817Q 311.5153061224494 428.93367346938817 307.5153061224494 428.93367346938817L 4 428.93367346938817Q 0 428.93367346938817 0 424.93367346938817Z" stroke="rgba(33,41,48,1)" stroke-width="1.5" fill-opacity="1" fill="#ffffff"></path><g id="SvgjsG1096"><text id="SvgjsText1097" font-family="微软雅黑" text-anchor="middle" font-size="13px" width="292px" fill="#323232" font-weight="400" align="middle" lineHeight="125%" anchor="middle" family="微软雅黑" size="13px" weight="400" font-style="" opacity="1" y="203.84183673469408" transform="rotate(0)"></text></g></g><g id="SvgjsG1098" transform="translate(761.0765306122446,178.03125)"><path id="SvgjsPath1099" d="M 0 4Q 0 0 4 0L 151.92346938775546 0Q 155.92346938775546 0 155.92346938775546 4L 155.92346938775546 25.183673469387827Q 155.92346938775546 29.183673469387827 151.92346938775546 29.183673469387827L 4 29.183673469387827Q 0 29.183673469387827 0 25.183673469387827Z" stroke="rgba(33,41,48,1)" stroke-width="1.5" fill-opacity="1" fill="#ffffff"></path><g id="SvgjsG1100"><text id="SvgjsText1101" font-family="微软雅黑" text-anchor="middle" font-size="15px" width="136px" fill="#323232" font-weight="400" align="middle" lineHeight="125%" anchor="middle" family="微软雅黑" size="15px" weight="400" font-style="" opacity="1" y="2.2168367346939135" transform="rotate(0)"><tspan id="SvgjsTspan1102" dy="18.75" x="78"><tspan id="SvgjsTspan1103" style="">Account</tspan></tspan></text></g></g><g id="SvgjsG1104" transform="translate(728.831632653061,207.21492346938794)"><path id="SvgjsPath1105" d="M 0 4Q 0 0 4 0L 213.16836734693902 0Q 217.16836734693902 0 217.16836734693902 4L 217.16836734693902 33.43367346938794Q 217.16836734693902 37.43367346938794 213.16836734693902 37.43367346938794L 4 37.43367346938794Q 0 37.43367346938794 0 33.43367346938794Z" stroke-dasharray="10,6,3,6" stroke="rgba(33,41,48,1)" stroke-width="1.5" fill-opacity="1" fill="#ffffff"></path><g id="SvgjsG1106"><text id="SvgjsText1107" font-family="微软雅黑" text-anchor="middle" font-size="15px" width="198px" fill="#323232" font-weight="400" align="middle" lineHeight="125%" anchor="middle" family="微软雅黑" size="15px" weight="400" font-style="" opacity="1" y="6.34183673469397" transform="rotate(0)"><tspan id="SvgjsTspan1108" dy="18.75" x="109"><tspan id="SvgjsTspan1109" style="">accounts/accounts.go</tspan></tspan></text></g></g><g id="SvgjsG1110" transform="translate(728.831632653061,294.3985969387759)"><path id="SvgjsPath1111" d="M 0 0L 231.92346938775546 0L 231.92346938775546 40L 0 40Z" stroke="none" fill="none"></path><g id="SvgjsG1112"><text id="SvgjsText1113" font-family="微软雅黑" text-anchor="start" font-size="16px" width="232px" fill="#323232" font-weight="400" align="middle" lineHeight="125%" anchor="start" family="微软雅黑" size="16px" weight="400" font-style="" opacity="1" y="6" transform="rotate(0)"><tspan id="SvgjsTspan1114" dy="20" x="0"><tspan id="SvgjsTspan1115" style="">Address: 0x1f, 0xa0,</tspan></tspan></text></g></g><g id="SvgjsG1116" transform="translate(728.831632653061,346.83992346938794)"><path id="SvgjsPath1117" d="M 0 0L 48.16836734693902 0L 48.16836734693902 33.247448979592036L 0 33.247448979592036Z" stroke="none" fill="none"></path><g id="SvgjsG1118"><text id="SvgjsText1119" font-family="微软雅黑" text-anchor="start" font-size="16px" width="49px" fill="#323232" font-weight="400" align="middle" lineHeight="125%" anchor="start" family="微软雅黑" size="16px" weight="400" font-style="" opacity="1" y="2.623724489796018" transform="rotate(0)"><tspan id="SvgjsTspan1120" dy="20" x="0"><tspan id="SvgjsTspan1121" style="">URL</tspan></tspan></text></g></g><g id="SvgjsG1122" transform="translate(728.831632653061,391.9598214285718)"><path id="SvgjsPath1123" d="M 0 4Q 0 0 4 0L 260.6173469387762 0Q 264.6173469387762 0 264.6173469387762 4L 264.6173469387762 215.37244897959226Q 264.6173469387762 219.37244897959226 260.6173469387762 219.37244897959226L 4 219.37244897959226Q 0 219.37244897959226 0 215.37244897959226Z" stroke="rgba(33,41,48,1)" stroke-width="1.5" fill-opacity="1" fill="#ffffff"></path><g id="SvgjsG1124"><text id="SvgjsText1125" font-family="微软雅黑" text-anchor="middle" font-size="13px" width="245px" fill="#323232" font-weight="400" align="middle" lineHeight="125%" anchor="middle" family="微软雅黑" size="13px" weight="400" font-style="" opacity="1" y="99.06122448979613" transform="rotate(0)"></text></g></g><g id="SvgjsG1126" transform="translate(787.423469387755,362.83737244898)"><path id="SvgjsPath1127" d="M 0 4Q 0 0 4 0L 151.92346938775546 0Q 155.92346938775546 0 155.92346938775546 4L 155.92346938775546 25.183673469387827Q 155.92346938775546 29.183673469387827 151.92346938775546 29.183673469387827L 4 29.183673469387827Q 0 29.183673469387827 0 25.183673469387827Z" stroke="rgba(33,41,48,1)" stroke-width="1.5" fill-opacity="1" fill="#ffffff"></path><g id="SvgjsG1128"><text id="SvgjsText1129" font-family="微软雅黑" text-anchor="middle" font-size="15px" width="136px" fill="#323232" font-weight="400" align="middle" lineHeight="125%" anchor="middle" family="微软雅黑" size="15px" weight="400" font-style="" opacity="1" y="2.2168367346939135" transform="rotate(0)"><tspan id="SvgjsTspan1130" dy="18.75" x="78"><tspan id="SvgjsTspan1131" style="">URL</tspan></tspan></text></g></g><g id="SvgjsG1132" transform="translate(755.1785714285713,392.0210459183679)"><path id="SvgjsPath1133" d="M 0 4Q 0 0 4 0L 213.16836734693902 0Q 217.16836734693902 0 217.16836734693902 4L 217.16836734693902 33.43367346938794Q 217.16836734693902 37.43367346938794 213.16836734693902 37.43367346938794L 4 37.43367346938794Q 0 37.43367346938794 0 33.43367346938794Z" stroke-dasharray="10,6,3,6" stroke="rgba(33,41,48,1)" stroke-width="1.5" fill-opacity="1" fill="#ffffff"></path><g id="SvgjsG1134"><text id="SvgjsText1135" font-family="微软雅黑" text-anchor="middle" font-size="15px" width="198px" fill="#323232" font-weight="400" align="middle" lineHeight="125%" anchor="middle" family="微软雅黑" size="15px" weight="400" font-style="" opacity="1" y="6.34183673469397" transform="rotate(0)"><tspan id="SvgjsTspan1136" dy="18.75" x="109"><tspan id="SvgjsTspan1137" style="">accounts/url.go</tspan></tspan></text></g></g><g id="SvgjsG1138" transform="translate(748.5561224489791,467.01849489795995)"><path id="SvgjsPath1139" d="M 0 0L 230.41326530612332 0L 230.41326530612332 113.75L 0 113.75Z" stroke="none" fill="none"></path><g id="SvgjsG1140"><text id="SvgjsText1141" font-family="微软雅黑" text-anchor="start" font-size="16px" width="231px" fill="#323232" font-weight="400" align="middle" lineHeight="125%" anchor="start" family="微软雅黑" size="16px" weight="400" font-style="" opacity="1" y="-27.125" transform="rotate(0)"><tspan id="SvgjsTspan1142" dy="20" x="0"><tspan id="SvgjsTspan1143" style="">Scheme: "keystore",</tspan></tspan><tspan id="SvgjsTspan1144" dy="20" x="0"><tspan id="SvgjsTspan1145" style=""> </tspan></tspan><tspan id="SvgjsTspan1146" dy="20" x="0"><tspan id="SvgjsTspan1147" style="">Path: </tspan></tspan><tspan id="SvgjsTspan1148" dy="20" x="0"><tspan id="SvgjsTspan1149" style="">"XXX_DATA/chain_data/keyst</tspan></tspan><tspan id="SvgjsTspan1150" dy="20" x="0"><tspan id="SvgjsTspan1151" style="">ore/UTC--2023-09-14T02-</tspan></tspan><tspan id="SvgjsTspan1152" dy="20" x="0"><tspan id="SvgjsTspan1153" style="">06-08.120067000Z-</tspan></tspan><tspan id="SvgjsTspan1154" dy="20" x="0"><tspan id="SvgjsTspan1155" style="">-1fa0bb39d82a760ff8a53d1ab</tspan></tspan><tspan id="SvgjsTspan1156" dy="20" x="0"><tspan id="SvgjsTspan1157" style="">bc544041bb8b546"</tspan></tspan></text></g></g><g id="SvgjsG1158"><path id="SvgjsPath1159" d="M641.7494503357643 231.87754121697677L701.5010993284712 229.58866756604647" stroke="#323232" stroke-width="1.5" fill="none" marker-end="url(#SvgjsMarker1160)"></path></g><g id="SvgjsG1162" transform="translate(555.831632653061,278.4036989795918)"><path id="SvgjsPath1163" d="M 0 0L 85.16836734693902 0L 85.16836734693902 40L 0 40Z" stroke="none" fill="none"></path><g id="SvgjsG1164"><text id="SvgjsText1165" font-family="微软雅黑" text-anchor="start" font-size="16px" width="86px" fill="#323232" font-weight="400" align="middle" lineHeight="125%" anchor="start" family="微软雅黑" size="16px" weight="400" font-style="" opacity="1" y="6" transform="rotate(0)"><tspan id="SvgjsTspan1166" dy="20" x="0"><tspan id="SvgjsTspan1167" style="">keystore</tspan></tspan></text></g></g><g id="SvgjsG1168" transform="translate(43.795918367346985,25)"><path id="SvgjsPath1169" d="M 0 0L 371.204081632653 0L 371.204081632653 48.75L 0 48.75Z" stroke="none" fill="none"></path><g id="SvgjsG1170"><text id="SvgjsText1171" font-family="微软雅黑" text-anchor="start" font-size="17px" width="372px" fill="#323232" font-weight="400" align="middle" lineHeight="125%" anchor="start" family="微软雅黑" size="17px" weight="400" font-style="" opacity="1" y="9.75" transform="rotate(0)"><tspan id="SvgjsTspan1172" dy="21.25" x="0"><tspan id="SvgjsTspan1173" style="fill: rgb(231, 79, 76);">if err := args.setDefaults(ctx, s.b); err != nil</tspan></tspan></text></g></g><g id="SvgjsG1174"><path id="SvgjsPath1175" d="M40 708.53125L569 708.53125L569 708.53125L1098 708.53125" stroke-dasharray="8,5" stroke="#323232" stroke-width="1.5" fill="none"></path></g><g id="SvgjsG1176" transform="translate(47.795918367346985,725.7557397959181)"><path id="SvgjsPath1177" d="M 0 0L 255.3724489795921 0L 255.3724489795921 48.75L 0 48.75Z" stroke="none" fill="none"></path><g id="SvgjsG1178"><text id="SvgjsText1179" font-family="微软雅黑" text-anchor="middle" font-size="17px" width="256px" fill="#323232" font-weight="400" align="middle" lineHeight="125%" anchor="middle" family="微软雅黑" size="17px" weight="400" font-style="" opacity="1" y="9.75" transform="rotate(0)"><tspan id="SvgjsTspan1180" dy="21.25" x="128"><tspan id="SvgjsTspan1181" style="">tx := args.toTransaction()</tspan></tspan></text></g></g><g id="SvgjsG1182" transform="translate(456.48469387755057,808.6281887755099)"><path id="SvgjsPath1183" d="M 0 4Q 0 0 4 0L 260.6173469387762 0Q 264.6173469387762 0 264.6173469387762 4L 264.6173469387762 210.49489795918407Q 264.6173469387762 214.49489795918407 260.6173469387762 214.49489795918407L 4 214.49489795918407Q 0 214.49489795918407 0 210.49489795918407Z" stroke="rgba(33,41,48,1)" stroke-width="1.5" fill-opacity="1" fill="#ffffff"></path><g id="SvgjsG1184"><text id="SvgjsText1185" font-family="微软雅黑" text-anchor="middle" font-size="13px" width="245px" fill="#323232" font-weight="400" align="middle" lineHeight="125%" anchor="middle" family="微软雅黑" size="13px" weight="400" font-style="" opacity="1" y="96.62244897959204" transform="rotate(0)"></text></g></g><g id="SvgjsG1186" transform="translate(515.0765306122446,779.5057397959181)"><path id="SvgjsPath1187" d="M 0 4Q 0 0 4 0L 151.92346938775546 0Q 155.92346938775546 0 155.92346938775546 4L 155.92346938775546 25.183673469387827Q 155.92346938775546 29.183673469387827 151.92346938775546 29.183673469387827L 4 29.183673469387827Q 0 29.183673469387827 0 25.183673469387827Z" stroke="rgba(33,41,48,1)" stroke-width="1.5" fill-opacity="1" fill="#ffffff"></path><g id="SvgjsG1188"><text id="SvgjsText1189" font-family="微软雅黑" text-anchor="middle" font-size="15px" width="136px" fill="#323232" font-weight="400" align="middle" lineHeight="125%" anchor="middle" family="微软雅黑" size="15px" weight="400" font-style="" opacity="1" y="2.2168367346939135" transform="rotate(0)"><tspan id="SvgjsTspan1190" dy="18.75" x="78"><tspan id="SvgjsTspan1191" style="">LegacyTx</tspan></tspan></text></g></g><g id="SvgjsG1192" transform="translate(492.8316326530609,808.689413265306)"><path id="SvgjsPath1193" d="M 0 4Q 0 0 4 0L 188.96428571428612 0Q 192.96428571428612 0 192.96428571428612 4L 192.96428571428612 30.43367346938794Q 192.96428571428612 34.43367346938794 188.96428571428612 34.43367346938794L 4 34.43367346938794Q 0 34.43367346938794 0 30.43367346938794Z" stroke-dasharray="10,6,3,6" stroke="rgba(33,41,48,1)" stroke-width="1.5" fill-opacity="1" fill="#ffffff"></path><g id="SvgjsG1194"><text id="SvgjsText1195" font-family="微软雅黑" text-anchor="middle" font-size="15px" width="173px" fill="#323232" font-weight="400" align="middle" lineHeight="125%" anchor="middle" family="微软雅黑" size="15px" weight="400" font-style="" opacity="1" y="4.84183673469397" transform="rotate(0)"><tspan id="SvgjsTspan1196" dy="18.75" x="96.5"><tspan id="SvgjsTspan1197" style="">core/types/legacy_tx.go</tspan></tspan></text></g></g><g id="SvgjsG1198" transform="translate(473.3520408163263,869.9738520408159)"><path id="SvgjsPath1199" d="M 0 0L 231.92346938775546 0L 231.92346938775546 130L 0 130Z" stroke="none" fill="none"></path><g id="SvgjsG1200"><text id="SvgjsText1201" font-family="微软雅黑" text-anchor="start" font-size="16px" width="232px" fill="#323232" font-weight="400" align="middle" lineHeight="125%" anchor="start" family="微软雅黑" size="16px" weight="400" font-style="" opacity="1" y="1" transform="rotate(0)"><tspan id="SvgjsTspan1202" dy="20" x="0"><tspan id="SvgjsTspan1203" style="">To: 0x18, 0x6f 从args取,</tspan></tspan><tspan id="SvgjsTspan1204" dy="20" x="0"><tspan id="SvgjsTspan1205" style="">Nonce: 从args取,</tspan></tspan><tspan id="SvgjsTspan1206" dy="20" x="0"><tspan id="SvgjsTspan1207" style="">Gas: 30000, 从args取,</tspan></tspan><tspan id="SvgjsTspan1208" dy="20" x="0"><tspan id="SvgjsTspan1209" style="">GasPrice: *1 从args取,</tspan></tspan><tspan id="SvgjsTspan1210" dy="20" x="0"><tspan id="SvgjsTspan1211" style="">value: 空盒子 从args取,</tspan></tspan><tspan id="SvgjsTspan1212" dy="20" x="0"><tspan id="SvgjsTspan1213" style="">Data: 0x2e64cec1 从args取,</tspan></tspan></text></g></g><g id="SvgjsG1214" transform="translate(166.79591836734699,852.0363520408159)"><path id="SvgjsPath1215" d="M 0 4Q 0 0 4 0L 260.6173469387762 0Q 264.6173469387762 0 264.6173469387762 4L 264.6173469387762 210.49489795918407Q 264.6173469387762 214.49489795918407 260.6173469387762 214.49489795918407L 4 214.49489795918407Q 0 214.49489795918407 0 210.49489795918407Z" stroke="rgba(33,41,48,1)" stroke-width="1.5" fill-opacity="1" fill="#ffffff"></path><g id="SvgjsG1216"><text id="SvgjsText1217" font-family="微软雅黑" text-anchor="middle" font-size="13px" width="245px" fill="#323232" font-weight="400" align="middle" lineHeight="125%" anchor="middle" family="微软雅黑" size="13px" weight="400" font-style="" opacity="1" y="96.62244897959204" transform="rotate(0)"></text></g></g><g id="SvgjsG1218" transform="translate(225.38775510204096,822.9139030612241)"><path id="SvgjsPath1219" d="M 0 4Q 0 0 4 0L 151.92346938775546 0Q 155.92346938775546 0 155.92346938775546 4L 155.92346938775546 25.183673469387827Q 155.92346938775546 29.183673469387827 151.92346938775546 29.183673469387827L 4 29.183673469387827Q 0 29.183673469387827 0 25.183673469387827Z" stroke="rgba(33,41,48,1)" stroke-width="1.5" fill-opacity="1" fill="#ffffff"></path><g id="SvgjsG1220"><text id="SvgjsText1221" font-family="微软雅黑" text-anchor="middle" font-size="15px" width="136px" fill="#323232" font-weight="400" align="middle" lineHeight="125%" anchor="middle" family="微软雅黑" size="15px" weight="400" font-style="" opacity="1" y="2.2168367346939135" transform="rotate(0)"><tspan id="SvgjsTspan1222" dy="18.75" x="78"><tspan id="SvgjsTspan1223" style="">Transaction</tspan></tspan></text></g></g><g id="SvgjsG1224" transform="translate(203.14285714285734,852.0975765306121)"><path id="SvgjsPath1225" d="M 0 4Q 0 0 4 0L 188.96428571428612 0Q 192.96428571428612 0 192.96428571428612 4L 192.96428571428612 30.43367346938794Q 192.96428571428612 34.43367346938794 188.96428571428612 34.43367346938794L 4 34.43367346938794Q 0 34.43367346938794 0 30.43367346938794Z" stroke-dasharray="10,6,3,6" stroke="rgba(33,41,48,1)" stroke-width="1.5" fill-opacity="1" fill="#ffffff"></path><g id="SvgjsG1226"><text id="SvgjsText1227" font-family="微软雅黑" text-anchor="middle" font-size="15px" width="173px" fill="#323232" font-weight="400" align="middle" lineHeight="125%" anchor="middle" family="微软雅黑" size="15px" weight="400" font-style="" opacity="1" y="-4.65816326530603" transform="rotate(0)"><tspan id="SvgjsTspan1228" dy="18.75" x="96.5"><tspan id="SvgjsTspan1229" style="">core/types/transaction.</tspan></tspan><tspan id="SvgjsTspan1230" dy="18.75" x="96.5"><tspan id="SvgjsTspan1231" style="">go</tspan></tspan></text></g></g><g id="SvgjsG1232" transform="translate(221.18112244898003,920.2308673469391)"><path id="SvgjsPath1233" d="M 0 0L 164.3367346938773 0L 164.3367346938773 48.75L 0 48.75Z" stroke="none" fill="none"></path><g id="SvgjsG1234"><text id="SvgjsText1235" font-family="微软雅黑" text-anchor="start" font-size="16px" width="165px" fill="#323232" font-weight="400" align="middle" lineHeight="125%" anchor="start" family="微软雅黑" size="16px" weight="400" font-style="" opacity="1" y="0.375" transform="rotate(0)"><tspan id="SvgjsTspan1236" dy="20" x="0"><tspan id="SvgjsTspan1237" style="">inner</tspan></tspan><tspan id="SvgjsTspan1238" dy="20" x="0"><tspan id="SvgjsTspan1239" style="">time: time.Now(),</tspan></tspan></text></g></g><g id="SvgjsG1240"><path id="SvgjsPath1241" d="M304.0979998284502 920.1836155617921L455.50297993493683 910.6257535702941" stroke="#323232" stroke-width="1.5" fill="none" marker-end="url(#SvgjsMarker1242)"></path></g><g id="SvgjsG1244" transform="translate(299.9489795918369,625.6664540816322)"><path id="SvgjsPath1245" d="M 15.737295918367183 0L 31.951479591836403 0L 31.951479591836403 122.15561224489821L 47.688775510203584 122.15561224489821L 23.844387755101792 146L 0 122.15561224489821L 15.737295918367183 122.15561224489821L 15.737295918367183 0Z" stroke="rgba(33,41,48,1)" stroke-width="1.5" fill-opacity="1" fill="#ffffff"></path><g id="SvgjsG1246"><text id="SvgjsText1247" font-family="微软雅黑" text-anchor="middle" font-size="13px" width="67px" fill="#323232" font-weight="400" align="middle" lineHeight="125%" anchor="middle" family="微软雅黑" size="13px" weight="400" font-style="" opacity="1" y="55.075" transform="rotate(0)"></text></g></g><g id="SvgjsG1248" transform="translate(339.795918367347,648.46237244898)"><path id="SvgjsPath1249" d="M 0 0L 196.20408163265301 0L 196.20408163265301 46.06887755102002L 0 46.06887755102002Z" stroke="none" fill="none"></path><g id="SvgjsG1250"><text id="SvgjsText1251" font-family="微软雅黑" text-anchor="middle" font-size="17px" width="197px" fill="#323232" font-weight="400" align="middle" lineHeight="125%" anchor="middle" family="微软雅黑" size="17px" weight="400" font-style="" opacity="1" y="8.409438775510012" transform="rotate(0)"><tspan id="SvgjsTspan1252" dy="21.25" x="98.5"><tspan id="SvgjsTspan1253" style="">args转成Transaction</tspan></tspan></text></g></g><g id="SvgjsG1254"><path id="SvgjsPath1255" d="M35 1128.53125L564 1128.53125L564 1128.53125L1093 1128.53125" stroke-dasharray="8,5" stroke="#323232" stroke-width="1.5" fill="none"></path></g><g id="SvgjsG1256" transform="translate(30.551020408163367,1155.4368622448978)"><path id="SvgjsPath1257" d="M 0 0L 586.4846938775506 0L 586.4846938775506 40L 0 40Z" stroke="none" fill="none"></path><g id="SvgjsG1258"><text id="SvgjsText1259" font-family="微软雅黑" text-anchor="middle" font-size="17px" width="587px" fill="#323232" font-weight="400" align="middle" lineHeight="125%" anchor="middle" family="微软雅黑" size="17px" weight="400" font-style="" opacity="1" y="5.375" transform="rotate(0)"><tspan id="SvgjsTspan1260" dy="21.25" x="293.5"><tspan id="SvgjsTspan1261" style="">signed, err := wallet.SignTx(account, tx, s.b.ChainConfig().ChainID)</tspan></tspan></text></g></g><g id="SvgjsG1262" transform="translate(705.2755102040817,1193.369260204082)"><path id="SvgjsPath1263" d="M 0 4Q 0 0 4 0L 260.6173469387762 0Q 264.6173469387762 0 264.6173469387762 4L 264.6173469387762 280.1619897959181Q 264.6173469387762 284.1619897959181 260.6173469387762 284.1619897959181L 4 284.1619897959181Q 0 284.1619897959181 0 280.1619897959181Z" stroke="rgba(33,41,48,1)" stroke-width="1.5" fill-opacity="1" fill="#ffffff"></path><g id="SvgjsG1264"><text id="SvgjsText1265" font-family="微软雅黑" text-anchor="middle" font-size="13px" width="245px" fill="#323232" font-weight="400" align="middle" lineHeight="125%" anchor="middle" family="微软雅黑" size="13px" weight="400" font-style="" opacity="1" y="131.45599489795904" transform="rotate(0)"></text></g></g><g id="SvgjsG1266" transform="translate(763.8673469387758,1164.24681122449)"><path id="SvgjsPath1267" d="M 0 4Q 0 0 4 0L 151.92346938775546 0Q 155.92346938775546 0 155.92346938775546 4L 155.92346938775546 25.183673469387827Q 155.92346938775546 29.183673469387827 151.92346938775546 29.183673469387827L 4 29.183673469387827Q 0 29.183673469387827 0 25.183673469387827Z" stroke="rgba(33,41,48,1)" stroke-width="1.5" fill-opacity="1" fill="#ffffff"></path><g id="SvgjsG1268"><text id="SvgjsText1269" font-family="微软雅黑" text-anchor="middle" font-size="15px" width="136px" fill="#323232" font-weight="400" align="middle" lineHeight="125%" anchor="middle" family="微软雅黑" size="15px" weight="400" font-style="" opacity="1" y="2.2168367346939135" transform="rotate(0)"><tspan id="SvgjsTspan1270" dy="18.75" x="78"><tspan id="SvgjsTspan1271" style="">londonSigner</tspan></tspan></text></g></g><g id="SvgjsG1272" transform="translate(741.6224489795921,1193.430484693878)"><path id="SvgjsPath1273" d="M 0 4Q 0 0 4 0L 188.96428571428612 0Q 192.96428571428612 0 192.96428571428612 4L 192.96428571428612 48.10076530612196Q 192.96428571428612 52.10076530612196 188.96428571428612 52.10076530612196L 4 52.10076530612196Q 0 52.10076530612196 0 48.10076530612196Z" stroke-dasharray="10,6,3,6" stroke="rgba(33,41,48,1)" stroke-width="1.5" fill-opacity="1" fill="#ffffff"></path><g id="SvgjsG1274"><text id="SvgjsText1275" font-family="微软雅黑" text-anchor="middle" font-size="15px" width="173px" fill="#323232" font-weight="400" align="middle" lineHeight="125%" anchor="middle" family="微软雅黑" size="15px" weight="400" font-style="" opacity="1" y="4.1753826530609786" transform="rotate(0)"><tspan id="SvgjsTspan1276" dy="18.75" x="96.5"><tspan id="SvgjsTspan1277" style="">core/types/transaction_</tspan></tspan><tspan id="SvgjsTspan1278" dy="18.75" x="96.5"><tspan id="SvgjsTspan1279" style="">signing.go</tspan></tspan></text></g></g><g id="SvgjsG1280" transform="translate(759.6607142857148,1265.9387755102052)"><path id="SvgjsPath1281" d="M 0 0L 164.3367346938773 0L 164.3367346938773 40L 0 40Z" stroke="none" fill="none"></path><g id="SvgjsG1282"><text id="SvgjsText1283" font-family="微软雅黑" text-anchor="start" font-size="16px" width="165px" fill="#323232" font-weight="400" align="middle" lineHeight="125%" anchor="start" family="微软雅黑" size="16px" weight="400" font-style="" opacity="1" y="6" transform="rotate(0)"><tspan id="SvgjsTspan1284" dy="20" x="0"><tspan id="SvgjsTspan1285" style="">eip2930Signer内嵌</tspan></tspan></text></g></g><g id="SvgjsG1286" transform="translate(728.604591836735,1326.369260204082)"><path id="SvgjsPath1287" d="M 0 4Q 0 0 4 0L 215 0Q 219 0 219 4L 219 130.1619897959181Q 219 134.1619897959181 215 134.1619897959181L 4 134.1619897959181Q 0 134.1619897959181 0 130.1619897959181Z" stroke="rgba(33,41,48,1)" stroke-width="1.5" fill-opacity="1" fill="#ffffff"></path><g id="SvgjsG1288"><text id="SvgjsText1289" font-family="微软雅黑" text-anchor="middle" font-size="13px" width="199px" fill="#323232" font-weight="400" align="middle" lineHeight="125%" anchor="middle" family="微软雅黑" size="13px" weight="400" font-style="" opacity="1" y="56.455994897959044" transform="rotate(0)"></text></g></g><g id="SvgjsG1290" transform="translate(766.6096938775523,1297.24681122449)"><path id="SvgjsPath1291" d="M 0 4Q 0 0 4 0L 151.92346938775546 0Q 155.92346938775546 0 155.92346938775546 4L 155.92346938775546 25.183673469387827Q 155.92346938775546 29.183673469387827 151.92346938775546 29.183673469387827L 4 29.183673469387827Q 0 29.183673469387827 0 25.183673469387827Z" stroke="rgba(33,41,48,1)" stroke-width="1.5" fill-opacity="1" fill="#ffffff"></path><g id="SvgjsG1292"><text id="SvgjsText1293" font-family="微软雅黑" text-anchor="middle" font-size="15px" width="136px" fill="#323232" font-weight="400" align="middle" lineHeight="125%" anchor="middle" family="微软雅黑" size="15px" weight="400" font-style="" opacity="1" y="2.2168367346939135" transform="rotate(0)"><tspan id="SvgjsTspan1294" dy="18.75" x="78"><tspan id="SvgjsTspan1295" style="">EIP155Signer</tspan></tspan></text></g></g><g id="SvgjsG1296" transform="translate(744.3647959183687,1326.430484693878)"><path id="SvgjsPath1297" d="M 0 4Q 0 0 4 0L 188.96428571428612 0Q 192.96428571428612 0 192.96428571428612 4L 192.96428571428612 48.10076530612196Q 192.96428571428612 52.10076530612196 188.96428571428612 52.10076530612196L 4 52.10076530612196Q 0 52.10076530612196 0 48.10076530612196Z" stroke-dasharray="10,6,3,6" stroke="rgba(33,41,48,1)" stroke-width="1.5" fill-opacity="1" fill="#ffffff"></path><g id="SvgjsG1298"><text id="SvgjsText1299" font-family="微软雅黑" text-anchor="middle" font-size="15px" width="173px" fill="#323232" font-weight="400" align="middle" lineHeight="125%" anchor="middle" family="微软雅黑" size="15px" weight="400" font-style="" opacity="1" y="4.1753826530609786" transform="rotate(0)"><tspan id="SvgjsTspan1300" dy="18.75" x="96.5"><tspan id="SvgjsTspan1301" style="">core/types/transaction_</tspan></tspan><tspan id="SvgjsTspan1302" dy="18.75" x="96.5"><tspan id="SvgjsTspan1303" style="">signing.go</tspan></tspan></text></g></g><g id="SvgjsG1304" transform="translate(758.678571428573,1387.241709183674)"><path id="SvgjsPath1305" d="M 0 0L 164.3367346938773 0L 164.3367346938773 48.75L 0 48.75Z" stroke="none" fill="none"></path><g id="SvgjsG1306"><text id="SvgjsText1307" font-family="微软雅黑" text-anchor="start" font-size="16px" width="165px" fill="#323232" font-weight="400" align="middle" lineHeight="125%" anchor="start" family="微软雅黑" size="16px" weight="400" font-style="" opacity="1" y="0.375" transform="rotate(0)"><tspan id="SvgjsTspan1308" dy="20" x="0"><tspan id="SvgjsTspan1309" style="">chainId: 10,</tspan></tspan><tspan id="SvgjsTspan1310" dy="20" x="0"><tspan id="SvgjsTspan1311" style="">chainIdMul: 10 * 2,</tspan></tspan></text></g></g><g id="SvgjsG1312" transform="translate(360.6403061224488,1333.369260204082)"><path id="SvgjsPath1313" d="M 0 4Q 0 0 4 0L 260.6173469387762 0Q 264.6173469387762 0 264.6173469387762 4L 264.6173469387762 210.49489795918407Q 264.6173469387762 214.49489795918407 260.6173469387762 214.49489795918407L 4 214.49489795918407Q 0 214.49489795918407 0 210.49489795918407Z" stroke="rgba(33,41,48,1)" stroke-width="1.5" fill-opacity="1" fill="#ffffff"></path><g id="SvgjsG1314"><text id="SvgjsText1315" font-family="微软雅黑" text-anchor="middle" font-size="13px" width="245px" fill="#323232" font-weight="400" align="middle" lineHeight="125%" anchor="middle" family="微软雅黑" size="13px" weight="400" font-style="" opacity="1" y="96.62244897959204" transform="rotate(0)"></text></g></g><g id="SvgjsG1316" transform="translate(419.23214285714283,1304.24681122449)"><path id="SvgjsPath1317" d="M 0 4Q 0 0 4 0L 151.92346938775546 0Q 155.92346938775546 0 155.92346938775546 4L 155.92346938775546 25.183673469387827Q 155.92346938775546 29.183673469387827 151.92346938775546 29.183673469387827L 4 29.183673469387827Q 0 29.183673469387827 0 25.183673469387827Z" stroke="rgba(33,41,48,1)" stroke-width="1.5" fill-opacity="1" fill="#ffffff"></path><g id="SvgjsG1318"><text id="SvgjsText1319" font-family="微软雅黑" text-anchor="middle" font-size="15px" width="136px" fill="#323232" font-weight="400" align="middle" lineHeight="125%" anchor="middle" family="微软雅黑" size="15px" weight="400" font-style="" opacity="1" y="2.2168367346939135" transform="rotate(0)"><tspan id="SvgjsTspan1320" dy="18.75" x="78"><tspan id="SvgjsTspan1321" style="">LegacyTx</tspan></tspan></text></g></g><g id="SvgjsG1322" transform="translate(396.98724489795916,1333.430484693878)"><path id="SvgjsPath1323" d="M 0 4Q 0 0 4 0L 188.96428571428612 0Q 192.96428571428612 0 192.96428571428612 4L 192.96428571428612 30.43367346938794Q 192.96428571428612 34.43367346938794 188.96428571428612 34.43367346938794L 4 34.43367346938794Q 0 34.43367346938794 0 30.43367346938794Z" stroke-dasharray="10,6,3,6" stroke="rgba(33,41,48,1)" stroke-width="1.5" fill-opacity="1" fill="#ffffff"></path><g id="SvgjsG1324"><text id="SvgjsText1325" font-family="微软雅黑" text-anchor="middle" font-size="15px" width="173px" fill="#323232" font-weight="400" align="middle" lineHeight="125%" anchor="middle" family="微软雅黑" size="15px" weight="400" font-style="" opacity="1" y="4.84183673469397" transform="rotate(0)"><tspan id="SvgjsTspan1326" dy="18.75" x="96.5"><tspan id="SvgjsTspan1327" style="">core/types/legacy_tx.go</tspan></tspan></text></g></g><g id="SvgjsG1328" transform="translate(377.50765306122446,1378.464923469388)"><path id="SvgjsPath1329" d="M 0 0L 231.92346938775546 0L 231.92346938775546 162.5L 0 162.5Z" stroke="none" fill="none"></path><g id="SvgjsG1330"><text id="SvgjsText1331" font-family="微软雅黑" text-anchor="start" font-size="16px" width="232px" fill="#323232" font-weight="400" align="middle" lineHeight="125%" anchor="start" family="微软雅黑" size="16px" weight="400" font-style="" opacity="1" y="7.25" transform="rotate(0)"><tspan id="SvgjsTspan1332" dy="20" x="0"><tspan id="SvgjsTspan1333" style="">To: 0x18, 0x6f 从args取,</tspan></tspan><tspan id="SvgjsTspan1334" dy="20" x="0"><tspan id="SvgjsTspan1335" style="">Nonce: 从args取,</tspan></tspan><tspan id="SvgjsTspan1336" dy="20" x="0"><tspan id="SvgjsTspan1337" style="">Gas: 50000, 从args取,</tspan></tspan><tspan id="SvgjsTspan1338" dy="20" x="0"><tspan id="SvgjsTspan1339" style="">GasPrice: *1 从args取,</tspan></tspan><tspan id="SvgjsTspan1340" dy="20" x="0"><tspan id="SvgjsTspan1341" style="">value: 空盒子 从args取,</tspan></tspan><tspan id="SvgjsTspan1342" dy="20" x="0"><tspan id="SvgjsTspan1343" style="">Data: 0x2e64cec1 从args取,</tspan></tspan><tspan id="SvgjsTspan1344" dy="20" x="0"><tspan id="SvgjsTspan1345" style="">R, S, V: 分别填充</tspan></tspan></text></g></g><g id="SvgjsG1346" transform="translate(70.95153061224522,1376.777423469388)"><path id="SvgjsPath1347" d="M 0 4Q 0 0 4 0L 260.6173469387762 0Q 264.6173469387762 0 264.6173469387762 4L 264.6173469387762 210.49489795918407Q 264.6173469387762 214.49489795918407 260.6173469387762 214.49489795918407L 4 214.49489795918407Q 0 214.49489795918407 0 210.49489795918407Z" stroke="rgba(33,41,48,1)" stroke-width="1.5" fill-opacity="1" fill="#ffffff"></path><g id="SvgjsG1348"><text id="SvgjsText1349" font-family="微软雅黑" text-anchor="middle" font-size="13px" width="245px" fill="#323232" font-weight="400" align="middle" lineHeight="125%" anchor="middle" family="微软雅黑" size="13px" weight="400" font-style="" opacity="1" y="96.62244897959204" transform="rotate(0)"></text></g></g><g id="SvgjsG1350" transform="translate(129.54336734693914,1347.6549744897961)"><path id="SvgjsPath1351" d="M 0 4Q 0 0 4 0L 151.92346938775546 0Q 155.92346938775546 0 155.92346938775546 4L 155.92346938775546 25.183673469387827Q 155.92346938775546 29.183673469387827 151.92346938775546 29.183673469387827L 4 29.183673469387827Q 0 29.183673469387827 0 25.183673469387827Z" stroke="rgba(33,41,48,1)" stroke-width="1.5" fill-opacity="1" fill="#ffffff"></path><g id="SvgjsG1352"><text id="SvgjsText1353" font-family="微软雅黑" text-anchor="middle" font-size="15px" width="136px" fill="#323232" font-weight="400" align="middle" lineHeight="125%" anchor="middle" family="微软雅黑" size="15px" weight="400" font-style="" opacity="1" y="2.2168367346939135" transform="rotate(0)"><tspan id="SvgjsTspan1354" dy="18.75" x="78"><tspan id="SvgjsTspan1355" style="">Transaction</tspan></tspan></text></g></g><g id="SvgjsG1356" transform="translate(107.29846938775557,1376.838647959184)"><path id="SvgjsPath1357" d="M 0 4Q 0 0 4 0L 188.96428571428612 0Q 192.96428571428612 0 192.96428571428612 4L 192.96428571428612 30.43367346938794Q 192.96428571428612 34.43367346938794 188.96428571428612 34.43367346938794L 4 34.43367346938794Q 0 34.43367346938794 0 30.43367346938794Z" stroke-dasharray="10,6,3,6" stroke="rgba(33,41,48,1)" stroke-width="1.5" fill-opacity="1" fill="#ffffff"></path><g id="SvgjsG1358"><text id="SvgjsText1359" font-family="微软雅黑" text-anchor="middle" font-size="15px" width="173px" fill="#323232" font-weight="400" align="middle" lineHeight="125%" anchor="middle" family="微软雅黑" size="15px" weight="400" font-style="" opacity="1" y="-4.65816326530603" transform="rotate(0)"><tspan id="SvgjsTspan1360" dy="18.75" x="96.5"><tspan id="SvgjsTspan1361" style="">core/types/transaction.</tspan></tspan><tspan id="SvgjsTspan1362" dy="18.75" x="96.5"><tspan id="SvgjsTspan1363" style="">go</tspan></tspan></text></g></g><g id="SvgjsG1364" transform="translate(121.61224489795998,1452.136479591837)"><path id="SvgjsPath1365" d="M 0 0L 164.3367346938773 0L 164.3367346938773 113.39477040816291L 0 113.39477040816291Z" stroke="none" fill="none"></path><g id="SvgjsG1366"><text id="SvgjsText1367" font-family="微软雅黑" text-anchor="start" font-size="16px" width="165px" fill="#323232" font-weight="400" align="middle" lineHeight="125%" anchor="start" family="微软雅黑" size="16px" weight="400" font-style="" opacity="1" y="2.6973852040814563" transform="rotate(0)"><tspan id="SvgjsTspan1368" dy="20" x="0"><tspan id="SvgjsTspan1369" style="">inner</tspan></tspan><tspan id="SvgjsTspan1370" dy="20" x="0"><tspan id="SvgjsTspan1371" style="">time: tx.time,</tspan></tspan><tspan id="SvgjsTspan1372" dy="20" x="0"><tspan id="SvgjsTspan1373" style="">hash: 交易hash,</tspan></tspan><tspan id="SvgjsTspan1374" dy="20" x="0"><tspan id="SvgjsTspan1375" style="">size,</tspan></tspan><tspan id="SvgjsTspan1376" dy="20" x="0"><tspan id="SvgjsTspan1377" style="">from,</tspan></tspan></text></g></g><g id="SvgjsG1378"><path id="SvgjsPath1379" d="M204.51265229027047 1470.1830271902386L359.69153215415434 1435.5986180541865" stroke="#323232" stroke-width="1.5" fill="none" marker-end="url(#SvgjsMarker1380)"></path></g><g id="SvgjsG1382" transform="translate(57.79591836734687,1211.0491071428578)"><path id="SvgjsPath1383" d="M 0 0L 464.204081632653 0L 464.204081632653 48.16326530612241L 0 48.16326530612241Z" stroke="none" fill="none"></path><g id="SvgjsG1384"><text id="SvgjsText1385" font-family="微软雅黑" text-anchor="middle" font-size="16px" width="465px" fill="#323232" font-weight="400" align="middle" lineHeight="125%" anchor="middle" family="微软雅黑" size="16px" weight="400" font-style="" opacity="1" y="10.081632653061206" transform="rotate(0)"><tspan id="SvgjsTspan1386" dy="20" x="232.5"><tspan id="SvgjsTspan1387" style="">产生一个新的Transaction对象，copy原来的值，填充RSV</tspan></tspan></text></g></g><g id="SvgjsG1388"><path id="SvgjsPath1389" d="M25 1653.53125L554 1653.53125L554 1653.53125L1083 1653.53125" stroke-dasharray="8,5" stroke="#323232" stroke-width="1.5" fill="none"></path></g><g id="SvgjsG1390" transform="translate(47.795918367346985,1672.75573979592)"><path id="SvgjsPath1391" d="M 0 0L 349.1913265306122 0L 349.1913265306122 40L 0 40Z" stroke="none" fill="none"></path><g id="SvgjsG1392"><text id="SvgjsText1393" font-family="微软雅黑" text-anchor="middle" font-size="17px" width="350px" fill="#323232" font-weight="400" align="middle" lineHeight="125%" anchor="middle" family="微软雅黑" size="17px" weight="400" font-style="" opacity="1" y="5.375" transform="rotate(0)"><tspan id="SvgjsTspan1394" dy="21.25" x="175"><tspan id="SvgjsTspan1395" style="">return SubmitTransaction(ctx, s.b, signed)</tspan></tspan></text></g></g><g id="SvgjsG1396" transform="translate(129.54336734693914,1740.0618622448978)"><path id="SvgjsPath1397" d="M 0 0L 340.1632653061225 0L 340.1632653061225 48.75L 0 48.75Z" stroke="none" fill="none"></path><g id="SvgjsG1398"><text id="SvgjsText1399" font-family="微软雅黑" text-anchor="start" font-size="17px" width="341px" fill="#323232" font-weight="400" align="middle" lineHeight="125%" anchor="start" family="微软雅黑" size="17px" weight="400" font-style="" opacity="1" y="-11.75" transform="rotate(0)"><tspan id="SvgjsTspan1400" dy="21.25" x="0"><tspan id="SvgjsTspan1401" style="">1、检测gas * gasPrice / 10e9 必须小于 1;</tspan></tspan><tspan id="SvgjsTspan1402" dy="21.25" x="0"><tspan id="SvgjsTspan1403" style="">2、b.SendTx(ctx, tx) 添加交易入池；</tspan></tspan><tspan id="SvgjsTspan1404" dy="21.25" x="0"><tspan id="SvgjsTspan1405" style="">3、返回tx.Hash(), 交易hash值；</tspan></tspan></text></g></g></svg>