<svg id="SvgjsSvg1263" width="978.132653061225" height="994.281887755102" xmlns="http://www.w3.org/2000/svg" version="1.1" xmlns:xlink="http://www.w3.org/1999/xlink" xmlns:svgjs="http://svgjs.com/svgjs"><defs id="SvgjsDefs1264"><pattern patternUnits="userSpaceOnUse" id="pattern_mark_0" width="300" height="300"><text x="150" y="100" fill="rgba(229,229,229,0.8)" font-size="18" transform="rotate(-45, 150, 150)" style="dominant-baseline: middle; text-anchor: middle;"></text></pattern><pattern patternUnits="userSpaceOnUse" id="pattern_mark_1" width="300" height="300"><text x="150" y="200" fill="rgba(229,229,229,0.8)" font-size="18" transform="rotate(-45, 150, 150)" style="dominant-baseline: middle; text-anchor: middle;"></text></pattern><marker id="SvgjsMarker1338" markerWidth="16" markerHeight="16" refX="13" refY="8" viewBox="0 0 16 16" orient="auto" markerUnits="userSpaceOnUse" stroke-dasharray="0,0"><circle id="SvgjsCircle1339" r="4" cx="8" cy="8" fill="#323232" stroke="#323232" stroke-width="1.5"></circle></marker><marker id="SvgjsMarker1366" markerWidth="16" markerHeight="16" refX="13" refY="8" viewBox="0 0 16 16" orient="auto" markerUnits="userSpaceOnUse" stroke-dasharray="0,0"><circle id="SvgjsCircle1367" r="4" cx="8" cy="8" fill="#323232" stroke="#323232" stroke-width="1.5"></circle></marker><marker id="SvgjsMarker1414" markerWidth="16" markerHeight="16" refX="13" refY="8" viewBox="0 0 16 16" orient="auto" markerUnits="userSpaceOnUse" stroke-dasharray="0,0"><circle id="SvgjsCircle1415" r="4" cx="8" cy="8" fill="#323232" stroke="#323232" stroke-width="1.5"></circle></marker><marker id="SvgjsMarker1514" markerWidth="16" markerHeight="16" refX="13" refY="8" viewBox="0 0 16 16" orient="auto" markerUnits="userSpaceOnUse" stroke-dasharray="0,0"><circle id="SvgjsCircle1515" r="4" cx="8" cy="8" fill="#323232" stroke="#323232" stroke-width="1.5"></circle></marker><marker id="SvgjsMarker1518" markerWidth="16" markerHeight="16" refX="13" refY="8" viewBox="0 0 16 16" orient="auto" markerUnits="userSpaceOnUse" stroke-dasharray="0,0"><circle id="SvgjsCircle1519" r="4" cx="8" cy="8" fill="#323232" stroke="#323232" stroke-width="1.5"></circle></marker></defs><rect id="svgbackgroundid" width="978.132653061225" height="994.281887755102" fill="transparent"></rect><rect id="SvgjsRect1266" width="978.132653061225" height="994.281887755102" fill="url(#pattern_mark_0)"></rect><rect id="SvgjsRect1267" width="978.132653061225" height="994.281887755102" fill="url(#pattern_mark_1)"></rect><g id="SvgjsG1268" transform="translate(371.5153061224487,80.90433673469386)"><path id="SvgjsPath1269" d="M 0 4Q 0 0 4 0L 260.6173469387762 0Q 264.6173469387762 0 264.6173469387762 4L 264.6173469387762 390.3775510204082Q 264.6173469387762 394.3775510204082 260.6173469387762 394.3775510204082L 4 394.3775510204082Q 0 394.3775510204082 0 390.3775510204082Z" stroke="rgba(33,41,48,1)" stroke-width="1.5" fill-opacity="1" fill="#ffffff"></path><g id="SvgjsG1270"><text id="SvgjsText1271" font-family="微软雅黑" text-anchor="middle" font-size="13px" width="245px" fill="#323232" font-weight="400" align="middle" lineHeight="125%" anchor="middle" family="微软雅黑" size="13px" weight="400" font-style="" opacity="1" y="186.5637755102041" transform="rotate(0)"></text></g></g><g id="SvgjsG1272" transform="translate(430.10714285714266,51.78188775510205)"><path id="SvgjsPath1273" d="M 0 4Q 0 0 4 0L 151.92346938775546 0Q 155.92346938775546 0 155.92346938775546 4L 155.92346938775546 25.183673469387827Q 155.92346938775546 29.183673469387827 151.92346938775546 29.183673469387827L 4 29.183673469387827Q 0 29.183673469387827 0 25.183673469387827Z" stroke="rgba(33,41,48,1)" stroke-width="1.5" fill-opacity="1" fill="#ffffff"></path><g id="SvgjsG1274"><text id="SvgjsText1275" font-family="微软雅黑" text-anchor="middle" font-size="15px" width="136px" fill="#323232" font-weight="400" align="middle" lineHeight="125%" anchor="middle" family="微软雅黑" size="15px" weight="400" font-style="" opacity="1" y="2.2168367346939135" transform="rotate(0)"><tspan id="SvgjsTspan1276" dy="18.75" x="78"><tspan id="SvgjsTspan1277" style="">EVM</tspan></tspan></text></g></g><g id="SvgjsG1278" transform="translate(407.86224489795904,80.96556122448999)"><path id="SvgjsPath1279" d="M 0 4Q 0 0 4 0L 188.96428571428612 0Q 192.96428571428612 0 192.96428571428612 4L 192.96428571428612 39.43367346938794Q 192.96428571428612 43.43367346938794 188.96428571428612 43.43367346938794L 4 43.43367346938794Q 0 43.43367346938794 0 39.43367346938794Z" stroke-dasharray="10,6,3,6" stroke="rgba(33,41,48,1)" stroke-width="1.5" fill-opacity="1" fill="#ffffff"></path><g id="SvgjsG1280"><text id="SvgjsText1281" font-family="微软雅黑" text-anchor="middle" font-size="15px" width="173px" fill="#323232" font-weight="400" align="middle" lineHeight="125%" anchor="middle" family="微软雅黑" size="15px" weight="400" font-style="" opacity="1" y="9.34183673469397" transform="rotate(0)"><tspan id="SvgjsTspan1282" dy="18.75" x="96.5"><tspan id="SvgjsTspan1283" style="">core/vm/evm.go</tspan></tspan></text></g></g><g id="SvgjsG1284" transform="translate(428.38265306122435,139.30867346938794)"><path id="SvgjsPath1285" d="M 0 0L 91.13265306122432 0L 91.13265306122432 40L 0 40Z" stroke="none" fill="none"></path><g id="SvgjsG1286"><text id="SvgjsText1287" font-family="微软雅黑" text-anchor="start" font-size="16px" width="92px" fill="#323232" font-weight="400" align="middle" lineHeight="125%" anchor="start" family="微软雅黑" size="16px" weight="400" font-style="" opacity="1" y="6" transform="rotate(0)"><tspan id="SvgjsTspan1288" dy="20" x="0"><tspan id="SvgjsTspan1289" style="">Context</tspan></tspan></text></g></g><g id="SvgjsG1290" transform="translate(688.5153061224487,54.12244897959181)"><path id="SvgjsPath1291" d="M 0 4Q 0 0 4 0L 260.6173469387762 0Q 264.6173469387762 0 264.6173469387762 4L 264.6173469387762 249.3775510204082Q 264.6173469387762 253.3775510204082 260.6173469387762 253.3775510204082L 4 253.3775510204082Q 0 253.3775510204082 0 249.3775510204082Z" stroke="rgba(33,41,48,1)" stroke-width="1.5" fill-opacity="1" fill="#ffffff"></path><g id="SvgjsG1292"><text id="SvgjsText1293" font-family="微软雅黑" text-anchor="middle" font-size="13px" width="245px" fill="#323232" font-weight="400" align="middle" lineHeight="125%" anchor="middle" family="微软雅黑" size="13px" weight="400" font-style="" opacity="1" y="116.0637755102041" transform="rotate(0)"></text></g></g><g id="SvgjsG1294" transform="translate(747.1071428571427,25)"><path id="SvgjsPath1295" d="M 0 4Q 0 0 4 0L 151.92346938775546 0Q 155.92346938775546 0 155.92346938775546 4L 155.92346938775546 25.183673469387827Q 155.92346938775546 29.183673469387827 151.92346938775546 29.183673469387827L 4 29.183673469387827Q 0 29.183673469387827 0 25.183673469387827Z" stroke="rgba(33,41,48,1)" stroke-width="1.5" fill-opacity="1" fill="#ffffff"></path><g id="SvgjsG1296"><text id="SvgjsText1297" font-family="微软雅黑" text-anchor="middle" font-size="15px" width="136px" fill="#323232" font-weight="400" align="middle" lineHeight="125%" anchor="middle" family="微软雅黑" size="15px" weight="400" font-style="" opacity="1" y="2.2168367346939135" transform="rotate(0)"><tspan id="SvgjsTspan1298" dy="18.75" x="78"><tspan id="SvgjsTspan1299" style="">BlockContext</tspan></tspan></text></g></g><g id="SvgjsG1300" transform="translate(724.862244897959,54.18367346938794)"><path id="SvgjsPath1301" d="M 0 4Q 0 0 4 0L 188.96428571428612 0Q 192.96428571428612 0 192.96428571428612 4L 192.96428571428612 26.31632653061206Q 192.96428571428612 30.31632653061206 188.96428571428612 30.31632653061206L 4 30.31632653061206Q 0 30.31632653061206 0 26.31632653061206Z" stroke-dasharray="10,6,3,6" stroke="rgba(33,41,48,1)" stroke-width="1.5" fill-opacity="1" fill="#ffffff"></path><g id="SvgjsG1302"><text id="SvgjsText1303" font-family="微软雅黑" text-anchor="middle" font-size="15px" width="173px" fill="#323232" font-weight="400" align="middle" lineHeight="125%" anchor="middle" family="微软雅黑" size="15px" weight="400" font-style="" opacity="1" y="2.7831632653060296" transform="rotate(0)"><tspan id="SvgjsTspan1304" dy="18.75" x="96.5"><tspan id="SvgjsTspan1305" style="">core/vm/evm.go</tspan></tspan></text></g></g><g id="SvgjsG1306" transform="translate(705.3826530612243,122.61734693877588)"><path id="SvgjsPath1307" d="M 0 0L 231.92346938775546 0L 231.92346938775546 146.25L 0 146.25Z" stroke="none" fill="none"></path><g id="SvgjsG1308"><text id="SvgjsText1309" font-family="微软雅黑" text-anchor="start" font-size="16px" width="232px" fill="#323232" font-weight="400" align="middle" lineHeight="125%" anchor="start" family="微软雅黑" size="16px" weight="400" font-style="" opacity="1" y="-30.875" transform="rotate(0)"><tspan id="SvgjsTspan1310" dy="20" x="0"><tspan id="SvgjsTspan1311" style="">CanTransfer: func,</tspan></tspan><tspan id="SvgjsTspan1312" dy="20" x="0"><tspan id="SvgjsTspan1313" style="">Transfer: func,</tspan></tspan><tspan id="SvgjsTspan1314" dy="20" x="0"><tspan id="SvgjsTspan1315" style="">GetHash: func,</tspan></tspan><tspan id="SvgjsTspan1316" dy="20" x="0"><tspan id="SvgjsTspan1317" style="">Coinbase: 全0值,</tspan></tspan><tspan id="SvgjsTspan1318" dy="20" x="0"><tspan id="SvgjsTspan1319" style="">GasLimit: 3144658 = 0x2ffbd2,</tspan></tspan><tspan id="SvgjsTspan1320" dy="20" x="0"><tspan id="SvgjsTspan1321" style="">BlockNumber: 1,</tspan></tspan><tspan id="SvgjsTspan1322" dy="20" x="0"><tspan id="SvgjsTspan1323" style="">Time: [1707023449],</tspan></tspan><tspan id="SvgjsTspan1324" dy="20" x="0"><tspan id="SvgjsTspan1325" style="">Difficulty: [1995776],</tspan></tspan><tspan id="SvgjsTspan1326" dy="20" x="0"><tspan id="SvgjsTspan1327" style="">BaseFee: nil,</tspan></tspan><tspan id="SvgjsTspan1328" dy="20" x="0"><tspan id="SvgjsTspan1329" style="">Random: nil</tspan></tspan></text></g></g><g id="SvgjsG1330" transform="translate(414.38265306122435,193.19132653061206)"><path id="SvgjsPath1331" d="M 0 0L 119.13265306122435 0L 119.13265306122435 40L 0 40Z" stroke="none" fill="none"></path><g id="SvgjsG1332"><text id="SvgjsText1333" font-family="微软雅黑" text-anchor="start" font-size="16px" width="120px" fill="#323232" font-weight="400" align="middle" lineHeight="125%" anchor="start" family="微软雅黑" size="16px" weight="400" font-style="" opacity="1" y="6" transform="rotate(0)"><tspan id="SvgjsTspan1334" dy="20" x="0"><tspan id="SvgjsTspan1335" style="">TxContext内嵌</tspan></tspan></text></g></g><g id="SvgjsG1336"><path id="SvgjsPath1337" d="M520.230576081023 159.08308781744805L687.0847662053002 106.45972399952066" stroke="#323232" stroke-width="1.5" fill="none" marker-end="url(#SvgjsMarker1338)"></path></g><g id="SvgjsG1340" transform="translate(83.59183673469408,100.11150084086749)"><path id="SvgjsPath1341" d="M 0 4Q 0 0 4 0L 214.67346938775506 0Q 218.67346938775506 0 218.67346938775506 4L 218.67346938775506 95.17038691423457Q 218.67346938775506 99.17038691423457 214.67346938775506 99.17038691423457L 4 99.17038691423457Q 0 99.17038691423457 0 95.17038691423457Z" stroke="rgba(33,41,48,1)" stroke-width="1.5" fill-opacity="1" fill="#ffffff"></path><g id="SvgjsG1342"><text id="SvgjsText1343" font-family="微软雅黑" text-anchor="middle" font-size="13px" width="199px" fill="#323232" font-weight="400" align="middle" lineHeight="125%" anchor="middle" family="微软雅黑" size="13px" weight="400" font-style="" opacity="1" y="38.960193457117285" transform="rotate(0)"></text></g></g><g id="SvgjsG1344" transform="translate(118.89795918367383,74.34311224489795)"><path id="SvgjsPath1345" d="M 0 4Q 0 0 4 0L 151.92346938775546 0Q 155.92346938775546 0 155.92346938775546 4L 155.92346938775546 21.82256180254837Q 155.92346938775546 25.82256180254837 151.92346938775546 25.82256180254837L 4 25.82256180254837Q 0 25.82256180254837 0 21.82256180254837Z" stroke="rgba(33,41,48,1)" stroke-width="1.5" fill-opacity="1" fill="#ffffff"></path><g id="SvgjsG1346"><text id="SvgjsText1347" font-family="微软雅黑" text-anchor="middle" font-size="15px" width="136px" fill="#323232" font-weight="400" align="middle" lineHeight="125%" anchor="middle" family="微软雅黑" size="15px" weight="400" font-style="" opacity="1" y="0.5362809012741856" transform="rotate(0)"><tspan id="SvgjsTspan1348" dy="18.75" x="78"><tspan id="SvgjsTspan1349" style="">TxContext</tspan></tspan></text></g></g><g id="SvgjsG1350" transform="translate(96.6530612244901,100.16567404744643)"><path id="SvgjsPath1351" d="M 0 4Q 0 0 4 0L 188.96428571428612 0Q 192.96428571428612 0 192.96428571428612 4L 192.96428571428612 22.824766124255436Q 192.96428571428612 26.824766124255436 188.96428571428612 26.824766124255436L 4 26.824766124255436Q 0 26.824766124255436 0 22.824766124255436Z" stroke-dasharray="10,6,3,6" stroke="rgba(33,41,48,1)" stroke-width="1.5" fill-opacity="1" fill="#ffffff"></path><g id="SvgjsG1352"><text id="SvgjsText1353" font-family="微软雅黑" text-anchor="middle" font-size="15px" width="173px" fill="#323232" font-weight="400" align="middle" lineHeight="125%" anchor="middle" family="微软雅黑" size="15px" weight="400" font-style="" opacity="1" y="1.0373830621277182" transform="rotate(0)"><tspan id="SvgjsTspan1354" dy="18.75" x="96.5"><tspan id="SvgjsTspan1355" style="">core/vm/evm.go</tspan></tspan></text></g></g><g id="SvgjsG1356" transform="translate(112.61734693877543,139.30867346938794)"><path id="SvgjsPath1357" d="M 0 0L 189.64795918367378 0L 189.64795918367378 53.88265306122412L 0 53.88265306122412Z" stroke="none" fill="none"></path><g id="SvgjsG1358"><text id="SvgjsText1359" font-family="微软雅黑" text-anchor="start" font-size="16px" width="190px" fill="#323232" font-weight="400" align="middle" lineHeight="125%" anchor="start" family="微软雅黑" size="16px" weight="400" font-style="" opacity="1" y="2.9413265306120593" transform="rotate(0)"><tspan id="SvgjsTspan1360" dy="20" x="0"><tspan id="SvgjsTspan1361" style="">Origin: 0x1f, 0xa0,</tspan></tspan><tspan id="SvgjsTspan1362" dy="20" x="0"><tspan id="SvgjsTspan1363" style="">GasPrice: 1,</tspan></tspan></text></g></g><g id="SvgjsG1364"><path id="SvgjsPath1365" d="M413.67861172706 212.9328196645755L303.67338879077795 172.54157550181483" stroke="#323232" stroke-width="1.5" fill="none" marker-end="url(#SvgjsMarker1366)"></path></g><g id="SvgjsG1368" transform="translate(414.38265306122435,236.42346938775574)"><path id="SvgjsPath1369" d="M 0 0L 119.13265306122435 0L 119.13265306122435 130L 0 130Z" stroke="none" fill="none"></path><g id="SvgjsG1370"><text id="SvgjsText1371" font-family="微软雅黑" text-anchor="start" font-size="16px" width="120px" fill="#323232" font-weight="400" align="middle" lineHeight="125%" anchor="start" family="微软雅黑" size="16px" weight="400" font-style="" opacity="1" y="11" transform="rotate(0)"><tspan id="SvgjsTspan1372" dy="20" x="0"><tspan id="SvgjsTspan1373" style="">StateDB,</tspan></tspan><tspan id="SvgjsTspan1374" dy="20" x="0"><tspan id="SvgjsTspan1375" style="">depth: 0,</tspan></tspan><tspan id="SvgjsTspan1376" dy="20" x="0"><tspan id="SvgjsTspan1377" style="">chainConfig,</tspan></tspan><tspan id="SvgjsTspan1378" dy="20" x="0"><tspan id="SvgjsTspan1379" style="">chainRules,</tspan></tspan><tspan id="SvgjsTspan1380" dy="20" x="0"><tspan id="SvgjsTspan1381" style="">Config,</tspan></tspan></text></g></g><g id="SvgjsG1382" transform="translate(414.38265306122435,374.5)"><path id="SvgjsPath1383" d="M 0 0L 91.13265306122435 0L 91.13265306122435 40L 0 40Z" stroke="none" fill="none"></path><g id="SvgjsG1384"><text id="SvgjsText1385" font-family="微软雅黑" text-anchor="start" font-size="16px" width="92px" fill="#323232" font-weight="400" align="middle" lineHeight="125%" anchor="start" family="微软雅黑" size="16px" weight="400" font-style="" opacity="1" y="6" transform="rotate(0)"><tspan id="SvgjsTspan1386" dy="20" x="0"><tspan id="SvgjsTspan1387" style="">interpreter</tspan></tspan></text></g></g><g id="SvgjsG1388" transform="translate(688.5153061224487,358.54591836734755)"><path id="SvgjsPath1389" d="M 0 4Q 0 0 4 0L 260.6173469387762 0Q 264.6173469387762 0 264.6173469387762 4L 264.6173469387762 119.8584183673463Q 264.6173469387762 123.8584183673463 260.6173469387762 123.8584183673463L 4 123.8584183673463Q 0 123.8584183673463 0 119.8584183673463Z" stroke="rgba(33,41,48,1)" stroke-width="1.5" fill-opacity="1" fill="#ffffff"></path><g id="SvgjsG1390"><text id="SvgjsText1391" font-family="微软雅黑" text-anchor="middle" font-size="13px" width="245px" fill="#323232" font-weight="400" align="middle" lineHeight="125%" anchor="middle" family="微软雅黑" size="13px" weight="400" font-style="" opacity="1" y="51.30420918367315" transform="rotate(0)"></text></g></g><g id="SvgjsG1392" transform="translate(747.1071428571428,329.42346938775574)"><path id="SvgjsPath1393" d="M 0 4Q 0 0 4 0L 151.92346938775546 0Q 155.92346938775546 0 155.92346938775546 4L 155.92346938775546 25.183673469387827Q 155.92346938775546 29.183673469387827 151.92346938775546 29.183673469387827L 4 29.183673469387827Q 0 29.183673469387827 0 25.183673469387827Z" stroke="rgba(33,41,48,1)" stroke-width="1.5" fill-opacity="1" fill="#ffffff"></path><g id="SvgjsG1394"><text id="SvgjsText1395" font-family="微软雅黑" text-anchor="middle" font-size="15px" width="136px" fill="#323232" font-weight="400" align="middle" lineHeight="125%" anchor="middle" family="微软雅黑" size="15px" weight="400" font-style="" opacity="1" y="2.2168367346939135" transform="rotate(0)"><tspan id="SvgjsTspan1396" dy="18.75" x="78"><tspan id="SvgjsTspan1397" style="">EVMInterpreter</tspan></tspan></text></g></g><g id="SvgjsG1398" transform="translate(724.862244897959,358.6071428571437)"><path id="SvgjsPath1399" d="M 0 4Q 0 0 4 0L 188.96428571428612 0Q 192.96428571428612 0 192.96428571428612 4L 192.96428571428612 26.31632653061206Q 192.96428571428612 30.31632653061206 188.96428571428612 30.31632653061206L 4 30.31632653061206Q 0 30.31632653061206 0 26.31632653061206Z" stroke-dasharray="10,6,3,6" stroke="rgba(33,41,48,1)" stroke-width="1.5" fill-opacity="1" fill="#ffffff"></path><g id="SvgjsG1400"><text id="SvgjsText1401" font-family="微软雅黑" text-anchor="middle" font-size="15px" width="173px" fill="#323232" font-weight="400" align="middle" lineHeight="125%" anchor="middle" family="微软雅黑" size="15px" weight="400" font-style="" opacity="1" y="2.7831632653060296" transform="rotate(0)"><tspan id="SvgjsTspan1402" dy="18.75" x="96.5"><tspan id="SvgjsTspan1403" style="">core/vm/interpreter.go</tspan></tspan></text></g></g><g id="SvgjsG1404" transform="translate(718.0306122448974,412.6224489795918)"><path id="SvgjsPath1405" d="M 0 0L 231.92346938775546 0L 231.92346938775546 40L 0 40Z" stroke="none" fill="none"></path><g id="SvgjsG1406"><text id="SvgjsText1407" font-family="微软雅黑" text-anchor="start" font-size="16px" width="232px" fill="#323232" font-weight="400" align="middle" lineHeight="125%" anchor="start" family="微软雅黑" size="16px" weight="400" font-style="" opacity="1" y="-4" transform="rotate(0)"><tspan id="SvgjsTspan1408" dy="20" x="0"><tspan id="SvgjsTspan1409" style="">evm,</tspan></tspan><tspan id="SvgjsTspan1410" dy="20" x="0"><tspan id="SvgjsTspan1411" style="">cfg: JumpTable所在,</tspan></tspan></text></g></g><g id="SvgjsG1412"><path id="SvgjsPath1413" d="M506.26105667734305 394.42027478520106L687.850335624905 375.00728987453937" stroke="#323232" stroke-width="1.5" fill="none" marker-end="url(#SvgjsMarker1414)"></path></g><g id="SvgjsG1416" transform="translate(25,329.42346938775574)"><path id="SvgjsPath1417" d="M 0 4Q 0 0 4 0L 260.6173469387762 0Q 264.6173469387762 0 264.6173469387762 4L 264.6173469387762 310.3775510204082Q 264.6173469387762 314.3775510204082 260.6173469387762 314.3775510204082L 4 314.3775510204082Q 0 314.3775510204082 0 310.3775510204082Z" stroke="rgba(33,41,48,1)" stroke-width="1.5" fill-opacity="1" fill="#ffffff"></path><g id="SvgjsG1418"><text id="SvgjsText1419" font-family="微软雅黑" text-anchor="middle" font-size="13px" width="245px" fill="#323232" font-weight="400" align="middle" lineHeight="125%" anchor="middle" family="微软雅黑" size="13px" weight="400" font-style="" opacity="1" y="146.5637755102041" transform="rotate(0)"></text></g></g><g id="SvgjsG1420" transform="translate(83.59183673469408,300.30102040816394)"><path id="SvgjsPath1421" d="M 0 4Q 0 0 4 0L 151.92346938775546 0Q 155.92346938775546 0 155.92346938775546 4L 155.92346938775546 25.183673469387827Q 155.92346938775546 29.183673469387827 151.92346938775546 29.183673469387827L 4 29.183673469387827Q 0 29.183673469387827 0 25.183673469387827Z" stroke="rgba(33,41,48,1)" stroke-width="1.5" fill-opacity="1" fill="#ffffff"></path><g id="SvgjsG1422"><text id="SvgjsText1423" font-family="微软雅黑" text-anchor="middle" font-size="15px" width="136px" fill="#323232" font-weight="400" align="middle" lineHeight="125%" anchor="middle" family="微软雅黑" size="15px" weight="400" font-style="" opacity="1" y="2.2168367346939135" transform="rotate(0)"><tspan id="SvgjsTspan1424" dy="18.75" x="78"><tspan id="SvgjsTspan1425" style="">Message</tspan></tspan></text></g></g><g id="SvgjsG1426" transform="translate(61.34693877551035,329.4846938775519)"><path id="SvgjsPath1427" d="M 0 4Q 0 0 4 0L 188.96428571428612 0Q 192.96428571428612 0 192.96428571428612 4L 192.96428571428612 26.31632653061206Q 192.96428571428612 30.31632653061206 188.96428571428612 30.31632653061206L 4 30.31632653061206Q 0 30.31632653061206 0 26.31632653061206Z" stroke-dasharray="10,6,3,6" stroke="rgba(33,41,48,1)" stroke-width="1.5" fill-opacity="1" fill="#ffffff"></path><g id="SvgjsG1428"><text id="SvgjsText1429" font-family="微软雅黑" text-anchor="middle" font-size="15px" width="173px" fill="#323232" font-weight="400" align="middle" lineHeight="125%" anchor="middle" family="微软雅黑" size="15px" weight="400" font-style="" opacity="1" y="2.7831632653060296" transform="rotate(0)"><tspan id="SvgjsTspan1430" dy="18.75" x="96.5"><tspan id="SvgjsTspan1431" style="">core/types/message.go</tspan></tspan></text></g></g><g id="SvgjsG1432" transform="translate(41.86734693877577,404.2691326530619)"><path id="SvgjsPath1433" d="M 0 0L 231.92346938775546 0L 231.92346938775546 195L 0 195Z" stroke="none" fill="none"></path><g id="SvgjsG1434"><text id="SvgjsText1435" font-family="微软雅黑" text-anchor="start" font-size="16px" width="232px" fill="#323232" font-weight="400" align="middle" lineHeight="125%" anchor="start" family="微软雅黑" size="16px" weight="400" font-style="" opacity="1" y="-36.5" transform="rotate(0)"><tspan id="SvgjsTspan1436" dy="20" x="0"><tspan id="SvgjsTspan1437" style="">to: 0x18, 0x6f,</tspan></tspan><tspan id="SvgjsTspan1438" dy="20" x="0"><tspan id="SvgjsTspan1439" style="">from: 0x1f, 0xa0,</tspan></tspan><tspan id="SvgjsTspan1440" dy="20" x="0"><tspan id="SvgjsTspan1441" style="">nonce: 0,</tspan></tspan><tspan id="SvgjsTspan1442" dy="20" x="0"><tspan id="SvgjsTspan1443" style="">amount: 空盒子,</tspan></tspan><tspan id="SvgjsTspan1444" dy="20" x="0"><tspan id="SvgjsTspan1445" style="">gasLimit: 50000,</tspan></tspan><tspan id="SvgjsTspan1446" dy="20" x="0"><tspan id="SvgjsTspan1447" style="">gasPrice: 1,</tspan></tspan><tspan id="SvgjsTspan1448" dy="20" x="0"><tspan id="SvgjsTspan1449" style="">gasFeeCap: 1,</tspan></tspan><tspan id="SvgjsTspan1450" dy="20" x="0"><tspan id="SvgjsTspan1451" style="">gasTipCap: 1,</tspan></tspan><tspan id="SvgjsTspan1452" dy="20" x="0"><tspan id="SvgjsTspan1453" style="">data: 0x6057361d00000...03,</tspan></tspan><tspan id="SvgjsTspan1454" dy="20" x="0"><tspan id="SvgjsTspan1455" style="">accessList: nil,</tspan></tspan><tspan id="SvgjsTspan1456" dy="20" x="0"><tspan id="SvgjsTspan1457" style="">isFake: false,</tspan></tspan><tspan id="SvgjsTspan1458" dy="20" x="0"><tspan id="SvgjsTspan1459" style=""> </tspan></tspan><tspan id="SvgjsTspan1460" dy="20" x="0"><tspan id="SvgjsTspan1461" style=""> </tspan></tspan></text></g></g><g id="SvgjsG1462" transform="translate(371.5153061224487,638.8137755102039)"><path id="SvgjsPath1463" d="M 0 4Q 0 0 4 0L 260.6173469387762 0Q 264.6173469387762 0 264.6173469387762 4L 264.6173469387762 326.4681122448982Q 264.6173469387762 330.4681122448982 260.6173469387762 330.4681122448982L 4 330.4681122448982Q 0 330.4681122448982 0 326.4681122448982Z" stroke="rgba(33,41,48,1)" stroke-width="1.5" fill-opacity="1" fill="#ffffff"></path><g id="SvgjsG1464"><text id="SvgjsText1465" font-family="微软雅黑" text-anchor="middle" font-size="13px" width="245px" fill="#323232" font-weight="400" align="middle" lineHeight="125%" anchor="middle" family="微软雅黑" size="13px" weight="400" font-style="" opacity="1" y="154.6090561224491" transform="rotate(0)"></text></g></g><g id="SvgjsG1466" transform="translate(430.1071428571428,609.6913265306121)"><path id="SvgjsPath1467" d="M 0 4Q 0 0 4 0L 151.92346938775546 0Q 155.92346938775546 0 155.92346938775546 4L 155.92346938775546 25.183673469387827Q 155.92346938775546 29.183673469387827 151.92346938775546 29.183673469387827L 4 29.183673469387827Q 0 29.183673469387827 0 25.183673469387827Z" stroke="rgba(33,41,48,1)" stroke-width="1.5" fill-opacity="1" fill="#ffffff"></path><g id="SvgjsG1468"><text id="SvgjsText1469" font-family="微软雅黑" text-anchor="middle" font-size="15px" width="136px" fill="#323232" font-weight="400" align="middle" lineHeight="125%" anchor="middle" family="微软雅黑" size="15px" weight="400" font-style="" opacity="1" y="2.2168367346939135" transform="rotate(0)"><tspan id="SvgjsTspan1470" dy="18.75" x="78"><tspan id="SvgjsTspan1471" style="">StateTransition</tspan></tspan></text></g></g><g id="SvgjsG1472" transform="translate(407.86224489795904,638.875)"><path id="SvgjsPath1473" d="M 0 4Q 0 0 4 0L 188.96428571428612 0Q 192.96428571428612 0 192.96428571428612 4L 192.96428571428612 26.31632653061206Q 192.96428571428612 30.31632653061206 188.96428571428612 30.31632653061206L 4 30.31632653061206Q 0 30.31632653061206 0 26.31632653061206Z" stroke-dasharray="10,6,3,6" stroke="rgba(33,41,48,1)" stroke-width="1.5" fill-opacity="1" fill="#ffffff"></path><g id="SvgjsG1474"><text id="SvgjsText1475" font-family="微软雅黑" text-anchor="middle" font-size="15px" width="173px" fill="#323232" font-weight="400" align="middle" lineHeight="125%" anchor="middle" family="微软雅黑" size="15px" weight="400" font-style="" opacity="1" y="2.7831632653060296" transform="rotate(0)"><tspan id="SvgjsTspan1476" dy="18.75" x="96.5"><tspan id="SvgjsTspan1477" style="">core/state_transition.go</tspan></tspan></text></g></g><g id="SvgjsG1478" transform="translate(387.86224489795916,799.8628826530611)"><path id="SvgjsPath1479" d="M 0 0L 231.92346938775546 0L 231.92346938775546 113.75L 0 113.75Z" stroke="none" fill="none"></path><g id="SvgjsG1480"><text id="SvgjsText1481" font-family="微软雅黑" text-anchor="start" font-size="16px" width="232px" fill="#323232" font-weight="400" align="middle" lineHeight="125%" anchor="start" family="微软雅黑" size="16px" weight="400" font-style="" opacity="1" y="-37.125" transform="rotate(0)"><tspan id="SvgjsTspan1482" dy="20" x="0"><tspan id="SvgjsTspan1483" style="">gp: *3144658,</tspan></tspan><tspan id="SvgjsTspan1484" dy="20" x="0"><tspan id="SvgjsTspan1485" style="">gas: 50000,</tspan></tspan><tspan id="SvgjsTspan1486" dy="20" x="0"><tspan id="SvgjsTspan1487" style="">gasPrice: 取msg 1,</tspan></tspan><tspan id="SvgjsTspan1488" dy="20" x="0"><tspan id="SvgjsTspan1489" style="">gasFeeCap: 取msg 1,</tspan></tspan><tspan id="SvgjsTspan1490" dy="20" x="0"><tspan id="SvgjsTspan1491" style="">gasTipCap: 取msg 1,</tspan></tspan><tspan id="SvgjsTspan1492" dy="20" x="0"><tspan id="SvgjsTspan1493" style="">initialGas: 50000,</tspan></tspan><tspan id="SvgjsTspan1494" dy="20" x="0"><tspan id="SvgjsTspan1495" style="">value: 空盒子,</tspan></tspan><tspan id="SvgjsTspan1496" dy="20" x="0"><tspan id="SvgjsTspan1497" style="">data: 取msg.data,</tspan></tspan><tspan id="SvgjsTspan1498" dy="20" x="0"><tspan id="SvgjsTspan1499" style="">state,</tspan></tspan></text></g></g><g id="SvgjsG1500" transform="translate(387.86224489795916,687.15943877551)"><path id="SvgjsPath1501" d="M 0 0L 42.24489795918362 0L 42.24489795918362 40L 0 40Z" stroke="none" fill="none"></path><g id="SvgjsG1502"><text id="SvgjsText1503" font-family="微软雅黑" text-anchor="start" font-size="16px" width="43px" fill="#323232" font-weight="400" align="middle" lineHeight="125%" anchor="start" family="微软雅黑" size="16px" weight="400" font-style="" opacity="1" y="6" transform="rotate(0)"><tspan id="SvgjsTspan1504" dy="20" x="0"><tspan id="SvgjsTspan1505" style="">evm</tspan></tspan></text></g></g><g id="SvgjsG1506" transform="translate(386.38265306122446,723.15943877551)"><path id="SvgjsPath1507" d="M 0 0L 82.40816326530592 0L 82.40816326530592 40L 0 40Z" stroke="none" fill="none"></path><g id="SvgjsG1508"><text id="SvgjsText1509" font-family="微软雅黑" text-anchor="start" font-size="16px" width="83px" fill="#323232" font-weight="400" align="middle" lineHeight="125%" anchor="start" family="微软雅黑" size="16px" weight="400" font-style="" opacity="1" y="6" transform="rotate(0)"><tspan id="SvgjsTspan1510" dy="20" x="0"><tspan id="SvgjsTspan1511" style="">msg</tspan></tspan></text></g></g><g id="SvgjsG1512"><path id="SvgjsPath1513" d="M430.8562406207558 707.1226618731118C 540.0135505061769 707.1594387755099 577.5153061224487 585.1882954041363 577.4927433825075 476.78171805309125" stroke="#323232" stroke-width="1.5" fill="none" marker-end="url(#SvgjsMarker1514)"></path></g><g id="SvgjsG1516"><path id="SvgjsPath1517" d="M385.6327628833478 743.1466044027477C 307.90544000166165 743.15943877551 217.5153061224487 721.7591008146649 217.62300475055838 644.7780164278784" stroke="#323232" stroke-width="1.5" fill="none" marker-end="url(#SvgjsMarker1518)"></path></g></svg>