<svg id="SvgjsSvg1370" width="1276.21880729831" height="627.8438795440051" xmlns="http://www.w3.org/2000/svg" version="1.1" xmlns:xlink="http://www.w3.org/1999/xlink" xmlns:svgjs="http://svgjs.com/svgjs"><defs id="SvgjsDefs1371"><pattern patternUnits="userSpaceOnUse" id="pattern_mark_0" width="300" height="300"><text x="150" y="100" fill="rgba(229,229,229,0.8)" font-size="18" transform="rotate(-45, 150, 150)" style="dominant-baseline: middle; text-anchor: middle;"></text></pattern><pattern patternUnits="userSpaceOnUse" id="pattern_mark_1" width="300" height="300"><text x="150" y="200" fill="rgba(229,229,229,0.8)" font-size="18" transform="rotate(-45, 150, 150)" style="dominant-baseline: middle; text-anchor: middle;"></text></pattern><marker id="SvgjsMarker1437" markerWidth="16" markerHeight="16" refX="13" refY="8" viewBox="0 0 16 16" orient="auto" markerUnits="userSpaceOnUse" stroke-dasharray="0,0"><circle id="SvgjsCircle1438" r="4" cx="8" cy="8" fill="#323232" stroke="#323232" stroke-width="1.5"></circle></marker><marker id="SvgjsMarker1507" markerWidth="16" markerHeight="16" refX="13" refY="8" viewBox="0 0 16 16" orient="auto" markerUnits="userSpaceOnUse" stroke-dasharray="0,0"><circle id="SvgjsCircle1508" r="4" cx="8" cy="8" fill="#323232" stroke="#323232" stroke-width="1.5"></circle></marker><marker id="SvgjsMarker1557" markerWidth="16" markerHeight="16" refX="13" refY="8" viewBox="0 0 16 16" orient="auto" markerUnits="userSpaceOnUse" stroke-dasharray="0,0"><circle id="SvgjsCircle1558" r="4" cx="8" cy="8" fill="#323232" stroke="#323232" stroke-width="1.5"></circle></marker></defs><rect id="svgbackgroundid" width="1276.21880729831" height="627.8438795440051" fill="transparent"></rect><rect id="SvgjsRect1373" width="1276.21880729831" height="627.8438795440051" fill="url(#pattern_mark_0)"></rect><rect id="SvgjsRect1374" width="1276.21880729831" height="627.8438795440051" fill="url(#pattern_mark_1)"></rect><g id="SvgjsG1375" transform="translate(340.3096815119868,136.99153706226807)"><path id="SvgjsPath1376" d="M 0 4Q 0 0 4 0L 273.90909090909093 0Q 277.90909090909093 0 277.90909090909093 4L 277.90909090909093 356.44034090909145Q 277.90909090909093 360.44034090909145 273.90909090909093 360.44034090909145L 4 360.44034090909145Q 0 360.44034090909145 0 356.44034090909145Z" stroke="rgba(33,41,48,1)" stroke-width="1.5" fill-opacity="1" fill="#ffffff"></path><g id="SvgjsG1377"><text id="SvgjsText1378" font-family="微软雅黑" text-anchor="middle" font-size="14px" width="258px" fill="#323232" font-weight="400" align="middle" lineHeight="125%" anchor="middle" family="微软雅黑" size="14px" weight="400" font-style="" opacity="1" y="168.47017045454572" transform="rotate(0)"></text></g></g><g id="SvgjsG1379" transform="translate(423.5379398607808,107.86653706226807)"><path id="SvgjsPath1380" d="M 0 4Q 0 0 4 0L 98 0Q 102 0 102 4L 102 26Q 102 30 98 30L 4 30Q 0 30 0 26Z" stroke="rgba(33,41,48,1)" stroke-width="1.5" fill-opacity="1" fill="#ffffff"></path><g id="SvgjsG1381"><text id="SvgjsText1382" font-family="微软雅黑" text-anchor="middle" font-size="16px" width="82px" fill="#323232" font-weight="400" align="middle" lineHeight="125%" anchor="middle" family="微软雅黑" size="16px" weight="400" font-style="" opacity="1" y="1" transform="rotate(0)"><tspan id="SvgjsTspan1383" dy="20" x="51"><tspan id="SvgjsTspan1384" style="">KeyStore</tspan></tspan></text></g></g><g id="SvgjsG1385" transform="translate(358.49149969380505,137.24153706226807)"><path id="SvgjsPath1386" d="M 0 4Q 0 0 4 0L 228.72727272727275 0Q 232.72727272727275 0 232.72727272727275 4L 232.72727272727275 28.897727272727252Q 232.72727272727275 32.89772727272725 228.72727272727275 32.89772727272725L 4 32.89772727272725Q 0 32.89772727272725 0 28.897727272727252Z" stroke-dasharray="10,6" stroke="rgba(33,41,48,1)" stroke-width="1.5" fill-opacity="1" fill="#ffffff"></path><g id="SvgjsG1387"><text id="SvgjsText1388" font-family="微软雅黑" text-anchor="middle" font-size="15px" width="213px" fill="#323232" font-weight="400" align="middle" lineHeight="125%" anchor="middle" family="微软雅黑" size="15px" weight="400" font-style="" opacity="1" y="-5.426136363636374" transform="rotate(0)"><tspan id="SvgjsTspan1389" dy="18.75" x="116.5"><tspan id="SvgjsTspan1390" style="">accounts/keystore/keystore.g</tspan></tspan><tspan id="SvgjsTspan1391" dy="18.75" x="116.5"><tspan id="SvgjsTspan1392" style="">o</tspan></tspan></text></g></g><g id="SvgjsG1393" transform="translate(391.21877242107774,192.27846888044994)"><path id="SvgjsPath1394" d="M 0 0L 74.54545454545456 0L 74.54545454545456 40L 0 40Z" stroke="none" fill="none"></path><g id="SvgjsG1395"><text id="SvgjsText1396" font-family="微软雅黑" text-anchor="middle" font-size="16px" width="75px" fill="#323232" font-weight="400" align="middle" lineHeight="125%" anchor="middle" family="微软雅黑" size="16px" weight="400" font-style="" opacity="1" y="6" transform="rotate(0)"><tspan id="SvgjsTspan1397" dy="20" x="37.5"><tspan id="SvgjsTspan1398" style="">storage</tspan></tspan></text></g></g><g id="SvgjsG1399" transform="translate(674.8551360574413,56.40346888045002)"><path id="SvgjsPath1400" d="M 0 4Q 0 0 4 0L 271.4545454545455 0Q 275.4545454545455 0 275.4545454545455 4L 275.4545454545455 171.87499999999994Q 275.4545454545455 175.87499999999994 271.4545454545455 175.87499999999994L 4 175.87499999999994Q 0 175.87499999999994 0 171.87499999999994Z" stroke="rgba(33,41,48,1)" stroke-width="1.5" fill-opacity="1" fill="#ffffff"></path><g id="SvgjsG1401"><text id="SvgjsText1402" font-family="微软雅黑" text-anchor="middle" font-size="14px" width="256px" fill="#323232" font-weight="400" align="middle" lineHeight="125%" anchor="middle" family="微软雅黑" size="14px" weight="400" font-style="" opacity="1" y="76.18749999999997" transform="rotate(0)"></text></g></g><g id="SvgjsG1403" transform="translate(729.7079305843433,25.00574160772274)"><path id="SvgjsPath1404" d="M 0 4Q 0 0 4 0L 166.90909090909088 0Q 170.90909090909088 0 170.90909090909088 4L 170.90909090909088 27.647727272727337Q 170.90909090909088 31.647727272727337 166.90909090909088 31.647727272727337L 4 31.647727272727337Q 0 31.647727272727337 0 27.647727272727337Z" stroke="rgba(33,41,48,1)" stroke-width="1.5" fill-opacity="1" fill="#ffffff"></path><g id="SvgjsG1405"><text id="SvgjsText1406" font-family="微软雅黑" text-anchor="middle" font-size="16px" width="151px" fill="#323232" font-weight="400" align="middle" lineHeight="125%" anchor="middle" family="微软雅黑" size="16px" weight="400" font-style="" opacity="1" y="1.8238636363636687" transform="rotate(0)"><tspan id="SvgjsTspan1407" dy="20" x="85.5"><tspan id="SvgjsTspan1408" style="">keyStorePassphrase</tspan></tspan></text></g></g><g id="SvgjsG1409" transform="translate(693.0369542392596,56.65346888045008)"><path id="SvgjsPath1410" d="M 0 4Q 0 0 4 0L 240.25104359925854 0Q 244.25104359925854 0 244.25104359925854 4L 244.25104359925854 28.897727272727252Q 244.25104359925854 32.89772727272725 240.25104359925854 32.89772727272725L 4 32.89772727272725Q 0 32.89772727272725 0 28.897727272727252Z" stroke-dasharray="10,6" stroke="rgba(33,41,48,1)" stroke-width="1.5" fill-opacity="1" fill="#ffffff"></path><g id="SvgjsG1411"><text id="SvgjsText1412" font-family="微软雅黑" text-anchor="middle" font-size="15px" width="225px" fill="#323232" font-weight="400" align="middle" lineHeight="125%" anchor="middle" family="微软雅黑" size="15px" weight="400" font-style="" opacity="1" y="-5.426136363636374" transform="rotate(0)"><tspan id="SvgjsTspan1413" dy="18.75" x="122.5"><tspan id="SvgjsTspan1414" style="">accounts/keystore/passphrase.</tspan></tspan><tspan id="SvgjsTspan1415" dy="18.75" x="122.5"><tspan id="SvgjsTspan1416" style="">go</tspan></tspan></text></g></g><g id="SvgjsG1417" transform="translate(693.0369542392596,104.81540069863203)"><path id="SvgjsPath1418" d="M 0 0L 235.2381145640063 0L 235.2381145640063 113.75L 0 113.75Z" stroke="none" fill="none"></path><g id="SvgjsG1419"><text id="SvgjsText1420" font-family="微软雅黑" text-anchor="start" font-size="15px" width="236px" fill="#323232" font-weight="400" align="middle" lineHeight="125%" anchor="start" family="微软雅黑" size="15px" weight="400" font-style="" opacity="1" y="-11.5" transform="rotate(0)"><tspan id="SvgjsTspan1421" dy="18.75" x="0"><tspan id="SvgjsTspan1422" style="">keysDirPath: </tspan></tspan><tspan id="SvgjsTspan1423" dy="18.75" x="0"><tspan id="SvgjsTspan1424" style="">/XXX_DATA/chain_data/keystore</tspan></tspan><tspan id="SvgjsTspan1425" dy="18.75" x="0"><tspan id="SvgjsTspan1426" style="">,</tspan></tspan><tspan id="SvgjsTspan1427" dy="18.75" x="0"><tspan id="SvgjsTspan1428" style=""> </tspan></tspan><tspan id="SvgjsTspan1429" dy="18.75" x="0"><tspan id="SvgjsTspan1430" style="">scryptN: 262144, </tspan></tspan><tspan id="SvgjsTspan1431" dy="18.75" x="0"><tspan id="SvgjsTspan1432" style="">scryptP: 1, </tspan></tspan><tspan id="SvgjsTspan1433" dy="18.75" x="0"><tspan id="SvgjsTspan1434" style="">skipKeyFileVerification: false</tspan></tspan></text></g></g><g id="SvgjsG1435"><path id="SvgjsPath1436" d="M466.45153831807545 211.97829708623877L673.7532406270824 121.44272862019542" stroke="#323232" stroke-width="1.5" fill="none" marker-end="url(#SvgjsMarker1437)"></path></g><g id="SvgjsG1439" transform="translate(383.94604514835055,263.6989234259046)"><path id="SvgjsPath1440" d="M 0 0L 74.54545454545456 0L 74.54545454545456 40L 0 40Z" stroke="none" fill="none"></path><g id="SvgjsG1441"><text id="SvgjsText1442" font-family="微软雅黑" text-anchor="middle" font-size="16px" width="75px" fill="#323232" font-weight="400" align="middle" lineHeight="125%" anchor="middle" family="微软雅黑" size="16px" weight="400" font-style="" opacity="1" y="6" transform="rotate(0)"><tspan id="SvgjsTspan1443" dy="20" x="37.5"><tspan id="SvgjsTspan1444" style="">cache</tspan></tspan></text></g></g><g id="SvgjsG1445" transform="translate(681.2187724210777,295.85233251681404)"><path id="SvgjsPath1446" d="M 0 4Q 0 0 4 0L 298.0000000000001 0Q 302.0000000000001 0 302.0000000000001 4L 302.0000000000001 303.0142045454541Q 302.0000000000001 307.0142045454541 298.0000000000001 307.0142045454541L 4 307.0142045454541Q 0 307.0142045454541 0 303.0142045454541Z" stroke="rgba(33,41,48,1)" stroke-width="1.5" fill-opacity="1" fill="#ffffff"></path><g id="SvgjsG1447"><text id="SvgjsText1448" font-family="微软雅黑" text-anchor="middle" font-size="14px" width="283px" fill="#323232" font-weight="400" align="middle" lineHeight="125%" anchor="middle" family="微软雅黑" size="14px" weight="400" font-style="" opacity="1" y="141.75710227272705" transform="rotate(0)"></text></g></g><g id="SvgjsG1449" transform="translate(751.7766052132858,263.6989234259046)"><path id="SvgjsPath1450" d="M 0 4Q 0 0 4 0L 122.77174165120607 0Q 126.77174165120607 0 126.77174165120607 4L 126.77174165120607 29.028409090909463Q 126.77174165120607 33.02840909090946 122.77174165120607 33.02840909090946L 4 33.02840909090946Q 0 33.02840909090946 0 29.028409090909463Z" stroke="rgba(33,41,48,1)" stroke-width="1.5" fill-opacity="1" fill="#ffffff"></path><g id="SvgjsG1451"><text id="SvgjsText1452" font-family="微软雅黑" text-anchor="middle" font-size="16px" width="107px" fill="#323232" font-weight="400" align="middle" lineHeight="125%" anchor="middle" family="微软雅黑" size="16px" weight="400" font-style="" opacity="1" y="2.5142045454547315" transform="rotate(0)"><tspan id="SvgjsTspan1453" dy="20" x="63.5"><tspan id="SvgjsTspan1454" style="">accountCache</tspan></tspan></text></g></g><g id="SvgjsG1455" transform="translate(699.4005906028959,296.10233251681404)"><path id="SvgjsPath1456" d="M 0 4Q 0 0 4 0L 228.72727272727275 0Q 232.72727272727275 0 232.72727272727275 4L 232.72727272727275 38.21874999999949Q 232.72727272727275 42.21874999999949 228.72727272727275 42.21874999999949L 4 42.21874999999949Q 0 42.21874999999949 0 38.21874999999949Z" stroke-dasharray="10,6" stroke="rgba(33,41,48,1)" stroke-width="1.5" fill-opacity="1" fill="#ffffff"></path><g id="SvgjsG1457"><text id="SvgjsText1458" font-family="微软雅黑" text-anchor="middle" font-size="15px" width="213px" fill="#323232" font-weight="400" align="middle" lineHeight="125%" anchor="middle" family="微软雅黑" size="15px" weight="400" font-style="" opacity="1" y="-0.7656250000002558" transform="rotate(0)"><tspan id="SvgjsTspan1459" dy="18.75" x="116.5"><tspan id="SvgjsTspan1460" style="">accounts/keystore/account_c</tspan></tspan><tspan id="SvgjsTspan1461" dy="18.75" x="116.5"><tspan id="SvgjsTspan1462" style="">ache.go</tspan></tspan></text></g></g><g id="SvgjsG1463" transform="translate(693.0369542392596,356.06540069863206)"><path id="SvgjsPath1464" d="M 0 0L 250.18181818181824 0L 250.18181818181824 48.75L 0 48.75Z" stroke="none" fill="none"></path><g id="SvgjsG1465"><text id="SvgjsText1466" font-family="微软雅黑" text-anchor="start" font-size="16px" width="251px" fill="#323232" font-weight="400" align="middle" lineHeight="125%" anchor="start" family="微软雅黑" size="16px" weight="400" font-style="" opacity="1" y="-9.625" transform="rotate(0)"><tspan id="SvgjsTspan1467" dy="20" x="0"><tspan id="SvgjsTspan1468" style="">keydir:</tspan></tspan><tspan id="SvgjsTspan1469" dy="20" x="0"><tspan id="SvgjsTspan1470" style=""> /XXX_DATA/chain_data/keystor</tspan></tspan><tspan id="SvgjsTspan1471" dy="20" x="0"><tspan id="SvgjsTspan1472" style="">e,</tspan></tspan></text></g></g><g id="SvgjsG1473" transform="translate(699.4005906028959,410.31255978954107)"><path id="SvgjsPath1474" d="M 0 0L 74.54545454545456 0L 74.54545454545456 40L 0 40Z" stroke="none" fill="none"></path><g id="SvgjsG1475"><text id="SvgjsText1476" font-family="微软雅黑" text-anchor="start" font-size="16px" width="75px" fill="#323232" font-weight="400" align="middle" lineHeight="125%" anchor="start" family="微软雅黑" size="16px" weight="400" font-style="" opacity="1" y="-4" transform="rotate(0)"><tspan id="SvgjsTspan1477" dy="20" x="0"><tspan id="SvgjsTspan1478" style="">watcher</tspan></tspan><tspan id="SvgjsTspan1479" dy="20" x="0"><tspan id="SvgjsTspan1480" style="">mu</tspan></tspan></text></g></g><g id="SvgjsG1481" transform="translate(693.0369542392596,450.79267342590447)"><path id="SvgjsPath1482" d="M 0 0L 296.18181818181824 0L 296.18181818181824 40L 0 40Z" stroke="none" fill="none"></path><g id="SvgjsG1483"><text id="SvgjsText1484" font-family="微软雅黑" text-anchor="start" font-size="16px" width="297px" fill="#323232" font-weight="400" align="middle" lineHeight="125%" anchor="start" family="微软雅黑" size="16px" weight="400" font-style="" opacity="1" y="-4" transform="rotate(0)"><tspan id="SvgjsTspan1485" dy="20" x="0"><tspan id="SvgjsTspan1486" style="">all: [ Account(0x1fa0), </tspan></tspan><tspan id="SvgjsTspan1487" dy="20" x="0"><tspan id="SvgjsTspan1488" style="">Account(0xcad2)],</tspan></tspan></text></g></g><g id="SvgjsG1489" transform="translate(693.0369542392596,484.30687797135886)"><path id="SvgjsPath1490" d="M 0 0L 250.18181818181824 0L 250.18181818181824 35.832386363636374L 0 35.832386363636374Z" stroke="none" fill="none"></path><g id="SvgjsG1491"><text id="SvgjsText1492" font-family="微软雅黑" text-anchor="start" font-size="16px" width="251px" fill="#323232" font-weight="400" align="middle" lineHeight="125%" anchor="start" family="微软雅黑" size="16px" weight="400" font-style="" opacity="1" y="3.916193181818187" transform="rotate(0)"><tspan id="SvgjsTspan1493" dy="20" x="0"><tspan id="SvgjsTspan1494" style="">byAddr: map()到Account的映射,</tspan></tspan></text></g></g><g id="SvgjsG1495" transform="translate(693.0369542392596,533.5377018349956)"><path id="SvgjsPath1496" d="M 0 0L 140 0L 140 40L 0 40Z" stroke="none" fill="none"></path><g id="SvgjsG1497"><text id="SvgjsText1498" font-family="微软雅黑" text-anchor="start" font-size="16px" width="140px" fill="#323232" font-weight="400" align="middle" lineHeight="125%" anchor="start" family="微软雅黑" size="16px" weight="400" font-style="" opacity="1" y="-14" transform="rotate(0)"><tspan id="SvgjsTspan1499" dy="20" x="0"><tspan id="SvgjsTspan1500" style="">throttle</tspan></tspan><tspan id="SvgjsTspan1501" dy="20" x="0"><tspan id="SvgjsTspan1502" style="">notify</tspan></tspan><tspan id="SvgjsTspan1503" dy="20" x="0"><tspan id="SvgjsTspan1504" style="">fileC</tspan></tspan></text></g></g><g id="SvgjsG1505"><path id="SvgjsPath1506" d="M459.23436345526596 283.8021388894176L680.0171677482966 314.4782879534238" stroke="#323232" stroke-width="1.5" fill="none" marker-end="url(#SvgjsMarker1507)"></path></g><g id="SvgjsG1509" transform="translate(391.2187724210778,316.06540069863206)"><path id="SvgjsPath1510" d="M 0 0L 74.54545454545456 0L 74.54545454545456 40L 0 40Z" stroke="none" fill="none"></path><g id="SvgjsG1511"><text id="SvgjsText1512" font-family="微软雅黑" text-anchor="middle" font-size="16px" width="75px" fill="#323232" font-weight="400" align="middle" lineHeight="125%" anchor="middle" family="微软雅黑" size="16px" weight="400" font-style="" opacity="1" y="6" transform="rotate(0)"><tspan id="SvgjsTspan1513" dy="20" x="37.5"><tspan id="SvgjsTspan1514" style="">changes</tspan></tspan></text></g></g><g id="SvgjsG1515" transform="translate(398.65653332089215,360.44040069863206)"><path id="SvgjsPath1516" d="M 0 0L 147.21643089053828 0L 147.21643089053828 40L 0 40Z" stroke="none" fill="none"></path><g id="SvgjsG1517"><text id="SvgjsText1518" font-family="微软雅黑" text-anchor="start" font-size="16px" width="148px" fill="#323232" font-weight="400" align="middle" lineHeight="125%" anchor="start" family="微软雅黑" size="16px" weight="400" font-style="" opacity="1" y="6" transform="rotate(0)"><tspan id="SvgjsTspan1519" dy="20" x="0"><tspan id="SvgjsTspan1520" style="">unlocked: map()空</tspan></tspan></text></g></g><g id="SvgjsG1521" transform="translate(391.49202149343404,423.7756279713591)"><path id="SvgjsPath1522" d="M 0 0L 179.72675092764376 0L 179.72675092764376 40L 0 40Z" stroke="none" fill="none"></path><g id="SvgjsG1523"><text id="SvgjsText1524" font-family="微软雅黑" text-anchor="start" font-size="16px" width="180px" fill="#323232" font-weight="400" align="middle" lineHeight="125%" anchor="start" family="微软雅黑" size="16px" weight="400" font-style="" opacity="1" y="6" transform="rotate(0)"><tspan id="SvgjsTspan1525" dy="20" x="0"><tspan id="SvgjsTspan1526" style="">wallets: [ 两个Account ]</tspan></tspan></text></g></g><g id="SvgjsG1527" transform="translate(25.00338512979738,275.4375597895412)"><path id="SvgjsPath1528" d="M 0 4Q 0 0 4 0L 234.3073399814475 0Q 238.3073399814475 0 238.3073399814475 4L 238.3073399814475 112.82291666666634Q 238.3073399814475 116.82291666666634 234.3073399814475 116.82291666666634L 4 116.82291666666634Q 0 116.82291666666634 0 112.82291666666634Z" stroke="rgba(33,41,48,1)" stroke-width="1.5" fill-opacity="1" fill="#ffffff"></path><g id="SvgjsG1529"><text id="SvgjsText1530" font-family="微软雅黑" text-anchor="middle" font-size="14px" width="219px" fill="#323232" font-weight="400" align="middle" lineHeight="125%" anchor="middle" family="微软雅黑" size="14px" weight="400" font-style="" opacity="1" y="46.66145833333317" transform="rotate(0)"></text></g></g><g id="SvgjsG1531" transform="translate(79.8561796566994,244.03983251681393)"><path id="SvgjsPath1532" d="M 0 4Q 0 0 4 0L 124.60175092764348 0Q 128.60175092764348 0 128.60175092764348 4L 128.60175092764348 27.647727272727337Q 128.60175092764348 31.647727272727337 124.60175092764348 31.647727272727337L 4 31.647727272727337Q 0 31.647727272727337 0 27.647727272727337Z" stroke="rgba(33,41,48,1)" stroke-width="1.5" fill-opacity="1" fill="#ffffff"></path><g id="SvgjsG1533"><text id="SvgjsText1534" font-family="微软雅黑" text-anchor="middle" font-size="16px" width="109px" fill="#323232" font-weight="400" align="middle" lineHeight="125%" anchor="middle" family="微软雅黑" size="16px" weight="400" font-style="" opacity="1" y="-8.176136363636331" transform="rotate(0)"><tspan id="SvgjsTspan1535" dy="20" x="64.5"><tspan id="SvgjsTspan1536" style="">keystoreWalle</tspan></tspan><tspan id="SvgjsTspan1537" dy="20" x="64.5"><tspan id="SvgjsTspan1538" style="">t</tspan></tspan></text></g></g><g id="SvgjsG1539" transform="translate(43.18520331161562,275.6875597895413)"><path id="SvgjsPath1540" d="M 0 4Q 0 0 4 0L 204.0454545454545 0Q 208.0454545454545 0 208.0454545454545 4L 208.0454545454545 21.73958333333286Q 208.0454545454545 25.73958333333286 204.0454545454545 25.73958333333286L 4 25.73958333333286Q 0 25.73958333333286 0 21.73958333333286Z" stroke-dasharray="10,6" stroke="rgba(33,41,48,1)" stroke-width="1.5" fill-opacity="1" fill="#ffffff"></path><g id="SvgjsG1541"><text id="SvgjsText1542" font-family="微软雅黑" text-anchor="middle" font-size="15px" width="189px" fill="#323232" font-weight="400" align="middle" lineHeight="125%" anchor="middle" family="微软雅黑" size="15px" weight="400" font-style="" opacity="1" y="-9.00520833333357" transform="rotate(0)"><tspan id="SvgjsTspan1543" dy="18.75" x="104.5"><tspan id="SvgjsTspan1544" style="">accounts/keystore/wallet.</tspan></tspan><tspan id="SvgjsTspan1545" dy="18.75" x="104.5"><tspan id="SvgjsTspan1546" style="">go</tspan></tspan></text></g></g><g id="SvgjsG1547" transform="translate(64.57156694797925,315.1790370622682)"><path id="SvgjsPath1548" d="M 0 0L 165.27272727272725 0L 165.27272727272725 41.77272727272771L 0 41.77272727272771Z" stroke="none" fill="none"></path><g id="SvgjsG1549"><text id="SvgjsText1550" font-family="微软雅黑" text-anchor="start" font-size="15px" width="166px" fill="#323232" font-weight="400" align="middle" lineHeight="125%" anchor="start" family="微软雅黑" size="15px" weight="400" font-style="" opacity="1" y="-0.9886363636361466" transform="rotate(0)"><tspan id="SvgjsTspan1551" dy="18.75" x="0"><tspan id="SvgjsTspan1552" style="">account: Account对象,</tspan></tspan><tspan id="SvgjsTspan1553" dy="18.75" x="0"><tspan id="SvgjsTspan1554" style="">keystore: 指回,</tspan></tspan></text></g></g><g id="SvgjsG1555"><path id="SvgjsPath1556" d="M390.6440559842108 443.2455765633166L264.4907206849126 364.38888690160456" stroke="#323232" stroke-width="1.5" fill="none" marker-end="url(#SvgjsMarker1557)"></path></g><g id="SvgjsG1559" transform="translate(1018.2187724210778,213.12505978954127)"><path id="SvgjsPath1560" d="M 0 4Q 0 0 4 0L 229 0Q 233 0 233 4L 233 310.101403061224Q 233 314.101403061224 229 314.101403061224L 4 314.101403061224Q 0 314.101403061224 0 310.101403061224Z" stroke="rgba(33,41,48,1)" stroke-width="1.5" fill-opacity="1" fill="#ffffff"></path><g id="SvgjsG1561"><text id="SvgjsText1562" font-family="微软雅黑" text-anchor="middle" font-size="14px" width="213px" fill="#323232" font-weight="400" align="middle" lineHeight="125%" anchor="middle" family="微软雅黑" size="14px" weight="400" font-style="" opacity="1" y="145.300701530612" transform="rotate(0)"></text></g></g><g id="SvgjsG1563" transform="translate(1088.7766052132858,180.9716506986318)"><path id="SvgjsPath1564" d="M 0 4Q 0 0 4 0L 114.37349257884898 0Q 118.37349257884898 0 118.37349257884898 4L 118.37349257884898 29.028409090909463Q 118.37349257884898 33.02840909090946 114.37349257884898 33.02840909090946L 4 33.02840909090946Q 0 33.02840909090946 0 29.028409090909463Z" stroke="rgba(33,41,48,1)" stroke-width="1.5" fill-opacity="1" fill="#ffffff"></path><g id="SvgjsG1565"><text id="SvgjsText1566" font-family="微软雅黑" text-anchor="middle" font-size="16px" width="99px" fill="#323232" font-weight="400" align="middle" lineHeight="125%" anchor="middle" family="微软雅黑" size="16px" weight="400" font-style="" opacity="1" y="2.5142045454547315" transform="rotate(0)"><tspan id="SvgjsTspan1567" dy="20" x="59.5"><tspan id="SvgjsTspan1568" style="">Account</tspan></tspan></text></g></g><g id="SvgjsG1569" transform="translate(1056.4005906028958,213.37505978954127)"><path id="SvgjsPath1570" d="M 0 4Q 0 0 4 0L 164.81818181818198 0Q 168.81818181818198 0 168.81818181818198 4L 168.81818181818198 30.218749999999545Q 168.81818181818198 34.218749999999545 164.81818181818198 34.218749999999545L 4 34.218749999999545Q 0 34.218749999999545 0 30.218749999999545Z" stroke-dasharray="10,6" stroke="rgba(33,41,48,1)" stroke-width="1.5" fill-opacity="1" fill="#ffffff"></path><g id="SvgjsG1571"><text id="SvgjsText1572" font-family="微软雅黑" text-anchor="middle" font-size="15px" width="149px" fill="#323232" font-weight="400" align="middle" lineHeight="125%" anchor="middle" family="微软雅黑" size="15px" weight="400" font-style="" opacity="1" y="4.734374999999773" transform="rotate(0)"><tspan id="SvgjsTspan1573" dy="18.75" x="84.5"><tspan id="SvgjsTspan1574" style="">accounts/account.go</tspan></tspan></text></g></g><g id="SvgjsG1575" transform="translate(1042.2892733487215,295.85233251681404)"><path id="SvgjsPath1576" d="M 0 0L 197.0408163265306 0L 197.0408163265306 162.5L 0 162.5Z" stroke="none" fill="none"></path><g id="SvgjsG1577"><text id="SvgjsText1578" font-family="微软雅黑" text-anchor="start" font-size="16px" width="198px" fill="#323232" font-weight="400" align="middle" lineHeight="125%" anchor="start" family="微软雅黑" size="16px" weight="400" font-style="" opacity="1" y="-42.75" transform="rotate(0)"><tspan id="SvgjsTspan1579" dy="20" x="0"><tspan id="SvgjsTspan1580" style="">Address: 0x1fa0...,</tspan></tspan><tspan id="SvgjsTspan1581" dy="20" x="0"><tspan id="SvgjsTspan1582" style=""> </tspan></tspan><tspan id="SvgjsTspan1583" dy="20" x="0"><tspan id="SvgjsTspan1584" style="">URL: {</tspan></tspan><tspan id="SvgjsTspan1585" dy="20" x="0"><tspan id="SvgjsTspan1586" style="">  Scheme: "keystore", </tspan></tspan><tspan id="SvgjsTspan1587" dy="20" x="0"><tspan id="SvgjsTspan1588" style="">    </tspan></tspan><tspan id="SvgjsTspan1589" dy="20" x="0"><tspan id="SvgjsTspan1590" style="">Path: "XXX_DATA/chain_d</tspan></tspan><tspan id="SvgjsTspan1591" dy="20" x="0"><tspan id="SvgjsTspan1592" style="">ata/keystore/UTC-</tspan></tspan><tspan id="SvgjsTspan1593" dy="20" x="0"><tspan id="SvgjsTspan1594" style="">-2023-09-14T02-06-</tspan></tspan><tspan id="SvgjsTspan1595" dy="20" x="0"><tspan id="SvgjsTspan1596" style="">08.120067000Z-</tspan></tspan><tspan id="SvgjsTspan1597" dy="20" x="0"><tspan id="SvgjsTspan1598" style="">-1fa0bb39d82a760ff8a53</tspan></tspan><tspan id="SvgjsTspan1599" dy="20" x="0"><tspan id="SvgjsTspan1600" style="">d1abbc544041bb8b546",</tspan></tspan><tspan id="SvgjsTspan1601" dy="20" x="0"><tspan id="SvgjsTspan1602" style="">} </tspan></tspan></text></g></g></svg>