<svg id="SvgjsSvg4014" width="929.078125" height="560.90625" xmlns="http://www.w3.org/2000/svg" version="1.1" xmlns:xlink="http://www.w3.org/1999/xlink" xmlns:svgjs="http://svgjs.com/svgjs"><defs id="SvgjsDefs4015"><pattern patternUnits="userSpaceOnUse" id="pattern_mark_0" width="300" height="300"><text x="150" y="100" fill="rgba(229,229,229,0.8)" font-size="18" transform="rotate(-45, 150, 150)" style="dominant-baseline: middle; text-anchor: middle;"></text></pattern><pattern patternUnits="userSpaceOnUse" id="pattern_mark_1" width="300" height="300"><text x="150" y="200" fill="rgba(229,229,229,0.8)" font-size="18" transform="rotate(-45, 150, 150)" style="dominant-baseline: middle; text-anchor: middle;"></text></pattern><marker id="SvgjsMarker4038" markerWidth="13" markerHeight="9" refX="9.5" refY="4.5" viewBox="0 0 13 9" orient="auto" markerUnits="userSpaceOnUse" stroke-dasharray="0,0"><path id="SvgjsPath4039" d="M0,0 L13,4.5 L0,9 L0,0" fill="#323232" stroke="#323232" stroke-width="1"></path></marker><marker id="SvgjsMarker4126" markerWidth="16" markerHeight="16" refX="13" refY="8" viewBox="0 0 16 16" orient="auto" markerUnits="userSpaceOnUse" stroke-dasharray="0,0"><circle id="SvgjsCircle4127" r="4" cx="8" cy="8" fill="#323232" stroke="#323232" stroke-width="1.5"></circle></marker><marker id="SvgjsMarker4130" markerWidth="16" markerHeight="16" refX="13" refY="8" viewBox="0 0 16 16" orient="auto" markerUnits="userSpaceOnUse" stroke-dasharray="0,0"><circle id="SvgjsCircle4131" r="4" cx="8" cy="8" fill="#323232" stroke="#323232" stroke-width="1.5"></circle></marker><marker id="SvgjsMarker4176" markerWidth="16" markerHeight="16" refX="13" refY="8" viewBox="0 0 16 16" orient="auto" markerUnits="userSpaceOnUse" stroke-dasharray="0,0"><circle id="SvgjsCircle4177" r="4" cx="8" cy="8" fill="#323232" stroke="#323232" stroke-width="1.5"></circle></marker></defs><rect id="svgbackgroundid" width="929.078125" height="560.90625" fill="transparent"></rect><rect id="SvgjsRect4017" width="929.078125" height="560.90625" fill="url(#pattern_mark_0)"></rect><rect id="SvgjsRect4018" width="929.078125" height="560.90625" fill="url(#pattern_mark_1)"></rect><g id="SvgjsG4019" transform="translate(30.581528310644615,177.1786294352296)"><path id="SvgjsPath4020" d="M 0 0L 70.28411989800105 0L 70.28411989800105 40L 0 40Z" stroke="none" fill="none"></path><g id="SvgjsG4021"><text id="SvgjsText4022" font-family="微软雅黑" text-anchor="middle" font-size="16px" width="71px" fill="#323232" font-weight="400" align="middle" lineHeight="125%" anchor="middle" family="微软雅黑" size="16px" weight="400" font-style="" opacity="1" y="6" transform="rotate(0)"><tspan id="SvgjsTspan4023" dy="20" x="35.5"><tspan id="SvgjsTspan4024" style="">.queue</tspan></tspan></text></g></g><g id="SvgjsG4025" transform="translate(100.86564820864567,125.3608249469089)"><path id="SvgjsPath4026" d="M 35.97060628319957 0Q 32.373545654879614 0 32.373545654879614 9L 32.373545654879614 61Q 32.373545654879614 70 13.970606283199572 70Q 32.373545654879614 70 32.373545654879614 79L 32.373545654879614 131Q 32.373545654879614 140 35.97060628319957 140" stroke="rgba(33,41,48,1)" stroke-width="1.5" fill="none"></path><path id="SvgjsPath4027" d="M 0 0L 35.97060628319957 0L 35.97060628319957 140L 0 140Z" stroke="none" fill="none"></path><g id="SvgjsG4028"><text id="SvgjsText4029" font-family="微软雅黑" text-anchor="end" font-size="13px" width="9px" fill="#323232" font-weight="400" align="middle" lineHeight="125%" anchor="end" family="微软雅黑" size="13px" weight="400" font-style="" opacity="1" y="59.375" transform="rotate(0)"></text></g></g><g id="SvgjsG4030" transform="translate(150.58152831064461,125.3608249469089)"><path id="SvgjsPath4031" d="M 0 0L 63.95636934566676 0L 63.95636934566676 40L 0 40Z" stroke="none" fill="none"></path><g id="SvgjsG4032"><text id="SvgjsText4033" font-family="微软雅黑" text-anchor="middle" font-size="16px" width="64px" fill="#323232" font-weight="400" align="middle" lineHeight="125%" anchor="middle" family="微软雅黑" size="16px" weight="400" font-style="" opacity="1" y="6" transform="rotate(0)"><tspan id="SvgjsTspan4034" dy="20" x="32"><tspan id="SvgjsTspan4035" style="">from</tspan></tspan></text></g></g><g id="SvgjsG4036"><path id="SvgjsPath4037" d="M215.28789765631137 145.3608249469089L267.1211025309766 145.3608249469089L267.1211025309766 145.3608249469089L319.70430740564177 145.3608249469089" stroke="#323232" stroke-width="1.5" fill="none" marker-end="url(#SvgjsMarker4038)"></path></g><g id="SvgjsG4040" transform="translate(330.9546106727535,100.31302130452423)"><path id="SvgjsPath4041" d="M 0 4Q 0 0 4 0L 222.9726182479651 0Q 226.9726182479651 0 226.9726182479651 4L 226.9726182479651 183.09308442069027Q 226.9726182479651 187.09308442069027 222.9726182479651 187.09308442069027L 4 187.09308442069027Q 0 187.09308442069027 0 183.09308442069027Z" stroke="rgba(33,41,48,1)" stroke-width="1.5" fill-opacity="1" fill="#ffffff"></path><g id="SvgjsG4042"><text id="SvgjsText4043" font-family="微软雅黑" text-anchor="middle" font-size="13px" width="207px" fill="#323232" font-weight="400" align="middle" lineHeight="125%" anchor="middle" family="微软雅黑" size="13px" weight="400" font-style="" opacity="1" y="82.92154221034514" transform="rotate(0)"></text></g></g><g id="SvgjsG4044" transform="translate(372.62273797855414,74.0219657334128)"><path id="SvgjsPath4045" d="M 0 4Q 0 0 4 0L 133.80211822016327 0Q 137.80211822016327 0 137.80211822016327 4L 137.80211822016327 24.282099175474514Q 137.80211822016327 28.282099175474514 133.80211822016327 28.282099175474514L 4 28.282099175474514Q 0 28.282099175474514 0 24.282099175474514Z" stroke="rgba(33,41,48,1)" stroke-width="1.5" fill-opacity="1" fill="#ffffff"></path><g id="SvgjsG4046"><text id="SvgjsText4047" font-family="微软雅黑" text-anchor="middle" font-size="16px" width="118px" fill="#323232" font-weight="400" align="middle" lineHeight="125%" anchor="middle" family="微软雅黑" size="16px" weight="400" font-style="" opacity="1" y="0.14104958773725684" transform="rotate(0)"><tspan id="SvgjsTspan4048" dy="20" x="69"><tspan id="SvgjsTspan4049" style="">txList</tspan></tspan></text></g></g><g id="SvgjsG4050" transform="translate(348.7715442578613,101.93887164465923)"><path id="SvgjsPath4051" d="M 0 4Q 0 0 4 0L 187.33875107774952 0Q 191.33875107774952 0 191.33875107774952 4L 191.33875107774952 25.647292439702937Q 191.33875107774952 29.647292439702937 187.33875107774952 29.647292439702937L 4 29.647292439702937Q 0 29.647292439702937 0 25.647292439702937Z" stroke-dasharray="10,6,3,6" stroke="rgba(33,41,48,1)" stroke-width="1.5" fill-opacity="1" fill="#ffffff"></path><g id="SvgjsG4052"><text id="SvgjsText4053" font-family="微软雅黑" text-anchor="middle" font-size="15px" width="172px" fill="#323232" font-weight="400" align="middle" lineHeight="125%" anchor="middle" family="微软雅黑" size="15px" weight="400" font-style="" opacity="1" y="2.4486462198514687" transform="rotate(0)"><tspan id="SvgjsTspan4054" dy="18.75" x="96"><tspan id="SvgjsTspan4055" style="fill: rgb(50, 50, 50);">core/tx_list.go</tspan></tspan></text></g></g><g id="SvgjsG4056" transform="translate(360.7304568728667,153.9858249469089)"><path id="SvgjsPath4057" d="M 0 0L 124.42768002748596 0L 124.42768002748596 41.945047601841L 0 41.945047601841Z" stroke="none" fill="none"></path><g id="SvgjsG4058"><text id="SvgjsText4059" font-family="微软雅黑" text-anchor="start" font-size="16px" width="125px" fill="#323232" font-weight="400" align="middle" lineHeight="125%" anchor="start" family="微软雅黑" size="16px" weight="400" font-style="" opacity="1" y="-3.0274761990795014" transform="rotate(0)"><tspan id="SvgjsTspan4060" dy="20" x="0"><tspan id="SvgjsTspan4061" style="">strict: false,</tspan></tspan><tspan id="SvgjsTspan4062" dy="20" x="0"><tspan id="SvgjsTspan4063" style="">costcap: 空盒子,</tspan></tspan></text></g></g><g id="SvgjsG4064" transform="translate(362.65719815287605,200.2858831892063)"><path id="SvgjsPath4065" d="M 0 0L 52.876136054354106 0L 52.876136054354106 33.0274761990795L 0 33.0274761990795Z" stroke="none" fill="none"></path><g id="SvgjsG4066"><text id="SvgjsText4067" font-family="微软雅黑" text-anchor="start" font-size="16px" width="53px" fill="#323232" font-weight="400" align="middle" lineHeight="125%" anchor="start" family="微软雅黑" size="16px" weight="400" font-style="" opacity="1" y="2.5137380995397507" transform="rotate(0)"><tspan id="SvgjsTspan4068" dy="20" x="0"><tspan id="SvgjsTspan4069" style="">txs</tspan></tspan></text></g></g><g id="SvgjsG4070" transform="translate(591.965937960063,51.31302130452423)"><path id="SvgjsPath4071" d="M 0 4Q 0 0 4 0L 222.9726182479651 0Q 226.9726182479651 0 226.9726182479651 4L 226.9726182479651 183.09308442069027Q 226.9726182479651 187.09308442069027 222.9726182479651 187.09308442069027L 4 187.09308442069027Q 0 187.09308442069027 0 183.09308442069027Z" stroke="rgba(33,41,48,1)" stroke-width="1.5" fill-opacity="1" fill="#ffffff"></path><g id="SvgjsG4072"><text id="SvgjsText4073" font-family="微软雅黑" text-anchor="middle" font-size="13px" width="207px" fill="#323232" font-weight="400" align="middle" lineHeight="125%" anchor="middle" family="微软雅黑" size="13px" weight="400" font-style="" opacity="1" y="82.92154221034514" transform="rotate(0)"></text></g></g><g id="SvgjsG4074" transform="translate(633.6340652658637,25.0219657334128)"><path id="SvgjsPath4075" d="M 0 4Q 0 0 4 0L 133.80211822016327 0Q 137.80211822016327 0 137.80211822016327 4L 137.80211822016327 24.282099175474514Q 137.80211822016327 28.282099175474514 133.80211822016327 28.282099175474514L 4 28.282099175474514Q 0 28.282099175474514 0 24.282099175474514Z" stroke="rgba(33,41,48,1)" stroke-width="1.5" fill-opacity="1" fill="#ffffff"></path><g id="SvgjsG4076"><text id="SvgjsText4077" font-family="微软雅黑" text-anchor="middle" font-size="16px" width="118px" fill="#323232" font-weight="400" align="middle" lineHeight="125%" anchor="middle" family="微软雅黑" size="16px" weight="400" font-style="" opacity="1" y="0.14104958773725684" transform="rotate(0)"><tspan id="SvgjsTspan4078" dy="20" x="69"><tspan id="SvgjsTspan4079" style="">txSortedMap</tspan></tspan></text></g></g><g id="SvgjsG4080" transform="translate(609.7828715451708,52.93887164465923)"><path id="SvgjsPath4081" d="M 0 4Q 0 0 4 0L 187.33875107774952 0Q 191.33875107774952 0 191.33875107774952 4L 191.33875107774952 25.647292439702937Q 191.33875107774952 29.647292439702937 187.33875107774952 29.647292439702937L 4 29.647292439702937Q 0 29.647292439702937 0 25.647292439702937Z" stroke-dasharray="10,6,3,6" stroke="rgba(33,41,48,1)" stroke-width="1.5" fill-opacity="1" fill="#ffffff"></path><g id="SvgjsG4082"><text id="SvgjsText4083" font-family="微软雅黑" text-anchor="middle" font-size="15px" width="172px" fill="#323232" font-weight="400" align="middle" lineHeight="125%" anchor="middle" family="微软雅黑" size="15px" weight="400" font-style="" opacity="1" y="2.4486462198514687" transform="rotate(0)"><tspan id="SvgjsTspan4084" dy="18.75" x="96"><tspan id="SvgjsTspan4085" style="fill: rgb(50, 50, 50);">core/tx_list.go</tspan></tspan></text></g></g><g id="SvgjsG4086" transform="translate(621.7417841601762,105.9583487478294)"><path id="SvgjsPath4087" d="M 0 0L 124.42768002748596 0L 124.42768002748596 40L 0 40Z" stroke="none" fill="none"></path><g id="SvgjsG4088"><text id="SvgjsText4089" font-family="微软雅黑" text-anchor="start" font-size="16px" width="125px" fill="#323232" font-weight="400" align="middle" lineHeight="125%" anchor="start" family="微软雅黑" size="16px" weight="400" font-style="" opacity="1" y="6" transform="rotate(0)"><tspan id="SvgjsTspan4090" dy="20" x="0"><tspan id="SvgjsTspan4091" style="">items: map(0),</tspan></tspan></text></g></g><g id="SvgjsG4092" transform="translate(617.9409294453105,147.36678896216836)"><path id="SvgjsPath4093" d="M 0 0L 52.876136054354106 0L 52.876136054354106 40L 0 40Z" stroke="none" fill="none"></path><g id="SvgjsG4094"><text id="SvgjsText4095" font-family="微软雅黑" text-anchor="start" font-size="16px" width="53px" fill="#323232" font-weight="400" align="middle" lineHeight="125%" anchor="start" family="微软雅黑" size="16px" weight="400" font-style="" opacity="1" y="6" transform="rotate(0)"><tspan id="SvgjsTspan4096" dy="20" x="0"><tspan id="SvgjsTspan4097" style="">index</tspan></tspan></text></g></g><g id="SvgjsG4098" transform="translate(766.0875462894555,115.65057383479689)"><path id="SvgjsPath4099" d="M 0 4Q 0 0 4 0L 133.74473279911285 0Q 137.74473279911285 0 137.74473279911285 4L 137.74473279911285 78.92626739977732Q 137.74473279911285 82.92626739977732 133.74473279911285 82.92626739977732L 4 82.92626739977732Q 0 82.92626739977732 0 78.92626739977732Z" stroke="rgba(33,41,48,1)" stroke-width="1.5" fill-opacity="1" fill="#ffffff"></path><g id="SvgjsG4100"><text id="SvgjsText4101" font-family="微软雅黑" text-anchor="middle" font-size="13px" width="118px" fill="#323232" font-weight="400" align="middle" lineHeight="125%" anchor="middle" family="微软雅黑" size="13px" weight="400" font-style="" opacity="1" y="30.838133699888658" transform="rotate(0)"><tspan id="SvgjsTspan4102" dy="16.25" x="69"><tspan id="SvgjsTspan4103" style="">从小到大的堆</tspan></tspan></text></g></g><g id="SvgjsG4104" transform="translate(785.8633924895687,89.35951826368546)"><path id="SvgjsPath4105" d="M 0 4Q 0 0 4 0L 99.88203760584781 0Q 103.88203760584781 0 103.88203760584781 4L 103.88203760584781 24.282099175474514Q 103.88203760584781 28.282099175474514 99.88203760584781 28.282099175474514L 4 28.282099175474514Q 0 28.282099175474514 0 24.282099175474514Z" stroke="rgba(33,41,48,1)" stroke-width="1.5" fill-opacity="1" fill="#ffffff"></path><g id="SvgjsG4106"><text id="SvgjsText4107" font-family="微软雅黑" text-anchor="middle" font-size="16px" width="84px" fill="#323232" font-weight="400" align="middle" lineHeight="125%" anchor="middle" family="微软雅黑" size="16px" weight="400" font-style="" opacity="1" y="0.14104958773725684" transform="rotate(0)"><tspan id="SvgjsTspan4108" dy="20" x="52"><tspan id="SvgjsTspan4109" style="">nonceHeap</tspan></tspan></text></g></g><g id="SvgjsG4110" transform="translate(774.9748154158381,117.27642417493189)"><path id="SvgjsPath4111" d="M 0 4Q 0 0 4 0L 115.9701945463479 0Q 119.9701945463479 0 119.9701945463479 4L 119.9701945463479 25.647292439702937Q 119.9701945463479 29.647292439702937 115.9701945463479 29.647292439702937L 4 29.647292439702937Q 0 29.647292439702937 0 25.647292439702937Z" stroke-dasharray="10,6,3,6" stroke="rgba(33,41,48,1)" stroke-width="1.5" fill-opacity="1" fill="#ffffff"></path><g id="SvgjsG4112"><text id="SvgjsText4113" font-family="微软雅黑" text-anchor="middle" font-size="15px" width="100px" fill="#323232" font-weight="400" align="middle" lineHeight="125%" anchor="middle" family="微软雅黑" size="15px" weight="400" font-style="" opacity="1" y="-7.051353780148531" transform="rotate(0)"><tspan id="SvgjsTspan4114" dy="18.75" x="60"><tspan id="SvgjsTspan4115" style="fill: rgb(50, 50, 50);">core/tx_list.g</tspan></tspan><tspan id="SvgjsTspan4116" dy="18.75" x="60"><tspan id="SvgjsTspan4117" style="fill: rgb(50, 50, 50);">o</tspan></tspan></text></g></g><g id="SvgjsG4118" transform="translate(795.8633924895685,198.46326784591656)"><path id="SvgjsPath4119" d="M 0 4Q 0 0 4 0L 74.19304039888698 0Q 78.19304039888698 0 78.19304039888698 4L 78.19304039888698 24.282099175474514Q 78.19304039888698 28.282099175474514 74.19304039888698 28.282099175474514L 4 28.282099175474514Q 0 28.282099175474514 0 24.282099175474514Z" stroke="rgba(33,41,48,1)" stroke-width="1.5" fill-opacity="1" fill="#ffffff"></path><g id="SvgjsG4120"><text id="SvgjsText4121" font-family="微软雅黑" text-anchor="middle" font-size="16px" width="59px" fill="#323232" font-weight="400" align="middle" lineHeight="125%" anchor="middle" family="微软雅黑" size="16px" weight="400" font-style="" opacity="1" y="0.14104958773725684" transform="rotate(0)"><tspan id="SvgjsTspan4122" dy="20" x="39.5"><tspan id="SvgjsTspan4123" style="">[]uint64</tspan></tspan></text></g></g><g id="SvgjsG4124"><path id="SvgjsPath4125" d="M671.5659617722281 167.40746294575092L765.2476375502896 172.49549326740907" stroke="#323232" stroke-width="1.5" fill="none" marker-end="url(#SvgjsMarker4126)"></path></g><g id="SvgjsG4128"><path id="SvgjsPath4129" d="M416.2771229831125 216.7032975799757L590.6327968380816 194.1235199662915" stroke="#323232" stroke-width="1.5" fill="none" marker-end="url(#SvgjsMarker4130)"></path></g><g id="SvgjsG4132"><path id="SvgjsPath4133" d="M806.359375 251.625L861.9640185314207 343.625" stroke-dasharray="10,5,3,5" stroke="#323232" stroke-width="1.5" fill="none"></path></g><g id="SvgjsG4134"><path id="SvgjsPath4135" d="M609.359375 253.625L569.359375 345.625" stroke-dasharray="10,5,3,5" stroke="#323232" stroke-width="1.5" fill="none"></path></g><g id="SvgjsG4136" transform="translate(609.7828715451708,287.40610572521473)"><path id="SvgjsPath4137" d="M 0 0L 200.50401748956847 0L 200.50401748956847 41.565313465592226L 0 41.565313465592226Z" stroke="none" fill="none"></path><g id="SvgjsG4138"><text id="SvgjsText4139" font-family="微软雅黑" text-anchor="start" font-size="16px" width="201px" fill="#323232" font-weight="400" align="middle" lineHeight="125%" anchor="start" family="微软雅黑" size="16px" weight="400" font-style="" opacity="1" y="-3.217343267203887" transform="rotate(0)"><tspan id="SvgjsTspan4140" dy="20" x="0"><tspan id="SvgjsTspan4141" style="fill: rgb(231, 79, 76);">items:0 --------&gt; tx</tspan></tspan></text></g></g><g id="SvgjsG4142" transform="translate(24.99626059068038,469.12643734296944)"><path id="SvgjsPath4143" d="M 0 0L 46.8258928572607 0L 46.8258928572607 40L 0 40Z" stroke="none" fill="none"></path><g id="SvgjsG4144"><text id="SvgjsText4145" font-family="微软雅黑" text-anchor="middle" font-size="16px" width="47px" fill="#323232" font-weight="400" align="middle" lineHeight="125%" anchor="middle" family="微软雅黑" size="16px" weight="400" font-style="" opacity="1" y="6" transform="rotate(0)"><tspan id="SvgjsTspan4146" dy="20" x="23.5"><tspan id="SvgjsTspan4147" style="">.all</tspan></tspan></text></g></g><g id="SvgjsG4148" transform="translate(134.40632864158687,426.8499633045685)"><path id="SvgjsPath4149" d="M 0 4Q 0 0 4 0L 201.71683673468874 0Q 205.71683673468874 0 205.71683673468874 4L 205.71683673468874 97.17857142856428Q 205.71683673468874 101.17857142856428 201.71683673468874 101.17857142856428L 4 101.17857142856428Q 0 101.17857142856428 0 97.17857142856428Z" stroke="rgba(33,41,48,1)" stroke-width="1.5" fill-opacity="1" fill="#ffffff"></path><g id="SvgjsG4150"><text id="SvgjsText4151" font-family="微软雅黑" text-anchor="middle" font-size="13px" width="186px" fill="#323232" font-weight="400" align="middle" lineHeight="125%" anchor="middle" family="微软雅黑" size="13px" weight="400" font-style="" opacity="1" y="39.96428571428214" transform="rotate(0)"></text></g></g><g id="SvgjsG4152" transform="translate(176.17390000434239,396.7071061617107)"><path id="SvgjsPath4153" d="M 0 4Q 0 0 4 0L 117.4285714285711 0Q 121.4285714285711 0 121.4285714285711 4L 121.4285714285711 25.18367346938794Q 121.4285714285711 29.18367346938794 117.4285714285711 29.18367346938794L 4 29.18367346938794Q 0 29.18367346938794 0 25.18367346938794Z" stroke="rgba(33,41,48,1)" stroke-width="1.5" fill-opacity="1" fill="#ffffff"></path><g id="SvgjsG4154"><text id="SvgjsText4155" font-family="微软雅黑" text-anchor="middle" font-size="15px" width="102px" fill="#323232" font-weight="400" align="middle" lineHeight="125%" anchor="middle" family="微软雅黑" size="15px" weight="400" font-style="" opacity="1" y="2.2168367346939704" transform="rotate(0)"><tspan id="SvgjsTspan4156" dy="18.75" x="61"><tspan id="SvgjsTspan4157" style="">txLookup</tspan></tspan></text></g></g><g id="SvgjsG4158" transform="translate(168.607859253833,426.9111877943642)"><path id="SvgjsPath4159" d="M 0 4Q 0 0 4 0L 132.1158738993496 0Q 136.1158738993496 0 136.1158738993496 4L 136.1158738993496 27.717267617798825Q 136.1158738993496 31.717267617798825 132.1158738993496 31.717267617798825L 4 31.717267617798825Q 0 31.717267617798825 0 27.717267617798825Z" stroke-dasharray="10,6,3,6" stroke="rgba(33,41,48,1)" stroke-width="1.5" fill-opacity="1" fill="#ffffff"></path><g id="SvgjsG4160"><text id="SvgjsText4161" font-family="微软雅黑" text-anchor="middle" font-size="15px" width="117px" fill="#323232" font-weight="400" align="middle" lineHeight="125%" anchor="middle" family="微软雅黑" size="15px" weight="400" font-style="" opacity="1" y="3.4836338088994125" transform="rotate(0)"><tspan id="SvgjsTspan4162" dy="18.75" x="68.5"><tspan id="SvgjsTspan4163" style="fill: rgb(50, 50, 50);">core/tx_pool.go</tspan></tspan></text></g></g><g id="SvgjsG4164" transform="translate(160.30938986606486,454.9201163657881)"><path id="SvgjsPath4165" d="M 0 0L 144.73979591834814 0L 144.73979591834814 81.25L 0 81.25Z" stroke="none" fill="none"></path><g id="SvgjsG4166"><text id="SvgjsText4167" font-family="微软雅黑" text-anchor="start" font-size="15px" width="145px" fill="#323232" font-weight="400" align="middle" lineHeight="125%" anchor="start" family="微软雅黑" size="15px" weight="400" font-style="" opacity="1" y="9.75" transform="rotate(0)"><tspan id="SvgjsTspan4168" dy="18.75" x="0"><tspan id="SvgjsTspan4169" style="">locals: map(),</tspan></tspan><tspan id="SvgjsTspan4170" dy="18.75" x="0"><tspan id="SvgjsTspan4171" style="">remotes: map(),</tspan></tspan><tspan id="SvgjsTspan4172" dy="18.75" x="0"><tspan id="SvgjsTspan4173" style="">slots: 0,</tspan></tspan></text></g></g><g id="SvgjsG4174"><path id="SvgjsPath4175" d="M72.52485674695313 488.8643150937087L133.41993562537542 466.1492444985215" stroke="#323232" stroke-width="1.5" fill="none" marker-end="url(#SvgjsMarker4176)"></path></g><g id="SvgjsG4178"><path id="SvgjsPath4179" d="M360.359375 422.625L426.48120719160033 398.625" stroke-dasharray="10,5,3,5" stroke="#323232" stroke-width="1.5" fill="none"></path></g><g id="SvgjsG4180"><path id="SvgjsPath4181" d="M363.359375 521.625L453.29433521745716 528.0285347331328" stroke-dasharray="10,5,3,5" stroke="#323232" stroke-width="1.5" fill="none"></path></g><g id="SvgjsG4182" transform="translate(368.2378639974254,433.625)"><path id="SvgjsPath4183" d="M 0 0L 210.7280739626376 0L 210.7280739626376 61.851485691012385L 0 61.851485691012385Z" stroke="none" fill="none"></path><g id="SvgjsG4184"><text id="SvgjsText4185" font-family="微软雅黑" text-anchor="start" font-size="16px" width="211px" fill="#323232" font-weight="400" align="middle" lineHeight="125%" anchor="start" family="微软雅黑" size="16px" weight="400" font-style="" opacity="1" y="6.925742845506193" transform="rotate(0)"><tspan id="SvgjsTspan4186" dy="20" x="0"><tspan id="SvgjsTspan4187" style="fill: rgb(231, 79, 76);">locals:hash --------&gt; tx</tspan></tspan></text></g></g><g id="SvgjsG4188"><path id="SvgjsPath4189" d="M362.359375 522.625L452.29433521745716 529.0285347331328" stroke-dasharray="10,5,3,5" stroke="#323232" stroke-width="1.5" fill="none"></path></g></svg>